<svg width="1920" height="1014" viewBox="0 0 1920 1014" fill="none" xmlns="http://www.w3.org/2000/svg">
<g clip-path="url(#clip0_207_143)">
<rect y="-1009" width="1920" height="2035" fill="#0C0C0C"/>
<g filter="url(#filter0_f_207_143)">
<circle cx="146" cy="-45" r="403" fill="url(#paint0_linear_207_143)"/>
</g>
<g filter="url(#filter1_f_207_143)">
<circle cx="1834" cy="-492" r="342" fill="url(#paint1_linear_207_143)"/>
</g>
<g filter="url(#filter2_f_207_143)">
<path opacity="0.010101" d="M941.877 439.388L804.301 698.131C800.131 705.972 801.485 715.607 807.655 721.995L1011.22 932.794C1017.39 939.183 1026.97 940.872 1034.95 936.979L1298.34 808.516C1306.32 804.623 1310.89 796.033 1309.65 787.238L1268.87 497.045C1267.63 488.251 1260.88 481.252 1252.13 479.71L963.537 428.823C954.791 427.281 946.046 431.546 941.877 439.388Z" stroke="url(#paint2_linear_207_143)"/>
<path opacity="0.020202" d="M943.186 438.653L801.4 694.441C797.094 702.209 798.28 711.866 804.337 718.361L1003.79 932.25C1009.85 938.745 1019.4 940.602 1027.45 936.849L1292.5 813.251C1300.55 809.498 1305.27 800.988 1304.19 792.173L1268.55 501.896C1267.46 493.081 1260.83 485.966 1252.11 484.271L965.027 428.468C956.309 426.773 947.491 430.885 943.186 438.653Z" stroke="url(#paint3_linear_207_143)"/>
<path opacity="0.030303" d="M944.516 437.997L798.582 690.763C794.141 698.455 795.158 708.131 801.101 714.731L996.399 931.632C1002.34 938.232 1011.86 940.254 1019.97 936.642L1286.61 817.928C1294.72 814.316 1299.59 805.89 1298.66 797.058L1268.15 506.788C1267.22 497.955 1260.71 490.725 1252.02 488.878L966.532 428.195C957.845 426.349 948.957 430.306 944.516 437.997Z" stroke="url(#paint4_linear_207_143)"/>
<path opacity="0.040404" d="M945.867 437.422L795.846 687.099C791.272 694.712 792.12 704.404 797.946 711.106L989.044 930.939C994.871 937.642 1004.35 939.83 1012.53 936.36L1280.65 822.548C1288.83 819.078 1293.84 810.738 1293.06 801.891L1267.68 511.718C1266.9 502.87 1260.52 495.528 1251.87 493.53L968.05 428.006C959.397 426.008 950.441 429.81 945.867 437.422Z" stroke="url(#paint5_linear_207_143)"/>
<path opacity="0.050505" d="M947.237 436.926L793.193 683.448C788.486 690.98 789.165 700.685 794.874 707.489L981.728 930.173C987.436 936.976 996.877 939.33 1005.11 936.003L1274.64 827.107C1282.87 823.78 1288.03 815.53 1287.41 806.67L1267.13 516.685C1266.51 507.825 1260.26 500.372 1251.64 498.224L969.581 427.899C960.964 425.75 951.943 429.395 947.237 436.926Z" stroke="url(#paint6_linear_207_143)"/>
<path opacity="0.0606061" d="M948.623 436.509L790.62 679.812C785.783 687.26 786.293 696.976 791.882 703.878L974.451 929.333C980.04 936.235 989.438 938.753 997.729 935.57L1268.57 831.605C1276.86 828.423 1282.16 820.263 1281.69 811.394L1266.51 521.686C1266.04 512.817 1259.92 505.256 1251.34 502.958L971.122 427.873C962.543 425.574 953.46 429.061 948.623 436.509Z" stroke="url(#paint7_linear_207_143)"/>
<path opacity="0.0707071" d="M950.027 436.172L788.13 676.193C783.164 683.556 783.503 693.279 788.971 700.277L967.216 928.421C972.684 935.419 982.036 938.101 990.382 935.063L1262.44 836.042C1270.79 833.005 1276.23 824.939 1275.92 816.063L1265.81 526.722C1265.5 517.846 1259.51 510.179 1250.97 507.731L972.672 427.929C964.135 425.481 954.993 428.809 950.027 436.172Z" stroke="url(#paint8_linear_207_143)"/>
<path opacity="0.0808081" d="M951.443 435.915L785.72 672.593C780.626 679.868 780.795 689.596 786.14 696.689L960.023 927.438C965.368 934.531 974.672 937.376 983.069 934.484L1256.26 840.418C1264.66 837.527 1270.24 829.557 1270.08 820.677L1265.04 531.791C1264.88 522.911 1259.03 515.141 1250.53 512.545L974.229 428.07C965.736 425.473 956.537 428.64 951.443 435.915Z" stroke="url(#paint9_linear_207_143)"/>
<path opacity="0.0909091" d="M952.874 435.739L783.39 669.012C778.17 676.197 778.17 685.927 783.39 693.112L952.874 926.385C958.094 933.57 967.347 936.577 975.793 933.833L1250.02 844.73C1258.47 841.985 1264.19 834.114 1264.19 825.233V536.891C1264.19 528.01 1258.47 520.139 1250.02 517.394L975.793 428.292C967.347 425.547 958.094 428.554 952.874 435.739Z" stroke="url(#paint10_linear_207_143)"/>
<path opacity="0.10101" d="M954.315 435.641L781.14 665.452C775.795 672.545 775.626 682.273 780.72 689.548L945.769 925.262C950.863 932.537 960.062 935.705 968.555 933.108L1243.74 848.977C1252.23 846.38 1258.08 838.61 1258.24 829.731L1263.26 542.02C1263.42 533.14 1257.84 525.17 1249.44 522.279L977.361 428.595C968.964 425.704 959.66 428.548 954.315 435.641Z" stroke="url(#paint11_linear_207_143)"/>
<path opacity="0.111111" d="M955.767 435.625L778.97 661.916C773.502 668.914 773.163 678.638 778.129 686L938.71 924.072C943.677 931.435 952.819 934.763 961.356 932.315L1237.4 853.161C1245.94 850.713 1251.93 843.046 1252.24 834.17L1262.26 547.179C1262.57 538.303 1257.13 530.237 1248.78 527.199L978.933 428.983C970.587 425.945 961.235 428.627 955.767 435.625Z" stroke="url(#paint12_linear_207_143)"/>
<path opacity="0.121212" d="M957.228 435.688L776.878 658.402C771.288 665.304 770.779 675.02 775.616 682.468L931.698 922.813C936.535 930.262 945.618 933.748 954.197 931.45L1231.01 857.278C1239.59 854.979 1245.71 847.418 1246.18 838.549L1261.18 552.363C1261.64 543.494 1256.34 535.334 1248.05 532.152L980.506 429.451C972.214 426.268 962.817 428.786 957.228 435.688Z" stroke="url(#paint13_linear_207_143)"/>
<path opacity="0.131313" d="M958.695 435.833L774.864 654.915C769.155 661.718 768.477 671.423 773.183 678.955L924.735 921.489C929.441 929.021 938.462 932.666 947.079 930.517L1224.58 861.329C1233.19 859.181 1239.45 851.728 1240.07 842.868L1260.02 557.574C1260.64 548.714 1255.48 540.464 1247.25 537.137L982.079 430.002C973.844 426.675 964.404 429.029 958.695 435.833Z" stroke="url(#paint14_linear_207_143)"/>
<path opacity="0.141414" d="M960.169 436.057L772.927 651.453C767.101 658.156 766.253 667.848 770.827 675.461L917.821 920.099C922.395 927.712 931.351 931.513 940.004 929.516L1218.09 865.314C1226.75 863.316 1233.13 855.973 1233.9 847.126L1258.78 562.809C1259.55 553.961 1254.54 545.622 1246.37 542.151L983.65 430.636C975.475 427.165 965.995 429.354 960.169 436.057Z" stroke="url(#paint15_linear_207_143)"/>
<path opacity="0.151515" d="M961.647 436.36L771.068 648.02C765.126 654.619 764.109 664.295 768.549 671.987L910.957 918.644C915.398 926.336 924.286 930.293 932.973 928.446L1211.56 869.23C1220.25 867.383 1226.76 860.153 1227.69 851.321L1257.46 568.065C1258.39 559.233 1253.52 550.807 1245.41 547.195L985.22 431.35C977.106 427.737 967.59 429.76 961.647 436.36Z" stroke="url(#paint16_linear_207_143)"/>
<path opacity="0.161616" d="M963.128 436.744L769.285 644.615C763.228 651.111 762.042 660.767 766.348 668.535L904.144 917.126C908.45 924.894 917.268 929.006 925.985 927.311L1204.99 873.078C1213.71 871.383 1220.34 864.268 1221.43 855.453L1256.07 573.344C1257.15 564.529 1252.43 556.019 1244.38 552.266L986.784 432.146C978.735 428.393 969.185 430.249 963.128 436.744Z" stroke="url(#paint17_linear_207_143)"/>
<path opacity="0.171717" d="M964.61 437.209L767.577 641.242C761.407 647.631 760.053 657.265 764.223 665.107L897.384 915.546C901.553 923.388 910.298 927.653 919.044 926.111L1198.37 876.857C1207.12 875.315 1213.88 868.316 1215.12 859.522L1254.59 578.642C1255.83 569.847 1251.26 561.257 1243.28 557.364L988.343 433.024C980.36 429.131 970.779 430.82 964.61 437.209Z" stroke="url(#paint18_linear_207_143)"/>
<path opacity="0.181818" d="M966.092 437.752L765.944 637.901C759.664 644.181 758.142 653.79 762.174 661.703L890.677 913.904C894.709 921.818 903.378 926.235 912.15 924.845L1191.72 880.566C1200.49 879.177 1207.37 872.297 1208.76 863.525L1253.04 583.958C1254.43 575.186 1250.01 566.517 1242.1 562.485L989.895 433.982C981.981 429.951 972.372 431.472 966.092 437.752Z" stroke="url(#paint19_linear_207_143)"/>
<path opacity="0.191919" d="M967.573 438.376L764.385 634.592C757.996 640.762 756.307 650.343 760.2 658.325L884.024 912.203C887.917 920.185 896.508 924.753 905.303 923.517L1185.02 884.205C1193.81 882.969 1200.81 876.211 1202.35 867.465L1251.4 589.291C1252.95 580.545 1248.68 571.801 1240.84 567.631L991.437 435.022C983.596 430.853 973.961 432.207 967.573 438.376Z" stroke="url(#paint20_linear_207_143)"/>
<path opacity="0.20202" d="M969.051 439.077L762.9 631.317C756.404 637.374 754.548 646.924 758.301 654.973L877.428 910.44C881.181 918.489 889.69 923.206 898.505 922.124L1178.28 887.772C1187.1 886.689 1194.21 880.054 1195.91 871.336L1249.69 594.638C1251.39 585.92 1247.27 577.103 1239.51 572.797L992.971 436.14C985.203 431.835 975.547 433.02 969.051 439.077Z" stroke="url(#paint21_linear_207_143)"/>
<path opacity="0.212121" d="M970.525 439.86L761.487 628.079C754.887 634.022 752.864 643.538 756.476 651.652L870.887 908.622C874.499 916.735 882.925 921.6 891.757 920.672L1171.51 891.269C1180.34 890.341 1187.57 883.83 1189.41 875.143L1247.9 600.001C1249.74 591.314 1245.79 582.426 1238.1 577.986L994.493 437.341C986.801 432.901 977.125 433.918 970.525 439.86Z" stroke="url(#paint22_linear_207_143)"/>
<path opacity="0.222222" d="M971.993 440.72L760.146 624.877C753.443 630.703 751.254 640.183 754.724 648.358L864.403 906.745C867.873 914.92 876.213 919.931 885.06 919.157L1164.69 894.692C1173.54 893.918 1180.88 887.535 1182.88 878.882L1246.03 605.375C1248.02 596.722 1244.22 587.766 1236.61 583.192L996.001 438.62C988.388 434.046 978.696 434.894 971.993 440.72Z" stroke="url(#paint23_linear_207_143)"/>
<path opacity="0.232323" d="M973.455 441.66L758.876 621.713C752.072 627.422 749.719 636.862 753.046 645.097L857.978 904.813C861.305 913.048 869.556 918.204 878.415 917.584L1157.85 898.044C1166.71 897.425 1174.16 891.171 1176.31 882.554L1244.07 610.761C1246.22 602.144 1242.58 593.123 1235.05 588.416L997.496 439.979C989.964 435.273 980.258 435.951 973.455 441.66Z" stroke="url(#paint24_linear_207_143)"/>
<path opacity="0.242424" d="M974.908 442.678L757.676 618.59C750.774 624.179 748.256 633.576 751.439 641.868L851.612 902.827C854.795 911.118 862.954 916.417 871.823 915.953L1150.97 901.323C1159.83 900.859 1167.4 894.736 1169.69 886.157L1242.04 616.156C1244.34 607.578 1240.85 598.495 1233.4 593.658L998.975 441.417C991.526 436.58 981.81 437.089 974.908 442.678Z" stroke="url(#paint25_linear_207_143)"/>
<path opacity="0.252525" d="M976.352 443.774L756.546 615.505C749.548 620.973 746.866 630.325 749.904 638.671L845.306 900.787C848.343 909.132 856.409 914.573 865.285 914.263L1144.05 904.528C1152.93 904.218 1160.6 898.228 1163.04 889.691L1239.93 621.559C1242.38 613.022 1239.05 603.879 1231.69 598.913L1000.44 442.933C993.074 437.967 983.351 438.306 976.352 443.774Z" stroke="url(#paint26_linear_207_143)"/>
<path opacity="0.262626" d="M977.784 444.947L755.484 612.462C748.391 617.807 745.546 627.111 748.438 635.508L839.06 898.694C841.951 907.091 849.921 912.671 858.801 912.516L1137.11 907.658C1145.99 907.503 1153.76 901.648 1156.35 893.155L1237.74 626.968C1240.33 618.475 1237.17 609.275 1229.89 604.181L1001.88 444.526C994.604 439.432 984.877 439.602 977.784 444.947Z" stroke="url(#paint27_linear_207_143)"/>
<path opacity="0.272727" d="M979.204 446.198L754.49 609.463C747.305 614.683 744.298 623.936 747.043 632.383L832.876 896.55C835.62 904.997 843.491 910.715 852.373 910.715L1130.13 910.715C1139.02 910.715 1146.89 904.997 1149.63 896.55L1235.46 632.383C1238.21 623.936 1235.2 614.683 1228.02 609.463L1003.3 446.198C996.118 440.978 986.389 440.978 979.204 446.198Z" stroke="url(#paint28_linear_207_143)"/>
<path opacity="0.282828" d="M980.61 447.527L753.562 606.507C746.287 611.601 743.12 620.801 745.717 629.294L826.754 894.357C829.351 902.85 837.121 908.705 846.001 908.86L1123.13 913.697C1132.01 913.852 1139.98 908.272 1142.87 899.875L1233.11 637.801C1236 629.404 1233.16 620.1 1226.07 614.755L1004.71 447.947C997.613 442.602 987.885 442.433 980.61 447.527Z" stroke="url(#paint29_linear_207_143)"/>
<path opacity="0.292929" d="M982.002 448.932L752.701 603.597C745.338 608.564 742.011 617.706 744.459 626.243L820.696 892.115C823.144 900.652 830.811 906.642 839.687 906.952L1116.1 916.605C1124.98 916.915 1133.05 911.474 1136.08 903.129L1230.68 643.223C1233.72 634.877 1231.04 625.525 1224.04 620.057L1006.09 449.773C999.088 444.305 989.365 443.966 982.002 448.932Z" stroke="url(#paint30_linear_207_143)"/>
<path opacity="0.30303" d="M983.376 450.412L751.904 600.732C744.456 605.569 740.969 614.652 743.268 623.231L814.701 889.825C817 898.404 824.561 904.526 833.43 904.991L1109.05 919.436C1117.92 919.901 1126.08 914.602 1129.26 906.31L1228.17 648.643C1231.35 640.352 1228.84 630.954 1221.93 625.365L1007.44 451.674C1000.54 446.084 990.824 445.575 983.376 450.412Z" stroke="url(#paint31_linear_207_143)"/>
<path opacity="0.313131" d="M984.733 451.97L751.171 597.915C743.639 602.622 739.995 611.642 742.143 620.26L808.771 887.49C810.92 896.107 818.373 902.361 827.232 902.981L1101.97 922.192C1110.83 922.812 1119.08 917.656 1122.41 909.422L1225.58 654.065C1228.91 645.831 1226.55 636.39 1219.75 630.682L1008.77 453.651C1001.97 447.942 992.264 447.263 984.733 451.97Z" stroke="url(#paint32_linear_207_143)"/>
<path opacity="0.323232" d="M986.071 453.601L750.501 595.145C742.889 599.719 739.087 608.675 741.085 617.329L802.907 885.108C804.904 893.762 812.247 900.145 821.095 900.919L1094.87 924.871C1103.72 925.645 1112.06 920.634 1115.53 912.459L1222.91 659.483C1226.38 651.308 1224.19 641.828 1217.49 636.001L1010.08 455.701C1003.38 449.875 993.683 449.027 986.071 453.601Z" stroke="url(#paint33_linear_207_143)"/>
<path opacity="0.333333" d="M987.388 455.308L749.893 592.426C742.202 596.866 738.245 605.754 740.091 614.441L797.108 882.684C798.954 891.371 806.185 897.881 815.017 898.81L1087.75 927.475C1096.58 928.403 1105.01 923.539 1108.62 915.425L1220.16 664.899C1223.77 656.786 1221.75 647.269 1215.15 641.326L1011.36 457.827C1004.76 451.884 995.079 450.867 987.388 455.308Z" stroke="url(#paint34_linear_207_143)"/>
<path opacity="0.343434" d="M988.684 457.089L749.346 589.756C741.578 594.061 737.467 602.879 739.161 611.597L791.376 880.217C793.07 888.935 800.186 895.57 809.001 896.652L1080.61 930.002C1089.42 931.084 1097.93 926.367 1101.69 918.318L1217.33 670.309C1221.09 662.26 1219.23 652.71 1212.74 646.653L1012.6 460.025C1006.11 453.969 996.451 452.783 988.684 457.089Z" stroke="url(#paint35_linear_207_143)"/>
<path opacity="0.353535" d="M989.957 458.944L748.859 587.138C741.018 591.307 736.753 600.052 738.295 608.798L785.711 877.709C787.253 886.456 794.252 893.214 803.047 894.45L1073.45 932.453C1082.24 933.689 1090.83 929.121 1094.73 921.139L1214.43 675.714C1218.32 667.732 1216.63 658.151 1210.24 651.981L1013.82 462.298C1007.43 456.128 997.798 454.774 989.957 458.944Z" stroke="url(#paint36_linear_207_143)"/>
<path opacity="0.363636" d="M991.205 460.871L748.43 584.571C740.517 588.603 736.1 597.272 737.49 606.044L780.114 875.161C781.503 883.933 788.383 890.813 797.154 892.202L1066.27 934.826C1075.04 936.215 1083.71 931.798 1087.74 923.885L1211.44 681.111C1215.48 673.198 1213.95 663.588 1207.67 657.308L1015.01 464.641C1008.73 458.361 999.118 456.839 991.205 460.871Z" stroke="url(#paint37_linear_207_143)"/>
<path opacity="0.373737" d="M992.428 462.872L748.06 582.059C740.078 585.952 735.51 594.542 736.746 603.337L774.585 872.575C775.821 881.37 782.58 888.369 791.326 889.911L1059.08 937.123C1067.83 938.665 1076.57 934.4 1080.74 926.559L1208.38 686.499C1212.55 678.658 1211.2 669.023 1205.03 662.634L1016.16 467.057C1009.99 460.669 1000.41 458.979 992.428 462.872Z" stroke="url(#paint38_linear_207_143)"/>
<path opacity="0.383838" d="M993.625 464.944L747.747 579.599C739.698 583.353 734.981 591.862 736.063 600.677L769.126 869.951C770.208 878.766 776.844 885.882 785.562 887.576L1051.87 939.342C1060.59 941.037 1069.41 936.925 1073.72 929.157L1205.24 691.876C1209.55 684.108 1208.36 674.452 1202.31 667.956L1017.28 469.543C1011.22 463.047 1001.67 461.191 993.625 464.944Z" stroke="url(#paint39_linear_207_143)"/>
<path opacity="0.393939" d="M994.793 467.088L747.488 577.195C739.375 580.808 734.51 589.233 735.439 598.066L763.735 867.292C764.664 876.124 771.174 883.354 779.861 885.201L1044.65 941.484C1053.34 943.331 1062.23 939.374 1066.67 931.682L1202.02 697.242C1206.46 689.55 1205.45 679.875 1199.51 673.275L1018.37 472.099C1012.42 465.499 1002.91 463.476 994.793 467.088Z" stroke="url(#paint40_linear_207_143)"/>
<path opacity="0.40404" d="M995.933 469.302L747.285 574.846C739.11 578.316 734.099 586.656 734.873 595.503L758.415 864.596C759.19 873.444 765.572 880.787 774.226 882.784L1037.42 943.548C1046.08 945.546 1055.03 941.745 1059.61 934.132L1198.73 702.593C1203.3 694.981 1202.46 685.288 1196.63 678.586L1019.41 474.723C1013.59 468.02 1004.11 465.831 995.933 469.302Z" stroke="url(#paint41_linear_207_143)"/>
<path opacity="0.414141" d="M997.042 471.587L747.135 572.556C738.901 575.882 733.745 584.133 734.364 592.993L753.166 861.869C753.786 870.729 760.039 878.182 768.657 880.331L1030.18 945.536C1038.8 947.685 1047.82 944.04 1052.53 936.509L1195.36 707.932C1200.07 700.4 1199.39 690.694 1193.68 683.891L1020.43 477.417C1014.72 470.613 1005.28 468.26 997.042 471.587Z" stroke="url(#paint42_linear_207_143)"/>
<path opacity="0.424242" d="M998.12 473.941L747.037 570.322C738.746 573.505 733.447 581.664 733.912 590.533L747.988 859.11C748.452 867.979 754.575 875.54 763.154 877.839L1022.94 947.447C1031.51 949.745 1040.6 946.259 1045.43 938.81L1191.91 713.254C1196.75 705.806 1196.24 696.09 1190.65 689.188L1021.4 480.178C1015.81 473.276 1006.41 470.758 998.12 473.941Z" stroke="url(#paint43_linear_207_143)"/>
<path opacity="0.434343" d="M999.164 476.363L746.991 568.146C738.645 571.184 733.205 579.25 733.514 588.125L742.88 856.32C743.19 865.195 749.18 872.862 757.717 875.31L1015.68 949.279C1024.22 951.727 1033.36 948.4 1038.32 941.037L1188.39 718.558C1193.35 711.196 1193.02 701.472 1187.55 694.474L1022.33 483.005C1016.86 476.007 1007.51 473.325 999.164 476.363Z" stroke="url(#paint44_linear_207_143)"/>
<path opacity="0.444444" d="M1000.18 478.853L746.994 566.03C738.597 568.922 733.017 576.891 733.172 585.771L737.845 853.5C738 862.38 743.855 870.15 752.348 872.747L1008.42 951.035C1016.91 953.632 1026.11 950.464 1031.2 943.189L1184.79 723.845C1189.88 716.57 1189.71 706.842 1184.37 699.75L1023.22 485.899C1017.88 478.806 1008.57 475.962 1000.18 478.853Z" stroke="url(#paint45_linear_207_143)"/>
<path opacity="0.454545" d="M1001.15 481.411L747.047 563.975C738.6 566.719 732.882 574.59 732.882 583.472L732.882 850.654C732.882 859.535 738.6 867.406 747.047 870.15L1001.15 952.714C1009.6 955.458 1018.85 952.452 1024.07 945.267L1181.12 729.112C1186.34 721.927 1186.34 712.198 1181.12 705.013L1024.07 488.858C1018.85 481.673 1009.6 478.667 1001.15 481.411Z" stroke="url(#paint46_linear_207_143)"/>
<path opacity="0.464646" d="M1002.09 484.035L747.147 561.98C738.654 564.576 732.798 572.346 732.643 581.226L727.991 847.78C727.836 856.66 733.416 864.629 741.813 867.521L993.883 954.315C1002.28 957.207 1011.58 954.362 1016.93 947.269L1177.37 734.358C1182.71 727.265 1182.88 717.537 1177.79 710.262L1024.88 491.881C1019.78 484.606 1010.59 481.438 1002.09 484.035Z" stroke="url(#paint47_linear_207_143)"/>
<path opacity="0.474747" d="M1003 486.724L747.293 560.045C738.756 562.493 732.766 570.16 732.456 579.036L723.173 844.88C722.863 853.756 728.303 861.822 736.649 864.859L986.613 955.839C994.959 958.876 1004.31 956.195 1009.78 949.196L1173.55 739.58C1179.02 732.582 1179.36 722.858 1174.39 715.496L1025.64 494.966C1020.67 487.603 1011.53 484.276 1003 486.724Z" stroke="url(#paint48_linear_207_143)"/>
<path opacity="0.484848" d="M1003.86 489.478L747.485 558.173C738.907 560.472 732.784 568.033 732.319 576.902L718.428 841.957C717.963 850.826 723.262 858.986 731.553 862.168L979.343 957.286C987.634 960.469 997.032 957.95 1002.62 951.048L1169.65 744.779C1175.24 737.877 1175.75 728.162 1170.92 720.713L1026.36 498.114C1021.52 490.666 1012.44 487.179 1003.86 489.478Z" stroke="url(#paint49_linear_207_143)"/>
<path opacity="0.494949" d="M1004.69 492.296L747.721 556.364C739.104 558.512 732.85 565.965 732.23 574.825L713.757 839.011C713.137 847.87 718.293 856.121 726.527 859.448L972.074 958.655C980.309 961.982 989.749 959.629 995.458 952.825L1165.69 749.953C1171.4 743.15 1172.08 733.444 1167.37 725.913L1027.03 501.323C1022.32 493.792 1013.3 490.147 1004.69 492.296Z" stroke="url(#paint50_linear_207_143)"/>
<path opacity="0.50505" d="M1005.47 495.178L748 554.619C739.346 556.617 732.963 563.96 732.189 572.807L709.159 836.045C708.385 844.892 713.396 853.232 721.571 856.702L964.808 959.95C972.983 963.42 982.463 961.231 988.29 954.529L1161.65 755.102C1167.48 748.399 1168.32 738.707 1163.75 731.094L1027.65 504.594C1023.08 496.981 1014.12 493.18 1005.47 495.178Z" stroke="url(#paint51_linear_207_143)"/>
<path opacity="0.515152" d="M1006.21 498.121L748.32 552.938C739.633 554.785 733.123 562.015 732.195 570.848L704.635 833.059C703.707 841.891 708.571 850.317 716.685 853.929L957.546 961.167C965.659 964.78 975.176 962.757 981.118 956.157L1157.54 760.223C1163.48 753.623 1164.5 743.947 1160.06 736.256L1028.23 507.923C1023.79 500.232 1014.9 496.275 1006.21 498.121Z" stroke="url(#paint52_linear_207_143)"/>
<path opacity="0.525253" d="M1006.91 501.126L748.681 551.322C739.963 553.016 733.327 560.132 732.245 568.947L700.185 830.054C699.103 838.869 703.82 847.378 711.869 851.131L950.289 962.308C958.338 966.062 967.888 964.205 973.945 957.71L1153.36 765.315C1159.41 758.819 1160.6 749.163 1156.29 741.395L1028.76 511.311C1024.45 503.543 1015.63 499.432 1006.91 501.126Z" stroke="url(#paint53_linear_207_143)"/>
<path opacity="0.535354" d="M1007.57 504.192L749.081 549.771C740.334 551.313 733.576 558.312 732.34 567.107L695.81 827.032C694.574 835.827 699.141 844.417 707.124 848.31L943.039 963.374C951.021 967.267 960.603 965.578 966.772 959.189L1149.11 770.377C1155.28 763.988 1156.63 754.354 1152.46 746.512L1029.23 514.756C1025.06 506.915 1016.32 502.65 1007.57 504.192Z" stroke="url(#paint54_linear_207_143)"/>
<path opacity="0.545455" d="M1008.19 507.317L749.519 548.286C740.747 549.675 733.867 556.555 732.478 565.327L691.509 823.995C690.12 832.766 694.537 841.435 702.45 845.467L935.797 964.364C943.71 968.395 953.32 966.873 959.6 960.594L1144.79 775.408C1151.07 769.128 1152.59 759.519 1148.56 751.605L1029.66 518.258C1025.63 510.345 1016.96 505.928 1008.19 507.317Z" stroke="url(#paint55_linear_207_143)"/>
<path opacity="0.555556" d="M1008.75 510.501L749.993 546.867C741.198 548.103 734.2 554.862 732.657 563.608L687.282 820.942C685.74 829.689 690.005 838.433 697.847 842.603L928.565 965.277C936.406 969.447 946.041 968.093 952.429 961.924L1140.4 780.406C1146.78 774.237 1148.47 764.656 1144.58 756.673L1030.03 521.815C1026.14 513.832 1017.55 509.265 1008.75 510.501Z" stroke="url(#paint56_linear_207_143)"/>
<path opacity="0.565657" d="M1009.28 513.743L750.503 545.516C741.688 546.599 734.572 553.234 732.878 561.952L683.131 817.878C681.436 826.596 685.548 835.414 693.315 839.719L921.343 966.117C929.111 970.423 938.767 969.237 945.263 963.18L1135.94 785.372C1142.43 779.315 1144.29 769.765 1140.54 761.716L1030.35 525.426C1026.6 517.377 1018.09 512.661 1009.28 513.743Z" stroke="url(#paint57_linear_207_143)"/>
<path opacity="0.575758" d="M1009.75 517.041L751.047 544.232C742.214 545.16 734.984 551.67 733.137 560.357L679.054 814.801C677.207 823.488 681.164 832.377 688.856 836.817L914.134 966.881C921.825 971.322 931.501 970.305 938.101 964.362L1131.41 790.302C1138.01 784.36 1140.04 774.843 1136.42 766.73L1030.62 529.09C1027.01 520.977 1018.58 516.113 1009.75 517.041Z" stroke="url(#paint58_linear_207_143)"/>
<path opacity="0.585859" d="M1010.18 520.396L751.623 543.016C742.776 543.79 735.433 550.173 733.435 558.827L675.051 811.716C673.054 820.369 676.855 829.325 684.468 833.899L906.938 967.572C914.55 972.147 924.243 971.299 930.945 965.472L1126.82 795.198C1133.53 789.371 1135.71 779.892 1132.24 771.716L1030.83 532.808C1027.36 524.633 1019.02 519.622 1010.18 520.396Z" stroke="url(#paint59_linear_207_143)"/>
<path opacity="0.59596" d="M1010.55 523.805L752.231 541.868C743.372 542.488 735.919 548.742 733.77 557.359L671.124 808.62C668.975 817.237 672.62 826.258 680.152 830.965L899.756 968.189C907.288 972.895 916.993 972.216 923.797 966.508L1122.17 800.056C1128.97 794.347 1131.32 784.907 1128 776.672L1030.99 536.575C1027.66 528.341 1019.41 523.185 1010.55 523.805Z" stroke="url(#paint60_linear_207_143)"/>
<path opacity="0.606061" d="M1010.88 527.268L752.87 540.79C744.001 541.255 736.44 547.377 734.141 555.956L667.272 805.518C664.973 814.096 668.46 823.179 675.908 828.016L892.591 968.732C900.04 973.569 909.756 973.06 916.657 967.471L1117.45 804.876C1124.35 799.287 1126.87 789.889 1123.68 781.598L1031.09 540.393C1027.91 532.102 1019.75 526.803 1010.88 527.268Z" stroke="url(#paint61_linear_207_143)"/>
<path opacity="0.616162" d="M1011.16 530.784L753.537 539.78C744.661 540.09 736.995 546.08 734.547 554.617L663.493 802.409C661.045 810.946 664.373 820.088 671.736 825.055L885.443 969.202C892.806 974.168 902.529 973.829 909.528 968.361L1112.66 809.657C1119.66 804.189 1122.34 794.837 1119.3 786.491L1031.14 544.26C1028.1 535.914 1020.03 530.474 1011.16 530.784Z" stroke="url(#paint62_linear_207_143)"/>
<path opacity="0.626263" d="M1011.38 534.352L754.232 538.841C745.352 538.996 737.582 544.851 734.985 553.344L659.79 799.296C657.194 807.789 660.361 816.988 667.636 822.082L878.314 969.6C885.589 974.694 895.317 974.524 902.409 969.179L1107.81 814.399C1114.9 809.054 1117.75 799.75 1114.86 791.352L1031.12 548.175C1028.23 539.778 1020.26 534.197 1011.38 534.352Z" stroke="url(#paint63_linear_207_143)"/>
<path opacity="0.636364" d="M1011.56 537.971L754.953 537.971C746.072 537.971 738.201 543.69 735.456 552.137L656.162 796.18C653.418 804.626 656.424 813.879 663.609 819.099L871.204 969.926C878.389 975.146 888.119 975.146 895.304 969.926L1102.9 819.099C1110.08 813.879 1113.09 804.626 1110.35 796.18L1031.05 552.137C1028.31 543.69 1020.44 537.971 1011.56 537.971Z" stroke="url(#paint64_linear_207_143)"/>
<path opacity="0.646465" d="M1011.67 541.64L755.699 537.172C746.819 537.017 738.849 542.597 735.958 550.994L652.608 793.061C649.716 801.458 652.561 810.762 659.654 816.107L864.116 970.18C871.209 975.525 880.936 975.694 888.211 970.6L1097.93 823.757C1105.2 818.663 1108.37 809.464 1105.77 800.971L1030.92 556.143C1028.32 547.65 1020.55 541.795 1011.67 541.64Z" stroke="url(#paint65_linear_207_143)"/>
<path opacity="0.656566" d="M1011.74 545.357L756.468 536.443C747.593 536.133 739.527 541.574 736.489 549.919L649.128 789.941C646.091 798.287 648.772 807.639 655.771 813.107L857.05 970.363C864.048 975.831 873.771 976.17 881.134 971.204L1092.89 828.372C1100.25 823.405 1103.58 814.263 1101.13 805.726L1030.73 560.194C1028.28 551.657 1020.61 545.667 1011.74 545.357Z" stroke="url(#paint66_linear_207_143)"/>
<path opacity="0.666667" d="M1011.75 549.121L757.261 535.784C748.392 535.319 740.232 540.618 737.049 548.909L645.723 786.822C642.541 795.113 645.059 804.511 651.961 810.1L850.007 970.475C856.909 976.064 866.625 976.573 874.074 971.736L1087.8 832.941C1095.25 828.104 1098.73 819.021 1096.44 810.443L1030.48 564.287C1028.18 555.709 1020.62 549.586 1011.75 549.121Z" stroke="url(#paint67_linear_207_143)"/>
<path opacity="0.676768" d="M1011.7 552.933L758.073 535.197C749.214 534.578 740.963 539.734 737.636 547.968L642.392 783.705C639.065 791.94 641.419 801.38 648.222 807.089L842.99 970.518C849.793 976.226 859.499 976.905 867.03 972.199L1082.65 837.466C1090.18 832.76 1093.82 823.739 1091.67 815.122L1030.17 568.424C1028.02 559.806 1020.56 553.553 1011.7 552.933Z" stroke="url(#paint68_linear_207_143)"/>
<path opacity="0.686869" d="M1011.6 556.79L758.906 534.681C750.059 533.907 741.719 538.918 738.249 547.093L639.135 780.592C635.665 788.767 637.854 798.246 644.556 804.073L835.998 970.491C842.701 976.318 852.393 977.165 860.006 972.591L1077.44 841.945C1085.05 837.371 1088.85 828.415 1086.85 819.762L1029.79 572.6C1027.79 563.947 1020.45 557.564 1011.6 556.79Z" stroke="url(#paint69_linear_207_143)"/>
<path opacity="0.69697" d="M1011.45 560.691L759.757 534.237C750.925 533.309 742.499 538.173 738.887 546.287L635.952 777.482C632.34 785.596 634.362 795.112 640.962 801.055L829.034 970.395C835.634 976.338 845.31 977.355 853.001 972.914L1072.17 846.377C1079.86 841.936 1083.82 833.048 1081.97 824.361L1029.36 576.816C1027.51 568.129 1020.28 561.619 1011.45 560.691Z" stroke="url(#paint70_linear_207_143)"/>
<path opacity="0.707071" d="M1011.23 564.636L760.625 533.865C751.81 532.783 743.301 537.5 739.548 545.549L632.842 774.38C629.089 782.429 630.945 791.98 637.44 798.037L822.098 970.233C828.593 976.29 838.25 977.475 846.017 973.17L1066.85 850.761C1074.62 846.456 1078.73 837.638 1077.03 828.92L1028.86 581.071C1027.16 572.353 1020.05 565.718 1011.23 564.636Z" stroke="url(#paint71_linear_207_143)"/>
<path opacity="0.717172" d="M1010.96 568.622L761.509 533.564C752.714 532.328 744.124 536.896 740.231 544.878L629.805 771.284C625.912 779.266 627.601 788.848 633.99 795.017L815.191 970.001C821.58 976.171 831.214 977.525 839.056 973.355L1061.47 855.095C1069.31 850.926 1073.58 842.181 1072.03 833.435L1028.29 585.363C1026.75 576.616 1019.75 569.858 1010.96 568.622Z" stroke="url(#paint72_linear_207_143)"/>
<path opacity="0.727273" d="M1010.62 572.65L762.407 533.336C753.635 531.947 744.966 536.364 740.934 544.277L626.841 768.197C622.809 776.111 624.331 785.72 630.611 792L808.315 969.704C814.595 975.984 824.205 977.506 832.118 973.474L1056.04 859.381C1063.95 855.349 1068.37 846.68 1066.98 837.908L1027.67 589.691C1026.28 580.919 1019.4 574.039 1010.62 572.65Z" stroke="url(#paint73_linear_207_143)"/>
<path opacity="0.737374" d="M1010.23 576.717L763.319 533.179C754.572 531.637 745.828 535.902 741.658 543.744L623.951 765.12C619.781 772.962 621.135 782.596 627.305 788.985L801.472 969.341C807.642 975.729 817.223 977.419 825.205 973.525L1050.55 863.615C1058.54 859.722 1063.1 851.132 1061.87 842.337L1026.97 594.053C1025.74 585.258 1018.98 578.259 1010.23 576.717Z" stroke="url(#paint74_linear_207_143)"/>
<path opacity="0.747475" d="M1009.78 580.824L764.241 533.096C755.523 531.401 746.706 535.513 742.4 543.281L621.131 762.055C616.826 769.823 618.011 779.479 624.068 785.974L794.661 968.913C800.718 975.408 810.268 977.264 818.317 973.511L1045.02 867.799C1053.07 864.045 1057.78 855.536 1056.7 846.721L1026.22 598.449C1025.14 589.634 1018.5 582.519 1009.78 580.824Z" stroke="url(#paint75_linear_207_143)"/>
<path opacity="0.757576" d="M1009.27 584.967L765.174 533.083C756.487 531.237 747.599 535.194 743.159 542.885L618.384 759.001C613.944 766.692 614.961 776.368 620.903 782.968L787.884 968.418C793.827 975.018 803.343 977.041 811.456 973.429L1039.43 871.928C1047.54 868.316 1052.41 859.89 1051.48 851.058L1025.4 602.876C1024.47 594.044 1017.96 586.814 1009.27 584.967Z" stroke="url(#paint76_linear_207_143)"/>
<path opacity="0.767677" d="M1008.7 589.148L766.117 533.144C757.463 531.146 748.507 534.947 743.933 542.56L615.709 755.961C611.135 763.574 611.983 773.266 617.809 779.968L781.142 967.861C786.969 974.564 796.449 976.753 804.624 973.283L1033.79 876.006C1041.97 872.536 1046.98 864.196 1046.21 855.349L1024.51 607.336C1023.73 598.488 1017.35 591.145 1008.7 589.148Z" stroke="url(#paint77_linear_207_143)"/>
<path opacity="0.777778" d="M1008.06 593.364L767.067 533.277C758.449 531.128 749.429 534.773 744.722 542.305L613.105 752.937C608.399 760.468 609.077 770.174 614.786 776.977L774.437 967.242C780.146 974.045 789.586 976.399 797.82 973.072L1028.11 880.03C1036.34 876.703 1041.5 868.452 1040.88 859.593L1023.55 611.825C1022.93 602.965 1016.68 595.512 1008.06 593.364Z" stroke="url(#paint78_linear_207_143)"/>
<path opacity="0.787879" d="M1007.37 597.614L768.023 533.482C759.445 531.184 750.362 534.67 745.525 542.119L610.571 749.929C605.734 757.377 606.244 767.093 611.833 773.995L767.769 966.56C773.358 973.462 782.756 975.98 791.047 972.798L1022.37 883.999C1030.67 880.817 1035.96 872.657 1035.5 863.788L1022.53 616.342C1022.07 607.473 1015.94 599.912 1007.37 597.614Z" stroke="url(#paint79_linear_207_143)"/>
<path opacity="0.79798" d="M1006.61 601.896L768.985 533.759C760.448 531.311 751.305 534.638 746.339 542.001L608.108 746.937C603.142 754.3 603.481 764.023 608.949 771.022L761.139 965.816C766.607 972.814 775.959 975.496 784.305 972.458L1016.59 887.912C1024.94 884.874 1030.38 876.808 1030.07 867.933L1021.44 620.886C1021.13 612.01 1015.14 604.344 1006.61 601.896Z" stroke="url(#paint80_linear_207_143)"/>
<path opacity="0.808081" d="M1005.78 606.21L769.95 534.109C761.457 531.512 752.258 534.68 747.164 541.955L605.715 743.965C600.621 751.24 600.79 760.968 606.135 768.061L754.549 965.012C759.893 972.105 769.197 974.949 777.595 972.058L1010.77 891.77C1019.17 888.878 1024.75 880.908 1024.59 872.029L1020.29 625.457C1020.13 616.577 1014.28 608.807 1005.78 606.21Z" stroke="url(#paint81_linear_207_143)"/>
<path opacity="0.818182" d="M1004.9 610.554L770.918 534.529C762.471 531.785 753.218 534.792 747.998 541.977L603.39 741.012C598.17 748.197 598.17 757.927 603.39 765.112L747.998 964.147C753.218 971.332 762.471 974.339 770.918 971.594L1004.9 895.57C1013.34 892.825 1019.06 884.954 1019.06 876.073L1019.06 630.051C1019.06 621.17 1013.35 613.299 1004.9 610.554Z" stroke="url(#paint82_linear_207_143)"/>
<path opacity="0.828283" d="M1003.95 614.928L771.887 535.023C763.489 532.132 754.185 534.976 748.84 542.069L601.135 738.081C595.79 745.174 595.62 754.902 600.714 762.177L741.489 963.224C746.583 970.499 755.782 973.667 764.275 971.07L998.985 899.312C1007.48 896.716 1013.33 888.946 1013.49 880.066L1017.77 634.669C1017.93 625.79 1012.35 617.82 1003.95 614.928Z" stroke="url(#paint83_linear_207_143)"/>
<path opacity="0.838384" d="M1002.94 619.33L772.856 535.588C764.511 532.55 755.158 535.232 749.691 542.23L598.948 735.172C593.48 742.17 593.141 751.893 598.107 759.256L735.023 962.243C739.99 969.606 749.132 972.933 757.669 970.485L993.031 902.997C1001.57 900.549 1007.56 892.882 1007.87 884.006L1016.41 639.309C1016.72 630.433 1011.28 622.367 1002.94 619.33Z" stroke="url(#paint84_linear_207_143)"/>
<path opacity="0.848485" d="M1001.86 623.759L773.823 536.225C765.532 533.042 756.134 535.56 750.545 542.462L596.828 732.287C591.239 739.189 590.73 748.904 595.567 756.353L728.6 961.205C733.437 968.654 742.52 972.14 751.098 969.842L987.034 906.623C995.612 904.324 1001.74 896.763 1002.2 887.894L1014.98 643.971C1015.45 635.102 1010.15 626.942 1001.86 623.759Z" stroke="url(#paint85_linear_207_143)"/>
<path opacity="0.858586" d="M1000.72 628.213L774.788 536.932C766.554 533.606 757.114 535.959 751.405 542.763L594.776 729.425C589.068 736.229 588.389 745.934 593.095 753.466L722.221 960.11C726.927 967.642 735.948 971.286 744.565 969.138L980.998 910.189C989.615 908.04 995.869 900.587 996.489 891.727L1013.49 648.65C1014.11 639.791 1008.95 631.54 1000.72 628.213Z" stroke="url(#paint86_linear_207_143)"/>
<path opacity="0.868687" d="M999.508 632.692L775.749 537.712C767.573 534.242 758.094 536.43 752.267 543.133L592.79 726.59C586.964 733.293 586.116 742.985 590.69 750.598L715.887 958.96C720.461 966.573 729.417 970.374 738.07 968.377L974.923 913.695C983.576 911.697 989.959 904.354 990.733 895.507L1011.92 653.349C1012.69 644.502 1007.68 636.162 999.508 632.692Z" stroke="url(#paint87_linear_207_143)"/>
<path opacity="0.878788" d="M998.235 637.195L776.704 538.563C768.591 534.951 759.075 536.974 753.132 543.574L590.871 723.783C584.928 730.383 583.911 740.058 588.352 747.75L709.6 957.757C714.04 965.448 722.928 969.405 731.615 967.559L968.811 917.141C977.498 915.295 984.008 908.064 984.937 899.232L1010.28 658.065C1011.21 649.233 1006.35 640.807 998.235 637.195Z" stroke="url(#paint88_linear_207_143)"/>
<path opacity="0.888889" d="M996.896 641.719L777.653 539.484C769.604 535.731 760.054 537.587 753.997 544.083L589.016 721.002C582.959 727.498 581.774 737.154 586.079 744.922L703.358 956.499C707.664 964.266 716.482 968.378 725.2 966.684L962.662 920.525C971.38 918.831 978.016 911.715 979.098 902.9L1008.58 662.796C1009.66 653.981 1004.94 645.472 996.896 641.719Z" stroke="url(#paint89_linear_207_143)"/>
<path opacity="0.89899" d="M995.49 646.264L778.594 540.476C770.612 536.583 761.03 538.272 754.861 544.661L587.226 718.252C581.057 724.64 579.703 734.275 583.872 742.116L697.165 955.189C701.334 963.03 710.079 967.295 718.825 965.753L956.478 923.848C965.225 922.306 971.983 915.308 973.219 906.513L1006.8 667.542C1008.04 658.747 1003.47 650.157 995.49 646.264Z" stroke="url(#paint90_linear_207_143)"/>
<path opacity="0.909091" d="M994.02 650.829L779.526 541.539C771.613 537.507 762.004 539.029 755.724 545.309L585.501 715.532C579.221 721.812 577.699 731.422 581.731 739.335L691.021 953.828C695.053 961.741 703.722 966.158 712.493 964.769L950.261 927.11C959.033 925.721 965.913 918.841 967.302 910.07L1004.96 672.302C1006.35 663.53 1001.93 654.861 994.02 650.829Z" stroke="url(#paint91_linear_207_143)"/>
<path opacity="0.919192" d="M992.482 655.411L780.448 542.67C772.606 538.501 762.972 539.855 756.583 546.024L583.838 712.842C577.45 719.012 575.76 728.593 579.653 736.575L684.926 952.415C688.819 960.398 697.409 964.965 706.204 963.729L944.011 930.308C952.806 929.072 959.804 922.313 961.346 913.567L1003.05 677.071C1004.59 668.325 1000.32 659.581 992.482 655.411Z" stroke="url(#paint92_linear_207_143)"/>
<path opacity="0.929293" d="M990.879 660.011L781.358 543.872C773.59 539.566 763.934 540.752 757.438 546.809L582.238 710.186C575.743 716.243 573.886 725.793 577.64 733.842L678.881 950.954C682.634 959.003 691.143 963.72 699.958 962.637L937.729 933.443C946.544 932.361 953.659 925.725 955.354 917.007L1001.06 681.852C1002.76 673.135 998.646 664.317 990.879 660.011Z" stroke="url(#paint93_linear_207_143)"/>
<path opacity="0.939394" d="M989.208 664.627L782.255 545.143C774.564 540.702 764.888 541.719 758.288 547.662L580.7 707.563C574.1 713.506 572.077 723.022 575.69 731.136L672.887 949.444C676.499 957.557 684.925 962.422 693.757 961.494L931.417 936.515C940.249 935.586 947.479 929.076 949.326 920.389L999.01 686.643C1000.86 677.956 996.899 669.068 989.208 664.627Z" stroke="url(#paint94_linear_207_143)"/>
<path opacity="0.949495" d="M987.471 669.259L783.139 546.484C775.526 541.91 765.834 542.758 759.131 548.584L579.223 704.976C572.52 710.802 570.332 720.282 573.802 728.457L666.945 947.888C670.415 956.063 678.754 961.074 687.602 960.3L925.075 939.524C933.923 938.75 941.265 932.367 943.263 923.713L996.887 691.442C998.885 682.789 995.083 673.833 987.471 669.259Z" stroke="url(#paint95_linear_207_143)"/>
<path opacity="0.959596" d="M985.667 673.902L784.007 547.891C776.475 543.185 766.77 543.864 759.967 549.572L577.807 702.422C571.003 708.131 568.65 717.571 571.977 725.806L661.055 946.283C664.382 954.518 672.633 959.674 681.493 959.054L918.706 942.467C927.566 941.847 935.019 935.593 937.167 926.976L994.695 696.247C996.843 687.629 993.198 678.608 985.667 673.902Z" stroke="url(#paint96_linear_207_143)"/>
<path opacity="0.969697" d="M983.795 678.559L784.858 549.368C777.41 544.531 767.694 545.04 760.792 550.629L576.449 699.907C569.547 705.496 567.029 714.894 570.212 723.185L655.219 944.635C658.401 952.926 666.561 958.225 675.43 957.76L912.31 945.346C921.179 944.881 928.74 938.758 931.039 930.18L992.432 701.057C994.73 692.479 991.244 683.396 983.795 678.559Z" stroke="url(#paint97_linear_207_143)"/>
<path opacity="0.979798" d="M981.857 683.225L785.692 550.91C778.33 545.944 768.606 546.283 761.608 551.751L575.151 697.427C568.153 702.895 565.471 712.247 568.508 720.593L649.436 942.94C652.474 951.286 660.54 956.726 669.415 956.417L905.888 948.159C914.764 947.849 922.431 941.859 924.879 933.322L990.099 705.871C992.547 697.334 989.22 688.191 981.857 683.225Z" stroke="url(#paint98_linear_207_143)"/>
<path opacity="0.989899" d="M979.852 687.902L786.508 552.521C779.233 547.427 769.505 547.597 762.412 552.942L573.911 694.988C566.818 700.333 563.974 709.637 566.865 718.034L643.709 941.204C646.6 949.602 654.57 955.182 663.45 955.027L899.443 950.908C908.323 950.753 916.093 944.898 918.69 936.404L987.698 710.688C990.295 702.195 987.127 692.996 979.852 687.902Z" stroke="url(#paint99_linear_207_143)"/>
<path d="M977.78 692.588L787.303 554.199C780.119 548.978 770.389 548.978 763.204 554.199L572.728 692.588C565.543 697.808 562.537 707.061 565.281 715.507L638.036 939.426C640.781 947.872 648.652 953.591 657.533 953.591H892.975C901.856 953.591 909.727 947.872 912.471 939.426L985.227 715.507C987.971 707.061 984.965 697.808 977.78 692.588Z" stroke="url(#paint100_linear_207_143)"/>
</g>
</g>
<defs>
<filter id="filter0_f_207_143" x="-757" y="-948" width="1806" height="1806" filterUnits="userSpaceOnUse" color-interpolation-filters="sRGB">
<feFlood flood-opacity="0" result="BackgroundImageFix"/>
<feBlend mode="normal" in="SourceGraphic" in2="BackgroundImageFix" result="shape"/>
<feGaussianBlur stdDeviation="250" result="effect1_foregroundBlur_207_143"/>
</filter>
<filter id="filter1_f_207_143" x="992" y="-1334" width="1684" height="1684" filterUnits="userSpaceOnUse" color-interpolation-filters="sRGB">
<feFlood flood-opacity="0" result="BackgroundImageFix"/>
<feBlend mode="normal" in="SourceGraphic" in2="BackgroundImageFix" result="shape"/>
<feGaussianBlur stdDeviation="250" result="effect1_foregroundBlur_207_143"/>
</filter>
<filter id="filter2_f_207_143" x="553.776" y="416.634" width="766.578" height="569.622" filterUnits="userSpaceOnUse" color-interpolation-filters="sRGB">
<feFlood flood-opacity="0" result="BackgroundImageFix"/>
<feBlend mode="normal" in="SourceGraphic" in2="BackgroundImageFix" result="shape"/>
<feGaussianBlur stdDeviation="5" result="effect1_foregroundBlur_207_143"/>
</filter>
<linearGradient id="paint0_linear_207_143" x1="146" y1="-448" x2="146" y2="358" gradientUnits="userSpaceOnUse">
<stop stop-color="#885EFE"/>
<stop offset="1" stop-color="#585858"/>
</linearGradient>
<linearGradient id="paint1_linear_207_143" x1="1834" y1="-834" x2="1834" y2="-150" gradientUnits="userSpaceOnUse">
<stop stop-color="#885EFE"/>
<stop offset="1" stop-color="#585858"/>
</linearGradient>
<linearGradient id="paint2_linear_207_143" x1="1092.07" y1="831.303" x2="1046.71" y2="508.554" gradientUnits="userSpaceOnUse">
<stop stop-color="#FF1CF7"/>
<stop offset="1" stop-color="#885EFE"/>
</linearGradient>
<linearGradient id="paint3_linear_207_143" x1="1086.26" y1="832.387" x2="1046.62" y2="509.486" gradientUnits="userSpaceOnUse">
<stop stop-color="#FF1CF7"/>
<stop offset="1" stop-color="#885EFE"/>
</linearGradient>
<linearGradient id="paint4_linear_207_143" x1="1080.47" y1="833.422" x2="1046.52" y2="510.469" gradientUnits="userSpaceOnUse">
<stop stop-color="#FF1CF7"/>
<stop offset="1" stop-color="#885EFE"/>
</linearGradient>
<linearGradient id="paint5_linear_207_143" x1="1074.67" y1="834.409" x2="1046.42" y2="511.505" gradientUnits="userSpaceOnUse">
<stop stop-color="#FF1CF7"/>
<stop offset="1" stop-color="#885EFE"/>
</linearGradient>
<linearGradient id="paint6_linear_207_143" x1="1068.89" y1="835.346" x2="1046.32" y2="512.592" gradientUnits="userSpaceOnUse">
<stop stop-color="#FF1CF7"/>
<stop offset="1" stop-color="#885EFE"/>
</linearGradient>
<linearGradient id="paint7_linear_207_143" x1="1063.11" y1="836.233" x2="1046.2" y2="513.728" gradientUnits="userSpaceOnUse">
<stop stop-color="#FF1CF7"/>
<stop offset="1" stop-color="#885EFE"/>
</linearGradient>
<linearGradient id="paint8_linear_207_143" x1="1057.33" y1="837.071" x2="1046.08" y2="514.915" gradientUnits="userSpaceOnUse">
<stop stop-color="#FF1CF7"/>
<stop offset="1" stop-color="#885EFE"/>
</linearGradient>
<linearGradient id="paint9_linear_207_143" x1="1051.57" y1="837.862" x2="1045.95" y2="516.153" gradientUnits="userSpaceOnUse">
<stop stop-color="#FF1CF7"/>
<stop offset="1" stop-color="#885EFE"/>
</linearGradient>
<linearGradient id="paint10_linear_207_143" x1="1045.81" y1="838.604" x2="1045.81" y2="517.441" gradientUnits="userSpaceOnUse">
<stop stop-color="#FF1CF7"/>
<stop offset="1" stop-color="#885EFE"/>
</linearGradient>
<linearGradient id="paint11_linear_207_143" x1="1040.07" y1="839.298" x2="1045.66" y2="518.778" gradientUnits="userSpaceOnUse">
<stop stop-color="#FF1CF7"/>
<stop offset="1" stop-color="#885EFE"/>
</linearGradient>
<linearGradient id="paint12_linear_207_143" x1="1034.33" y1="839.945" x2="1045.5" y2="520.166" gradientUnits="userSpaceOnUse">
<stop stop-color="#FF1CF7"/>
<stop offset="1" stop-color="#885EFE"/>
</linearGradient>
<linearGradient id="paint13_linear_207_143" x1="1028.61" y1="840.543" x2="1045.32" y2="521.601" gradientUnits="userSpaceOnUse">
<stop stop-color="#FF1CF7"/>
<stop offset="1" stop-color="#885EFE"/>
</linearGradient>
<linearGradient id="paint14_linear_207_143" x1="1022.9" y1="841.095" x2="1045.14" y2="523.087" gradientUnits="userSpaceOnUse">
<stop stop-color="#FF1CF7"/>
<stop offset="1" stop-color="#885EFE"/>
</linearGradient>
<linearGradient id="paint15_linear_207_143" x1="1017.2" y1="841.6" x2="1044.93" y2="524.621" gradientUnits="userSpaceOnUse">
<stop stop-color="#FF1CF7"/>
<stop offset="1" stop-color="#885EFE"/>
</linearGradient>
<linearGradient id="paint16_linear_207_143" x1="1011.52" y1="842.058" x2="1044.72" y2="526.203" gradientUnits="userSpaceOnUse">
<stop stop-color="#FF1CF7"/>
<stop offset="1" stop-color="#885EFE"/>
</linearGradient>
<linearGradient id="paint17_linear_207_143" x1="1005.85" y1="842.47" x2="1044.48" y2="527.833" gradientUnits="userSpaceOnUse">
<stop stop-color="#FF1CF7"/>
<stop offset="1" stop-color="#885EFE"/>
</linearGradient>
<linearGradient id="paint18_linear_207_143" x1="1000.2" y1="842.837" x2="1044.23" y2="529.511" gradientUnits="userSpaceOnUse">
<stop stop-color="#FF1CF7"/>
<stop offset="1" stop-color="#885EFE"/>
</linearGradient>
<linearGradient id="paint19_linear_207_143" x1="994.562" y1="843.158" x2="1043.97" y2="531.235" gradientUnits="userSpaceOnUse">
<stop stop-color="#FF1CF7"/>
<stop offset="1" stop-color="#885EFE"/>
</linearGradient>
<linearGradient id="paint20_linear_207_143" x1="988.944" y1="843.434" x2="1043.68" y2="533.007" gradientUnits="userSpaceOnUse">
<stop stop-color="#FF1CF7"/>
<stop offset="1" stop-color="#885EFE"/>
</linearGradient>
<linearGradient id="paint21_linear_207_143" x1="983.343" y1="843.663" x2="1043.38" y2="534.823" gradientUnits="userSpaceOnUse">
<stop stop-color="#FF1CF7"/>
<stop offset="1" stop-color="#885EFE"/>
</linearGradient>
<linearGradient id="paint22_linear_207_143" x1="977.762" y1="843.851" x2="1043.05" y2="536.687" gradientUnits="userSpaceOnUse">
<stop stop-color="#FF1CF7"/>
<stop offset="1" stop-color="#885EFE"/>
</linearGradient>
<linearGradient id="paint23_linear_207_143" x1="972.199" y1="843.993" x2="1042.71" y2="538.595" gradientUnits="userSpaceOnUse">
<stop stop-color="#FF1CF7"/>
<stop offset="1" stop-color="#885EFE"/>
</linearGradient>
<linearGradient id="paint24_linear_207_143" x1="966.657" y1="844.093" x2="1042.34" y2="540.549" gradientUnits="userSpaceOnUse">
<stop stop-color="#FF1CF7"/>
<stop offset="1" stop-color="#885EFE"/>
</linearGradient>
<linearGradient id="paint25_linear_207_143" x1="961.137" y1="844.15" x2="1041.95" y2="542.548" gradientUnits="userSpaceOnUse">
<stop stop-color="#FF1CF7"/>
<stop offset="1" stop-color="#885EFE"/>
</linearGradient>
<linearGradient id="paint26_linear_207_143" x1="955.638" y1="844.164" x2="1041.54" y2="544.589" gradientUnits="userSpaceOnUse">
<stop stop-color="#FF1CF7"/>
<stop offset="1" stop-color="#885EFE"/>
</linearGradient>
<linearGradient id="paint27_linear_207_143" x1="950.16" y1="844.135" x2="1041.1" y2="546.674" gradientUnits="userSpaceOnUse">
<stop stop-color="#FF1CF7"/>
<stop offset="1" stop-color="#885EFE"/>
</linearGradient>
<linearGradient id="paint28_linear_207_143" x1="944.707" y1="844.066" x2="1040.64" y2="548.803" gradientUnits="userSpaceOnUse">
<stop stop-color="#FF1CF7"/>
<stop offset="1" stop-color="#885EFE"/>
</linearGradient>
<linearGradient id="paint29_linear_207_143" x1="939.278" y1="843.956" x2="1040.16" y2="550.974" gradientUnits="userSpaceOnUse">
<stop stop-color="#FF1CF7"/>
<stop offset="1" stop-color="#885EFE"/>
</linearGradient>
<linearGradient id="paint30_linear_207_143" x1="933.873" y1="843.805" x2="1039.65" y2="553.188" gradientUnits="userSpaceOnUse">
<stop stop-color="#FF1CF7"/>
<stop offset="1" stop-color="#885EFE"/>
</linearGradient>
<linearGradient id="paint31_linear_207_143" x1="928.493" y1="843.613" x2="1039.11" y2="555.442" gradientUnits="userSpaceOnUse">
<stop stop-color="#FF1CF7"/>
<stop offset="1" stop-color="#885EFE"/>
</linearGradient>
<linearGradient id="paint32_linear_207_143" x1="923.139" y1="843.383" x2="1038.55" y2="557.737" gradientUnits="userSpaceOnUse">
<stop stop-color="#FF1CF7"/>
<stop offset="1" stop-color="#885EFE"/>
</linearGradient>
<linearGradient id="paint33_linear_207_143" x1="917.812" y1="843.113" x2="1037.96" y2="560.072" gradientUnits="userSpaceOnUse">
<stop stop-color="#FF1CF7"/>
<stop offset="1" stop-color="#885EFE"/>
</linearGradient>
<linearGradient id="paint34_linear_207_143" x1="912.512" y1="842.805" x2="1037.33" y2="562.448" gradientUnits="userSpaceOnUse">
<stop stop-color="#FF1CF7"/>
<stop offset="1" stop-color="#885EFE"/>
</linearGradient>
<linearGradient id="paint35_linear_207_143" x1="907.239" y1="842.459" x2="1036.68" y2="564.861" gradientUnits="userSpaceOnUse">
<stop stop-color="#FF1CF7"/>
<stop offset="1" stop-color="#885EFE"/>
</linearGradient>
<linearGradient id="paint36_linear_207_143" x1="901.995" y1="842.076" x2="1036.01" y2="567.315" gradientUnits="userSpaceOnUse">
<stop stop-color="#FF1CF7"/>
<stop offset="1" stop-color="#885EFE"/>
</linearGradient>
<linearGradient id="paint37_linear_207_143" x1="896.78" y1="841.656" x2="1035.29" y2="569.805" gradientUnits="userSpaceOnUse">
<stop stop-color="#FF1CF7"/>
<stop offset="1" stop-color="#885EFE"/>
</linearGradient>
<linearGradient id="paint38_linear_207_143" x1="891.595" y1="841.2" x2="1034.55" y2="572.334" gradientUnits="userSpaceOnUse">
<stop stop-color="#FF1CF7"/>
<stop offset="1" stop-color="#885EFE"/>
</linearGradient>
<linearGradient id="paint39_linear_207_143" x1="886.441" y1="840.708" x2="1033.78" y2="574.898" gradientUnits="userSpaceOnUse">
<stop stop-color="#FF1CF7"/>
<stop offset="1" stop-color="#885EFE"/>
</linearGradient>
<linearGradient id="paint40_linear_207_143" x1="881.316" y1="840.182" x2="1032.98" y2="577.499" gradientUnits="userSpaceOnUse">
<stop stop-color="#FF1CF7"/>
<stop offset="1" stop-color="#885EFE"/>
</linearGradient>
<linearGradient id="paint41_linear_207_143" x1="876.223" y1="839.621" x2="1032.14" y2="580.134" gradientUnits="userSpaceOnUse">
<stop stop-color="#FF1CF7"/>
<stop offset="1" stop-color="#885EFE"/>
</linearGradient>
<linearGradient id="paint42_linear_207_143" x1="871.162" y1="839.027" x2="1031.27" y2="582.805" gradientUnits="userSpaceOnUse">
<stop stop-color="#FF1CF7"/>
<stop offset="1" stop-color="#885EFE"/>
</linearGradient>
<linearGradient id="paint43_linear_207_143" x1="866.134" y1="838.4" x2="1030.36" y2="585.51" gradientUnits="userSpaceOnUse">
<stop stop-color="#FF1CF7"/>
<stop offset="1" stop-color="#885EFE"/>
</linearGradient>
<linearGradient id="paint44_linear_207_143" x1="861.138" y1="837.74" x2="1029.42" y2="588.248" gradientUnits="userSpaceOnUse">
<stop stop-color="#FF1CF7"/>
<stop offset="1" stop-color="#885EFE"/>
</linearGradient>
<linearGradient id="paint45_linear_207_143" x1="856.176" y1="837.048" x2="1028.45" y2="591.018" gradientUnits="userSpaceOnUse">
<stop stop-color="#FF1CF7"/>
<stop offset="1" stop-color="#885EFE"/>
</linearGradient>
<linearGradient id="paint46_linear_207_143" x1="851.248" y1="836.327" x2="1027.44" y2="593.822" gradientUnits="userSpaceOnUse">
<stop stop-color="#FF1CF7"/>
<stop offset="1" stop-color="#885EFE"/>
</linearGradient>
<linearGradient id="paint47_linear_207_143" x1="846.355" y1="835.574" x2="1026.39" y2="596.656" gradientUnits="userSpaceOnUse">
<stop stop-color="#FF1CF7"/>
<stop offset="1" stop-color="#885EFE"/>
</linearGradient>
<linearGradient id="paint48_linear_207_143" x1="841.496" y1="834.791" x2="1025.31" y2="599.52" gradientUnits="userSpaceOnUse">
<stop stop-color="#FF1CF7"/>
<stop offset="1" stop-color="#885EFE"/>
</linearGradient>
<linearGradient id="paint49_linear_207_143" x1="836.673" y1="833.979" x2="1024.19" y2="602.415" gradientUnits="userSpaceOnUse">
<stop stop-color="#FF1CF7"/>
<stop offset="1" stop-color="#885EFE"/>
</linearGradient>
<linearGradient id="paint50_linear_207_143" x1="831.885" y1="833.139" x2="1023.03" y2="605.338" gradientUnits="userSpaceOnUse">
<stop stop-color="#FF1CF7"/>
<stop offset="1" stop-color="#885EFE"/>
</linearGradient>
<linearGradient id="paint51_linear_207_143" x1="827.134" y1="832.272" x2="1021.84" y2="608.29" gradientUnits="userSpaceOnUse">
<stop stop-color="#FF1CF7"/>
<stop offset="1" stop-color="#885EFE"/>
</linearGradient>
<linearGradient id="paint52_linear_207_143" x1="822.42" y1="831.378" x2="1020.61" y2="611.27" gradientUnits="userSpaceOnUse">
<stop stop-color="#FF1CF7"/>
<stop offset="1" stop-color="#885EFE"/>
</linearGradient>
<linearGradient id="paint53_linear_207_143" x1="817.742" y1="830.457" x2="1019.33" y2="614.277" gradientUnits="userSpaceOnUse">
<stop stop-color="#FF1CF7"/>
<stop offset="1" stop-color="#885EFE"/>
</linearGradient>
<linearGradient id="paint54_linear_207_143" x1="813.102" y1="829.511" x2="1018.02" y2="617.31" gradientUnits="userSpaceOnUse">
<stop stop-color="#FF1CF7"/>
<stop offset="1" stop-color="#885EFE"/>
</linearGradient>
<linearGradient id="paint55_linear_207_143" x1="808.5" y1="828.54" x2="1016.67" y2="620.368" gradientUnits="userSpaceOnUse">
<stop stop-color="#FF1CF7"/>
<stop offset="1" stop-color="#885EFE"/>
</linearGradient>
<linearGradient id="paint56_linear_207_143" x1="803.936" y1="827.545" x2="1015.28" y2="623.451" gradientUnits="userSpaceOnUse">
<stop stop-color="#FF1CF7"/>
<stop offset="1" stop-color="#885EFE"/>
</linearGradient>
<linearGradient id="paint57_linear_207_143" x1="799.411" y1="826.527" x2="1013.85" y2="626.558" gradientUnits="userSpaceOnUse">
<stop stop-color="#FF1CF7"/>
<stop offset="1" stop-color="#885EFE"/>
</linearGradient>
<linearGradient id="paint58_linear_207_143" x1="794.925" y1="825.486" x2="1012.38" y2="629.688" gradientUnits="userSpaceOnUse">
<stop stop-color="#FF1CF7"/>
<stop offset="1" stop-color="#885EFE"/>
</linearGradient>
<linearGradient id="paint59_linear_207_143" x1="790.478" y1="824.424" x2="1010.87" y2="632.841" gradientUnits="userSpaceOnUse">
<stop stop-color="#FF1CF7"/>
<stop offset="1" stop-color="#885EFE"/>
</linearGradient>
<linearGradient id="paint60_linear_207_143" x1="786.07" y1="823.34" x2="1009.32" y2="636.015" gradientUnits="userSpaceOnUse">
<stop stop-color="#FF1CF7"/>
<stop offset="1" stop-color="#885EFE"/>
</linearGradient>
<linearGradient id="paint61_linear_207_143" x1="781.702" y1="822.236" x2="1007.72" y2="639.21" gradientUnits="userSpaceOnUse">
<stop stop-color="#FF1CF7"/>
<stop offset="1" stop-color="#885EFE"/>
</linearGradient>
<linearGradient id="paint62_linear_207_143" x1="777.375" y1="821.112" x2="1006.08" y2="642.425" gradientUnits="userSpaceOnUse">
<stop stop-color="#FF1CF7"/>
<stop offset="1" stop-color="#885EFE"/>
</linearGradient>
<linearGradient id="paint63_linear_207_143" x1="773.087" y1="819.97" x2="1004.41" y2="645.66" gradientUnits="userSpaceOnUse">
<stop stop-color="#FF1CF7"/>
<stop offset="1" stop-color="#885EFE"/>
</linearGradient>
<linearGradient id="paint64_linear_207_143" x1="768.841" y1="818.81" x2="1002.68" y2="648.913" gradientUnits="userSpaceOnUse">
<stop stop-color="#FF1CF7"/>
<stop offset="1" stop-color="#885EFE"/>
</linearGradient>
<linearGradient id="paint65_linear_207_143" x1="764.635" y1="817.633" x2="1000.92" y2="652.183" gradientUnits="userSpaceOnUse">
<stop stop-color="#FF1CF7"/>
<stop offset="1" stop-color="#885EFE"/>
</linearGradient>
<linearGradient id="paint66_linear_207_143" x1="760.47" y1="816.439" x2="999.115" y2="655.471" gradientUnits="userSpaceOnUse">
<stop stop-color="#FF1CF7"/>
<stop offset="1" stop-color="#885EFE"/>
</linearGradient>
<linearGradient id="paint67_linear_207_143" x1="756.347" y1="815.228" x2="997.266" y2="658.773" gradientUnits="userSpaceOnUse">
<stop stop-color="#FF1CF7"/>
<stop offset="1" stop-color="#885EFE"/>
</linearGradient>
<linearGradient id="paint68_linear_207_143" x1="752.265" y1="814.003" x2="995.373" y2="662.092" gradientUnits="userSpaceOnUse">
<stop stop-color="#FF1CF7"/>
<stop offset="1" stop-color="#885EFE"/>
</linearGradient>
<linearGradient id="paint69_linear_207_143" x1="748.224" y1="812.764" x2="993.437" y2="665.425" gradientUnits="userSpaceOnUse">
<stop stop-color="#FF1CF7"/>
<stop offset="1" stop-color="#885EFE"/>
</linearGradient>
<linearGradient id="paint70_linear_207_143" x1="744.226" y1="811.511" x2="991.458" y2="668.771" gradientUnits="userSpaceOnUse">
<stop stop-color="#FF1CF7"/>
<stop offset="1" stop-color="#885EFE"/>
</linearGradient>
<linearGradient id="paint71_linear_207_143" x1="740.27" y1="810.246" x2="989.435" y2="672.132" gradientUnits="userSpaceOnUse">
<stop stop-color="#FF1CF7"/>
<stop offset="1" stop-color="#885EFE"/>
</linearGradient>
<linearGradient id="paint72_linear_207_143" x1="736.355" y1="808.968" x2="987.368" y2="675.503" gradientUnits="userSpaceOnUse">
<stop stop-color="#FF1CF7"/>
<stop offset="1" stop-color="#885EFE"/>
</linearGradient>
<linearGradient id="paint73_linear_207_143" x1="732.483" y1="807.68" x2="985.257" y2="678.886" gradientUnits="userSpaceOnUse">
<stop stop-color="#FF1CF7"/>
<stop offset="1" stop-color="#885EFE"/>
</linearGradient>
<linearGradient id="paint74_linear_207_143" x1="728.654" y1="806.381" x2="983.102" y2="682.279" gradientUnits="userSpaceOnUse">
<stop stop-color="#FF1CF7"/>
<stop offset="1" stop-color="#885EFE"/>
</linearGradient>
<linearGradient id="paint75_linear_207_143" x1="724.866" y1="805.074" x2="980.903" y2="685.682" gradientUnits="userSpaceOnUse">
<stop stop-color="#FF1CF7"/>
<stop offset="1" stop-color="#885EFE"/>
</linearGradient>
<linearGradient id="paint76_linear_207_143" x1="721.122" y1="803.756" x2="978.659" y2="689.093" gradientUnits="userSpaceOnUse">
<stop stop-color="#FF1CF7"/>
<stop offset="1" stop-color="#885EFE"/>
</linearGradient>
<linearGradient id="paint77_linear_207_143" x1="717.42" y1="802.431" x2="976.372" y2="692.513" gradientUnits="userSpaceOnUse">
<stop stop-color="#FF1CF7"/>
<stop offset="1" stop-color="#885EFE"/>
</linearGradient>
<linearGradient id="paint78_linear_207_143" x1="713.76" y1="801.1" x2="974.04" y2="695.94" gradientUnits="userSpaceOnUse">
<stop stop-color="#FF1CF7"/>
<stop offset="1" stop-color="#885EFE"/>
</linearGradient>
<linearGradient id="paint79_linear_207_143" x1="710.144" y1="799.762" x2="971.663" y2="699.374" gradientUnits="userSpaceOnUse">
<stop stop-color="#FF1CF7"/>
<stop offset="1" stop-color="#885EFE"/>
</linearGradient>
<linearGradient id="paint80_linear_207_143" x1="706.569" y1="798.417" x2="969.243" y2="702.812" gradientUnits="userSpaceOnUse">
<stop stop-color="#FF1CF7"/>
<stop offset="1" stop-color="#885EFE"/>
</linearGradient>
<linearGradient id="paint81_linear_207_143" x1="703.038" y1="797.068" x2="966.778" y2="706.256" gradientUnits="userSpaceOnUse">
<stop stop-color="#FF1CF7"/>
<stop offset="1" stop-color="#885EFE"/>
</linearGradient>
<linearGradient id="paint82_linear_207_143" x1="699.549" y1="795.715" x2="964.268" y2="709.703" gradientUnits="userSpaceOnUse">
<stop stop-color="#FF1CF7"/>
<stop offset="1" stop-color="#885EFE"/>
</linearGradient>
<linearGradient id="paint83_linear_207_143" x1="696.103" y1="794.359" x2="961.714" y2="713.153" gradientUnits="userSpaceOnUse">
<stop stop-color="#FF1CF7"/>
<stop offset="1" stop-color="#885EFE"/>
</linearGradient>
<linearGradient id="paint84_linear_207_143" x1="692.701" y1="792.999" x2="959.116" y2="716.606" gradientUnits="userSpaceOnUse">
<stop stop-color="#FF1CF7"/>
<stop offset="1" stop-color="#885EFE"/>
</linearGradient>
<linearGradient id="paint85_linear_207_143" x1="689.339" y1="791.639" x2="956.473" y2="720.06" gradientUnits="userSpaceOnUse">
<stop stop-color="#FF1CF7"/>
<stop offset="1" stop-color="#885EFE"/>
</linearGradient>
<linearGradient id="paint86_linear_207_143" x1="686.022" y1="790.276" x2="953.787" y2="723.515" gradientUnits="userSpaceOnUse">
<stop stop-color="#FF1CF7"/>
<stop offset="1" stop-color="#885EFE"/>
</linearGradient>
<linearGradient id="paint87_linear_207_143" x1="682.746" y1="788.914" x2="951.056" y2="726.97" gradientUnits="userSpaceOnUse">
<stop stop-color="#FF1CF7"/>
<stop offset="1" stop-color="#885EFE"/>
</linearGradient>
<linearGradient id="paint88_linear_207_143" x1="679.513" y1="787.553" x2="948.281" y2="730.425" gradientUnits="userSpaceOnUse">
<stop stop-color="#FF1CF7"/>
<stop offset="1" stop-color="#885EFE"/>
</linearGradient>
<linearGradient id="paint89_linear_207_143" x1="676.322" y1="786.193" x2="945.462" y2="733.877" gradientUnits="userSpaceOnUse">
<stop stop-color="#FF1CF7"/>
<stop offset="1" stop-color="#885EFE"/>
</linearGradient>
<linearGradient id="paint90_linear_207_143" x1="673.172" y1="784.834" x2="942.6" y2="737.327" gradientUnits="userSpaceOnUse">
<stop stop-color="#FF1CF7"/>
<stop offset="1" stop-color="#885EFE"/>
</linearGradient>
<linearGradient id="paint91_linear_207_143" x1="670.066" y1="783.48" x2="939.694" y2="740.775" gradientUnits="userSpaceOnUse">
<stop stop-color="#FF1CF7"/>
<stop offset="1" stop-color="#885EFE"/>
</linearGradient>
<linearGradient id="paint92_linear_207_143" x1="667.001" y1="782.127" x2="936.744" y2="744.217" gradientUnits="userSpaceOnUse">
<stop stop-color="#FF1CF7"/>
<stop offset="1" stop-color="#885EFE"/>
</linearGradient>
<linearGradient id="paint93_linear_207_143" x1="663.978" y1="780.78" x2="933.751" y2="747.656" gradientUnits="userSpaceOnUse">
<stop stop-color="#FF1CF7"/>
<stop offset="1" stop-color="#885EFE"/>
</linearGradient>
<linearGradient id="paint94_linear_207_143" x1="660.996" y1="779.437" x2="930.715" y2="751.088" gradientUnits="userSpaceOnUse">
<stop stop-color="#FF1CF7"/>
<stop offset="1" stop-color="#885EFE"/>
</linearGradient>
<linearGradient id="paint95_linear_207_143" x1="658.056" y1="778.101" x2="927.636" y2="754.516" gradientUnits="userSpaceOnUse">
<stop stop-color="#FF1CF7"/>
<stop offset="1" stop-color="#885EFE"/>
</linearGradient>
<linearGradient id="paint96_linear_207_143" x1="655.157" y1="776.77" x2="924.514" y2="757.935" gradientUnits="userSpaceOnUse">
<stop stop-color="#FF1CF7"/>
<stop offset="1" stop-color="#885EFE"/>
</linearGradient>
<linearGradient id="paint97_linear_207_143" x1="652.299" y1="775.448" x2="921.35" y2="761.347" gradientUnits="userSpaceOnUse">
<stop stop-color="#FF1CF7"/>
<stop offset="1" stop-color="#885EFE"/>
</linearGradient>
<linearGradient id="paint98_linear_207_143" x1="649.482" y1="774.131" x2="918.143" y2="764.749" gradientUnits="userSpaceOnUse">
<stop stop-color="#FF1CF7"/>
<stop offset="1" stop-color="#885EFE"/>
</linearGradient>
<linearGradient id="paint99_linear_207_143" x1="646.705" y1="772.825" x2="914.895" y2="768.144" gradientUnits="userSpaceOnUse">
<stop stop-color="#FF1CF7"/>
<stop offset="1" stop-color="#885EFE"/>
</linearGradient>
<linearGradient id="paint100_linear_207_143" x1="643.969" y1="771.528" x2="911.605" y2="771.528" gradientUnits="userSpaceOnUse">
<stop stop-color="#FF1CF7"/>
<stop offset="1" stop-color="#885EFE"/>
</linearGradient>
<clipPath id="clip0_207_143">
<rect width="1920" height="1014" fill="white"/>
</clipPath>
</defs>
</svg>
