<svg width="1691" height="866" viewBox="0 0 1691 866" fill="none" xmlns="http://www.w3.org/2000/svg">
<g clip-path="url(#clip0_290_227)">
<rect width="1691" height="866" fill="white"/>
<rect width="1920" height="1117" fill="#010101"/>
<g filter="url(#filter0_f_290_227)">
<path opacity="0.010101" d="M774.498 -64.864L662.688 172.46C658.903 180.494 660.722 190.052 667.193 196.134L858.351 375.809C864.822 381.892 874.474 383.115 882.258 378.841L1112.21 252.561C1119.99 248.287 1124.14 239.485 1122.48 230.761L1073.44 -26.9587C1071.78 -35.6833 1064.69 -42.3467 1055.88 -43.4639L795.622 -76.4642C786.811 -77.5813 778.283 -72.8982 774.498 -64.864Z" stroke="url(#paint0_linear_290_227)"/>
<path opacity="0.020202" d="M775.627 -65.5967L659.927 169.263C656.002 177.23 657.654 186.818 664.018 193.012L851.63 375.625C857.994 381.819 867.623 383.211 875.481 379.073L1107.13 257.074C1114.99 252.936 1119.29 244.208 1117.78 235.456L1073.34 -22.556C1071.83 -31.3082 1064.86 -38.0943 1056.07 -39.3651L796.95 -76.8265C788.16 -78.0972 779.551 -73.5636 775.627 -65.5967Z" stroke="url(#paint1_linear_290_227)"/>
<path opacity="0.030303" d="M776.779 -66.2588L657.241 166.073C653.178 173.97 654.662 183.585 660.917 189.89L844.939 375.372C851.194 381.676 860.797 383.236 868.726 379.236L1102 261.538C1109.92 257.537 1114.38 248.886 1113.02 240.109L1073.17 -18.1142C1071.81 -26.8914 1064.96 -33.7981 1056.19 -35.2221L798.295 -77.1147C789.528 -78.5386 780.842 -74.1559 776.779 -66.2588Z" stroke="url(#paint2_linear_290_227)"/>
<path opacity="0.040404" d="M777.954 -66.8496L654.632 162.892C650.431 170.717 651.747 180.357 657.891 186.77L838.28 375.051C844.424 381.463 853.999 383.191 861.996 379.329L1096.81 265.951C1104.8 262.09 1109.4 253.517 1108.2 244.718L1072.93 -13.634C1071.73 -22.4336 1065 -29.4588 1056.26 -31.0356L799.656 -77.3284C790.916 -78.9051 782.155 -74.6747 777.954 -66.8496Z" stroke="url(#paint3_linear_290_227)"/>
<path opacity="0.050505" d="M779.15 -67.3701L652.096 159.72C647.759 167.471 648.907 177.132 654.938 183.651L831.652 374.661C837.683 381.18 847.226 383.074 855.29 379.353L1091.56 270.313C1099.62 266.592 1104.37 258.101 1103.33 249.282L1072.63 -9.11804C1071.59 -17.9372 1064.98 -25.0788 1056.27 -26.8079L801.031 -77.4685C792.32 -79.1975 783.486 -75.1207 779.15 -67.3701Z" stroke="url(#paint4_linear_290_227)"/>
<path opacity="0.0606061" d="M780.364 -67.8204L649.634 156.558C645.163 164.232 646.142 173.912 652.058 180.535L825.057 374.204C830.974 380.827 840.482 382.888 848.61 379.307L1086.26 274.622C1094.39 271.042 1099.28 262.636 1098.39 253.8L1072.27 -4.56782C1071.37 -13.4039 1064.89 -20.6598 1056.21 -22.5406L802.418 -77.5354C793.739 -79.4162 784.835 -75.4941 780.364 -67.8204Z" stroke="url(#paint5_linear_290_227)"/>
<path opacity="0.0707071" d="M781.596 -68.1997L647.246 153.409C642.642 161.003 643.451 170.699 649.251 177.424L818.497 373.68C824.297 380.405 833.768 382.631 841.957 379.194L1080.91 278.878C1089.1 275.44 1094.14 267.12 1093.4 258.27L1071.83 0.01595C1071.09 -8.83438 1064.74 -16.2023 1056.1 -18.2343L803.817 -77.5283C795.171 -79.5603 786.2 -75.7942 781.596 -68.1997Z" stroke="url(#paint6_linear_290_227)"/>
<path opacity="0.0808081" d="M782.845 -68.507L644.931 150.273C640.195 157.786 640.835 167.494 646.517 174.32L811.971 373.091C817.653 379.916 827.084 382.307 835.331 379.013L1075.5 283.08C1083.75 279.786 1088.94 271.555 1088.35 262.693L1071.33 4.63296C1070.75 -4.22892 1064.52 -11.7066 1055.91 -13.8892L805.225 -77.4464C796.616 -79.629 787.581 -76.02 782.845 -68.507Z" stroke="url(#paint7_linear_290_227)"/>
<path opacity="0.0909091" d="M784.11 -68.7428L642.69 147.152C637.823 154.581 638.294 164.299 643.856 171.223L805.483 372.436C811.045 379.36 820.433 381.916 828.736 378.766L1070.05 287.228C1078.35 284.078 1083.68 275.939 1083.25 267.068L1070.76 9.2812C1070.33 0.410474 1064.24 -7.17467 1055.67 -9.50715L806.642 -77.2902C798.073 -79.6227 788.976 -76.172 784.11 -68.7428Z" stroke="url(#paint8_linear_290_227)"/>
<path opacity="0.10101" d="M785.389 -68.908L640.522 144.046C635.527 151.389 635.828 161.114 641.268 168.134L799.033 371.717C804.473 378.737 813.815 381.456 822.172 378.451L1064.54 291.318C1072.9 288.314 1078.37 280.269 1078.1 271.393L1070.13 13.9583C1069.85 5.0814 1063.89 -2.60896 1055.37 -5.09064L808.068 -77.0609C799.54 -79.5426 790.385 -76.2512 785.389 -68.908Z" stroke="url(#paint9_linear_290_227)"/>
<path opacity="0.111111" d="M786.68 -69.0005L638.426 140.959C633.303 148.214 633.434 157.942 638.751 165.056L792.621 370.935C797.938 378.049 807.23 380.931 815.639 378.072L1058.99 295.354C1067.4 292.496 1073.01 284.548 1072.89 275.668L1069.42 18.6651C1069.3 9.7848 1063.48 1.99163 1054.99 -0.638496L809.498 -76.7563C801.015 -79.3864 791.803 -76.2553 786.68 -69.0005Z" stroke="url(#paint10_linear_290_227)"/>
<path opacity="0.121212" d="M787.984 -69.022L636.402 137.889C631.153 145.053 631.115 154.782 636.306 161.988L786.249 370.09C791.441 377.296 800.682 380.339 809.139 377.628L1053.39 299.331C1061.85 296.62 1067.6 288.772 1067.63 279.89L1068.65 23.3984C1068.68 14.5173 1062.99 6.62366 1054.56 3.84586L810.933 -76.3785C802.497 -79.1562 793.233 -76.1863 787.984 -69.022Z" stroke="url(#paint11_linear_290_227)"/>
<path opacity="0.131313" d="M789.298 -68.9712L634.449 134.839C629.076 141.911 628.868 151.638 633.933 158.933L779.918 369.183C784.983 376.479 794.169 379.682 802.673 377.119L1047.74 303.251C1056.25 300.688 1062.13 292.941 1062.32 284.062L1067.8 28.1582C1067.99 19.2791 1062.44 11.2874 1054.06 8.36282L812.371 -75.9261C803.986 -78.8506 794.67 -76.0429 789.298 -68.9712Z" stroke="url(#paint12_linear_290_227)"/>
<path opacity="0.141414" d="M790.62 -68.849L632.567 131.81C627.072 138.787 626.694 148.509 631.631 155.891L773.628 368.215C778.565 375.598 787.695 378.961 796.241 376.547L1042.05 307.112C1050.6 304.698 1056.62 297.055 1056.97 288.18L1066.89 32.9423C1067.23 24.0679 1061.82 15.9806 1053.49 12.9101L813.812 -75.4001C805.478 -78.4706 796.116 -75.8258 790.62 -68.849Z" stroke="url(#paint13_linear_290_227)"/>
<path opacity="0.151515" d="M791.952 -68.6553L630.757 128.803C625.141 135.683 624.593 145.397 629.401 152.864L767.383 367.187C772.19 374.654 781.259 378.177 789.847 375.912L1036.32 310.913C1044.91 308.648 1051.06 301.112 1051.56 292.244L1065.91 37.7496C1066.41 28.8826 1061.14 20.7021 1052.86 17.4866L815.254 -74.8006C806.975 -78.016 797.568 -75.5351 791.952 -68.6553Z" stroke="url(#paint14_linear_290_227)"/>
<path opacity="0.161616" d="M793.287 -68.3888L629.014 125.82C623.278 132.601 622.561 142.304 627.238 149.854L761.179 366.1C765.855 373.65 774.861 377.331 783.487 375.216L1030.54 314.655C1039.17 312.541 1045.45 305.112 1046.1 296.255L1064.85 42.5799C1065.5 33.7229 1060.38 25.4518 1052.16 22.0923L816.693 -74.1265C808.472 -77.4859 799.022 -75.1695 793.287 -68.3888Z" stroke="url(#paint15_linear_290_227)"/>
<path opacity="0.171717" d="M794.63 -68.0503L627.343 122.862C621.49 129.542 620.604 139.23 625.148 146.861L755.022 364.955C759.566 372.586 768.506 376.423 777.168 374.459L1024.72 318.336C1033.38 316.373 1039.79 309.055 1040.6 300.211L1063.73 47.4312C1064.53 38.587 1059.56 30.2277 1051.4 26.7253L818.132 -73.3786C809.971 -76.8811 800.483 -74.73 794.63 -68.0503Z" stroke="url(#paint16_linear_290_227)"/>
<path opacity="0.181818" d="M795.975 -67.6403L625.739 119.93C619.771 126.506 618.715 136.178 623.125 143.887L748.909 363.753C753.32 371.462 762.192 375.454 770.886 373.642L1018.86 321.957C1027.56 320.144 1034.09 312.94 1035.06 304.111L1062.53 52.3018C1063.49 43.4731 1058.66 35.0282 1050.56 31.3838L819.567 -72.5576C811.468 -76.2019 801.944 -74.2167 795.975 -67.6403Z" stroke="url(#paint17_linear_290_227)"/>
<path opacity="0.191919" d="M797.324 -67.159L624.205 117.024C618.122 123.495 616.898 133.147 621.173 140.932L742.845 362.493C747.12 370.278 755.921 374.425 764.646 372.764L1012.96 325.514C1021.69 323.854 1028.35 316.765 1029.47 307.954L1061.26 57.1902C1062.38 48.3796 1057.7 39.8517 1049.66 36.0666L820.998 -71.6639C812.964 -75.449 803.406 -73.6303 797.324 -67.159Z" stroke="url(#paint18_linear_290_227)"/>
<path opacity="0.20202" d="M798.674 -66.608L622.737 114.145C616.543 120.509 615.151 130.138 619.289 137.996L736.828 361.177C740.966 369.035 749.694 373.334 758.446 371.827L1007.03 329.008C1015.78 327.5 1022.56 320.528 1023.83 311.738L1059.93 62.0937C1061.2 53.3039 1056.66 44.6956 1048.7 40.7708L822.423 -70.699C814.456 -74.6237 804.868 -72.9721 798.674 -66.608Z" stroke="url(#paint19_linear_290_227)"/>
<path opacity="0.212121" d="M800.022 -65.9822L621.336 111.298C615.031 117.553 613.471 127.156 617.472 135.085L730.858 359.809C734.858 367.738 743.51 372.189 752.287 370.834L1001.05 332.441C1009.83 331.087 1016.73 324.234 1018.16 315.468L1058.52 67.0161C1059.94 58.2499 1055.56 49.5637 1047.66 45.5005L823.839 -69.658C815.942 -73.7212 806.327 -72.2372 800.022 -65.9822Z" stroke="url(#paint20_linear_290_227)"/>
<path opacity="0.222222" d="M801.371 -65.2874L620.001 108.479C613.588 114.623 611.861 124.198 615.723 132.196L724.938 358.385C728.8 366.382 737.372 370.984 746.172 369.783L995.04 335.809C1003.84 334.608 1010.86 327.877 1012.44 319.137L1057.04 71.9504C1058.61 63.2104 1054.38 54.4491 1046.56 50.2486L825.248 -68.547C817.423 -72.7474 807.783 -71.4314 801.371 -65.2874Z" stroke="url(#paint21_linear_290_227)"/>
<path opacity="0.232323" d="M802.716 -64.5199L618.732 105.694C612.213 111.725 610.319 121.268 614.04 129.332L719.069 356.91C722.79 364.974 731.281 369.724 740.1 368.677L988.995 339.114C997.815 338.067 1004.96 331.459 1006.69 322.748L1055.48 76.8993C1057.21 68.1881 1053.13 59.3543 1045.38 55.018L826.647 -67.3624C818.896 -71.6987 809.235 -70.5511 802.716 -64.5199Z" stroke="url(#paint22_linear_290_227)"/>
<path opacity="0.242424" d="M804.059 -63.6816L617.529 102.941C610.905 108.857 608.845 118.366 612.425 126.493L713.252 355.383C716.832 363.511 725.238 368.409 734.074 367.515L982.919 342.354C991.755 341.461 999.01 334.98 1000.89 326.3L1053.86 81.8598C1055.74 73.1801 1051.82 64.2764 1044.14 59.8055L828.036 -66.106C820.362 -70.5769 810.682 -69.5982 804.059 -63.6816Z" stroke="url(#paint23_linear_290_227)"/>
<path opacity="0.252525" d="M805.397 -62.7741L616.39 100.22C609.664 106.02 607.438 115.492 610.876 123.68L707.487 353.805C710.924 361.993 719.244 367.037 728.094 366.298L976.81 345.528C985.66 344.789 993.028 338.435 995.06 329.79L1052.16 86.8291C1054.2 78.1835 1050.43 69.2128 1042.84 64.6086L829.412 -64.7796C821.818 -69.3837 812.122 -68.5741 805.397 -62.7741Z" stroke="url(#paint24_linear_290_227)"/>
<path opacity="0.262626" d="M806.726 -61.7955L615.312 97.5354C608.486 103.217 606.095 112.648 609.389 120.896L701.772 352.177C705.066 360.425 713.297 365.613 722.158 365.028L970.668 348.637C979.53 348.053 987.008 341.829 989.19 333.22L1050.4 91.808C1052.58 83.1993 1048.97 74.1642 1041.46 69.4281L830.773 -63.3815C823.26 -68.1175 813.552 -67.4772 806.726 -61.7955Z" stroke="url(#paint25_linear_290_227)"/>
<path opacity="0.272727" d="M808.05 -60.7464L614.299 94.8865C607.375 100.448 604.82 109.836 607.97 118.14L696.113 350.501C699.263 358.805 707.402 364.136 716.272 363.706L964.499 351.681C973.37 351.251 980.955 345.158 983.287 336.589L1048.56 96.7949C1050.89 88.2256 1047.44 79.1288 1040.01 74.2624L832.121 -61.9125C824.692 -66.7789 814.974 -66.3082 808.05 -60.7464Z" stroke="url(#paint26_linear_290_227)"/>
<path opacity="0.282828" d="M809.365 -59.6275L613.347 92.2746C606.327 97.7147 603.609 107.056 606.613 115.414L690.508 348.778C693.512 357.135 701.557 362.608 710.434 362.333L958.301 354.657C967.178 354.383 974.868 348.423 977.35 339.896L1046.65 101.788C1049.13 93.2608 1045.84 84.1053 1038.49 79.11L833.452 -60.3734C826.109 -65.3687 816.385 -65.0675 809.365 -59.6275Z" stroke="url(#paint27_linear_290_227)"/>
<path opacity="0.292929" d="M810.669 -58.4379L612.457 89.7017C605.343 95.0184 602.461 104.311 605.32 112.72L684.958 347.009C687.816 355.418 695.764 361.029 704.644 360.91L952.076 357.569C960.956 357.449 968.749 351.624 971.379 343.141L1044.66 106.788C1047.29 98.3048 1044.16 89.0932 1036.91 83.9705L834.766 -58.7633C827.511 -63.886 817.783 -63.7547 810.669 -58.4379Z" stroke="url(#paint28_linear_290_227)"/>
<path opacity="0.30303" d="M811.962 -57.1799L611.626 87.167C604.42 92.3588 601.377 101.6 604.088 110.057L679.463 345.194C682.174 353.651 690.022 359.401 698.903 359.436L945.824 360.412C954.705 360.447 962.599 354.759 965.376 346.324L1042.61 111.79C1045.38 103.354 1042.41 94.0895 1035.25 88.841L836.061 -57.0847C828.897 -62.3332 819.168 -62.3717 811.962 -57.1799Z" stroke="url(#paint29_linear_290_227)"/>
<path opacity="0.313131" d="M813.243 -55.8526L610.855 84.6727C603.559 89.7379 600.356 98.9245 602.919 107.428L674.025 343.335C676.588 351.838 684.335 357.724 693.214 357.914L939.548 363.188C948.427 363.378 956.419 357.829 959.343 349.443L1040.48 116.795C1043.4 108.409 1040.6 99.094 1033.53 93.7212L837.337 -55.3368C830.265 -60.7096 820.538 -60.9178 813.243 -55.8526Z" stroke="url(#paint30_linear_290_227)"/>
<path opacity="0.323232" d="M814.51 -54.4574L610.142 82.2187C602.76 87.1558 599.396 96.2851 601.81 104.832L668.644 341.433C671.058 349.979 678.701 355.999 687.575 356.344L933.249 365.896C942.123 366.241 950.21 360.832 953.281 352.499L1038.28 121.801C1041.35 113.467 1038.71 104.104 1031.73 98.6091L838.591 -53.5212C831.614 -59.0166 821.892 -59.3946 814.51 -54.4574Z" stroke="url(#paint31_linear_290_227)"/>
<path opacity="0.333333" d="M815.763 -52.9935L609.488 79.8072C602.021 84.6148 598.498 93.6839 600.763 102.271L663.321 339.488C665.586 348.076 673.123 354.229 681.99 354.728L926.928 368.536C935.795 369.036 943.976 363.769 947.191 355.49L1036.01 126.807C1039.23 118.528 1036.75 109.121 1029.87 103.504L839.824 -51.6372C832.944 -57.2535 823.23 -57.801 815.763 -52.9935Z" stroke="url(#paint32_linear_290_227)"/>
<path opacity="0.343434" d="M817.001 -51.4621L608.892 77.4383C601.341 82.1148 597.661 91.1211 599.776 99.7469L658.058 337.503C660.172 346.129 667.601 352.412 676.458 353.067L920.587 371.107C929.444 371.762 937.716 366.639 941.075 358.418L1033.67 131.811C1037.03 123.59 1034.72 114.141 1027.94 108.405L841.034 -49.6861C834.254 -55.4216 824.551 -56.1386 817.001 -51.4621Z" stroke="url(#paint33_linear_290_227)"/>
<path opacity="0.353535" d="M818.219 -49.8622L608.348 75.1146C600.718 79.6586 596.881 88.5993 598.845 97.2606L652.851 335.479C654.815 344.14 662.132 350.552 670.976 351.361L914.224 373.612C923.069 374.421 931.428 369.443 934.93 361.281L1031.26 136.814C1034.76 128.653 1032.61 119.165 1025.93 113.312L842.218 -47.667C835.538 -53.52 825.849 -54.4062 818.219 -49.8622Z" stroke="url(#paint34_linear_290_227)"/>
<path opacity="0.363636" d="M819.42 -48.196L607.862 72.8349C600.153 77.2451 596.161 86.1174 597.973 94.8117L647.705 333.416C649.517 342.11 656.722 348.649 665.55 349.612L907.845 376.047C916.673 377.01 925.118 372.179 928.763 364.08L1028.78 141.813C1032.42 133.714 1030.44 124.189 1023.86 118.221L843.377 -45.5823C836.8 -51.551 827.129 -52.6062 819.42 -48.196Z" stroke="url(#paint35_linear_290_227)"/>
<path opacity="0.373737" d="M820.601 -46.4634L607.43 70.6009C599.645 74.8759 595.498 83.6772 597.159 92.4018L642.62 331.315C644.28 340.04 651.369 346.703 660.18 347.82L901.448 378.413C910.259 379.53 918.786 374.847 922.572 366.812L1026.22 146.806C1030.01 138.772 1028.19 129.214 1021.72 123.132L844.509 -43.432C838.038 -49.5145 828.386 -50.7383 820.601 -46.4634Z" stroke="url(#paint36_linear_290_227)"/>
<path opacity="0.383838" d="M821.764 -44.6653L607.052 68.4131C599.194 72.5516 594.894 81.2792 596.402 90.0314L637.596 329.178C639.104 337.93 646.075 344.716 654.865 345.987L895.037 380.709C903.826 381.98 912.435 377.446 916.36 369.479L1023.6 151.792C1027.52 143.826 1025.87 134.238 1019.51 128.043L845.615 -41.217C839.251 -47.4116 829.622 -48.8037 821.764 -44.6653Z" stroke="url(#paint37_linear_290_227)"/>
<path opacity="0.393939" d="M822.902 -42.8004L606.724 66.274C598.795 70.2746 594.344 78.9259 595.699 87.7031L632.632 327.006C633.987 335.784 640.839 342.69 649.605 344.114L888.609 382.938C897.375 384.362 906.062 379.979 910.125 372.082L1020.9 156.772C1024.97 148.875 1023.48 139.26 1017.23 132.955L846.69 -38.9364C840.435 -45.2411 830.831 -46.8011 822.902 -42.8004Z" stroke="url(#paint38_linear_290_227)"/>
<path opacity="0.40404" d="M824.019 -40.8724L606.449 64.1814C598.452 68.0431 593.85 76.6153 595.051 85.4148L627.731 324.799C628.932 333.599 635.663 340.624 644.403 342.201L882.169 385.095C890.91 386.672 899.671 382.441 903.871 374.616L1018.14 161.742C1022.34 153.917 1021.02 144.277 1014.88 137.864L847.735 -36.5938C841.591 -43.0067 832.017 -44.734 824.019 -40.8724Z" stroke="url(#paint39_linear_290_227)"/>
<path opacity="0.414141" d="M825.113 -38.8783L606.226 62.1394C598.162 65.8609 593.412 74.3516 594.459 83.1707L622.893 322.561C623.94 331.38 630.548 338.522 639.259 340.251L875.719 387.185C884.43 388.914 893.264 384.837 897.6 377.086L1015.31 166.702C1019.64 158.952 1018.5 149.291 1012.46 142.771L848.751 -34.1866C842.72 -40.7057 833.177 -42.5998 825.113 -38.8783Z" stroke="url(#paint40_linear_290_227)"/>
<path opacity="0.424242" d="M826.181 -36.821L606.05 60.1469C597.923 63.7271 593.025 72.1335 593.918 80.9696L618.116 320.291C619.01 329.127 625.491 336.383 634.171 338.264L869.256 389.204C877.936 391.085 886.84 387.163 891.311 379.489L1012.4 171.651C1016.87 163.978 1015.9 154.298 1009.98 147.674L849.733 -31.7174C843.817 -38.3408 834.308 -40.4012 826.181 -36.821Z" stroke="url(#paint41_linear_290_227)"/>
<path opacity="0.434343" d="M827.221 -34.7006L605.922 58.2048C597.733 61.6426 592.69 69.9624 593.429 78.8127L613.402 317.99C614.141 326.84 620.495 334.208 629.141 336.24L862.783 391.154C871.429 393.186 880.4 389.42 885.004 381.825L1009.43 176.587C1014.03 168.993 1013.22 159.297 1007.42 152.572L850.681 -29.1868C844.881 -35.9124 835.41 -38.1385 827.221 -34.7006Z" stroke="url(#paint42_linear_290_227)"/>
<path opacity="0.444444" d="M828.236 -32.5173L605.843 56.3146C597.596 59.609 592.407 67.8394 592.992 76.7013L608.753 315.66C609.337 324.522 615.562 331.999 624.171 334.182L856.304 393.035C864.913 395.217 873.948 391.608 878.684 384.095L1006.39 181.51C1011.13 173.997 1010.49 164.288 1004.8 157.463L851.596 -26.5948C845.914 -33.4207 836.483 -35.8117 828.236 -32.5173Z" stroke="url(#paint43_linear_290_227)"/>
<path opacity="0.454545" d="M829.222 -30.2714L605.81 54.4771C597.506 57.627 592.175 65.7656 592.605 74.6363L604.168 313.302C604.597 322.173 610.69 329.758 619.26 332.091L849.818 394.846C858.387 397.179 867.484 393.728 872.35 386.299L1003.28 186.418C1008.15 178.988 1007.68 169.271 1002.11 162.347L852.475 -23.9422C846.914 -30.8661 837.526 -33.4213 829.222 -30.2714Z" stroke="url(#paint44_linear_290_227)"/>
<path opacity="0.464646" d="M830.179 -27.9644L605.823 52.6922C597.465 55.6967 591.993 63.741 592.268 72.6179L599.647 310.918C599.921 319.795 605.881 327.485 614.408 329.967L843.325 396.588C851.853 399.069 861.008 395.778 866.004 388.435L1000.1 191.309C1005.1 183.966 1004.8 174.241 999.357 167.221L853.318 -21.2303C847.878 -28.2503 838.537 -30.969 830.179 -27.9644Z" stroke="url(#paint45_linear_290_227)"/>
<path opacity="0.474747" d="M831.105 -25.5979L605.878 50.9597C597.47 53.8179 591.858 61.7655 591.978 70.6459L595.189 308.507C595.309 317.387 601.134 325.18 609.616 327.81L836.828 398.259C845.311 400.889 854.522 397.758 859.645 390.503L996.858 196.182C1001.98 188.927 1001.85 179.199 996.533 172.085L854.123 -18.461C848.806 -25.5748 839.514 -28.4561 831.105 -25.5979Z" stroke="url(#paint46_linear_290_227)"/>
<path opacity="0.484848" d="M832 -23.1698L605.978 49.2831C597.52 51.9941 591.771 59.8426 591.736 68.7237L590.798 306.073C590.763 314.954 596.45 322.847 604.886 325.625L830.328 399.862C838.764 402.64 848.029 399.67 853.277 392.505L993.546 201.037C998.795 193.873 998.833 184.144 993.641 176.938L854.89 -15.6322C849.698 -22.8378 840.457 -25.8808 832 -23.1698Z" stroke="url(#paint47_linear_290_227)"/>
<path opacity="0.494949" d="M832.864 -20.683L606.121 47.6607C597.618 50.2237 591.732 57.9706 591.542 66.8497L586.473 303.615C586.283 312.494 591.832 320.485 600.218 323.41L823.828 401.395C832.214 404.319 841.529 401.512 846.902 394.44L990.169 205.873C995.542 198.801 995.75 189.074 990.685 181.779L855.619 -12.7471C850.554 -20.0422 841.367 -23.2461 832.864 -20.683Z" stroke="url(#paint48_linear_290_227)"/>
<path opacity="0.50505" d="M833.693 -18.1373L606.303 46.0943C597.757 48.5085 591.736 56.1515 591.391 65.026L582.212 301.135C581.867 310.009 587.276 318.097 595.609 321.167L817.325 402.859C825.659 405.929 835.022 403.285 840.517 396.308L986.725 210.687C992.22 203.71 992.598 193.988 987.661 186.606L856.306 -9.80546C851.369 -17.1878 842.239 -20.5515 833.693 -18.1373Z" stroke="url(#paint49_linear_290_227)"/>
<path opacity="0.515152" d="M834.489 -15.5325L606.527 44.5852C597.94 46.8499 591.787 54.3867 591.287 63.2537L578.018 298.636C577.519 307.503 582.785 315.683 591.064 318.899L810.825 404.255C819.104 407.47 828.511 404.989 834.128 398.11L983.216 215.481C988.832 208.601 989.38 198.887 984.572 191.42L856.953 -6.80729C852.146 -14.2747 843.076 -17.7972 834.489 -15.5325Z" stroke="url(#paint50_linear_290_227)"/>
<path opacity="0.525253" d="M835.247 -12.8721L606.788 43.1313C598.162 45.2458 591.879 52.6741 591.224 61.531L573.889 296.115C573.234 304.972 578.357 313.243 586.579 316.603L804.324 405.58C812.546 408.94 821.995 406.623 827.731 399.842L979.64 220.249C985.376 213.469 986.093 203.766 981.416 196.216L857.556 -3.75622C852.88 -11.3064 843.873 -14.9866 835.247 -12.8721Z" stroke="url(#paint51_linear_290_227)"/>
<path opacity="0.535354" d="M835.972 -10.1534L607.089 41.7368C598.427 43.7004 592.015 51.0179 591.206 59.8621L569.828 293.578C569.019 302.423 573.997 310.782 582.158 314.284L797.829 406.839C805.991 410.341 815.479 408.19 821.332 401.51L976.002 224.996C981.855 218.316 982.742 208.628 978.198 200.997L858.118 -0.64948C853.574 -8.28011 844.634 -12.117 835.972 -10.1534Z" stroke="url(#paint52_linear_290_227)"/>
<path opacity="0.545455" d="M836.66 -7.38055L607.426 40.3986C598.731 42.2108 592.193 49.4152 591.23 58.244L565.833 291.023C564.87 299.852 569.701 308.297 577.8 311.941L791.338 408.027C799.437 411.671 808.962 409.686 814.93 403.11L972.301 229.715C978.269 223.139 979.324 213.467 974.914 205.758L858.636 2.50838C854.226 -5.20039 845.354 -9.19271 836.66 -7.38055Z" stroke="url(#paint53_linear_290_227)"/>
<path opacity="0.555556" d="M837.307 -4.55243L607.797 39.1194C599.072 40.7796 592.409 47.8688 591.292 56.6794L561.903 288.452C560.786 297.263 565.469 305.791 573.504 309.576L784.851 409.147C792.885 412.932 802.443 411.114 808.525 404.642L968.534 234.408C974.616 227.937 975.84 218.285 971.565 210.5L859.108 5.71853C854.833 -2.06603 846.032 -6.21258 837.307 -4.55243Z" stroke="url(#paint54_linear_290_227)"/>
<path opacity="0.565657" d="M837.917 -1.66997L608.203 37.8995C599.451 39.4071 592.665 46.379 591.394 55.1687L558.041 285.867C556.771 294.657 561.304 303.265 569.271 307.19L778.372 410.2C786.338 414.124 795.926 412.473 802.121 406.109L964.705 239.074C970.899 232.71 972.292 223.081 968.153 215.223L859.535 8.97991C855.397 1.12193 846.669 -3.1776 837.917 -1.66997Z" stroke="url(#paint55_linear_290_227)"/>
<path opacity="0.575758" d="M838.487 1.26543L608.643 36.7387C599.866 38.0933 592.959 44.9457 591.535 53.7119L554.247 283.268C552.823 292.034 557.205 300.72 565.102 304.784L771.9 411.184C779.798 415.247 789.413 413.763 795.718 407.508L960.814 243.711C967.119 237.456 968.679 227.852 964.678 219.923L859.916 12.291C855.915 4.36197 847.264 -0.0892177 838.487 1.26543Z" stroke="url(#paint56_linear_290_227)"/>
<path opacity="0.585859" d="M839.017 4.25453L609.116 35.6391C600.316 36.8404 593.291 43.5712 591.714 52.3112L550.52 280.658C548.943 289.398 553.173 298.16 560.998 302.36L765.44 412.102C773.265 416.302 782.904 414.986 789.317 408.842L956.864 248.319C963.276 242.175 965.004 232.6 961.142 224.603L860.25 15.6524C856.389 7.65478 847.816 3.05328 839.017 4.25453Z" stroke="url(#paint57_linear_290_227)"/>
<path opacity="0.59596" d="M839.504 7.29441L609.619 34.5992C600.799 35.6467 593.658 42.2538 591.929 50.965L546.859 278.037C545.13 286.748 549.206 295.582 556.957 299.918L758.988 412.951C766.738 417.288 776.399 416.14 782.919 410.109L952.85 252.896C959.37 246.864 961.264 237.321 957.542 229.258L860.535 19.0611C856.814 10.9973 848.323 6.24691 839.504 7.29441Z" stroke="url(#paint58_linear_290_227)"/>
<path opacity="0.606061" d="M839.95 10.3855L610.152 33.6205C601.316 34.5139 594.06 40.9954 592.179 49.6752L543.266 275.406C541.385 284.086 545.307 292.989 552.981 297.46L752.548 413.735C760.222 418.206 769.902 417.227 776.525 411.31L948.779 257.441C955.402 251.524 957.462 242.016 953.882 233.888L860.773 22.5175C857.193 14.3899 848.786 9.49206 839.95 10.3855Z" stroke="url(#paint59_linear_290_227)"/>
<path opacity="0.616162" d="M840.352 13.5262L610.713 32.7029C601.863 33.442 594.495 39.7959 592.463 48.4414L539.739 272.767C537.707 281.412 541.473 290.383 549.068 294.987L746.121 414.451C753.716 419.055 763.411 418.245 770.137 412.445L944.646 261.953C951.372 256.153 953.598 246.682 950.16 238.493L860.96 26.0197C857.522 17.8309 849.202 12.7871 840.352 13.5262Z" stroke="url(#paint60_linear_290_227)"/>
<path opacity="0.626263" d="M840.71 16.7165L611.303 31.8476C602.441 32.4321 594.963 38.6564 592.781 47.2652L536.28 270.121C534.098 278.729 537.707 287.764 545.22 292.5L739.708 415.102C747.221 419.838 756.929 419.197 763.755 413.516L940.456 266.432C947.282 260.75 949.673 251.319 946.379 243.072L861.097 29.5678C857.803 21.3202 849.572 16.132 840.71 16.7165Z" stroke="url(#paint61_linear_290_227)"/>
<path opacity="0.636364" d="M841.025 19.9554L611.919 31.0547C603.048 31.4845 595.463 37.5773 593.131 46.1467L532.889 267.469C530.557 276.038 534.007 285.135 541.437 290.002L733.311 415.687C740.74 420.553 750.458 420.083 757.382 414.521L936.208 270.876C943.132 265.315 945.687 255.927 942.537 247.623L861.184 33.1605C858.034 24.8568 849.895 19.5257 841.025 19.9554Z" stroke="url(#paint62_linear_290_227)"/>
<path opacity="0.646465" d="M841.293 23.2404L612.56 30.3231C603.683 30.598 595.993 36.5575 593.511 45.0849L529.565 264.812C527.083 273.339 530.375 282.494 537.718 287.49L726.93 416.206C734.273 421.201 743.998 420.9 751.018 415.46L931.903 275.284C938.923 269.844 941.642 260.502 938.637 252.145L861.219 36.7953C858.215 28.4378 850.17 22.9655 841.293 23.2404Z" stroke="url(#paint63_linear_290_227)"/>
<path opacity="0.656566" d="M841.515 26.5729L613.225 29.6554C604.344 29.7753 596.551 35.5998 593.921 44.0825L526.307 262.152C523.677 270.635 526.808 279.846 534.063 284.969L720.565 416.661C727.82 421.783 737.548 421.652 744.662 416.335L927.541 279.656C934.655 274.339 937.536 265.046 934.678 256.638L861.201 40.4735C858.343 32.0649 850.395 26.453 841.515 26.5729Z" stroke="url(#paint64_linear_290_227)"/>
<path opacity="0.666667" d="M841.69 29.9494L613.912 29.0494C605.031 29.0143 597.138 34.7018 594.36 43.1374L523.117 259.488C520.339 267.924 523.309 277.189 530.473 282.437L714.22 417.05C721.384 422.298 731.113 422.337 738.319 417.145L923.124 283.989C930.329 278.797 933.372 269.556 930.661 261.099L861.13 44.1915C858.419 35.7343 850.571 29.9845 841.69 29.9494Z" stroke="url(#paint65_linear_290_227)"/>
<path opacity="0.676768" d="M841.818 33.3719L614.622 28.5081C605.743 28.318 597.752 33.867 594.827 42.2528L519.994 256.825C517.07 265.211 519.877 274.526 526.949 279.899L707.895 417.376C714.967 422.749 724.693 422.957 731.989 417.892L918.652 288.285C925.947 283.219 929.151 274.033 926.588 265.53L861.007 47.9511C858.444 39.4479 850.697 33.562 841.818 33.3719Z" stroke="url(#paint66_linear_290_227)"/>
<path opacity="0.686869" d="M841.896 36.837L615.351 28.0294C606.477 27.6844 598.39 33.093 595.319 41.4265L516.937 254.161C513.866 262.495 516.511 271.858 523.488 277.353L701.589 417.638C708.566 423.133 718.288 423.511 725.67 418.574L914.125 292.54C921.508 287.603 924.871 278.474 922.457 269.927L860.827 51.7488C858.413 43.2021 850.77 37.182 841.896 36.837Z" stroke="url(#paint67_linear_290_227)"/>
<path opacity="0.69697" d="M841.926 40.3445L616.101 27.6145C607.234 27.1147 599.053 32.3813 595.838 40.6599L513.947 251.499C510.732 259.777 513.213 269.185 520.092 274.801L695.306 417.837C702.186 423.453 711.9 424.001 719.367 419.193L909.546 296.755C917.014 291.948 920.536 282.878 918.272 274.291L860.595 55.5845C858.33 46.9969 850.793 40.8443 841.926 40.3445Z" stroke="url(#paint68_linear_290_227)"/>
<path opacity="0.707071" d="M841.906 43.8951L616.868 27.265C608.011 26.6105 599.74 31.7335 596.38 39.9548L511.023 248.84C507.664 257.061 509.98 266.511 516.761 272.246L689.046 417.974C695.827 423.71 705.53 424.427 713.08 419.751L904.914 300.93C912.465 296.254 916.145 287.248 914.03 278.622L860.306 59.4585C858.191 50.8328 850.763 44.5496 841.906 43.8951Z" stroke="url(#paint69_linear_290_227)"/>
<path opacity="0.717172" d="M841.837 47.4851L617.653 26.9786C608.809 26.1696 600.449 31.1475 596.947 39.3089L508.167 246.184C504.665 254.345 506.816 263.834 513.495 269.687L682.811 418.049C689.491 423.902 699.179 424.788 706.81 420.244L900.232 305.062C907.863 300.518 911.7 291.578 909.736 282.916L859.962 63.3673C857.999 54.706 850.681 48.2941 841.837 47.4851Z" stroke="url(#paint70_linear_290_227)"/>
<path opacity="0.727273" d="M841.715 51.1158L618.452 26.7575C609.623 25.7943 601.178 30.6256 597.534 38.7245L505.375 243.534C501.731 251.633 503.716 261.157 510.293 267.126L676.599 418.063C683.176 424.032 692.847 425.087 700.556 420.677L895.498 309.152C903.207 304.742 907.199 295.87 905.387 287.175L859.561 67.312C857.748 58.6177 850.544 52.0791 841.715 51.1158Z" stroke="url(#paint71_linear_290_227)"/>
<path opacity="0.737374" d="M841.545 54.7841L619.268 26.5999C610.457 25.4828 601.929 30.1659 598.144 38.2001L502.652 240.889C498.867 248.923 500.686 258.481 507.157 264.563L670.417 418.016C676.888 424.098 686.54 425.322 694.324 421.047L890.717 313.197C898.501 308.923 902.648 300.121 900.988 291.397L859.105 71.2892C857.445 62.5646 850.356 55.9013 841.545 54.7841Z" stroke="url(#paint72_linear_290_227)"/>
<path opacity="0.747475" d="M841.32 58.4911L620.095 26.508C611.305 25.2373 602.697 29.7709 598.772 37.7377L499.992 238.252C496.067 246.219 497.719 255.807 504.083 262.001L664.259 417.909C670.623 424.104 680.252 425.496 688.11 421.357L885.884 317.199C893.742 313.061 898.041 304.333 896.534 295.581L858.589 75.3002C857.082 66.5479 850.11 59.7618 841.32 58.4911Z" stroke="url(#paint73_linear_290_227)"/>
<path opacity="0.757576" d="M841.042 62.2334L620.933 26.4795C612.167 25.0556 603.481 29.4383 599.418 37.3354L497.397 235.622C493.334 243.519 494.818 253.135 501.073 259.439L658.128 417.741C664.383 424.046 673.987 425.606 681.916 421.605L881.003 321.154C888.932 317.154 893.383 308.502 892.028 299.725L858.015 79.3413C856.66 70.5641 849.808 63.6573 841.042 62.2334Z" stroke="url(#paint74_linear_290_227)"/>
<path opacity="0.767677" d="M840.713 66.0125L621.785 26.5171C613.045 24.9403 604.284 29.1708 600.083 36.9958L494.869 233.003C490.668 240.828 491.984 250.468 498.128 256.881L652.029 417.516C658.173 423.929 667.748 425.656 675.746 421.794L876.077 325.065C884.074 321.203 888.676 312.631 887.475 303.831L857.385 83.414C856.183 74.6145 849.453 67.5892 840.713 66.0125Z" stroke="url(#paint75_linear_290_227)"/>
<path opacity="0.777778" d="M840.33 69.827L622.647 26.6204C613.936 24.8913 605.102 28.9682 600.765 36.7187L492.406 230.396C488.069 238.147 489.217 247.808 495.248 254.327L645.961 417.233C651.992 423.752 661.535 425.646 669.599 421.925L871.105 328.929C879.169 325.207 883.919 316.717 882.872 307.897L856.696 87.5169C855.648 78.6977 849.041 71.5561 840.33 69.827Z" stroke="url(#paint76_linear_290_227)"/>
<path opacity="0.787879" d="M839.892 73.6741L623.516 26.7876C614.836 24.9067 605.932 28.8288 601.461 36.5025L490.006 227.8C485.535 235.474 486.514 245.153 492.43 251.777L639.923 416.892C645.839 423.515 655.348 425.575 663.475 421.995L866.087 332.744C874.214 329.164 879.112 320.758 878.219 311.922L855.947 91.6469C855.053 82.8108 848.572 75.5549 839.892 73.6741Z" stroke="url(#paint77_linear_290_227)"/>
<path opacity="0.79798" d="M839.398 77.5535L624.391 27.0194C615.745 24.9874 606.774 28.7535 602.17 36.348L487.668 225.216C483.064 232.811 483.874 242.506 489.674 249.232L633.915 416.493C639.715 423.219 649.187 425.445 657.375 422.007L861.023 336.512C869.212 333.074 874.256 324.754 873.517 315.904L855.136 95.8037C854.397 86.9534 848.044 79.5855 839.398 77.5535Z" stroke="url(#paint78_linear_290_227)"/>
<path opacity="0.808081" d="M838.852 81.4646L625.274 27.3166C616.666 25.134 607.631 28.743 602.895 36.256L485.398 222.647C480.662 230.16 481.302 239.868 486.984 246.694L627.944 416.038C633.626 422.864 643.057 425.255 651.304 421.961L855.919 340.23C864.167 336.936 869.355 328.705 868.77 319.843L854.269 99.9868C853.685 91.1249 847.46 83.6472 838.852 81.4646Z" stroke="url(#paint79_linear_290_227)"/>
<path opacity="0.818182" d="M838.249 85.4054L626.162 27.6778C617.593 25.3453 608.496 28.796 603.63 36.2252L483.189 220.093C478.323 227.522 478.794 237.24 484.355 244.164L622.006 415.528C627.567 422.452 636.955 425.007 645.259 421.857L850.772 343.898C859.076 340.748 864.407 332.61 863.977 323.739L853.341 104.194C852.911 95.3231 846.818 87.7379 838.249 85.4054Z" stroke="url(#paint80_linear_290_227)"/>
<path opacity="0.828283" d="M837.589 89.3768L627.053 28.1052C618.526 25.6235 609.37 28.9149 604.375 36.2581L481.043 217.556C476.048 224.899 476.349 234.624 481.789 241.644L616.102 414.963C621.542 421.983 630.883 424.702 639.241 421.698L845.583 347.517C853.94 344.513 859.413 336.468 859.138 327.592L852.351 108.426C852.076 99.5488 846.117 91.8585 837.589 89.3768Z" stroke="url(#paint81_linear_290_227)"/>
<path opacity="0.838384" d="M836.876 93.3757L627.949 28.5965C619.466 25.9664 610.255 29.0975 605.132 36.3523L478.961 215.036C473.839 222.291 473.97 232.019 479.287 239.133L610.236 414.344C615.553 421.458 624.846 424.34 633.254 421.481L840.356 351.085C848.764 348.226 854.376 340.279 854.256 331.398L851.303 112.679C851.183 103.799 845.359 96.0058 836.876 93.3757Z" stroke="url(#paint82_linear_290_227)"/>
<path opacity="0.848485" d="M836.104 97.4022L628.844 29.1529C620.409 26.3751 611.144 29.345 605.895 36.5094L476.94 212.535C471.691 219.699 471.653 229.428 476.844 236.634L604.405 413.673C609.597 420.878 618.838 423.921 627.295 421.21L835.087 354.601C843.545 351.89 849.294 344.041 849.33 335.16L850.192 116.955C850.227 108.074 844.539 100.18 836.104 97.4022Z" stroke="url(#paint83_linear_290_227)"/>
<path opacity="0.858586" d="M835.274 101.455L629.74 29.7736C621.354 26.8491 612.039 29.6568 606.666 36.7284L474.979 210.053C469.607 217.125 469.398 226.851 474.464 234.147L598.612 412.948C603.677 420.243 612.863 423.447 621.367 420.884L829.781 358.065C838.284 355.502 844.17 347.755 844.36 338.876L849.019 121.25C849.209 112.371 843.66 104.379 835.274 101.455Z" stroke="url(#paint84_linear_290_227)"/>
<path opacity="0.868687" d="M834.388 105.532L630.634 30.4589C622.301 27.3884 612.938 30.0332 607.443 37.0099L473.08 207.592C467.585 214.569 467.207 224.291 472.144 231.673L592.857 412.172C597.794 419.554 606.924 422.918 615.47 420.504L824.437 361.476C832.984 359.062 839.004 351.419 839.349 342.544L847.785 125.564C848.13 116.69 842.721 108.603 834.388 105.532Z" stroke="url(#paint85_linear_290_227)"/>
<path opacity="0.878788" d="M833.444 109.635L631.527 31.2093C623.249 27.9939 613.841 30.4748 608.225 37.3546L471.242 205.154C465.626 212.034 465.079 221.747 469.886 229.215L587.143 411.346C591.95 418.813 601.019 422.336 609.607 420.071L819.058 364.835C827.646 362.57 833.798 355.033 834.298 346.166L846.489 129.898C846.989 121.031 841.723 112.85 833.444 109.635Z" stroke="url(#paint86_linear_290_227)"/>
<path opacity="0.888889" d="M832.44 113.758L632.415 32.0223C624.194 28.6628 614.745 30.9792 609.009 37.76L469.462 202.737C463.727 209.518 463.01 219.22 467.686 226.771L581.466 410.468C586.143 418.018 595.149 421.699 603.775 419.584L813.642 368.138C822.267 366.024 828.551 358.596 829.205 349.739L845.13 134.246C845.784 125.389 840.661 117.118 832.44 113.758Z" stroke="url(#paint87_linear_290_227)"/>
<path opacity="0.89899" d="M831.38 117.905L633.301 32.9004C625.14 29.398 615.651 31.5491 609.798 38.2287L467.744 200.345C461.891 207.025 461.005 216.714 465.549 224.344L575.833 409.543C580.377 417.173 589.318 421.01 597.979 419.047L808.193 371.389C816.855 369.425 823.267 362.108 824.076 353.264L843.71 138.611C844.519 129.767 839.541 121.408 831.38 117.905Z" stroke="url(#paint88_linear_290_227)"/>
<path opacity="0.909091" d="M830.262 122.074L634.182 33.8429C626.083 30.1986 616.558 32.1838 610.589 38.7602L466.085 197.979C460.116 204.555 459.061 214.227 463.471 221.936L570.243 408.569C574.653 416.278 583.525 420.271 592.22 418.458L802.713 374.585C811.407 372.773 817.946 365.569 818.909 356.74L842.229 142.992C843.192 134.163 838.361 125.718 830.262 122.074Z" stroke="url(#paint89_linear_290_227)"/>
<path opacity="0.919192" d="M829.084 126.259L635.054 34.8466C627.02 31.0615 617.463 32.8801 611.38 39.3514L464.483 195.637C458.4 202.108 457.177 211.76 461.451 219.544L564.694 407.547C568.969 415.331 577.77 419.478 586.495 417.818L797.199 377.724C805.924 376.064 812.587 368.975 813.704 360.164L840.684 147.383C841.802 138.572 837.118 130.044 829.084 126.259Z" stroke="url(#paint90_linear_290_227)"/>
<path opacity="0.929293" d="M827.847 130.465L635.919 35.9151C627.952 31.9904 618.364 33.642 612.169 40.0061L462.938 193.323C456.744 199.687 455.351 209.316 459.49 217.174L559.188 406.479C563.326 414.337 572.054 418.636 580.806 417.129L791.654 380.809C800.406 379.301 807.192 372.33 808.463 363.54L839.076 151.788C840.347 142.998 835.814 134.39 827.847 130.465Z" stroke="url(#paint91_linear_290_227)"/>
<path opacity="0.939394" d="M826.551 134.688L636.775 37.0463C628.878 32.9831 619.263 34.4671 612.958 40.7222L461.451 191.036C455.146 197.292 453.586 206.895 457.587 214.824L553.726 405.365C557.727 413.294 566.378 417.745 575.155 416.391L786.08 383.838C794.857 382.483 801.763 375.631 803.187 366.864L837.407 156.204C838.831 147.438 834.448 138.751 826.551 134.688Z" stroke="url(#paint92_linear_290_227)"/>
<path opacity="0.949495" d="M825.196 138.929L637.622 38.2409C629.797 34.0405 620.158 35.3564 613.745 41.5005L460.021 188.78C453.609 194.924 451.881 204.499 455.743 212.496L548.311 404.208C552.172 412.205 560.745 416.807 569.544 415.605L780.478 386.81C789.277 385.609 796.302 378.878 797.879 370.138L835.675 160.63C837.252 151.89 833.022 143.129 825.196 138.929Z" stroke="url(#paint93_linear_290_227)"/>
<path opacity="0.959596" d="M823.781 143.182L638.457 39.4957C630.707 35.1593 621.045 36.3069 614.526 42.3381L458.646 186.551C452.127 192.582 450.233 202.125 453.954 210.189L542.94 403.004C546.661 411.068 555.152 415.818 563.971 414.771L774.847 389.724C783.666 388.676 790.807 382.069 792.537 373.358L833.88 165.063C835.609 156.352 831.532 147.518 823.781 143.182Z" stroke="url(#paint94_linear_290_227)"/>
<path opacity="0.969697" d="M822.308 147.451L639.281 40.8143C631.607 36.3434 621.927 37.3222 615.304 43.2387L457.327 184.355C450.704 190.271 448.643 199.78 452.224 207.908L537.616 401.759C541.196 409.887 549.602 414.785 558.439 413.891L769.19 392.582C778.026 391.689 785.282 385.207 787.163 376.527L832.022 169.506C833.903 160.826 829.981 151.922 822.308 147.451Z" stroke="url(#paint95_linear_290_227)"/>
<path opacity="0.979798" d="M820.773 151.732L640.09 42.1928C632.496 37.5886 622.8 38.3983 616.075 44.1983L456.062 182.189C449.336 187.989 447.11 197.46 450.548 205.649L532.338 400.471C535.776 408.66 544.096 413.704 552.946 412.964L763.508 395.381C772.358 394.642 779.726 388.288 781.758 379.642L830.102 173.953C832.134 165.307 828.368 156.336 820.773 151.732Z" stroke="url(#paint96_linear_290_227)"/>
<path opacity="0.989899" d="M819.18 156.027L640.886 43.6342C633.373 38.8982 623.665 39.5385 616.839 45.2202L454.852 180.057C448.026 185.739 445.635 195.169 448.929 203.417L527.109 399.143C530.404 407.391 538.634 412.579 547.496 411.994L757.802 398.123C766.664 397.539 774.141 391.314 776.324 382.706L828.12 178.407C830.302 169.798 826.693 160.763 819.18 156.027Z" stroke="url(#paint97_linear_290_227)"/>
<path d="M817.526 160.332L641.665 45.1359C634.236 40.2695 624.518 40.7403 617.594 46.3021L453.693 177.958C446.769 183.52 444.213 192.908 447.363 201.211L521.927 397.775C525.077 406.079 533.216 411.41 542.086 410.98L752.071 400.807C760.942 400.377 768.527 394.284 770.86 385.715L826.073 182.864C828.406 174.295 824.955 165.198 817.526 160.332Z" stroke="url(#paint98_linear_290_227)"/>
</g>
<g filter="url(#filter1_f_290_227)">
<circle cx="285" cy="983" r="342" fill="url(#paint99_linear_290_227)"/>
</g>
<g filter="url(#filter2_f_290_227)">
<circle cx="1555" cy="671" r="275" fill="url(#paint100_linear_290_227)"/>
</g>
</g>
<defs>
<filter id="filter0_f_290_227" x="435.529" y="-88.5767" width="697.814" height="522.911" filterUnits="userSpaceOnUse" color-interpolation-filters="sRGB">
<feFlood flood-opacity="0" result="BackgroundImageFix"/>
<feBlend mode="normal" in="SourceGraphic" in2="BackgroundImageFix" result="shape"/>
<feGaussianBlur stdDeviation="5" result="effect1_foregroundBlur_290_227"/>
</filter>
<filter id="filter1_f_290_227" x="-557" y="141" width="1684" height="1684" filterUnits="userSpaceOnUse" color-interpolation-filters="sRGB">
<feFlood flood-opacity="0" result="BackgroundImageFix"/>
<feBlend mode="normal" in="SourceGraphic" in2="BackgroundImageFix" result="shape"/>
<feGaussianBlur stdDeviation="250" result="effect1_foregroundBlur_290_227"/>
</filter>
<filter id="filter2_f_290_227" x="780" y="-104" width="1550" height="1550" filterUnits="userSpaceOnUse" color-interpolation-filters="sRGB">
<feFlood flood-opacity="0" result="BackgroundImageFix"/>
<feBlend mode="normal" in="SourceGraphic" in2="BackgroundImageFix" result="shape"/>
<feGaussianBlur stdDeviation="250" result="effect1_foregroundBlur_290_227"/>
</filter>
<linearGradient id="paint0_linear_290_227" x1="928.003" y1="281.474" x2="872.886" y2="-8.18525" gradientUnits="userSpaceOnUse">
<stop stop-color="#FF1CF7"/>
<stop offset="1" stop-color="#885EFE"/>
</linearGradient>
<linearGradient id="paint1_linear_290_227" x1="922.808" y1="282.707" x2="872.846" y2="-7.33943" gradientUnits="userSpaceOnUse">
<stop stop-color="#FF1CF7"/>
<stop offset="1" stop-color="#885EFE"/>
</linearGradient>
<linearGradient id="paint2_linear_290_227" x1="917.614" y1="283.896" x2="872.804" y2="-6.44645" gradientUnits="userSpaceOnUse">
<stop stop-color="#FF1CF7"/>
<stop offset="1" stop-color="#885EFE"/>
</linearGradient>
<linearGradient id="paint3_linear_290_227" x1="912.424" y1="285.041" x2="872.76" y2="-5.50616" gradientUnits="userSpaceOnUse">
<stop stop-color="#FF1CF7"/>
<stop offset="1" stop-color="#885EFE"/>
</linearGradient>
<linearGradient id="paint4_linear_290_227" x1="907.235" y1="286.141" x2="872.712" y2="-4.51981" gradientUnits="userSpaceOnUse">
<stop stop-color="#FF1CF7"/>
<stop offset="1" stop-color="#885EFE"/>
</linearGradient>
<linearGradient id="paint5_linear_290_227" x1="902.051" y1="287.196" x2="872.659" y2="-3.48792" gradientUnits="userSpaceOnUse">
<stop stop-color="#FF1CF7"/>
<stop offset="1" stop-color="#885EFE"/>
</linearGradient>
<linearGradient id="paint6_linear_290_227" x1="896.871" y1="288.206" x2="872.602" y2="-2.41012" gradientUnits="userSpaceOnUse">
<stop stop-color="#FF1CF7"/>
<stop offset="1" stop-color="#885EFE"/>
</linearGradient>
<linearGradient id="paint7_linear_290_227" x1="891.695" y1="289.173" x2="872.538" y2="-1.28562" gradientUnits="userSpaceOnUse">
<stop stop-color="#FF1CF7"/>
<stop offset="1" stop-color="#885EFE"/>
</linearGradient>
<linearGradient id="paint8_linear_290_227" x1="886.527" y1="290.096" x2="872.467" y2="-0.115352" gradientUnits="userSpaceOnUse">
<stop stop-color="#FF1CF7"/>
<stop offset="1" stop-color="#885EFE"/>
</linearGradient>
<linearGradient id="paint9_linear_290_227" x1="881.366" y1="290.974" x2="872.39" y2="1.09935" gradientUnits="userSpaceOnUse">
<stop stop-color="#FF1CF7"/>
<stop offset="1" stop-color="#885EFE"/>
</linearGradient>
<linearGradient id="paint10_linear_290_227" x1="876.212" y1="291.81" x2="872.304" y2="2.36048" gradientUnits="userSpaceOnUse">
<stop stop-color="#FF1CF7"/>
<stop offset="1" stop-color="#885EFE"/>
</linearGradient>
<linearGradient id="paint11_linear_290_227" x1="871.067" y1="292.601" x2="872.209" y2="3.66571" gradientUnits="userSpaceOnUse">
<stop stop-color="#FF1CF7"/>
<stop offset="1" stop-color="#885EFE"/>
</linearGradient>
<linearGradient id="paint12_linear_290_227" x1="865.931" y1="293.35" x2="872.104" y2="5.01631" gradientUnits="userSpaceOnUse">
<stop stop-color="#FF1CF7"/>
<stop offset="1" stop-color="#885EFE"/>
</linearGradient>
<linearGradient id="paint13_linear_290_227" x1="860.805" y1="294.055" x2="871.988" y2="6.41098" gradientUnits="userSpaceOnUse">
<stop stop-color="#FF1CF7"/>
<stop offset="1" stop-color="#885EFE"/>
</linearGradient>
<linearGradient id="paint14_linear_290_227" x1="855.691" y1="294.718" x2="871.862" y2="7.84958" gradientUnits="userSpaceOnUse">
<stop stop-color="#FF1CF7"/>
<stop offset="1" stop-color="#885EFE"/>
</linearGradient>
<linearGradient id="paint15_linear_290_227" x1="850.585" y1="295.339" x2="871.72" y2="9.33302" gradientUnits="userSpaceOnUse">
<stop stop-color="#FF1CF7"/>
<stop offset="1" stop-color="#885EFE"/>
</linearGradient>
<linearGradient id="paint16_linear_290_227" x1="845.494" y1="295.918" x2="871.569" y2="10.8602" gradientUnits="userSpaceOnUse">
<stop stop-color="#FF1CF7"/>
<stop offset="1" stop-color="#885EFE"/>
</linearGradient>
<linearGradient id="paint17_linear_290_227" x1="840.415" y1="296.455" x2="871.402" y2="12.4306" gradientUnits="userSpaceOnUse">
<stop stop-color="#FF1CF7"/>
<stop offset="1" stop-color="#885EFE"/>
</linearGradient>
<linearGradient id="paint18_linear_290_227" x1="835.351" y1="296.95" x2="871.223" y2="14.0435" gradientUnits="userSpaceOnUse">
<stop stop-color="#FF1CF7"/>
<stop offset="1" stop-color="#885EFE"/>
</linearGradient>
<linearGradient id="paint19_linear_290_227" x1="830.3" y1="297.402" x2="871.027" y2="15.6973" gradientUnits="userSpaceOnUse">
<stop stop-color="#FF1CF7"/>
<stop offset="1" stop-color="#885EFE"/>
</linearGradient>
<linearGradient id="paint20_linear_290_227" x1="825.263" y1="297.817" x2="870.814" y2="17.3967" gradientUnits="userSpaceOnUse">
<stop stop-color="#FF1CF7"/>
<stop offset="1" stop-color="#885EFE"/>
</linearGradient>
<linearGradient id="paint21_linear_290_227" x1="820.244" y1="298.188" x2="870.586" y2="19.1357" gradientUnits="userSpaceOnUse">
<stop stop-color="#FF1CF7"/>
<stop offset="1" stop-color="#885EFE"/>
</linearGradient>
<linearGradient id="paint22_linear_290_227" x1="815.24" y1="298.522" x2="870.34" y2="20.9178" gradientUnits="userSpaceOnUse">
<stop stop-color="#FF1CF7"/>
<stop offset="1" stop-color="#885EFE"/>
</linearGradient>
<linearGradient id="paint23_linear_290_227" x1="810.254" y1="298.815" x2="870.077" y2="22.7409" gradientUnits="userSpaceOnUse">
<stop stop-color="#FF1CF7"/>
<stop offset="1" stop-color="#885EFE"/>
</linearGradient>
<linearGradient id="paint24_linear_290_227" x1="805.287" y1="299.067" x2="869.795" y2="24.6033" gradientUnits="userSpaceOnUse">
<stop stop-color="#FF1CF7"/>
<stop offset="1" stop-color="#885EFE"/>
</linearGradient>
<linearGradient id="paint25_linear_290_227" x1="800.335" y1="299.282" x2="869.491" y2="26.5067" gradientUnits="userSpaceOnUse">
<stop stop-color="#FF1CF7"/>
<stop offset="1" stop-color="#885EFE"/>
</linearGradient>
<linearGradient id="paint26_linear_290_227" x1="795.405" y1="299.457" x2="869.17" y2="28.4501" gradientUnits="userSpaceOnUse">
<stop stop-color="#FF1CF7"/>
<stop offset="1" stop-color="#885EFE"/>
</linearGradient>
<linearGradient id="paint27_linear_290_227" x1="790.494" y1="299.595" x2="868.827" y2="30.433" gradientUnits="userSpaceOnUse">
<stop stop-color="#FF1CF7"/>
<stop offset="1" stop-color="#885EFE"/>
</linearGradient>
<linearGradient id="paint28_linear_290_227" x1="785.603" y1="299.696" x2="868.463" y2="32.4558" gradientUnits="userSpaceOnUse">
<stop stop-color="#FF1CF7"/>
<stop offset="1" stop-color="#885EFE"/>
</linearGradient>
<linearGradient id="paint29_linear_290_227" x1="780.733" y1="299.759" x2="868.076" y2="34.5164" gradientUnits="userSpaceOnUse">
<stop stop-color="#FF1CF7"/>
<stop offset="1" stop-color="#885EFE"/>
</linearGradient>
<linearGradient id="paint30_linear_290_227" x1="775.885" y1="299.785" x2="867.666" y2="36.6153" gradientUnits="userSpaceOnUse">
<stop stop-color="#FF1CF7"/>
<stop offset="1" stop-color="#885EFE"/>
</linearGradient>
<linearGradient id="paint31_linear_290_227" x1="771.059" y1="299.774" x2="867.233" y2="38.7511" gradientUnits="userSpaceOnUse">
<stop stop-color="#FF1CF7"/>
<stop offset="1" stop-color="#885EFE"/>
</linearGradient>
<linearGradient id="paint32_linear_290_227" x1="766.257" y1="299.727" x2="866.777" y2="40.9245" gradientUnits="userSpaceOnUse">
<stop stop-color="#FF1CF7"/>
<stop offset="1" stop-color="#885EFE"/>
</linearGradient>
<linearGradient id="paint33_linear_290_227" x1="761.478" y1="299.645" x2="866.296" y2="43.1342" gradientUnits="userSpaceOnUse">
<stop stop-color="#FF1CF7"/>
<stop offset="1" stop-color="#885EFE"/>
</linearGradient>
<linearGradient id="paint34_linear_290_227" x1="756.721" y1="299.529" x2="865.788" y2="45.3811" gradientUnits="userSpaceOnUse">
<stop stop-color="#FF1CF7"/>
<stop offset="1" stop-color="#885EFE"/>
</linearGradient>
<linearGradient id="paint35_linear_290_227" x1="751.991" y1="299.378" x2="865.255" y2="47.6629" gradientUnits="userSpaceOnUse">
<stop stop-color="#FF1CF7"/>
<stop offset="1" stop-color="#885EFE"/>
</linearGradient>
<linearGradient id="paint36_linear_290_227" x1="747.285" y1="299.193" x2="864.696" y2="49.9797" gradientUnits="userSpaceOnUse">
<stop stop-color="#FF1CF7"/>
<stop offset="1" stop-color="#885EFE"/>
</linearGradient>
<linearGradient id="paint37_linear_290_227" x1="742.606" y1="298.974" x2="864.111" y2="52.3305" gradientUnits="userSpaceOnUse">
<stop stop-color="#FF1CF7"/>
<stop offset="1" stop-color="#885EFE"/>
</linearGradient>
<linearGradient id="paint38_linear_290_227" x1="737.952" y1="298.724" x2="863.497" y2="54.7165" gradientUnits="userSpaceOnUse">
<stop stop-color="#FF1CF7"/>
<stop offset="1" stop-color="#885EFE"/>
</linearGradient>
<linearGradient id="paint39_linear_290_227" x1="733.326" y1="298.439" x2="862.856" y2="57.1341" gradientUnits="userSpaceOnUse">
<stop stop-color="#FF1CF7"/>
<stop offset="1" stop-color="#885EFE"/>
</linearGradient>
<linearGradient id="paint40_linear_290_227" x1="728.728" y1="298.124" x2="862.187" y2="59.5861" gradientUnits="userSpaceOnUse">
<stop stop-color="#FF1CF7"/>
<stop offset="1" stop-color="#885EFE"/>
</linearGradient>
<linearGradient id="paint41_linear_290_227" x1="724.157" y1="297.777" x2="861.487" y2="62.0697" gradientUnits="userSpaceOnUse">
<stop stop-color="#FF1CF7"/>
<stop offset="1" stop-color="#885EFE"/>
</linearGradient>
<linearGradient id="paint42_linear_290_227" x1="719.613" y1="297.4" x2="860.757" y2="64.5848" gradientUnits="userSpaceOnUse">
<stop stop-color="#FF1CF7"/>
<stop offset="1" stop-color="#885EFE"/>
</linearGradient>
<linearGradient id="paint43_linear_290_227" x1="715.099" y1="296.992" x2="859.998" y2="67.1312" gradientUnits="userSpaceOnUse">
<stop stop-color="#FF1CF7"/>
<stop offset="1" stop-color="#885EFE"/>
</linearGradient>
<linearGradient id="paint44_linear_290_227" x1="710.614" y1="296.555" x2="859.208" y2="69.7086" gradientUnits="userSpaceOnUse">
<stop stop-color="#FF1CF7"/>
<stop offset="1" stop-color="#885EFE"/>
</linearGradient>
<linearGradient id="paint45_linear_290_227" x1="706.16" y1="296.09" x2="858.387" y2="72.3154" gradientUnits="userSpaceOnUse">
<stop stop-color="#FF1CF7"/>
<stop offset="1" stop-color="#885EFE"/>
</linearGradient>
<linearGradient id="paint46_linear_290_227" x1="701.734" y1="295.594" x2="857.533" y2="74.9504" gradientUnits="userSpaceOnUse">
<stop stop-color="#FF1CF7"/>
<stop offset="1" stop-color="#885EFE"/>
</linearGradient>
<linearGradient id="paint47_linear_290_227" x1="697.34" y1="295.072" x2="856.648" y2="77.6153" gradientUnits="userSpaceOnUse">
<stop stop-color="#FF1CF7"/>
<stop offset="1" stop-color="#885EFE"/>
</linearGradient>
<linearGradient id="paint48_linear_290_227" x1="692.978" y1="294.523" x2="855.732" y2="80.3075" gradientUnits="userSpaceOnUse">
<stop stop-color="#FF1CF7"/>
<stop offset="1" stop-color="#885EFE"/>
</linearGradient>
<linearGradient id="paint49_linear_290_227" x1="688.646" y1="293.947" x2="854.781" y2="83.0273" gradientUnits="userSpaceOnUse">
<stop stop-color="#FF1CF7"/>
<stop offset="1" stop-color="#885EFE"/>
</linearGradient>
<linearGradient id="paint50_linear_290_227" x1="684.348" y1="293.346" x2="853.798" y2="85.7748" gradientUnits="userSpaceOnUse">
<stop stop-color="#FF1CF7"/>
<stop offset="1" stop-color="#885EFE"/>
</linearGradient>
<linearGradient id="paint51_linear_290_227" x1="680.079" y1="292.718" x2="852.779" y2="88.5466" gradientUnits="userSpaceOnUse">
<stop stop-color="#FF1CF7"/>
<stop offset="1" stop-color="#885EFE"/>
</linearGradient>
<linearGradient id="paint52_linear_290_227" x1="675.846" y1="292.067" x2="851.728" y2="91.3458" gradientUnits="userSpaceOnUse">
<stop stop-color="#FF1CF7"/>
<stop offset="1" stop-color="#885EFE"/>
</linearGradient>
<linearGradient id="paint53_linear_290_227" x1="671.646" y1="291.391" x2="850.642" y2="94.168" gradientUnits="userSpaceOnUse">
<stop stop-color="#FF1CF7"/>
<stop offset="1" stop-color="#885EFE"/>
</linearGradient>
<linearGradient id="paint54_linear_290_227" x1="667.477" y1="290.692" x2="849.52" y2="97.0146" gradientUnits="userSpaceOnUse">
<stop stop-color="#FF1CF7"/>
<stop offset="1" stop-color="#885EFE"/>
</linearGradient>
<linearGradient id="paint55_linear_290_227" x1="663.343" y1="289.97" x2="848.363" y2="99.8847" gradientUnits="userSpaceOnUse">
<stop stop-color="#FF1CF7"/>
<stop offset="1" stop-color="#885EFE"/>
</linearGradient>
<linearGradient id="paint56_linear_290_227" x1="659.243" y1="289.225" x2="847.171" y2="102.777" gradientUnits="userSpaceOnUse">
<stop stop-color="#FF1CF7"/>
<stop offset="1" stop-color="#885EFE"/>
</linearGradient>
<linearGradient id="paint57_linear_290_227" x1="655.179" y1="288.46" x2="845.943" y2="105.693" gradientUnits="userSpaceOnUse">
<stop stop-color="#FF1CF7"/>
<stop offset="1" stop-color="#885EFE"/>
</linearGradient>
<linearGradient id="paint58_linear_290_227" x1="651.148" y1="287.674" x2="844.678" y2="108.629" gradientUnits="userSpaceOnUse">
<stop stop-color="#FF1CF7"/>
<stop offset="1" stop-color="#885EFE"/>
</linearGradient>
<linearGradient id="paint59_linear_290_227" x1="647.154" y1="286.867" x2="843.378" y2="111.586" gradientUnits="userSpaceOnUse">
<stop stop-color="#FF1CF7"/>
<stop offset="1" stop-color="#885EFE"/>
</linearGradient>
<linearGradient id="paint60_linear_290_227" x1="643.194" y1="286.041" x2="842.039" y2="114.562" gradientUnits="userSpaceOnUse">
<stop stop-color="#FF1CF7"/>
<stop offset="1" stop-color="#885EFE"/>
</linearGradient>
<linearGradient id="paint61_linear_290_227" x1="639.269" y1="285.197" x2="840.664" y2="117.559" gradientUnits="userSpaceOnUse">
<stop stop-color="#FF1CF7"/>
<stop offset="1" stop-color="#885EFE"/>
</linearGradient>
<linearGradient id="paint62_linear_290_227" x1="635.382" y1="284.335" x2="839.252" y2="120.574" gradientUnits="userSpaceOnUse">
<stop stop-color="#FF1CF7"/>
<stop offset="1" stop-color="#885EFE"/>
</linearGradient>
<linearGradient id="paint63_linear_290_227" x1="631.53" y1="283.454" x2="837.802" y2="123.606" gradientUnits="userSpaceOnUse">
<stop stop-color="#FF1CF7"/>
<stop offset="1" stop-color="#885EFE"/>
</linearGradient>
<linearGradient id="paint64_linear_290_227" x1="627.714" y1="282.558" x2="836.313" y2="126.656" gradientUnits="userSpaceOnUse">
<stop stop-color="#FF1CF7"/>
<stop offset="1" stop-color="#885EFE"/>
</linearGradient>
<linearGradient id="paint65_linear_290_227" x1="623.935" y1="281.644" x2="834.786" y2="129.721" gradientUnits="userSpaceOnUse">
<stop stop-color="#FF1CF7"/>
<stop offset="1" stop-color="#885EFE"/>
</linearGradient>
<linearGradient id="paint66_linear_290_227" x1="620.193" y1="280.717" x2="833.222" y2="132.803" gradientUnits="userSpaceOnUse">
<stop stop-color="#FF1CF7"/>
<stop offset="1" stop-color="#885EFE"/>
</linearGradient>
<linearGradient id="paint67_linear_290_227" x1="616.487" y1="279.773" x2="831.618" y2="135.899" gradientUnits="userSpaceOnUse">
<stop stop-color="#FF1CF7"/>
<stop offset="1" stop-color="#885EFE"/>
</linearGradient>
<linearGradient id="paint68_linear_290_227" x1="612.819" y1="278.816" x2="829.976" y2="139.01" gradientUnits="userSpaceOnUse">
<stop stop-color="#FF1CF7"/>
<stop offset="1" stop-color="#885EFE"/>
</linearGradient>
<linearGradient id="paint69_linear_290_227" x1="609.188" y1="277.846" x2="828.294" y2="142.135" gradientUnits="userSpaceOnUse">
<stop stop-color="#FF1CF7"/>
<stop offset="1" stop-color="#885EFE"/>
</linearGradient>
<linearGradient id="paint70_linear_290_227" x1="605.596" y1="276.863" x2="826.575" y2="145.272" gradientUnits="userSpaceOnUse">
<stop stop-color="#FF1CF7"/>
<stop offset="1" stop-color="#885EFE"/>
</linearGradient>
<linearGradient id="paint71_linear_290_227" x1="602.04" y1="275.869" x2="824.814" y2="148.421" gradientUnits="userSpaceOnUse">
<stop stop-color="#FF1CF7"/>
<stop offset="1" stop-color="#885EFE"/>
</linearGradient>
<linearGradient id="paint72_linear_290_227" x1="598.524" y1="274.863" x2="823.017" y2="151.581" gradientUnits="userSpaceOnUse">
<stop stop-color="#FF1CF7"/>
<stop offset="1" stop-color="#885EFE"/>
</linearGradient>
<linearGradient id="paint73_linear_290_227" x1="595.044" y1="273.847" x2="821.178" y2="154.753" gradientUnits="userSpaceOnUse">
<stop stop-color="#FF1CF7"/>
<stop offset="1" stop-color="#885EFE"/>
</linearGradient>
<linearGradient id="paint74_linear_290_227" x1="591.601" y1="272.82" x2="819.299" y2="157.933" gradientUnits="userSpaceOnUse">
<stop stop-color="#FF1CF7"/>
<stop offset="1" stop-color="#885EFE"/>
</linearGradient>
<linearGradient id="paint75_linear_290_227" x1="588.198" y1="271.785" x2="817.382" y2="161.124" gradientUnits="userSpaceOnUse">
<stop stop-color="#FF1CF7"/>
<stop offset="1" stop-color="#885EFE"/>
</linearGradient>
<linearGradient id="paint76_linear_290_227" x1="584.834" y1="270.743" x2="815.426" y2="164.324" gradientUnits="userSpaceOnUse">
<stop stop-color="#FF1CF7"/>
<stop offset="1" stop-color="#885EFE"/>
</linearGradient>
<linearGradient id="paint77_linear_290_227" x1="581.507" y1="269.692" x2="813.429" y2="167.53" gradientUnits="userSpaceOnUse">
<stop stop-color="#FF1CF7"/>
<stop offset="1" stop-color="#885EFE"/>
</linearGradient>
<linearGradient id="paint78_linear_290_227" x1="578.217" y1="268.634" x2="811.39" y2="170.743" gradientUnits="userSpaceOnUse">
<stop stop-color="#FF1CF7"/>
<stop offset="1" stop-color="#885EFE"/>
</linearGradient>
<linearGradient id="paint79_linear_290_227" x1="574.968" y1="267.569" x2="809.315" y2="173.963" gradientUnits="userSpaceOnUse">
<stop stop-color="#FF1CF7"/>
<stop offset="1" stop-color="#885EFE"/>
</linearGradient>
<linearGradient id="paint80_linear_290_227" x1="571.757" y1="266.498" x2="807.198" y2="177.187" gradientUnits="userSpaceOnUse">
<stop stop-color="#FF1CF7"/>
<stop offset="1" stop-color="#885EFE"/>
</linearGradient>
<linearGradient id="paint81_linear_290_227" x1="568.583" y1="265.424" x2="805.041" y2="180.417" gradientUnits="userSpaceOnUse">
<stop stop-color="#FF1CF7"/>
<stop offset="1" stop-color="#885EFE"/>
</linearGradient>
<linearGradient id="paint82_linear_290_227" x1="565.45" y1="264.345" x2="802.846" y2="183.651" gradientUnits="userSpaceOnUse">
<stop stop-color="#FF1CF7"/>
<stop offset="1" stop-color="#885EFE"/>
</linearGradient>
<linearGradient id="paint83_linear_290_227" x1="562.354" y1="263.262" x2="800.609" y2="186.888" gradientUnits="userSpaceOnUse">
<stop stop-color="#FF1CF7"/>
<stop offset="1" stop-color="#885EFE"/>
</linearGradient>
<linearGradient id="paint84_linear_290_227" x1="559.295" y1="262.177" x2="798.332" y2="190.127" gradientUnits="userSpaceOnUse">
<stop stop-color="#FF1CF7"/>
<stop offset="1" stop-color="#885EFE"/>
</linearGradient>
<linearGradient id="paint85_linear_290_227" x1="556.275" y1="261.089" x2="796.016" y2="193.369" gradientUnits="userSpaceOnUse">
<stop stop-color="#FF1CF7"/>
<stop offset="1" stop-color="#885EFE"/>
</linearGradient>
<linearGradient id="paint86_linear_290_227" x1="553.294" y1="260.001" x2="793.66" y2="196.612" gradientUnits="userSpaceOnUse">
<stop stop-color="#FF1CF7"/>
<stop offset="1" stop-color="#885EFE"/>
</linearGradient>
<linearGradient id="paint87_linear_290_227" x1="550.35" y1="258.911" x2="791.262" y2="199.855" gradientUnits="userSpaceOnUse">
<stop stop-color="#FF1CF7"/>
<stop offset="1" stop-color="#885EFE"/>
</linearGradient>
<linearGradient id="paint88_linear_290_227" x1="547.445" y1="257.822" x2="788.827" y2="203.098" gradientUnits="userSpaceOnUse">
<stop stop-color="#FF1CF7"/>
<stop offset="1" stop-color="#885EFE"/>
</linearGradient>
<linearGradient id="paint89_linear_290_227" x1="544.579" y1="256.734" x2="786.353" y2="206.341" gradientUnits="userSpaceOnUse">
<stop stop-color="#FF1CF7"/>
<stop offset="1" stop-color="#885EFE"/>
</linearGradient>
<linearGradient id="paint90_linear_290_227" x1="541.75" y1="255.645" x2="783.838" y2="209.58" gradientUnits="userSpaceOnUse">
<stop stop-color="#FF1CF7"/>
<stop offset="1" stop-color="#885EFE"/>
</linearGradient>
<linearGradient id="paint91_linear_290_227" x1="538.959" y1="254.56" x2="781.283" y2="212.819" gradientUnits="userSpaceOnUse">
<stop stop-color="#FF1CF7"/>
<stop offset="1" stop-color="#885EFE"/>
</linearGradient>
<linearGradient id="paint92_linear_290_227" x1="536.206" y1="253.478" x2="778.69" y2="216.054" gradientUnits="userSpaceOnUse">
<stop stop-color="#FF1CF7"/>
<stop offset="1" stop-color="#885EFE"/>
</linearGradient>
<linearGradient id="paint93_linear_290_227" x1="533.491" y1="252.399" x2="776.058" y2="219.286" gradientUnits="userSpaceOnUse">
<stop stop-color="#FF1CF7"/>
<stop offset="1" stop-color="#885EFE"/>
</linearGradient>
<linearGradient id="paint94_linear_290_227" x1="530.813" y1="251.323" x2="773.387" y2="222.511" gradientUnits="userSpaceOnUse">
<stop stop-color="#FF1CF7"/>
<stop offset="1" stop-color="#885EFE"/>
</linearGradient>
<linearGradient id="paint95_linear_290_227" x1="528.173" y1="250.253" x2="770.677" y2="225.733" gradientUnits="userSpaceOnUse">
<stop stop-color="#FF1CF7"/>
<stop offset="1" stop-color="#885EFE"/>
</linearGradient>
<linearGradient id="paint96_linear_290_227" x1="525.569" y1="249.187" x2="767.929" y2="228.948" gradientUnits="userSpaceOnUse">
<stop stop-color="#FF1CF7"/>
<stop offset="1" stop-color="#885EFE"/>
</linearGradient>
<linearGradient id="paint97_linear_290_227" x1="523.004" y1="248.129" x2="765.142" y2="232.158" gradientUnits="userSpaceOnUse">
<stop stop-color="#FF1CF7"/>
<stop offset="1" stop-color="#885EFE"/>
</linearGradient>
<linearGradient id="paint98_linear_290_227" x1="520.473" y1="247.076" x2="762.317" y2="235.36" gradientUnits="userSpaceOnUse">
<stop stop-color="#FF1CF7"/>
<stop offset="1" stop-color="#885EFE"/>
</linearGradient>
<linearGradient id="paint99_linear_290_227" x1="285" y1="641" x2="285" y2="1325" gradientUnits="userSpaceOnUse">
<stop stop-color="#885EFE"/>
<stop offset="1" stop-color="#585858"/>
</linearGradient>
<linearGradient id="paint100_linear_290_227" x1="1555" y1="396" x2="1555" y2="946" gradientUnits="userSpaceOnUse">
<stop stop-color="#885EFE"/>
<stop offset="1" stop-color="#585858"/>
</linearGradient>
<clipPath id="clip0_290_227">
<rect width="1691" height="866" fill="white"/>
</clipPath>
</defs>
</svg>
