<svg width="1920" height="3974" viewBox="0 0 1920 3974" fill="none" xmlns="http://www.w3.org/2000/svg">
<g clip-path="url(#clip0_207_142)">
<rect width="1920" height="3974" fill="white"/>
<rect width="1920" height="3974" fill="#0C0C0C"/>
<g filter="url(#filter0_f_207_142)">
<circle cx="127" cy="3104" r="403" fill="url(#paint0_linear_207_142)"/>
</g>
<g filter="url(#filter1_f_207_142)">
<circle cx="1920" cy="2359" r="342" fill="url(#paint1_linear_207_142)"/>
</g>
<g filter="url(#filter2_f_207_142)">
<circle cx="1" cy="1243" r="403" fill="url(#paint2_linear_207_142)"/>
</g>
<g filter="url(#filter3_f_207_142)">
<circle cx="1799" cy="485" r="342" fill="url(#paint3_linear_207_142)"/>
</g>
<g filter="url(#filter4_f_207_142)">
<path opacity="0.010101" d="M937.877 1625.39L800.301 1884.13C796.131 1891.97 797.485 1901.61 803.655 1908L1007.22 2118.79C1013.39 2125.18 1022.97 2126.87 1030.95 2122.98L1294.34 1994.52C1302.32 1990.62 1306.89 1982.03 1305.65 1973.24L1264.87 1683.05C1263.63 1674.25 1256.88 1667.25 1248.13 1665.71L959.537 1614.82C950.791 1613.28 942.046 1617.55 937.877 1625.39Z" stroke="url(#paint4_linear_207_142)"/>
<path opacity="0.020202" d="M939.186 1624.65L797.4 1880.44C793.094 1888.21 794.28 1897.87 800.337 1904.36L999.792 2118.25C1005.85 2124.75 1015.4 2126.6 1023.45 2122.85L1288.5 1999.25C1296.55 1995.5 1301.27 1986.99 1300.19 1978.17L1264.55 1687.9C1263.46 1679.08 1256.83 1671.97 1248.11 1670.27L961.027 1614.47C952.309 1612.77 943.492 1616.89 939.186 1624.65Z" stroke="url(#paint5_linear_207_142)"/>
<path opacity="0.030303" d="M940.516 1624L794.581 1876.76C790.141 1884.45 791.158 1894.13 797.1 1900.73L992.399 2117.63C998.342 2124.23 1007.86 2126.25 1015.97 2122.64L1282.61 2003.93C1290.72 2000.32 1295.59 1991.89 1294.66 1983.06L1264.15 1692.79C1263.22 1683.96 1256.71 1676.72 1248.02 1674.88L962.532 1614.2C953.844 1612.35 944.956 1616.31 940.516 1624Z" stroke="url(#paint6_linear_207_142)"/>
<path opacity="0.040404" d="M941.867 1623.42L791.846 1873.1C787.272 1880.71 788.12 1890.4 793.947 1897.11L985.045 2116.94C990.871 2123.64 1000.35 2125.83 1008.53 2122.36L1276.65 2008.55C1284.83 2005.08 1289.84 1996.74 1289.06 1987.89L1263.68 1697.72C1262.9 1688.87 1256.52 1681.53 1247.87 1679.53L964.051 1614.01C955.397 1612.01 946.442 1615.81 941.867 1623.42Z" stroke="url(#paint7_linear_207_142)"/>
<path opacity="0.050505" d="M943.237 1622.93L789.193 1869.45C784.487 1876.98 785.165 1886.69 790.874 1893.49L977.728 2116.17C983.437 2122.98 992.877 2125.33 1001.11 2122L1270.64 2013.11C1278.87 2009.78 1284.03 2001.53 1283.41 1992.67L1263.13 1702.68C1262.51 1693.83 1256.26 1686.37 1247.64 1684.22L965.581 1613.9C956.964 1611.75 947.943 1615.39 943.237 1622.93Z" stroke="url(#paint8_linear_207_142)"/>
<path opacity="0.0606061" d="M944.623 1622.51L786.62 1865.81C781.783 1873.26 782.293 1882.98 787.882 1889.88L970.451 2115.33C976.04 2122.23 985.438 2124.75 993.729 2121.57L1264.57 2017.61C1272.86 2014.42 1278.16 2006.26 1277.69 1997.39L1262.51 1707.69C1262.04 1698.82 1255.92 1691.26 1247.34 1688.96L967.122 1613.87C958.543 1611.57 949.46 1615.06 944.623 1622.51Z" stroke="url(#paint9_linear_207_142)"/>
<path opacity="0.0707071" d="M946.027 1622.17L784.13 1862.19C779.164 1869.56 779.503 1879.28 784.971 1886.28L963.216 2114.42C968.684 2121.42 978.036 2124.1 986.382 2121.06L1258.44 2022.04C1266.79 2019 1272.23 2010.94 1271.92 2002.06L1261.81 1712.72C1261.5 1703.85 1255.51 1696.18 1246.97 1693.73L968.672 1613.93C960.135 1611.48 950.993 1614.81 946.027 1622.17Z" stroke="url(#paint10_linear_207_142)"/>
<path opacity="0.0808081" d="M947.443 1621.92L781.72 1858.59C776.626 1865.87 776.795 1875.6 782.14 1882.69L956.023 2113.44C961.368 2120.53 970.672 2123.38 979.069 2120.48L1252.26 2026.42C1260.66 2023.53 1266.24 2015.56 1266.08 2006.68L1261.04 1717.79C1260.88 1708.91 1255.03 1701.14 1246.53 1698.54L970.229 1614.07C961.736 1611.47 952.537 1614.64 947.443 1621.92Z" stroke="url(#paint11_linear_207_142)"/>
<path opacity="0.0909091" d="M948.874 1621.74L779.39 1855.01C774.17 1862.2 774.17 1871.93 779.39 1879.11L948.874 2112.39C954.094 2119.57 963.347 2122.58 971.793 2119.83L1246.02 2030.73C1254.47 2027.99 1260.19 2020.11 1260.19 2011.23V1722.89C1260.19 1714.01 1254.47 1706.14 1246.02 1703.39L971.793 1614.29C963.347 1611.55 954.094 1614.55 948.874 1621.74Z" stroke="url(#paint12_linear_207_142)"/>
<path opacity="0.10101" d="M950.316 1621.64L777.141 1851.45C771.796 1858.54 771.626 1868.27 776.72 1875.55L941.769 2111.26C946.863 2118.54 956.063 2121.7 964.556 2119.11L1239.74 2034.98C1248.23 2032.38 1254.08 2024.61 1254.24 2015.73L1259.26 1728.02C1259.42 1719.14 1253.84 1711.17 1245.44 1708.28L973.362 1614.6C964.965 1611.7 955.661 1614.55 950.316 1621.64Z" stroke="url(#paint13_linear_207_142)"/>
<path opacity="0.111111" d="M951.767 1621.63L774.969 1847.92C769.502 1854.91 769.162 1864.64 774.128 1872L934.71 2110.07C939.676 2117.44 948.819 2120.76 957.356 2118.31L1233.4 2039.16C1241.94 2036.71 1247.93 2029.05 1248.24 2020.17L1258.26 1733.18C1258.57 1724.3 1253.13 1716.24 1244.78 1713.2L974.932 1614.98C966.587 1611.95 957.235 1614.63 951.767 1621.63Z" stroke="url(#paint14_linear_207_142)"/>
<path opacity="0.121212" d="M953.228 1621.69L772.878 1844.4C767.288 1851.3 766.779 1861.02 771.616 1868.47L927.698 2108.81C932.535 2116.26 941.618 2119.75 950.197 2117.45L1227.01 2043.28C1235.59 2040.98 1241.71 2033.42 1242.18 2024.55L1257.18 1738.36C1257.64 1729.49 1252.34 1721.33 1244.05 1718.15L976.506 1615.45C968.214 1612.27 958.817 1614.79 953.228 1621.69Z" stroke="url(#paint15_linear_207_142)"/>
<path opacity="0.131313" d="M954.695 1621.83L770.864 1840.91C765.155 1847.72 764.477 1857.42 769.183 1864.96L920.735 2107.49C925.441 2115.02 934.462 2118.67 943.079 2116.52L1220.58 2047.33C1229.19 2045.18 1235.45 2037.73 1236.07 2028.87L1256.02 1743.57C1256.64 1734.71 1251.48 1726.46 1243.25 1723.14L978.079 1616C969.844 1612.68 960.404 1615.03 954.695 1621.83Z" stroke="url(#paint16_linear_207_142)"/>
<path opacity="0.141414" d="M956.168 1622.06L768.927 1837.45C763.1 1844.16 762.252 1853.85 766.827 1861.46L913.82 2106.1C918.394 2113.71 927.35 2117.51 936.004 2115.52L1214.09 2051.31C1222.75 2049.32 1229.13 2041.97 1229.9 2033.13L1254.78 1748.81C1255.55 1739.96 1250.54 1731.62 1242.37 1728.15L979.65 1616.64C971.475 1613.17 961.995 1615.35 956.168 1622.06Z" stroke="url(#paint17_linear_207_142)"/>
<path opacity="0.151515" d="M957.647 1622.36L767.068 1834.02C761.126 1840.62 760.109 1850.3 764.549 1857.99L906.957 2104.64C911.398 2112.34 920.286 2116.29 928.973 2114.45L1207.56 2055.23C1216.25 2053.38 1222.76 2046.15 1223.69 2037.32L1253.46 1754.07C1254.39 1745.23 1249.52 1736.81 1241.41 1733.19L981.22 1617.35C973.106 1613.74 963.59 1615.76 957.647 1622.36Z" stroke="url(#paint18_linear_207_142)"/>
<path opacity="0.161616" d="M959.127 1622.74L765.284 1830.62C759.227 1837.11 758.042 1846.77 762.347 1854.54L900.144 2103.13C904.449 2110.89 913.267 2115.01 921.985 2113.31L1200.99 2059.08C1209.71 2057.38 1216.34 2050.27 1217.43 2041.45L1252.07 1759.34C1253.15 1750.53 1248.43 1742.02 1240.38 1738.27L982.784 1618.15C974.735 1614.39 965.184 1616.25 959.127 1622.74Z" stroke="url(#paint19_linear_207_142)"/>
<path opacity="0.171717" d="M960.61 1623.21L763.577 1827.24C757.407 1833.63 756.053 1843.27 760.223 1851.11L893.384 2101.55C897.553 2109.39 906.298 2113.65 915.044 2112.11L1194.37 2062.86C1203.12 2061.31 1209.88 2054.32 1211.12 2045.52L1250.59 1764.64C1251.83 1755.85 1247.26 1747.26 1239.28 1743.36L984.343 1619.02C976.36 1615.13 966.779 1616.82 960.61 1623.21Z" stroke="url(#paint20_linear_207_142)"/>
<path opacity="0.181818" d="M962.092 1623.75L761.944 1823.9C755.664 1830.18 754.142 1839.79 758.174 1847.7L886.677 2099.9C890.709 2107.82 899.378 2112.23 908.15 2110.85L1187.72 2066.57C1196.49 2065.18 1203.37 2058.3 1204.76 2049.53L1249.04 1769.96C1250.43 1761.19 1246.01 1752.52 1238.1 1748.49L985.895 1619.98C977.981 1615.95 968.372 1617.47 962.092 1623.75Z" stroke="url(#paint21_linear_207_142)"/>
<path opacity="0.191919" d="M963.573 1624.38L760.385 1820.59C753.996 1826.76 752.307 1836.34 756.2 1844.33L880.024 2098.2C883.917 2106.19 892.508 2110.75 901.303 2109.52L1181.02 2070.21C1189.81 2068.97 1196.81 2062.21 1198.35 2053.46L1247.4 1775.29C1248.95 1766.55 1244.68 1757.8 1236.84 1753.63L987.437 1621.02C979.596 1616.85 969.961 1618.21 963.573 1624.38Z" stroke="url(#paint22_linear_207_142)"/>
<path opacity="0.20202" d="M965.051 1625.08L758.9 1817.32C752.404 1823.37 750.548 1832.92 754.301 1840.97L873.428 2096.44C877.181 2104.49 885.69 2109.21 894.505 2108.12L1174.28 2073.77C1183.1 2072.69 1190.21 2066.05 1191.91 2057.34L1245.69 1780.64C1247.39 1771.92 1243.27 1763.1 1235.51 1758.8L988.971 1622.14C981.203 1617.83 971.547 1619.02 965.051 1625.08Z" stroke="url(#paint23_linear_207_142)"/>
<path opacity="0.212121" d="M966.525 1625.86L757.487 1814.08C750.887 1820.02 748.864 1829.54 752.476 1837.65L866.887 2094.62C870.499 2102.74 878.925 2107.6 887.757 2106.67L1167.51 2077.27C1176.34 2076.34 1183.57 2069.83 1185.41 2061.14L1243.9 1786C1245.74 1777.31 1241.79 1768.43 1234.1 1763.99L990.493 1623.34C982.801 1618.9 973.125 1619.92 966.525 1625.86Z" stroke="url(#paint24_linear_207_142)"/>
<path opacity="0.222222" d="M967.993 1626.72L756.146 1810.88C749.443 1816.7 747.254 1826.18 750.724 1834.36L860.403 2092.75C863.873 2100.92 872.213 2105.93 881.06 2105.16L1160.69 2080.69C1169.54 2079.92 1176.88 2073.54 1178.88 2064.88L1242.03 1791.38C1244.02 1782.72 1240.22 1773.77 1232.61 1769.19L992.001 1624.62C984.388 1620.05 974.696 1620.89 967.993 1626.72Z" stroke="url(#paint25_linear_207_142)"/>
<path opacity="0.232323" d="M969.455 1627.66L754.876 1807.71C748.072 1813.42 745.719 1822.86 749.046 1831.1L853.978 2090.81C857.305 2099.05 865.556 2104.2 874.415 2103.58L1153.85 2084.04C1162.71 2083.42 1170.16 2077.17 1172.31 2068.55L1240.07 1796.76C1242.22 1788.14 1238.58 1779.12 1231.05 1774.42L993.496 1625.98C985.964 1621.27 976.258 1621.95 969.455 1627.66Z" stroke="url(#paint26_linear_207_142)"/>
<path opacity="0.242424" d="M970.908 1628.68L753.676 1804.59C746.774 1810.18 744.256 1819.58 747.439 1827.87L847.612 2088.83C850.795 2097.12 858.954 2102.42 867.823 2101.95L1146.97 2087.32C1155.83 2086.86 1163.4 2080.74 1165.69 2072.16L1238.04 1802.16C1240.34 1793.58 1236.85 1784.49 1229.4 1779.66L994.975 1627.42C987.526 1622.58 977.81 1623.09 970.908 1628.68Z" stroke="url(#paint27_linear_207_142)"/>
<path opacity="0.252525" d="M972.352 1629.77L752.546 1801.51C745.548 1806.97 742.866 1816.33 745.904 1824.67L841.306 2086.79C844.343 2095.13 852.409 2100.57 861.285 2100.26L1140.05 2090.53C1148.93 2090.22 1156.6 2084.23 1159.04 2075.69L1235.93 1807.56C1238.38 1799.02 1235.05 1789.88 1227.69 1784.91L996.437 1628.93C989.074 1623.97 979.351 1624.31 972.352 1629.77Z" stroke="url(#paint28_linear_207_142)"/>
<path opacity="0.262626" d="M973.784 1630.95L751.484 1798.46C744.391 1803.81 741.546 1813.11 744.438 1821.51L835.06 2084.69C837.951 2093.09 845.921 2098.67 854.801 2098.52L1133.11 2093.66C1141.99 2093.5 1149.76 2087.65 1152.35 2079.16L1233.74 1812.97C1236.33 1804.47 1233.17 1795.28 1225.89 1790.18L997.879 1630.53C990.604 1625.43 980.877 1625.6 973.784 1630.95Z" stroke="url(#paint29_linear_207_142)"/>
<path opacity="0.272727" d="M975.204 1632.2L750.49 1795.46C743.305 1800.68 740.298 1809.94 743.043 1818.38L828.876 2082.55C831.62 2091 839.491 2096.72 848.373 2096.72L1126.13 2096.72C1135.02 2096.72 1142.89 2091 1145.63 2082.55L1231.46 1818.38C1234.21 1809.94 1231.2 1800.68 1224.02 1795.46L999.303 1632.2C992.118 1626.98 982.389 1626.98 975.204 1632.2Z" stroke="url(#paint30_linear_207_142)"/>
<path opacity="0.282828" d="M976.61 1633.53L749.562 1792.51C742.287 1797.6 739.12 1806.8 741.717 1815.29L822.754 2080.36C825.351 2088.85 833.121 2094.71 842.001 2094.86L1119.13 2099.7C1128.01 2099.85 1135.98 2094.27 1138.87 2085.87L1229.11 1823.8C1232 1815.4 1229.16 1806.1 1222.07 1800.75L1000.71 1633.95C993.613 1628.6 983.885 1628.43 976.61 1633.53Z" stroke="url(#paint31_linear_207_142)"/>
<path opacity="0.292929" d="M978.002 1634.93L748.701 1789.6C741.338 1794.56 738.011 1803.71 740.459 1812.24L816.696 2078.12C819.144 2086.65 826.811 2092.64 835.687 2092.95L1112.1 2102.61C1120.98 2102.91 1129.05 2097.47 1132.08 2089.13L1226.68 1829.22C1229.72 1820.88 1227.04 1811.52 1220.04 1806.06L1002.09 1635.77C995.088 1630.31 985.365 1629.97 978.002 1634.93Z" stroke="url(#paint32_linear_207_142)"/>
<path opacity="0.30303" d="M979.376 1636.41L747.904 1786.73C740.456 1791.57 736.969 1800.65 739.268 1809.23L810.701 2075.83C813 2084.4 820.561 2090.53 829.43 2090.99L1105.05 2105.44C1113.92 2105.9 1122.08 2100.6 1125.26 2092.31L1224.17 1834.64C1227.35 1826.35 1224.84 1816.95 1217.93 1811.37L1003.44 1637.67C996.54 1632.08 986.824 1631.58 979.376 1636.41Z" stroke="url(#paint33_linear_207_142)"/>
<path opacity="0.313131" d="M980.733 1637.97L747.171 1783.92C739.639 1788.62 735.995 1797.64 738.143 1806.26L804.771 2073.49C806.92 2082.11 814.373 2088.36 823.232 2088.98L1097.97 2108.19C1106.83 2108.81 1115.08 2103.66 1118.41 2095.42L1221.58 1840.06C1224.91 1831.83 1222.55 1822.39 1215.75 1816.68L1004.77 1639.65C997.97 1633.94 988.264 1633.26 980.733 1637.97Z" stroke="url(#paint34_linear_207_142)"/>
<path opacity="0.323232" d="M982.071 1639.6L746.501 1781.15C738.889 1785.72 735.087 1794.68 737.085 1803.33L798.907 2071.11C800.904 2079.76 808.247 2086.14 817.095 2086.92L1090.87 2110.87C1099.72 2111.65 1108.06 2106.63 1111.53 2098.46L1218.91 1845.48C1222.38 1837.31 1220.19 1827.83 1213.49 1822L1006.08 1641.7C999.376 1635.87 989.683 1635.03 982.071 1639.6Z" stroke="url(#paint35_linear_207_142)"/>
<path opacity="0.333333" d="M983.388 1641.31L745.893 1778.43C738.202 1782.87 734.245 1791.75 736.091 1800.44L793.108 2068.68C794.954 2077.37 802.185 2083.88 811.017 2084.81L1083.75 2113.48C1092.58 2114.4 1101.01 2109.54 1104.62 2101.43L1216.16 1850.9C1219.77 1842.79 1217.75 1833.27 1211.15 1827.33L1007.36 1643.83C1000.76 1637.88 991.079 1636.87 983.388 1641.31Z" stroke="url(#paint36_linear_207_142)"/>
<path opacity="0.343434" d="M984.684 1643.09L745.346 1775.76C737.578 1780.06 733.467 1788.88 735.161 1797.6L787.376 2066.22C789.07 2074.93 796.186 2081.57 805.001 2082.65L1076.61 2116C1085.42 2117.08 1093.93 2112.37 1097.69 2104.32L1213.33 1856.31C1217.09 1848.26 1215.23 1838.71 1208.74 1832.65L1008.6 1646.03C1002.11 1639.97 992.451 1638.78 984.684 1643.09Z" stroke="url(#paint37_linear_207_142)"/>
<path opacity="0.353535" d="M985.957 1644.94L744.859 1773.14C737.018 1777.31 732.753 1786.05 734.295 1794.8L781.711 2063.71C783.253 2072.46 790.252 2079.21 799.047 2080.45L1069.45 2118.45C1078.24 2119.69 1086.83 2115.12 1090.73 2107.14L1210.43 1861.71C1214.32 1853.73 1212.63 1844.15 1206.24 1837.98L1009.82 1648.3C1003.43 1642.13 993.798 1640.77 985.957 1644.94Z" stroke="url(#paint38_linear_207_142)"/>
<path opacity="0.363636" d="M987.205 1646.87L744.43 1770.57C736.517 1774.6 732.1 1783.27 733.49 1792.04L776.114 2061.16C777.503 2069.93 784.383 2076.81 793.154 2078.2L1062.27 2120.83C1071.04 2122.22 1079.71 2117.8 1083.74 2109.89L1207.44 1867.11C1211.48 1859.2 1209.95 1849.59 1203.67 1843.31L1011.01 1650.64C1004.73 1644.36 995.118 1642.84 987.205 1646.87Z" stroke="url(#paint39_linear_207_142)"/>
<path opacity="0.373737" d="M988.428 1648.87L744.06 1768.06C736.078 1771.95 731.51 1780.54 732.746 1789.34L770.585 2058.58C771.821 2067.37 778.58 2074.37 787.326 2075.91L1055.08 2123.12C1063.83 2124.67 1072.57 2120.4 1076.74 2112.56L1204.38 1872.5C1208.55 1864.66 1207.2 1855.02 1201.03 1848.63L1012.16 1653.06C1005.99 1646.67 996.41 1644.98 988.428 1648.87Z" stroke="url(#paint40_linear_207_142)"/>
<path opacity="0.383838" d="M989.625 1650.94L743.747 1765.6C735.698 1769.35 730.981 1777.86 732.063 1786.68L765.126 2055.95C766.208 2064.77 772.844 2071.88 781.562 2073.58L1047.87 2125.34C1056.59 2127.04 1065.41 2122.92 1069.72 2115.16L1201.24 1877.88C1205.55 1870.11 1204.36 1860.45 1198.31 1853.96L1013.28 1655.54C1007.22 1649.05 997.674 1647.19 989.625 1650.94Z" stroke="url(#paint41_linear_207_142)"/>
<path opacity="0.393939" d="M990.793 1653.09L743.488 1763.2C735.375 1766.81 730.51 1775.23 731.439 1784.07L759.735 2053.29C760.664 2062.12 767.174 2069.35 775.861 2071.2L1040.65 2127.48C1049.34 2129.33 1058.23 2125.37 1062.67 2117.68L1198.02 1883.24C1202.46 1875.55 1201.45 1865.87 1195.51 1859.27L1014.37 1658.1C1008.42 1651.5 998.906 1649.48 990.793 1653.09Z" stroke="url(#paint42_linear_207_142)"/>
<path opacity="0.40404" d="M991.933 1655.3L743.285 1760.85C735.11 1764.32 730.099 1772.66 730.873 1781.5L754.415 2050.6C755.19 2059.44 761.572 2066.79 770.226 2068.78L1033.42 2129.55C1042.08 2131.55 1051.03 2127.74 1055.61 2120.13L1194.73 1888.59C1199.3 1880.98 1198.46 1871.29 1192.63 1864.59L1015.41 1660.72C1009.59 1654.02 1000.11 1651.83 991.933 1655.3Z" stroke="url(#paint43_linear_207_142)"/>
<path opacity="0.414141" d="M993.042 1657.59L743.135 1758.56C734.901 1761.88 729.745 1770.13 730.364 1778.99L749.166 2047.87C749.786 2056.73 756.039 2064.18 764.657 2066.33L1026.18 2131.54C1034.8 2133.69 1043.82 2130.04 1048.53 2122.51L1191.36 1893.93C1196.07 1886.4 1195.39 1876.69 1189.68 1869.89L1016.43 1663.42C1010.72 1656.61 1001.28 1654.26 993.042 1657.59Z" stroke="url(#paint44_linear_207_142)"/>
<path opacity="0.424242" d="M994.12 1659.94L743.037 1756.32C734.746 1759.5 729.447 1767.66 729.912 1776.53L743.988 2045.11C744.452 2053.98 750.575 2061.54 759.154 2063.84L1018.94 2133.45C1027.51 2135.75 1036.6 2132.26 1041.43 2124.81L1187.91 1899.25C1192.75 1891.81 1192.24 1882.09 1186.65 1875.19L1017.4 1666.18C1011.81 1659.28 1002.41 1656.76 994.12 1659.94Z" stroke="url(#paint45_linear_207_142)"/>
<path opacity="0.434343" d="M995.164 1662.36L742.991 1754.15C734.645 1757.18 729.205 1765.25 729.514 1774.13L738.88 2042.32C739.19 2051.2 745.18 2058.86 753.717 2061.31L1011.68 2135.28C1020.22 2137.73 1029.36 2134.4 1034.32 2127.04L1184.39 1904.56C1189.35 1897.2 1189.02 1887.47 1183.55 1880.47L1018.33 1669.01C1012.86 1662.01 1003.51 1659.33 995.164 1662.36Z" stroke="url(#paint46_linear_207_142)"/>
<path opacity="0.444444" d="M996.176 1664.85L742.994 1752.03C734.597 1754.92 729.017 1762.89 729.172 1771.77L733.845 2039.5C734 2048.38 739.855 2056.15 748.348 2058.75L1004.42 2137.04C1012.91 2139.63 1022.11 2136.46 1027.2 2129.19L1180.79 1909.85C1185.88 1902.57 1185.71 1892.84 1180.37 1885.75L1019.22 1671.9C1013.88 1664.81 1004.57 1661.96 996.176 1664.85Z" stroke="url(#paint47_linear_207_142)"/>
<path opacity="0.454545" d="M997.152 1667.41L743.047 1749.97C734.6 1752.72 728.882 1760.59 728.882 1769.47L728.882 2036.65C728.882 2045.53 734.6 2053.41 743.047 2056.15L997.152 2138.71C1005.6 2141.46 1014.85 2138.45 1020.07 2131.27L1177.12 1915.11C1182.34 1907.93 1182.34 1898.2 1177.12 1891.01L1020.07 1674.86C1014.85 1667.67 1005.6 1664.67 997.152 1667.41Z" stroke="url(#paint48_linear_207_142)"/>
<path opacity="0.464646" d="M998.092 1670.03L743.147 1747.98C734.654 1750.58 728.798 1758.35 728.643 1767.23L723.991 2033.78C723.836 2042.66 729.416 2050.63 737.813 2053.52L989.883 2140.32C998.281 2143.21 1007.58 2140.36 1012.93 2133.27L1173.37 1920.36C1178.71 1913.26 1178.88 1903.54 1173.79 1896.26L1020.88 1677.88C1015.78 1670.61 1006.59 1667.44 998.092 1670.03Z" stroke="url(#paint49_linear_207_142)"/>
<path opacity="0.474747" d="M998.995 1672.72L743.293 1746.05C734.756 1748.49 728.766 1756.16 728.456 1765.04L719.173 2030.88C718.863 2039.76 724.303 2047.82 732.649 2050.86L982.613 2141.84C990.959 2144.88 1000.31 2142.19 1005.78 2135.2L1169.55 1925.58C1175.02 1918.58 1175.36 1908.86 1170.39 1901.5L1021.64 1680.97C1016.67 1673.6 1007.53 1670.28 998.995 1672.72Z" stroke="url(#paint50_linear_207_142)"/>
<path opacity="0.484848" d="M999.86 1675.48L743.485 1744.17C734.907 1746.47 728.784 1754.03 728.319 1762.9L714.428 2027.96C713.963 2036.83 719.262 2044.99 727.553 2048.17L975.343 2143.29C983.634 2146.47 993.032 2143.95 998.621 2137.05L1165.65 1930.78C1171.24 1923.88 1171.75 1914.16 1166.92 1906.71L1022.36 1684.11C1017.52 1676.67 1008.44 1673.18 999.86 1675.48Z" stroke="url(#paint51_linear_207_142)"/>
<path opacity="0.494949" d="M1000.69 1678.3L743.721 1742.36C735.104 1744.51 728.85 1751.97 728.23 1760.82L709.757 2025.01C709.137 2033.87 714.293 2042.12 722.527 2045.45L968.074 2144.66C976.309 2147.98 985.749 2145.63 991.458 2138.83L1161.69 1935.95C1167.4 1929.15 1168.08 1919.44 1163.37 1911.91L1023.03 1687.32C1018.32 1679.79 1009.3 1676.15 1000.69 1678.3Z" stroke="url(#paint52_linear_207_142)"/>
<path opacity="0.50505" d="M1001.47 1681.18L744 1740.62C735.346 1742.62 728.963 1749.96 728.189 1758.81L705.159 2022.04C704.385 2030.89 709.396 2039.23 717.571 2042.7L960.808 2145.95C968.983 2149.42 978.463 2147.23 984.29 2140.53L1157.65 1941.1C1163.48 1934.4 1164.32 1924.71 1159.75 1917.09L1023.65 1690.59C1019.08 1682.98 1010.12 1679.18 1001.47 1681.18Z" stroke="url(#paint53_linear_207_142)"/>
<path opacity="0.515152" d="M1002.21 1684.12L744.32 1738.94C735.633 1740.78 729.123 1748.02 728.195 1756.85L700.635 2019.06C699.707 2027.89 704.571 2036.32 712.685 2039.93L953.546 2147.17C961.659 2150.78 971.176 2148.76 977.118 2142.16L1153.54 1946.22C1159.48 1939.62 1160.5 1929.95 1156.06 1922.26L1024.23 1693.92C1019.79 1686.23 1010.9 1682.27 1002.21 1684.12Z" stroke="url(#paint54_linear_207_142)"/>
<path opacity="0.525253" d="M1002.91 1687.13L744.681 1737.32C735.963 1739.02 729.327 1746.13 728.245 1754.95L696.185 2016.05C695.103 2024.87 699.82 2033.38 707.869 2037.13L946.289 2148.31C954.338 2152.06 963.888 2150.21 969.945 2143.71L1149.36 1951.31C1155.41 1944.82 1156.6 1935.16 1152.29 1927.39L1024.76 1697.31C1020.45 1689.54 1011.63 1685.43 1002.91 1687.13Z" stroke="url(#paint55_linear_207_142)"/>
<path opacity="0.535354" d="M1003.57 1690.19L745.081 1735.77C736.334 1737.31 729.576 1744.31 728.34 1753.11L691.81 2013.03C690.574 2021.83 695.141 2030.42 703.124 2034.31L939.039 2149.37C947.021 2153.27 956.603 2151.58 962.772 2145.19L1145.11 1956.38C1151.28 1949.99 1152.63 1940.35 1148.46 1932.51L1025.23 1700.76C1021.06 1692.91 1012.32 1688.65 1003.57 1690.19Z" stroke="url(#paint56_linear_207_142)"/>
<path opacity="0.545455" d="M1004.19 1693.32L745.519 1734.29C736.747 1735.68 729.867 1742.55 728.478 1751.33L687.509 2009.99C686.12 2018.77 690.537 2027.44 698.45 2031.47L931.797 2150.36C939.71 2154.4 949.32 2152.87 955.6 2146.59L1140.79 1961.41C1147.07 1955.13 1148.59 1945.52 1144.56 1937.61L1025.66 1704.26C1021.63 1696.34 1012.96 1691.93 1004.19 1693.32Z" stroke="url(#paint57_linear_207_142)"/>
<path opacity="0.555556" d="M1004.75 1696.5L745.993 1732.87C737.198 1734.1 730.2 1740.86 728.657 1749.61L683.282 2006.94C681.74 2015.69 686.005 2024.43 693.847 2028.6L924.565 2151.28C932.406 2155.45 942.041 2154.09 948.429 2147.92L1136.4 1966.41C1142.78 1960.24 1144.47 1950.66 1140.58 1942.67L1026.03 1707.81C1022.14 1699.83 1013.55 1695.26 1004.75 1696.5Z" stroke="url(#paint58_linear_207_142)"/>
<path opacity="0.565657" d="M1005.28 1699.74L746.503 1731.52C737.688 1732.6 730.572 1739.23 728.878 1747.95L679.131 2003.88C677.436 2012.6 681.548 2021.41 689.315 2025.72L917.343 2152.12C925.111 2156.42 934.767 2155.24 941.263 2149.18L1131.94 1971.37C1138.43 1965.32 1140.29 1955.76 1136.54 1947.72L1026.35 1711.43C1022.6 1703.38 1014.09 1698.66 1005.28 1699.74Z" stroke="url(#paint59_linear_207_142)"/>
<path opacity="0.575758" d="M1005.75 1703.04L747.047 1730.23C738.214 1731.16 730.984 1737.67 729.137 1746.36L675.054 2000.8C673.207 2009.49 677.164 2018.38 684.856 2022.82L910.134 2152.88C917.825 2157.32 927.501 2156.31 934.101 2150.36L1127.41 1976.3C1134.01 1970.36 1136.04 1960.84 1132.42 1952.73L1026.62 1715.09C1023.01 1706.98 1014.58 1702.11 1005.75 1703.04Z" stroke="url(#paint60_linear_207_142)"/>
<path opacity="0.585859" d="M1006.18 1706.4L747.623 1729.02C738.776 1729.79 731.433 1736.17 729.435 1744.83L671.051 1997.72C669.054 2006.37 672.855 2015.32 680.468 2019.9L902.938 2153.57C910.55 2158.15 920.243 2157.3 926.945 2151.47L1122.82 1981.2C1129.53 1975.37 1131.71 1965.89 1128.24 1957.72L1026.83 1718.81C1023.36 1710.63 1015.02 1705.62 1006.18 1706.4Z" stroke="url(#paint61_linear_207_142)"/>
<path opacity="0.59596" d="M1006.55 1709.8L748.231 1727.87C739.372 1728.49 731.919 1734.74 729.77 1743.36L667.124 1994.62C664.975 2003.24 668.62 2012.26 676.152 2016.96L895.756 2154.19C903.288 2158.9 912.993 2158.22 919.797 2152.51L1118.17 1986.06C1124.97 1980.35 1127.32 1970.91 1124 1962.67L1026.99 1722.58C1023.66 1714.34 1015.41 1709.19 1006.55 1709.8Z" stroke="url(#paint62_linear_207_142)"/>
<path opacity="0.606061" d="M1006.88 1713.27L748.87 1726.79C740.001 1727.25 732.44 1733.38 730.141 1741.96L663.272 1991.52C660.973 2000.1 664.46 2009.18 671.908 2014.02L888.591 2154.73C896.04 2159.57 905.756 2159.06 912.657 2153.47L1113.45 1990.88C1120.35 1985.29 1122.87 1975.89 1119.68 1967.6L1027.09 1726.39C1023.91 1718.1 1015.75 1712.8 1006.88 1713.27Z" stroke="url(#paint63_linear_207_142)"/>
<path opacity="0.616162" d="M1007.16 1716.78L749.537 1725.78C740.661 1726.09 732.995 1732.08 730.547 1740.62L659.493 1988.41C657.045 1996.95 660.373 2006.09 667.736 2011.05L881.443 2155.2C888.806 2160.17 898.529 2159.83 905.528 2154.36L1108.66 1995.66C1115.66 1990.19 1118.34 1980.84 1115.3 1972.49L1027.14 1730.26C1024.1 1721.91 1016.03 1716.47 1007.16 1716.78Z" stroke="url(#paint64_linear_207_142)"/>
<path opacity="0.626263" d="M1007.38 1720.35L750.232 1724.84C741.352 1725 733.582 1730.85 730.985 1739.34L655.79 1985.3C653.194 1993.79 656.361 2002.99 663.636 2008.08L874.314 2155.6C881.589 2160.69 891.317 2160.52 898.409 2155.18L1103.81 2000.4C1110.9 1995.05 1113.75 1985.75 1110.86 1977.35L1027.12 1734.17C1024.23 1725.78 1016.26 1720.2 1007.38 1720.35Z" stroke="url(#paint65_linear_207_142)"/>
<path opacity="0.636364" d="M1007.56 1723.97L750.953 1723.97C742.072 1723.97 734.201 1729.69 731.456 1738.14L652.162 1982.18C649.418 1990.63 652.424 1999.88 659.609 2005.1L867.204 2155.93C874.389 2161.15 884.119 2161.15 891.304 2155.93L1098.9 2005.1C1106.08 1999.88 1109.09 1990.63 1106.35 1982.18L1027.05 1738.14C1024.31 1729.69 1016.44 1723.97 1007.56 1723.97Z" stroke="url(#paint66_linear_207_142)"/>
<path opacity="0.646465" d="M1007.67 1727.64L751.699 1723.17C742.819 1723.02 734.849 1728.6 731.958 1736.99L648.608 1979.06C645.716 1987.46 648.561 1996.76 655.654 2002.11L860.116 2156.18C867.209 2161.52 876.936 2161.69 884.211 2156.6L1093.93 2009.76C1101.2 2004.66 1104.37 1995.46 1101.77 1986.97L1026.92 1742.14C1024.32 1733.65 1016.55 1727.79 1007.67 1727.64Z" stroke="url(#paint67_linear_207_142)"/>
<path opacity="0.656566" d="M1007.74 1731.36L752.468 1722.44C743.593 1722.13 735.527 1727.57 732.489 1735.92L645.128 1975.94C642.091 1984.29 644.772 1993.64 651.771 1999.11L853.05 2156.36C860.048 2161.83 869.771 2162.17 877.134 2157.2L1088.89 2014.37C1096.25 2009.41 1099.58 2000.26 1097.13 1991.73L1026.73 1746.19C1024.28 1737.66 1016.61 1731.67 1007.74 1731.36Z" stroke="url(#paint68_linear_207_142)"/>
<path opacity="0.666667" d="M1007.75 1735.12L753.261 1721.78C744.392 1721.32 736.232 1726.62 733.049 1734.91L641.723 1972.82C638.541 1981.11 641.059 1990.51 647.961 1996.1L846.007 2156.47C852.909 2162.06 862.625 2162.57 870.074 2157.74L1083.8 2018.94C1091.25 2014.1 1094.73 2005.02 1092.44 1996.44L1026.48 1750.29C1024.18 1741.71 1016.62 1735.59 1007.75 1735.12Z" stroke="url(#paint69_linear_207_142)"/>
<path opacity="0.676768" d="M1007.7 1738.93L754.073 1721.2C745.214 1720.58 736.963 1725.73 733.636 1733.97L638.392 1969.71C635.065 1977.94 637.419 1987.38 644.222 1993.09L838.99 2156.52C845.793 2162.23 855.499 2162.91 863.03 2158.2L1078.65 2023.47C1086.18 2018.76 1089.82 2009.74 1087.67 2001.12L1026.17 1754.42C1024.02 1745.81 1016.56 1739.55 1007.7 1738.93Z" stroke="url(#paint70_linear_207_142)"/>
<path opacity="0.686869" d="M1007.6 1742.79L754.906 1720.68C746.059 1719.91 737.719 1724.92 734.249 1733.09L635.135 1966.59C631.665 1974.77 633.854 1984.25 640.556 1990.07L831.998 2156.49C838.701 2162.32 848.393 2163.17 856.006 2158.59L1073.44 2027.95C1081.05 2023.37 1084.85 2014.42 1082.85 2005.76L1025.79 1758.6C1023.79 1749.95 1016.45 1743.56 1007.6 1742.79Z" stroke="url(#paint71_linear_207_142)"/>
<path opacity="0.69697" d="M1007.45 1746.69L755.757 1720.24C746.925 1719.31 738.499 1724.17 734.887 1732.29L631.952 1963.48C628.34 1971.6 630.362 1981.11 636.962 1987.05L825.034 2156.4C831.634 2162.34 841.31 2163.35 849.001 2158.91L1068.17 2032.38C1075.86 2027.94 1079.82 2019.05 1077.97 2010.36L1025.36 1762.82C1023.51 1754.13 1016.28 1747.62 1007.45 1746.69Z" stroke="url(#paint72_linear_207_142)"/>
<path opacity="0.707071" d="M1007.23 1750.64L756.625 1719.87C747.81 1718.78 739.301 1723.5 735.548 1731.55L628.842 1960.38C625.089 1968.43 626.945 1977.98 633.44 1984.04L818.098 2156.23C824.593 2162.29 834.25 2163.48 842.017 2159.17L1062.85 2036.76C1070.62 2032.46 1074.73 2023.64 1073.03 2014.92L1024.86 1767.07C1023.16 1758.35 1016.05 1751.72 1007.23 1750.64Z" stroke="url(#paint73_linear_207_142)"/>
<path opacity="0.717172" d="M1006.96 1754.62L757.509 1719.56C748.714 1718.33 740.124 1722.9 736.231 1730.88L625.805 1957.28C621.912 1965.27 623.601 1974.85 629.99 1981.02L811.191 2156C817.58 2162.17 827.214 2163.52 835.056 2159.36L1057.47 2041.1C1065.31 2036.93 1069.58 2028.18 1068.03 2019.44L1024.29 1771.36C1022.75 1762.62 1015.75 1755.86 1006.96 1754.62Z" stroke="url(#paint74_linear_207_142)"/>
<path opacity="0.727273" d="M1006.62 1758.65L758.407 1719.34C749.635 1717.95 740.966 1722.36 736.934 1730.28L622.841 1954.2C618.809 1962.11 620.331 1971.72 626.611 1978L804.315 2155.7C810.595 2161.98 820.205 2163.51 828.118 2159.47L1052.04 2045.38C1059.95 2041.35 1064.37 2032.68 1062.98 2023.91L1023.67 1775.69C1022.28 1766.92 1015.4 1760.04 1006.62 1758.65Z" stroke="url(#paint75_linear_207_142)"/>
<path opacity="0.737374" d="M1006.23 1762.72L759.319 1719.18C750.572 1717.64 741.828 1721.9 737.658 1729.74L619.951 1951.12C615.781 1958.96 617.135 1968.6 623.305 1974.98L797.472 2155.34C803.642 2161.73 813.223 2163.42 821.205 2159.53L1046.55 2049.62C1054.54 2045.72 1059.1 2037.13 1057.87 2028.34L1022.97 1780.05C1021.74 1771.26 1014.98 1764.26 1006.23 1762.72Z" stroke="url(#paint76_linear_207_142)"/>
<path opacity="0.747475" d="M1005.78 1766.82L760.241 1719.1C751.523 1717.4 742.706 1721.51 738.4 1729.28L617.131 1948.05C612.826 1955.82 614.011 1965.48 620.068 1971.97L790.661 2154.91C796.718 2161.41 806.268 2163.26 814.317 2159.51L1041.02 2053.8C1049.07 2050.05 1053.78 2041.54 1052.7 2032.72L1022.22 1784.45C1021.14 1775.63 1014.5 1768.52 1005.78 1766.82Z" stroke="url(#paint77_linear_207_142)"/>
<path opacity="0.757576" d="M1005.27 1770.97L761.174 1719.08C752.487 1717.24 743.599 1721.19 739.159 1728.89L614.384 1945C609.944 1952.69 610.961 1962.37 616.903 1968.97L783.884 2154.42C789.827 2161.02 799.343 2163.04 807.456 2159.43L1035.43 2057.93C1043.54 2054.32 1048.41 2045.89 1047.48 2037.06L1021.4 1788.88C1020.47 1780.04 1013.96 1772.81 1005.27 1770.97Z" stroke="url(#paint78_linear_207_142)"/>
<path opacity="0.767677" d="M1004.7 1775.15L762.117 1719.14C753.463 1717.15 744.507 1720.95 739.933 1728.56L611.709 1941.96C607.135 1949.57 607.983 1959.27 613.809 1965.97L777.142 2153.86C782.969 2160.56 792.449 2162.75 800.624 2159.28L1029.79 2062.01C1037.97 2058.54 1042.98 2050.2 1042.21 2041.35L1020.51 1793.34C1019.73 1784.49 1013.35 1777.15 1004.7 1775.15Z" stroke="url(#paint79_linear_207_142)"/>
<path opacity="0.777778" d="M1004.06 1779.36L763.067 1719.28C754.449 1717.13 745.429 1720.77 740.722 1728.3L609.105 1938.94C604.399 1946.47 605.077 1956.17 610.786 1962.98L770.437 2153.24C776.146 2160.05 785.586 2162.4 793.82 2159.07L1024.11 2066.03C1032.34 2062.7 1037.5 2054.45 1036.88 2045.59L1019.55 1797.82C1018.93 1788.97 1012.68 1781.51 1004.06 1779.36Z" stroke="url(#paint80_linear_207_142)"/>
<path opacity="0.787879" d="M1003.37 1783.61L764.023 1719.48C755.445 1717.18 746.362 1720.67 741.525 1728.12L606.571 1935.93C601.734 1943.38 602.244 1953.09 607.833 1960L763.769 2152.56C769.358 2159.46 778.756 2161.98 787.047 2158.8L1018.37 2070C1026.67 2066.82 1031.96 2058.66 1031.5 2049.79L1018.53 1802.34C1018.07 1793.47 1011.94 1785.91 1003.37 1783.61Z" stroke="url(#paint81_linear_207_142)"/>
<path opacity="0.79798" d="M1002.61 1787.9L764.985 1719.76C756.448 1717.31 747.305 1720.64 742.339 1728L604.108 1932.94C599.142 1940.3 599.481 1950.02 604.949 1957.02L757.139 2151.82C762.607 2158.81 771.959 2161.5 780.305 2158.46L1012.59 2073.91C1020.94 2070.87 1026.38 2062.81 1026.07 2053.93L1017.44 1806.89C1017.13 1798.01 1011.14 1790.34 1002.61 1787.9Z" stroke="url(#paint82_linear_207_142)"/>
<path opacity="0.808081" d="M1001.78 1792.21L765.95 1720.11C757.457 1717.51 748.258 1720.68 743.164 1727.95L601.715 1929.97C596.621 1937.24 596.79 1946.97 602.135 1954.06L750.549 2151.01C755.893 2158.1 765.197 2160.95 773.595 2158.06L1006.77 2077.77C1015.17 2074.88 1020.75 2066.91 1020.59 2058.03L1016.29 1811.46C1016.13 1802.58 1010.28 1794.81 1001.78 1792.21Z" stroke="url(#paint83_linear_207_142)"/>
<path opacity="0.818182" d="M1000.9 1796.55L766.918 1720.53C758.471 1717.79 749.218 1720.79 743.998 1727.98L599.39 1927.01C594.17 1934.2 594.17 1943.93 599.39 1951.11L743.998 2150.15C749.218 2157.33 758.471 2160.34 766.918 2157.59L1000.9 2081.57C1009.34 2078.83 1015.06 2070.95 1015.06 2062.07L1015.06 1816.05C1015.06 1807.17 1009.35 1799.3 1000.9 1796.55Z" stroke="url(#paint84_linear_207_142)"/>
<path opacity="0.828283" d="M999.949 1800.93L767.887 1721.02C759.489 1718.13 750.185 1720.98 744.84 1728.07L597.135 1924.08C591.79 1931.17 591.62 1940.9 596.714 1948.18L737.489 2149.22C742.583 2156.5 751.782 2159.67 760.275 2157.07L994.985 2085.31C1003.48 2082.72 1009.33 2074.95 1009.49 2066.07L1013.77 1820.67C1013.93 1811.79 1008.35 1803.82 999.949 1800.93Z" stroke="url(#paint85_linear_207_142)"/>
<path opacity="0.838384" d="M998.936 1805.33L768.856 1721.59C760.511 1718.55 751.158 1721.23 745.691 1728.23L594.948 1921.17C589.48 1928.17 589.141 1937.89 594.107 1945.26L731.023 2148.24C735.99 2155.61 745.132 2158.93 753.669 2156.49L989.031 2089C997.568 2086.55 1003.56 2078.88 1003.87 2070.01L1012.41 1825.31C1012.72 1816.43 1007.28 1808.37 998.936 1805.33Z" stroke="url(#paint86_linear_207_142)"/>
<path opacity="0.848485" d="M997.858 1809.76L769.823 1722.22C761.532 1719.04 752.134 1721.56 746.545 1728.46L592.828 1918.29C587.239 1925.19 586.73 1934.9 591.567 1942.35L724.6 2147.21C729.437 2154.65 738.52 2158.14 747.098 2155.84L983.034 2092.62C991.612 2090.32 997.735 2082.76 998.2 2073.89L1010.98 1829.97C1011.45 1821.1 1006.15 1812.94 997.858 1809.76Z" stroke="url(#paint87_linear_207_142)"/>
<path opacity="0.858586" d="M996.716 1814.21L770.788 1722.93C762.554 1719.61 753.114 1721.96 747.405 1728.76L590.776 1915.43C585.068 1922.23 584.389 1931.93 589.095 1939.47L718.221 2146.11C722.927 2153.64 731.948 2157.29 740.565 2155.14L976.998 2096.19C985.615 2094.04 991.869 2086.59 992.489 2077.73L1009.49 1834.65C1010.11 1825.79 1004.95 1817.54 996.716 1814.21Z" stroke="url(#paint88_linear_207_142)"/>
<path opacity="0.868687" d="M995.508 1818.69L771.749 1723.71C763.573 1720.24 754.094 1722.43 748.267 1729.13L588.79 1912.59C582.964 1919.29 582.116 1928.98 586.69 1936.6L711.887 2144.96C716.461 2152.57 725.417 2156.37 734.07 2154.38L970.923 2099.69C979.576 2097.7 985.959 2090.35 986.733 2081.51L1007.92 1839.35C1008.69 1830.5 1003.68 1822.16 995.508 1818.69Z" stroke="url(#paint89_linear_207_142)"/>
<path opacity="0.878788" d="M994.235 1823.19L772.704 1724.56C764.591 1720.95 755.075 1722.97 749.132 1729.57L586.871 1909.78C580.928 1916.38 579.911 1926.06 584.352 1933.75L705.6 2143.76C710.04 2151.45 718.928 2155.41 727.615 2153.56L964.811 2103.14C973.498 2101.29 980.008 2094.06 980.937 2085.23L1006.28 1844.07C1007.21 1835.23 1002.35 1826.81 994.235 1823.19Z" stroke="url(#paint90_linear_207_142)"/>
<path opacity="0.888889" d="M992.896 1827.72L773.653 1725.48C765.604 1721.73 756.054 1723.59 749.997 1730.08L585.016 1907C578.959 1913.5 577.774 1923.15 582.079 1930.92L699.358 2142.5C703.664 2150.27 712.482 2154.38 721.2 2152.68L958.662 2106.53C967.38 2104.83 974.016 2097.72 975.098 2088.9L1004.58 1848.8C1005.66 1839.98 1000.94 1831.47 992.896 1827.72Z" stroke="url(#paint91_linear_207_142)"/>
<path opacity="0.89899" d="M991.49 1832.26L774.594 1726.48C766.612 1722.58 757.03 1724.27 750.861 1730.66L583.226 1904.25C577.057 1910.64 575.703 1920.27 579.872 1928.12L693.165 2141.19C697.334 2149.03 706.079 2153.3 714.825 2151.75L952.478 2109.85C961.225 2108.31 967.983 2101.31 969.219 2092.51L1002.8 1853.54C1004.04 1844.75 999.473 1836.16 991.49 1832.26Z" stroke="url(#paint92_linear_207_142)"/>
<path opacity="0.909091" d="M990.02 1836.83L775.526 1727.54C767.613 1723.51 758.004 1725.03 751.724 1731.31L581.501 1901.53C575.221 1907.81 573.699 1917.42 577.731 1925.33L687.021 2139.83C691.053 2147.74 699.722 2152.16 708.493 2150.77L946.261 2113.11C955.033 2111.72 961.913 2104.84 963.302 2096.07L1000.96 1858.3C1002.35 1849.53 997.933 1840.86 990.02 1836.83Z" stroke="url(#paint93_linear_207_142)"/>
<path opacity="0.919192" d="M988.482 1841.41L776.448 1728.67C768.606 1724.5 758.972 1725.85 752.583 1732.02L579.838 1898.84C573.45 1905.01 571.76 1914.59 575.653 1922.58L680.926 2138.42C684.819 2146.4 693.409 2150.97 702.204 2149.73L940.011 2116.31C948.806 2115.07 955.804 2108.31 957.346 2099.57L999.047 1863.07C1000.59 1854.33 996.324 1845.58 988.482 1841.41Z" stroke="url(#paint94_linear_207_142)"/>
<path opacity="0.929293" d="M986.879 1846.01L777.358 1729.87C769.59 1725.57 759.934 1726.75 753.438 1732.81L578.238 1896.19C571.743 1902.24 569.886 1911.79 573.64 1919.84L674.881 2136.95C678.634 2145 687.143 2149.72 695.958 2148.64L933.729 2119.44C942.544 2118.36 949.659 2111.73 951.354 2103.01L997.063 1867.85C998.758 1859.13 994.646 1850.32 986.879 1846.01Z" stroke="url(#paint95_linear_207_142)"/>
<path opacity="0.939394" d="M985.208 1850.63L778.255 1731.14C770.564 1726.7 760.888 1727.72 754.288 1733.66L576.7 1893.56C570.1 1899.51 568.077 1909.02 571.69 1917.14L668.887 2135.44C672.499 2143.56 680.925 2148.42 689.757 2147.49L927.417 2122.51C936.249 2121.59 943.479 2115.08 945.326 2106.39L995.01 1872.64C996.857 1863.96 992.899 1855.07 985.208 1850.63Z" stroke="url(#paint96_linear_207_142)"/>
<path opacity="0.949495" d="M983.471 1855.26L779.139 1732.48C771.526 1727.91 761.834 1728.76 755.131 1734.58L575.223 1890.98C568.52 1896.8 566.332 1906.28 569.802 1914.46L662.945 2133.89C666.415 2142.06 674.754 2147.07 683.602 2146.3L921.075 2125.52C929.923 2124.75 937.265 2118.37 939.263 2109.71L992.887 1877.44C994.885 1868.79 991.083 1859.83 983.471 1855.26Z" stroke="url(#paint97_linear_207_142)"/>
<path opacity="0.959596" d="M981.667 1859.9L780.007 1733.89C772.475 1729.18 762.77 1729.86 755.967 1735.57L573.807 1888.42C567.003 1894.13 564.65 1903.57 567.977 1911.81L657.055 2132.28C660.382 2140.52 668.633 2145.67 677.493 2145.05L914.706 2128.47C923.566 2127.85 931.019 2121.59 933.167 2112.98L990.695 1882.25C992.843 1873.63 989.198 1864.61 981.667 1859.9Z" stroke="url(#paint98_linear_207_142)"/>
<path opacity="0.969697" d="M979.795 1864.56L780.858 1735.37C773.41 1730.53 763.694 1731.04 756.792 1736.63L572.449 1885.91C565.547 1891.5 563.029 1900.89 566.212 1909.18L651.219 2130.63C654.401 2138.93 662.561 2144.23 671.43 2143.76L908.31 2131.35C917.179 2130.88 924.74 2124.76 927.039 2116.18L988.432 1887.06C990.73 1878.48 987.244 1869.4 979.795 1864.56Z" stroke="url(#paint99_linear_207_142)"/>
<path opacity="0.979798" d="M977.857 1869.22L781.692 1736.91C774.33 1731.94 764.606 1732.28 757.608 1737.75L571.151 1883.43C564.153 1888.9 561.471 1898.25 564.508 1906.59L645.436 2128.94C648.474 2137.29 656.54 2142.73 665.415 2142.42L901.888 2134.16C910.764 2133.85 918.431 2127.86 920.879 2119.32L986.099 1891.87C988.547 1883.33 985.22 1874.19 977.857 1869.22Z" stroke="url(#paint100_linear_207_142)"/>
<path opacity="0.989899" d="M975.852 1873.9L782.508 1738.52C775.233 1733.43 765.505 1733.6 758.412 1738.94L569.911 1880.99C562.818 1886.33 559.974 1895.64 562.865 1904.03L639.709 2127.2C642.6 2135.6 650.57 2141.18 659.45 2141.03L895.443 2136.91C904.323 2136.75 912.093 2130.9 914.69 2122.4L983.698 1896.69C986.295 1888.2 983.127 1879 975.852 1873.9Z" stroke="url(#paint101_linear_207_142)"/>
<path d="M973.78 1878.59L783.303 1740.2C776.119 1734.98 766.389 1734.98 759.204 1740.2L568.728 1878.59C561.543 1883.81 558.537 1893.06 561.281 1901.51L634.036 2125.43C636.781 2133.87 644.652 2139.59 653.533 2139.59H888.975C897.856 2139.59 905.727 2133.87 908.471 2125.43L981.227 1901.51C983.971 1893.06 980.965 1883.81 973.78 1878.59Z" stroke="url(#paint102_linear_207_142)"/>
</g>
</g>
<defs>
<filter id="filter0_f_207_142" x="-776" y="2201" width="1806" height="1806" filterUnits="userSpaceOnUse" color-interpolation-filters="sRGB">
<feFlood flood-opacity="0" result="BackgroundImageFix"/>
<feBlend mode="normal" in="SourceGraphic" in2="BackgroundImageFix" result="shape"/>
<feGaussianBlur stdDeviation="250" result="effect1_foregroundBlur_207_142"/>
</filter>
<filter id="filter1_f_207_142" x="1078" y="1517" width="1684" height="1684" filterUnits="userSpaceOnUse" color-interpolation-filters="sRGB">
<feFlood flood-opacity="0" result="BackgroundImageFix"/>
<feBlend mode="normal" in="SourceGraphic" in2="BackgroundImageFix" result="shape"/>
<feGaussianBlur stdDeviation="250" result="effect1_foregroundBlur_207_142"/>
</filter>
<filter id="filter2_f_207_142" x="-902" y="340" width="1806" height="1806" filterUnits="userSpaceOnUse" color-interpolation-filters="sRGB">
<feFlood flood-opacity="0" result="BackgroundImageFix"/>
<feBlend mode="normal" in="SourceGraphic" in2="BackgroundImageFix" result="shape"/>
<feGaussianBlur stdDeviation="250" result="effect1_foregroundBlur_207_142"/>
</filter>
<filter id="filter3_f_207_142" x="957" y="-357" width="1684" height="1684" filterUnits="userSpaceOnUse" color-interpolation-filters="sRGB">
<feFlood flood-opacity="0" result="BackgroundImageFix"/>
<feBlend mode="normal" in="SourceGraphic" in2="BackgroundImageFix" result="shape"/>
<feGaussianBlur stdDeviation="250" result="effect1_foregroundBlur_207_142"/>
</filter>
<filter id="filter4_f_207_142" x="549.776" y="1602.63" width="766.578" height="569.622" filterUnits="userSpaceOnUse" color-interpolation-filters="sRGB">
<feFlood flood-opacity="0" result="BackgroundImageFix"/>
<feBlend mode="normal" in="SourceGraphic" in2="BackgroundImageFix" result="shape"/>
<feGaussianBlur stdDeviation="5" result="effect1_foregroundBlur_207_142"/>
</filter>
<linearGradient id="paint0_linear_207_142" x1="127" y1="2701" x2="127" y2="3507" gradientUnits="userSpaceOnUse">
<stop stop-color="#885EFE"/>
<stop offset="1" stop-color="#585858"/>
</linearGradient>
<linearGradient id="paint1_linear_207_142" x1="1920" y1="2017" x2="1920" y2="2701" gradientUnits="userSpaceOnUse">
<stop stop-color="#885EFE"/>
<stop offset="1" stop-color="#585858"/>
</linearGradient>
<linearGradient id="paint2_linear_207_142" x1="1" y1="840" x2="1" y2="1646" gradientUnits="userSpaceOnUse">
<stop stop-color="#885EFE"/>
<stop offset="1" stop-color="#585858"/>
</linearGradient>
<linearGradient id="paint3_linear_207_142" x1="1799" y1="143" x2="1799" y2="827" gradientUnits="userSpaceOnUse">
<stop stop-color="#885EFE"/>
<stop offset="1" stop-color="#585858"/>
</linearGradient>
<linearGradient id="paint4_linear_207_142" x1="1088.07" y1="2017.3" x2="1042.71" y2="1694.55" gradientUnits="userSpaceOnUse">
<stop stop-color="#FF1CF7"/>
<stop offset="1" stop-color="#885EFE"/>
</linearGradient>
<linearGradient id="paint5_linear_207_142" x1="1082.26" y1="2018.39" x2="1042.62" y2="1695.49" gradientUnits="userSpaceOnUse">
<stop stop-color="#FF1CF7"/>
<stop offset="1" stop-color="#885EFE"/>
</linearGradient>
<linearGradient id="paint6_linear_207_142" x1="1076.47" y1="2019.42" x2="1042.52" y2="1696.47" gradientUnits="userSpaceOnUse">
<stop stop-color="#FF1CF7"/>
<stop offset="1" stop-color="#885EFE"/>
</linearGradient>
<linearGradient id="paint7_linear_207_142" x1="1070.67" y1="2020.41" x2="1042.42" y2="1697.51" gradientUnits="userSpaceOnUse">
<stop stop-color="#FF1CF7"/>
<stop offset="1" stop-color="#885EFE"/>
</linearGradient>
<linearGradient id="paint8_linear_207_142" x1="1064.89" y1="2021.35" x2="1042.32" y2="1698.59" gradientUnits="userSpaceOnUse">
<stop stop-color="#FF1CF7"/>
<stop offset="1" stop-color="#885EFE"/>
</linearGradient>
<linearGradient id="paint9_linear_207_142" x1="1059.11" y1="2022.23" x2="1042.2" y2="1699.73" gradientUnits="userSpaceOnUse">
<stop stop-color="#FF1CF7"/>
<stop offset="1" stop-color="#885EFE"/>
</linearGradient>
<linearGradient id="paint10_linear_207_142" x1="1053.33" y1="2023.07" x2="1042.08" y2="1700.91" gradientUnits="userSpaceOnUse">
<stop stop-color="#FF1CF7"/>
<stop offset="1" stop-color="#885EFE"/>
</linearGradient>
<linearGradient id="paint11_linear_207_142" x1="1047.57" y1="2023.86" x2="1041.95" y2="1702.15" gradientUnits="userSpaceOnUse">
<stop stop-color="#FF1CF7"/>
<stop offset="1" stop-color="#885EFE"/>
</linearGradient>
<linearGradient id="paint12_linear_207_142" x1="1041.81" y1="2024.6" x2="1041.81" y2="1703.44" gradientUnits="userSpaceOnUse">
<stop stop-color="#FF1CF7"/>
<stop offset="1" stop-color="#885EFE"/>
</linearGradient>
<linearGradient id="paint13_linear_207_142" x1="1036.07" y1="2025.3" x2="1041.66" y2="1704.78" gradientUnits="userSpaceOnUse">
<stop stop-color="#FF1CF7"/>
<stop offset="1" stop-color="#885EFE"/>
</linearGradient>
<linearGradient id="paint14_linear_207_142" x1="1030.33" y1="2025.94" x2="1041.5" y2="1706.17" gradientUnits="userSpaceOnUse">
<stop stop-color="#FF1CF7"/>
<stop offset="1" stop-color="#885EFE"/>
</linearGradient>
<linearGradient id="paint15_linear_207_142" x1="1024.61" y1="2026.54" x2="1041.32" y2="1707.6" gradientUnits="userSpaceOnUse">
<stop stop-color="#FF1CF7"/>
<stop offset="1" stop-color="#885EFE"/>
</linearGradient>
<linearGradient id="paint16_linear_207_142" x1="1018.9" y1="2027.09" x2="1041.14" y2="1709.09" gradientUnits="userSpaceOnUse">
<stop stop-color="#FF1CF7"/>
<stop offset="1" stop-color="#885EFE"/>
</linearGradient>
<linearGradient id="paint17_linear_207_142" x1="1013.2" y1="2027.6" x2="1040.93" y2="1710.62" gradientUnits="userSpaceOnUse">
<stop stop-color="#FF1CF7"/>
<stop offset="1" stop-color="#885EFE"/>
</linearGradient>
<linearGradient id="paint18_linear_207_142" x1="1007.52" y1="2028.06" x2="1040.72" y2="1712.2" gradientUnits="userSpaceOnUse">
<stop stop-color="#FF1CF7"/>
<stop offset="1" stop-color="#885EFE"/>
</linearGradient>
<linearGradient id="paint19_linear_207_142" x1="1001.85" y1="2028.47" x2="1040.48" y2="1713.83" gradientUnits="userSpaceOnUse">
<stop stop-color="#FF1CF7"/>
<stop offset="1" stop-color="#885EFE"/>
</linearGradient>
<linearGradient id="paint20_linear_207_142" x1="996.198" y1="2028.84" x2="1040.23" y2="1715.51" gradientUnits="userSpaceOnUse">
<stop stop-color="#FF1CF7"/>
<stop offset="1" stop-color="#885EFE"/>
</linearGradient>
<linearGradient id="paint21_linear_207_142" x1="990.562" y1="2029.16" x2="1039.97" y2="1717.24" gradientUnits="userSpaceOnUse">
<stop stop-color="#FF1CF7"/>
<stop offset="1" stop-color="#885EFE"/>
</linearGradient>
<linearGradient id="paint22_linear_207_142" x1="984.944" y1="2029.43" x2="1039.68" y2="1719.01" gradientUnits="userSpaceOnUse">
<stop stop-color="#FF1CF7"/>
<stop offset="1" stop-color="#885EFE"/>
</linearGradient>
<linearGradient id="paint23_linear_207_142" x1="979.343" y1="2029.66" x2="1039.38" y2="1720.82" gradientUnits="userSpaceOnUse">
<stop stop-color="#FF1CF7"/>
<stop offset="1" stop-color="#885EFE"/>
</linearGradient>
<linearGradient id="paint24_linear_207_142" x1="973.762" y1="2029.85" x2="1039.05" y2="1722.69" gradientUnits="userSpaceOnUse">
<stop stop-color="#FF1CF7"/>
<stop offset="1" stop-color="#885EFE"/>
</linearGradient>
<linearGradient id="paint25_linear_207_142" x1="968.199" y1="2029.99" x2="1038.71" y2="1724.6" gradientUnits="userSpaceOnUse">
<stop stop-color="#FF1CF7"/>
<stop offset="1" stop-color="#885EFE"/>
</linearGradient>
<linearGradient id="paint26_linear_207_142" x1="962.657" y1="2030.09" x2="1038.34" y2="1726.55" gradientUnits="userSpaceOnUse">
<stop stop-color="#FF1CF7"/>
<stop offset="1" stop-color="#885EFE"/>
</linearGradient>
<linearGradient id="paint27_linear_207_142" x1="957.137" y1="2030.15" x2="1037.95" y2="1728.55" gradientUnits="userSpaceOnUse">
<stop stop-color="#FF1CF7"/>
<stop offset="1" stop-color="#885EFE"/>
</linearGradient>
<linearGradient id="paint28_linear_207_142" x1="951.638" y1="2030.16" x2="1037.54" y2="1730.59" gradientUnits="userSpaceOnUse">
<stop stop-color="#FF1CF7"/>
<stop offset="1" stop-color="#885EFE"/>
</linearGradient>
<linearGradient id="paint29_linear_207_142" x1="946.16" y1="2030.14" x2="1037.1" y2="1732.67" gradientUnits="userSpaceOnUse">
<stop stop-color="#FF1CF7"/>
<stop offset="1" stop-color="#885EFE"/>
</linearGradient>
<linearGradient id="paint30_linear_207_142" x1="940.707" y1="2030.07" x2="1036.64" y2="1734.8" gradientUnits="userSpaceOnUse">
<stop stop-color="#FF1CF7"/>
<stop offset="1" stop-color="#885EFE"/>
</linearGradient>
<linearGradient id="paint31_linear_207_142" x1="935.278" y1="2029.96" x2="1036.16" y2="1736.97" gradientUnits="userSpaceOnUse">
<stop stop-color="#FF1CF7"/>
<stop offset="1" stop-color="#885EFE"/>
</linearGradient>
<linearGradient id="paint32_linear_207_142" x1="929.873" y1="2029.81" x2="1035.65" y2="1739.19" gradientUnits="userSpaceOnUse">
<stop stop-color="#FF1CF7"/>
<stop offset="1" stop-color="#885EFE"/>
</linearGradient>
<linearGradient id="paint33_linear_207_142" x1="924.493" y1="2029.61" x2="1035.11" y2="1741.44" gradientUnits="userSpaceOnUse">
<stop stop-color="#FF1CF7"/>
<stop offset="1" stop-color="#885EFE"/>
</linearGradient>
<linearGradient id="paint34_linear_207_142" x1="919.139" y1="2029.38" x2="1034.55" y2="1743.74" gradientUnits="userSpaceOnUse">
<stop stop-color="#FF1CF7"/>
<stop offset="1" stop-color="#885EFE"/>
</linearGradient>
<linearGradient id="paint35_linear_207_142" x1="913.812" y1="2029.11" x2="1033.96" y2="1746.07" gradientUnits="userSpaceOnUse">
<stop stop-color="#FF1CF7"/>
<stop offset="1" stop-color="#885EFE"/>
</linearGradient>
<linearGradient id="paint36_linear_207_142" x1="908.512" y1="2028.8" x2="1033.33" y2="1748.45" gradientUnits="userSpaceOnUse">
<stop stop-color="#FF1CF7"/>
<stop offset="1" stop-color="#885EFE"/>
</linearGradient>
<linearGradient id="paint37_linear_207_142" x1="903.239" y1="2028.46" x2="1032.68" y2="1750.86" gradientUnits="userSpaceOnUse">
<stop stop-color="#FF1CF7"/>
<stop offset="1" stop-color="#885EFE"/>
</linearGradient>
<linearGradient id="paint38_linear_207_142" x1="897.995" y1="2028.08" x2="1032.01" y2="1753.31" gradientUnits="userSpaceOnUse">
<stop stop-color="#FF1CF7"/>
<stop offset="1" stop-color="#885EFE"/>
</linearGradient>
<linearGradient id="paint39_linear_207_142" x1="892.78" y1="2027.66" x2="1031.29" y2="1755.81" gradientUnits="userSpaceOnUse">
<stop stop-color="#FF1CF7"/>
<stop offset="1" stop-color="#885EFE"/>
</linearGradient>
<linearGradient id="paint40_linear_207_142" x1="887.595" y1="2027.2" x2="1030.55" y2="1758.33" gradientUnits="userSpaceOnUse">
<stop stop-color="#FF1CF7"/>
<stop offset="1" stop-color="#885EFE"/>
</linearGradient>
<linearGradient id="paint41_linear_207_142" x1="882.441" y1="2026.71" x2="1029.78" y2="1760.9" gradientUnits="userSpaceOnUse">
<stop stop-color="#FF1CF7"/>
<stop offset="1" stop-color="#885EFE"/>
</linearGradient>
<linearGradient id="paint42_linear_207_142" x1="877.316" y1="2026.18" x2="1028.98" y2="1763.5" gradientUnits="userSpaceOnUse">
<stop stop-color="#FF1CF7"/>
<stop offset="1" stop-color="#885EFE"/>
</linearGradient>
<linearGradient id="paint43_linear_207_142" x1="872.223" y1="2025.62" x2="1028.14" y2="1766.13" gradientUnits="userSpaceOnUse">
<stop stop-color="#FF1CF7"/>
<stop offset="1" stop-color="#885EFE"/>
</linearGradient>
<linearGradient id="paint44_linear_207_142" x1="867.162" y1="2025.03" x2="1027.27" y2="1768.8" gradientUnits="userSpaceOnUse">
<stop stop-color="#FF1CF7"/>
<stop offset="1" stop-color="#885EFE"/>
</linearGradient>
<linearGradient id="paint45_linear_207_142" x1="862.134" y1="2024.4" x2="1026.36" y2="1771.51" gradientUnits="userSpaceOnUse">
<stop stop-color="#FF1CF7"/>
<stop offset="1" stop-color="#885EFE"/>
</linearGradient>
<linearGradient id="paint46_linear_207_142" x1="857.138" y1="2023.74" x2="1025.42" y2="1774.25" gradientUnits="userSpaceOnUse">
<stop stop-color="#FF1CF7"/>
<stop offset="1" stop-color="#885EFE"/>
</linearGradient>
<linearGradient id="paint47_linear_207_142" x1="852.176" y1="2023.05" x2="1024.45" y2="1777.02" gradientUnits="userSpaceOnUse">
<stop stop-color="#FF1CF7"/>
<stop offset="1" stop-color="#885EFE"/>
</linearGradient>
<linearGradient id="paint48_linear_207_142" x1="847.248" y1="2022.33" x2="1023.44" y2="1779.82" gradientUnits="userSpaceOnUse">
<stop stop-color="#FF1CF7"/>
<stop offset="1" stop-color="#885EFE"/>
</linearGradient>
<linearGradient id="paint49_linear_207_142" x1="842.355" y1="2021.57" x2="1022.39" y2="1782.66" gradientUnits="userSpaceOnUse">
<stop stop-color="#FF1CF7"/>
<stop offset="1" stop-color="#885EFE"/>
</linearGradient>
<linearGradient id="paint50_linear_207_142" x1="837.496" y1="2020.79" x2="1021.31" y2="1785.52" gradientUnits="userSpaceOnUse">
<stop stop-color="#FF1CF7"/>
<stop offset="1" stop-color="#885EFE"/>
</linearGradient>
<linearGradient id="paint51_linear_207_142" x1="832.673" y1="2019.98" x2="1020.19" y2="1788.41" gradientUnits="userSpaceOnUse">
<stop stop-color="#FF1CF7"/>
<stop offset="1" stop-color="#885EFE"/>
</linearGradient>
<linearGradient id="paint52_linear_207_142" x1="827.885" y1="2019.14" x2="1019.03" y2="1791.34" gradientUnits="userSpaceOnUse">
<stop stop-color="#FF1CF7"/>
<stop offset="1" stop-color="#885EFE"/>
</linearGradient>
<linearGradient id="paint53_linear_207_142" x1="823.134" y1="2018.27" x2="1017.84" y2="1794.29" gradientUnits="userSpaceOnUse">
<stop stop-color="#FF1CF7"/>
<stop offset="1" stop-color="#885EFE"/>
</linearGradient>
<linearGradient id="paint54_linear_207_142" x1="818.42" y1="2017.38" x2="1016.61" y2="1797.27" gradientUnits="userSpaceOnUse">
<stop stop-color="#FF1CF7"/>
<stop offset="1" stop-color="#885EFE"/>
</linearGradient>
<linearGradient id="paint55_linear_207_142" x1="813.742" y1="2016.46" x2="1015.33" y2="1800.28" gradientUnits="userSpaceOnUse">
<stop stop-color="#FF1CF7"/>
<stop offset="1" stop-color="#885EFE"/>
</linearGradient>
<linearGradient id="paint56_linear_207_142" x1="809.102" y1="2015.51" x2="1014.02" y2="1803.31" gradientUnits="userSpaceOnUse">
<stop stop-color="#FF1CF7"/>
<stop offset="1" stop-color="#885EFE"/>
</linearGradient>
<linearGradient id="paint57_linear_207_142" x1="804.5" y1="2014.54" x2="1012.67" y2="1806.37" gradientUnits="userSpaceOnUse">
<stop stop-color="#FF1CF7"/>
<stop offset="1" stop-color="#885EFE"/>
</linearGradient>
<linearGradient id="paint58_linear_207_142" x1="799.936" y1="2013.55" x2="1011.28" y2="1809.45" gradientUnits="userSpaceOnUse">
<stop stop-color="#FF1CF7"/>
<stop offset="1" stop-color="#885EFE"/>
</linearGradient>
<linearGradient id="paint59_linear_207_142" x1="795.411" y1="2012.53" x2="1009.85" y2="1812.56" gradientUnits="userSpaceOnUse">
<stop stop-color="#FF1CF7"/>
<stop offset="1" stop-color="#885EFE"/>
</linearGradient>
<linearGradient id="paint60_linear_207_142" x1="790.925" y1="2011.49" x2="1008.38" y2="1815.69" gradientUnits="userSpaceOnUse">
<stop stop-color="#FF1CF7"/>
<stop offset="1" stop-color="#885EFE"/>
</linearGradient>
<linearGradient id="paint61_linear_207_142" x1="786.478" y1="2010.42" x2="1006.87" y2="1818.84" gradientUnits="userSpaceOnUse">
<stop stop-color="#FF1CF7"/>
<stop offset="1" stop-color="#885EFE"/>
</linearGradient>
<linearGradient id="paint62_linear_207_142" x1="782.07" y1="2009.34" x2="1005.32" y2="1822.01" gradientUnits="userSpaceOnUse">
<stop stop-color="#FF1CF7"/>
<stop offset="1" stop-color="#885EFE"/>
</linearGradient>
<linearGradient id="paint63_linear_207_142" x1="777.702" y1="2008.24" x2="1003.72" y2="1825.21" gradientUnits="userSpaceOnUse">
<stop stop-color="#FF1CF7"/>
<stop offset="1" stop-color="#885EFE"/>
</linearGradient>
<linearGradient id="paint64_linear_207_142" x1="773.375" y1="2007.11" x2="1002.08" y2="1828.42" gradientUnits="userSpaceOnUse">
<stop stop-color="#FF1CF7"/>
<stop offset="1" stop-color="#885EFE"/>
</linearGradient>
<linearGradient id="paint65_linear_207_142" x1="769.087" y1="2005.97" x2="1000.41" y2="1831.66" gradientUnits="userSpaceOnUse">
<stop stop-color="#FF1CF7"/>
<stop offset="1" stop-color="#885EFE"/>
</linearGradient>
<linearGradient id="paint66_linear_207_142" x1="764.841" y1="2004.81" x2="998.685" y2="1834.91" gradientUnits="userSpaceOnUse">
<stop stop-color="#FF1CF7"/>
<stop offset="1" stop-color="#885EFE"/>
</linearGradient>
<linearGradient id="paint67_linear_207_142" x1="760.635" y1="2003.63" x2="996.921" y2="1838.18" gradientUnits="userSpaceOnUse">
<stop stop-color="#FF1CF7"/>
<stop offset="1" stop-color="#885EFE"/>
</linearGradient>
<linearGradient id="paint68_linear_207_142" x1="756.47" y1="2002.44" x2="995.115" y2="1841.47" gradientUnits="userSpaceOnUse">
<stop stop-color="#FF1CF7"/>
<stop offset="1" stop-color="#885EFE"/>
</linearGradient>
<linearGradient id="paint69_linear_207_142" x1="752.347" y1="2001.23" x2="993.266" y2="1844.77" gradientUnits="userSpaceOnUse">
<stop stop-color="#FF1CF7"/>
<stop offset="1" stop-color="#885EFE"/>
</linearGradient>
<linearGradient id="paint70_linear_207_142" x1="748.265" y1="2000" x2="991.373" y2="1848.09" gradientUnits="userSpaceOnUse">
<stop stop-color="#FF1CF7"/>
<stop offset="1" stop-color="#885EFE"/>
</linearGradient>
<linearGradient id="paint71_linear_207_142" x1="744.224" y1="1998.76" x2="989.437" y2="1851.43" gradientUnits="userSpaceOnUse">
<stop stop-color="#FF1CF7"/>
<stop offset="1" stop-color="#885EFE"/>
</linearGradient>
<linearGradient id="paint72_linear_207_142" x1="740.226" y1="1997.51" x2="987.458" y2="1854.77" gradientUnits="userSpaceOnUse">
<stop stop-color="#FF1CF7"/>
<stop offset="1" stop-color="#885EFE"/>
</linearGradient>
<linearGradient id="paint73_linear_207_142" x1="736.27" y1="1996.25" x2="985.435" y2="1858.13" gradientUnits="userSpaceOnUse">
<stop stop-color="#FF1CF7"/>
<stop offset="1" stop-color="#885EFE"/>
</linearGradient>
<linearGradient id="paint74_linear_207_142" x1="732.355" y1="1994.97" x2="983.368" y2="1861.5" gradientUnits="userSpaceOnUse">
<stop stop-color="#FF1CF7"/>
<stop offset="1" stop-color="#885EFE"/>
</linearGradient>
<linearGradient id="paint75_linear_207_142" x1="728.483" y1="1993.68" x2="981.257" y2="1864.89" gradientUnits="userSpaceOnUse">
<stop stop-color="#FF1CF7"/>
<stop offset="1" stop-color="#885EFE"/>
</linearGradient>
<linearGradient id="paint76_linear_207_142" x1="724.654" y1="1992.38" x2="979.102" y2="1868.28" gradientUnits="userSpaceOnUse">
<stop stop-color="#FF1CF7"/>
<stop offset="1" stop-color="#885EFE"/>
</linearGradient>
<linearGradient id="paint77_linear_207_142" x1="720.866" y1="1991.07" x2="976.903" y2="1871.68" gradientUnits="userSpaceOnUse">
<stop stop-color="#FF1CF7"/>
<stop offset="1" stop-color="#885EFE"/>
</linearGradient>
<linearGradient id="paint78_linear_207_142" x1="717.122" y1="1989.76" x2="974.659" y2="1875.09" gradientUnits="userSpaceOnUse">
<stop stop-color="#FF1CF7"/>
<stop offset="1" stop-color="#885EFE"/>
</linearGradient>
<linearGradient id="paint79_linear_207_142" x1="713.42" y1="1988.43" x2="972.372" y2="1878.51" gradientUnits="userSpaceOnUse">
<stop stop-color="#FF1CF7"/>
<stop offset="1" stop-color="#885EFE"/>
</linearGradient>
<linearGradient id="paint80_linear_207_142" x1="709.76" y1="1987.1" x2="970.04" y2="1881.94" gradientUnits="userSpaceOnUse">
<stop stop-color="#FF1CF7"/>
<stop offset="1" stop-color="#885EFE"/>
</linearGradient>
<linearGradient id="paint81_linear_207_142" x1="706.144" y1="1985.76" x2="967.663" y2="1885.37" gradientUnits="userSpaceOnUse">
<stop stop-color="#FF1CF7"/>
<stop offset="1" stop-color="#885EFE"/>
</linearGradient>
<linearGradient id="paint82_linear_207_142" x1="702.569" y1="1984.42" x2="965.243" y2="1888.81" gradientUnits="userSpaceOnUse">
<stop stop-color="#FF1CF7"/>
<stop offset="1" stop-color="#885EFE"/>
</linearGradient>
<linearGradient id="paint83_linear_207_142" x1="699.038" y1="1983.07" x2="962.778" y2="1892.26" gradientUnits="userSpaceOnUse">
<stop stop-color="#FF1CF7"/>
<stop offset="1" stop-color="#885EFE"/>
</linearGradient>
<linearGradient id="paint84_linear_207_142" x1="695.549" y1="1981.71" x2="960.268" y2="1895.7" gradientUnits="userSpaceOnUse">
<stop stop-color="#FF1CF7"/>
<stop offset="1" stop-color="#885EFE"/>
</linearGradient>
<linearGradient id="paint85_linear_207_142" x1="692.103" y1="1980.36" x2="957.714" y2="1899.15" gradientUnits="userSpaceOnUse">
<stop stop-color="#FF1CF7"/>
<stop offset="1" stop-color="#885EFE"/>
</linearGradient>
<linearGradient id="paint86_linear_207_142" x1="688.701" y1="1979" x2="955.116" y2="1902.61" gradientUnits="userSpaceOnUse">
<stop stop-color="#FF1CF7"/>
<stop offset="1" stop-color="#885EFE"/>
</linearGradient>
<linearGradient id="paint87_linear_207_142" x1="685.339" y1="1977.64" x2="952.473" y2="1906.06" gradientUnits="userSpaceOnUse">
<stop stop-color="#FF1CF7"/>
<stop offset="1" stop-color="#885EFE"/>
</linearGradient>
<linearGradient id="paint88_linear_207_142" x1="682.022" y1="1976.28" x2="949.787" y2="1909.51" gradientUnits="userSpaceOnUse">
<stop stop-color="#FF1CF7"/>
<stop offset="1" stop-color="#885EFE"/>
</linearGradient>
<linearGradient id="paint89_linear_207_142" x1="678.746" y1="1974.91" x2="947.056" y2="1912.97" gradientUnits="userSpaceOnUse">
<stop stop-color="#FF1CF7"/>
<stop offset="1" stop-color="#885EFE"/>
</linearGradient>
<linearGradient id="paint90_linear_207_142" x1="675.513" y1="1973.55" x2="944.281" y2="1916.42" gradientUnits="userSpaceOnUse">
<stop stop-color="#FF1CF7"/>
<stop offset="1" stop-color="#885EFE"/>
</linearGradient>
<linearGradient id="paint91_linear_207_142" x1="672.322" y1="1972.19" x2="941.462" y2="1919.88" gradientUnits="userSpaceOnUse">
<stop stop-color="#FF1CF7"/>
<stop offset="1" stop-color="#885EFE"/>
</linearGradient>
<linearGradient id="paint92_linear_207_142" x1="669.172" y1="1970.83" x2="938.6" y2="1923.33" gradientUnits="userSpaceOnUse">
<stop stop-color="#FF1CF7"/>
<stop offset="1" stop-color="#885EFE"/>
</linearGradient>
<linearGradient id="paint93_linear_207_142" x1="666.066" y1="1969.48" x2="935.694" y2="1926.78" gradientUnits="userSpaceOnUse">
<stop stop-color="#FF1CF7"/>
<stop offset="1" stop-color="#885EFE"/>
</linearGradient>
<linearGradient id="paint94_linear_207_142" x1="663.001" y1="1968.13" x2="932.744" y2="1930.22" gradientUnits="userSpaceOnUse">
<stop stop-color="#FF1CF7"/>
<stop offset="1" stop-color="#885EFE"/>
</linearGradient>
<linearGradient id="paint95_linear_207_142" x1="659.978" y1="1966.78" x2="929.751" y2="1933.66" gradientUnits="userSpaceOnUse">
<stop stop-color="#FF1CF7"/>
<stop offset="1" stop-color="#885EFE"/>
</linearGradient>
<linearGradient id="paint96_linear_207_142" x1="656.996" y1="1965.44" x2="926.715" y2="1937.09" gradientUnits="userSpaceOnUse">
<stop stop-color="#FF1CF7"/>
<stop offset="1" stop-color="#885EFE"/>
</linearGradient>
<linearGradient id="paint97_linear_207_142" x1="654.056" y1="1964.1" x2="923.636" y2="1940.52" gradientUnits="userSpaceOnUse">
<stop stop-color="#FF1CF7"/>
<stop offset="1" stop-color="#885EFE"/>
</linearGradient>
<linearGradient id="paint98_linear_207_142" x1="651.157" y1="1962.77" x2="920.514" y2="1943.93" gradientUnits="userSpaceOnUse">
<stop stop-color="#FF1CF7"/>
<stop offset="1" stop-color="#885EFE"/>
</linearGradient>
<linearGradient id="paint99_linear_207_142" x1="648.299" y1="1961.45" x2="917.35" y2="1947.35" gradientUnits="userSpaceOnUse">
<stop stop-color="#FF1CF7"/>
<stop offset="1" stop-color="#885EFE"/>
</linearGradient>
<linearGradient id="paint100_linear_207_142" x1="645.482" y1="1960.13" x2="914.143" y2="1950.75" gradientUnits="userSpaceOnUse">
<stop stop-color="#FF1CF7"/>
<stop offset="1" stop-color="#885EFE"/>
</linearGradient>
<linearGradient id="paint101_linear_207_142" x1="642.705" y1="1958.83" x2="910.895" y2="1954.14" gradientUnits="userSpaceOnUse">
<stop stop-color="#FF1CF7"/>
<stop offset="1" stop-color="#885EFE"/>
</linearGradient>
<linearGradient id="paint102_linear_207_142" x1="639.969" y1="1957.53" x2="907.605" y2="1957.53" gradientUnits="userSpaceOnUse">
<stop stop-color="#FF1CF7"/>
<stop offset="1" stop-color="#885EFE"/>
</linearGradient>
<clipPath id="clip0_207_142">
<rect width="1920" height="3974" fill="white"/>
</clipPath>
</defs>
</svg>
