<svg width="1920" height="4262" viewBox="0 0 1920 4262" fill="none" xmlns="http://www.w3.org/2000/svg">
<g clip-path="url(#clip0_207_142)">
<rect width="1920" height="4262" fill="white"/>
<rect width="1920" height="4262" fill="#0C0C0C"/>
<g filter="url(#filter0_f_207_142)">
<circle cx="127" cy="3392" r="403" fill="url(#paint0_linear_207_142)"/>
</g>
<g filter="url(#filter1_f_207_142)">
<circle cx="1920" cy="2647" r="342" fill="url(#paint1_linear_207_142)"/>
</g>
<g filter="url(#filter2_f_207_142)">
<circle cx="1" cy="1531" r="403" fill="url(#paint2_linear_207_142)"/>
</g>
<g filter="url(#filter3_f_207_142)">
<circle cx="1799" cy="773" r="342" fill="url(#paint3_linear_207_142)"/>
</g>
<g filter="url(#filter4_f_207_142)">
<path opacity="0.010101" d="M937.877 1913.39L800.301 2172.13C796.131 2179.97 797.485 2189.61 803.655 2196L1007.22 2406.79C1013.39 2413.18 1022.97 2414.87 1030.95 2410.98L1294.34 2282.52C1302.32 2278.62 1306.89 2270.03 1305.65 2261.24L1264.87 1971.05C1263.63 1962.25 1256.88 1955.25 1248.13 1953.71L959.537 1902.82C950.791 1901.28 942.046 1905.55 937.877 1913.39Z" stroke="url(#paint4_linear_207_142)"/>
<path opacity="0.020202" d="M939.186 1912.65L797.4 2168.44C793.094 2176.21 794.28 2185.87 800.337 2192.36L999.792 2406.25C1005.85 2412.75 1015.4 2414.6 1023.45 2410.85L1288.5 2287.25C1296.55 2283.5 1301.27 2274.99 1300.19 2266.17L1264.55 1975.9C1263.46 1967.08 1256.83 1959.97 1248.11 1958.27L961.027 1902.47C952.309 1900.77 943.491 1904.89 939.186 1912.65Z" stroke="url(#paint5_linear_207_142)"/>
<path opacity="0.030303" d="M940.516 1912L794.582 2164.76C790.141 2172.45 791.158 2182.13 797.101 2188.73L992.399 2405.63C998.342 2412.23 1007.86 2414.25 1015.97 2410.64L1282.61 2291.93C1290.72 2288.32 1295.59 2279.89 1294.66 2271.06L1264.15 1980.79C1263.22 1971.96 1256.71 1964.72 1248.02 1962.88L962.532 1902.2C953.845 1900.35 944.957 1904.31 940.516 1912Z" stroke="url(#paint6_linear_207_142)"/>
<path opacity="0.040404" d="M941.867 1911.42L791.846 2161.1C787.272 2168.71 788.12 2178.4 793.946 2185.11L985.044 2404.94C990.871 2411.64 1000.35 2413.83 1008.53 2410.36L1276.65 2296.55C1284.83 2293.08 1289.84 2284.74 1289.06 2275.89L1263.68 1985.72C1262.9 1976.87 1256.52 1969.53 1247.87 1967.53L964.05 1902.01C955.397 1900.01 946.441 1903.81 941.867 1911.42Z" stroke="url(#paint7_linear_207_142)"/>
<path opacity="0.050505" d="M943.237 1910.93L789.193 2157.45C784.486 2164.98 785.165 2174.69 790.874 2181.49L977.728 2404.17C983.436 2410.98 992.877 2413.33 1001.11 2410L1270.64 2301.11C1278.87 2297.78 1284.03 2289.53 1283.41 2280.67L1263.13 1990.68C1262.51 1981.83 1256.26 1974.37 1247.64 1972.22L965.581 1901.9C956.964 1899.75 947.943 1903.39 943.237 1910.93Z" stroke="url(#paint8_linear_207_142)"/>
<path opacity="0.0606061" d="M944.623 1910.51L786.62 2153.81C781.783 2161.26 782.293 2170.98 787.882 2177.88L970.451 2403.33C976.04 2410.23 985.438 2412.75 993.729 2409.57L1264.57 2305.61C1272.86 2302.42 1278.16 2294.26 1277.69 2285.39L1262.51 1995.69C1262.04 1986.82 1255.92 1979.26 1247.34 1976.96L967.122 1901.87C958.543 1899.57 949.46 1903.06 944.623 1910.51Z" stroke="url(#paint9_linear_207_142)"/>
<path opacity="0.0707071" d="M946.027 1910.17L784.13 2150.19C779.164 2157.56 779.503 2167.28 784.971 2174.28L963.216 2402.42C968.684 2409.42 978.036 2412.1 986.382 2409.06L1258.44 2310.04C1266.79 2307 1272.23 2298.94 1271.92 2290.06L1261.81 2000.72C1261.5 1991.85 1255.51 1984.18 1246.97 1981.73L968.672 1901.93C960.135 1899.48 950.993 1902.81 946.027 1910.17Z" stroke="url(#paint10_linear_207_142)"/>
<path opacity="0.0808081" d="M947.443 1909.92L781.72 2146.59C776.626 2153.87 776.795 2163.6 782.14 2170.69L956.023 2401.44C961.368 2408.53 970.672 2411.38 979.069 2408.48L1252.26 2314.42C1260.66 2311.53 1266.24 2303.56 1266.08 2294.68L1261.04 2005.79C1260.88 1996.91 1255.03 1989.14 1246.53 1986.54L970.229 1902.07C961.736 1899.47 952.537 1902.64 947.443 1909.92Z" stroke="url(#paint11_linear_207_142)"/>
<path opacity="0.0909091" d="M948.874 1909.74L779.39 2143.01C774.17 2150.2 774.17 2159.93 779.39 2167.11L948.874 2400.39C954.094 2407.57 963.347 2410.58 971.793 2407.83L1246.02 2318.73C1254.47 2315.99 1260.19 2308.11 1260.19 2299.23V2010.89C1260.19 2002.01 1254.47 1994.14 1246.02 1991.39L971.793 1902.29C963.347 1899.55 954.094 1902.55 948.874 1909.74Z" stroke="url(#paint12_linear_207_142)"/>
<path opacity="0.10101" d="M950.315 1909.64L777.14 2139.45C771.795 2146.54 771.626 2156.27 776.72 2163.55L941.769 2399.26C946.863 2406.54 956.062 2409.7 964.555 2407.11L1239.74 2322.98C1248.23 2320.38 1254.08 2312.61 1254.24 2303.73L1259.26 2016.02C1259.42 2007.14 1253.84 1999.17 1245.44 1996.28L973.361 1902.6C964.964 1899.7 955.66 1902.55 950.315 1909.64Z" stroke="url(#paint13_linear_207_142)"/>
<path opacity="0.111111" d="M951.767 1909.63L774.97 2135.92C769.502 2142.91 769.163 2152.64 774.129 2160L934.71 2398.07C939.677 2405.44 948.819 2408.76 957.356 2406.31L1233.4 2327.16C1241.94 2324.71 1247.93 2317.05 1248.24 2308.17L1258.26 2021.18C1258.57 2012.3 1253.13 2004.24 1244.78 2001.2L974.933 1902.98C966.587 1899.95 957.235 1902.63 951.767 1909.63Z" stroke="url(#paint14_linear_207_142)"/>
<path opacity="0.121212" d="M953.228 1909.69L772.878 2132.4C767.288 2139.3 766.779 2149.02 771.616 2156.47L927.698 2396.81C932.535 2404.26 941.618 2407.75 950.197 2405.45L1227.01 2331.28C1235.59 2328.98 1241.71 2321.42 1242.18 2312.55L1257.18 2026.36C1257.64 2017.49 1252.34 2009.33 1244.05 2006.15L976.506 1903.45C968.214 1900.27 958.817 1902.79 953.228 1909.69Z" stroke="url(#paint15_linear_207_142)"/>
<path opacity="0.131313" d="M954.695 1909.83L770.864 2128.91C765.155 2135.72 764.477 2145.42 769.183 2152.96L920.735 2395.49C925.441 2403.02 934.462 2406.67 943.079 2404.52L1220.58 2335.33C1229.19 2333.18 1235.45 2325.73 1236.07 2316.87L1256.02 2031.57C1256.64 2022.71 1251.48 2014.46 1243.25 2011.14L978.079 1904C969.844 1900.68 960.404 1903.03 954.695 1909.83Z" stroke="url(#paint16_linear_207_142)"/>
<path opacity="0.141414" d="M956.169 1910.06L768.927 2125.45C763.101 2132.16 762.253 2141.85 766.827 2149.46L913.821 2394.1C918.395 2401.71 927.351 2405.51 936.004 2403.52L1214.09 2339.31C1222.75 2337.32 1229.13 2329.97 1229.9 2321.13L1254.78 2036.81C1255.55 2027.96 1250.54 2019.62 1242.37 2016.15L979.65 1904.64C971.475 1901.17 961.995 1903.35 956.169 1910.06Z" stroke="url(#paint17_linear_207_142)"/>
<path opacity="0.151515" d="M957.647 1910.36L767.068 2122.02C761.126 2128.62 760.109 2138.3 764.549 2145.99L906.957 2392.64C911.398 2400.34 920.286 2404.29 928.973 2402.45L1207.56 2343.23C1216.25 2341.38 1222.76 2334.15 1223.69 2325.32L1253.46 2042.07C1254.39 2033.23 1249.52 2024.81 1241.41 2021.19L981.22 1905.35C973.106 1901.74 963.59 1903.76 957.647 1910.36Z" stroke="url(#paint18_linear_207_142)"/>
<path opacity="0.161616" d="M959.128 1910.74L765.285 2118.62C759.228 2125.11 758.042 2134.77 762.348 2142.54L900.144 2391.13C904.45 2398.89 913.268 2403.01 921.985 2401.31L1200.99 2347.08C1209.71 2345.38 1216.34 2338.27 1217.43 2329.45L1252.07 2047.34C1253.15 2038.53 1248.43 2030.02 1240.38 2026.27L982.784 1906.15C974.735 1902.39 965.185 1904.25 959.128 1910.74Z" stroke="url(#paint19_linear_207_142)"/>
<path opacity="0.171717" d="M960.61 1911.21L763.577 2115.24C757.407 2121.63 756.053 2131.27 760.223 2139.11L893.384 2389.55C897.553 2397.39 906.298 2401.65 915.044 2400.11L1194.37 2350.86C1203.12 2349.31 1209.88 2342.32 1211.12 2333.52L1250.59 2052.64C1251.83 2043.85 1247.26 2035.26 1239.28 2031.36L984.343 1907.02C976.36 1903.13 966.779 1904.82 960.61 1911.21Z" stroke="url(#paint20_linear_207_142)"/>
<path opacity="0.181818" d="M962.092 1911.75L761.944 2111.9C755.664 2118.18 754.142 2127.79 758.174 2135.7L886.677 2387.9C890.709 2395.82 899.378 2400.23 908.15 2398.85L1187.72 2354.57C1196.49 2353.18 1203.37 2346.3 1204.76 2337.53L1249.04 2057.96C1250.43 2049.19 1246.01 2040.52 1238.1 2036.49L985.895 1907.98C977.981 1903.95 968.372 1905.47 962.092 1911.75Z" stroke="url(#paint21_linear_207_142)"/>
<path opacity="0.191919" d="M963.573 1912.38L760.385 2108.59C753.996 2114.76 752.307 2124.34 756.2 2132.33L880.024 2386.2C883.917 2394.19 892.508 2398.75 901.303 2397.52L1181.02 2358.21C1189.81 2356.97 1196.81 2350.21 1198.35 2341.46L1247.4 2063.29C1248.95 2054.55 1244.68 2045.8 1236.84 2041.63L987.437 1909.02C979.596 1904.85 969.961 1906.21 963.573 1912.38Z" stroke="url(#paint22_linear_207_142)"/>
<path opacity="0.20202" d="M965.051 1913.08L758.9 2105.32C752.404 2111.37 750.548 2120.92 754.301 2128.97L873.428 2384.44C877.181 2392.49 885.69 2397.21 894.505 2396.12L1174.28 2361.77C1183.1 2360.69 1190.21 2354.05 1191.91 2345.34L1245.69 2068.64C1247.39 2059.92 1243.27 2051.1 1235.51 2046.8L988.971 1910.14C981.203 1905.83 971.547 1907.02 965.051 1913.08Z" stroke="url(#paint23_linear_207_142)"/>
<path opacity="0.212121" d="M966.525 1913.86L757.487 2102.08C750.887 2108.02 748.864 2117.54 752.476 2125.65L866.887 2382.62C870.499 2390.74 878.925 2395.6 887.757 2394.67L1167.51 2365.27C1176.34 2364.34 1183.57 2357.83 1185.41 2349.14L1243.9 2074C1245.74 2065.31 1241.79 2056.43 1234.1 2051.99L990.493 1911.34C982.801 1906.9 973.125 1907.92 966.525 1913.86Z" stroke="url(#paint24_linear_207_142)"/>
<path opacity="0.222222" d="M967.993 1914.72L756.146 2098.88C749.443 2104.7 747.254 2114.18 750.724 2122.36L860.403 2380.75C863.873 2388.92 872.213 2393.93 881.06 2393.16L1160.69 2368.69C1169.54 2367.92 1176.88 2361.54 1178.88 2352.88L1242.03 2079.38C1244.02 2070.72 1240.22 2061.77 1232.61 2057.19L992.001 1912.62C984.388 1908.05 974.696 1908.89 967.993 1914.72Z" stroke="url(#paint25_linear_207_142)"/>
<path opacity="0.232323" d="M969.455 1915.66L754.876 2095.71C748.072 2101.42 745.719 2110.86 749.046 2119.1L853.978 2378.81C857.305 2387.05 865.556 2392.2 874.415 2391.58L1153.85 2372.04C1162.71 2371.42 1170.16 2365.17 1172.31 2356.55L1240.07 2084.76C1242.22 2076.14 1238.58 2067.12 1231.05 2062.42L993.496 1913.98C985.964 1909.27 976.258 1909.95 969.455 1915.66Z" stroke="url(#paint26_linear_207_142)"/>
<path opacity="0.242424" d="M970.908 1916.68L753.676 2092.59C746.774 2098.18 744.256 2107.58 747.439 2115.87L847.612 2376.83C850.795 2385.12 858.954 2390.42 867.823 2389.95L1146.97 2375.32C1155.83 2374.86 1163.4 2368.74 1165.69 2360.16L1238.04 2090.16C1240.34 2081.58 1236.85 2072.49 1229.4 2067.66L994.975 1915.42C987.526 1910.58 977.81 1911.09 970.908 1916.68Z" stroke="url(#paint27_linear_207_142)"/>
<path opacity="0.252525" d="M972.352 1917.77L752.546 2089.51C745.548 2094.97 742.866 2104.33 745.904 2112.67L841.306 2374.79C844.343 2383.13 852.409 2388.57 861.285 2388.26L1140.05 2378.53C1148.93 2378.22 1156.6 2372.23 1159.04 2363.69L1235.93 2095.56C1238.38 2087.02 1235.05 2077.88 1227.69 2072.91L996.437 1916.93C989.074 1911.97 979.351 1912.31 972.352 1917.77Z" stroke="url(#paint28_linear_207_142)"/>
<path opacity="0.262626" d="M973.784 1918.95L751.484 2086.46C744.391 2091.81 741.546 2101.11 744.438 2109.51L835.06 2372.69C837.951 2381.09 845.921 2386.67 854.801 2386.52L1133.11 2381.66C1141.99 2381.5 1149.76 2375.65 1152.35 2367.16L1233.74 2100.97C1236.33 2092.47 1233.17 2083.28 1225.89 2078.18L997.879 1918.53C990.604 1913.43 980.877 1913.6 973.784 1918.95Z" stroke="url(#paint29_linear_207_142)"/>
<path opacity="0.272727" d="M975.204 1920.2L750.49 2083.46C743.305 2088.68 740.298 2097.94 743.043 2106.38L828.876 2370.55C831.62 2379 839.491 2384.72 848.373 2384.72L1126.13 2384.72C1135.02 2384.72 1142.89 2379 1145.63 2370.55L1231.46 2106.38C1234.21 2097.94 1231.2 2088.68 1224.02 2083.46L999.303 1920.2C992.118 1914.98 982.389 1914.98 975.204 1920.2Z" stroke="url(#paint30_linear_207_142)"/>
<path opacity="0.282828" d="M976.61 1921.53L749.562 2080.51C742.287 2085.6 739.12 2094.8 741.717 2103.29L822.754 2368.36C825.351 2376.85 833.121 2382.71 842.001 2382.86L1119.13 2387.7C1128.01 2387.85 1135.98 2382.27 1138.87 2373.87L1229.11 2111.8C1232 2103.4 1229.16 2094.1 1222.07 2088.75L1000.71 1921.95C993.613 1916.6 983.885 1916.43 976.61 1921.53Z" stroke="url(#paint31_linear_207_142)"/>
<path opacity="0.292929" d="M978.002 1922.93L748.701 2077.6C741.338 2082.56 738.011 2091.71 740.459 2100.24L816.696 2366.12C819.144 2374.65 826.811 2380.64 835.687 2380.95L1112.1 2390.61C1120.98 2390.91 1129.05 2385.47 1132.08 2377.13L1226.68 2117.22C1229.72 2108.88 1227.04 2099.52 1220.04 2094.06L1002.09 1923.77C995.088 1918.31 985.365 1917.97 978.002 1922.93Z" stroke="url(#paint32_linear_207_142)"/>
<path opacity="0.30303" d="M979.376 1924.41L747.904 2074.73C740.456 2079.57 736.969 2088.65 739.268 2097.23L810.701 2363.83C813 2372.4 820.561 2378.53 829.43 2378.99L1105.05 2393.44C1113.92 2393.9 1122.08 2388.6 1125.26 2380.31L1224.17 2122.64C1227.35 2114.35 1224.84 2104.95 1217.93 2099.37L1003.44 1925.67C996.54 1920.08 986.824 1919.58 979.376 1924.41Z" stroke="url(#paint33_linear_207_142)"/>
<path opacity="0.313131" d="M980.733 1925.97L747.171 2071.92C739.639 2076.62 735.995 2085.64 738.143 2094.26L804.771 2361.49C806.92 2370.11 814.373 2376.36 823.232 2376.98L1097.97 2396.19C1106.83 2396.81 1115.08 2391.66 1118.41 2383.42L1221.58 2128.06C1224.91 2119.83 1222.55 2110.39 1215.75 2104.68L1004.77 1927.65C997.97 1921.94 988.264 1921.26 980.733 1925.97Z" stroke="url(#paint34_linear_207_142)"/>
<path opacity="0.323232" d="M982.071 1927.6L746.501 2069.15C738.889 2073.72 735.087 2082.68 737.085 2091.33L798.907 2359.11C800.904 2367.76 808.247 2374.14 817.095 2374.92L1090.87 2398.87C1099.72 2399.65 1108.06 2394.63 1111.53 2386.46L1218.91 2133.48C1222.38 2125.31 1220.19 2115.83 1213.49 2110L1006.08 1929.7C999.376 1923.87 989.683 1923.03 982.071 1927.6Z" stroke="url(#paint35_linear_207_142)"/>
<path opacity="0.333333" d="M983.388 1929.31L745.893 2066.43C738.202 2070.87 734.245 2079.75 736.091 2088.44L793.108 2356.68C794.954 2365.37 802.185 2371.88 811.017 2372.81L1083.75 2401.48C1092.58 2402.4 1101.01 2397.54 1104.62 2389.43L1216.16 2138.9C1219.77 2130.79 1217.75 2121.27 1211.15 2115.33L1007.36 1931.83C1000.76 1925.88 991.079 1924.87 983.388 1929.31Z" stroke="url(#paint36_linear_207_142)"/>
<path opacity="0.343434" d="M984.684 1931.09L745.346 2063.76C737.578 2068.06 733.467 2076.88 735.161 2085.6L787.376 2354.22C789.07 2362.93 796.186 2369.57 805.001 2370.65L1076.61 2404C1085.42 2405.08 1093.93 2400.37 1097.69 2392.32L1213.33 2144.31C1217.09 2136.26 1215.23 2126.71 1208.74 2120.65L1008.6 1934.03C1002.11 1927.97 992.451 1926.78 984.684 1931.09Z" stroke="url(#paint37_linear_207_142)"/>
<path opacity="0.353535" d="M985.957 1932.94L744.859 2061.14C737.018 2065.31 732.753 2074.05 734.295 2082.8L781.711 2351.71C783.253 2360.46 790.252 2367.21 799.047 2368.45L1069.45 2406.45C1078.24 2407.69 1086.83 2403.12 1090.73 2395.14L1210.43 2149.71C1214.32 2141.73 1212.63 2132.15 1206.24 2125.98L1009.82 1936.3C1003.43 1930.13 993.798 1928.77 985.957 1932.94Z" stroke="url(#paint38_linear_207_142)"/>
<path opacity="0.363636" d="M987.205 1934.87L744.43 2058.57C736.517 2062.6 732.1 2071.27 733.49 2080.04L776.114 2349.16C777.503 2357.93 784.383 2364.81 793.154 2366.2L1062.27 2408.83C1071.04 2410.22 1079.71 2405.8 1083.74 2397.89L1207.44 2155.11C1211.48 2147.2 1209.95 2137.59 1203.67 2131.31L1011.01 1938.64C1004.73 1932.36 995.118 1930.84 987.205 1934.87Z" stroke="url(#paint39_linear_207_142)"/>
<path opacity="0.373737" d="M988.428 1936.87L744.06 2056.06C736.078 2059.95 731.51 2068.54 732.746 2077.34L770.585 2346.58C771.821 2355.37 778.58 2362.37 787.326 2363.91L1055.08 2411.12C1063.83 2412.67 1072.57 2408.4 1076.74 2400.56L1204.38 2160.5C1208.55 2152.66 1207.2 2143.02 1201.03 2136.63L1012.16 1941.06C1005.99 1934.67 996.41 1932.98 988.428 1936.87Z" stroke="url(#paint40_linear_207_142)"/>
<path opacity="0.383838" d="M989.625 1938.94L743.747 2053.6C735.698 2057.35 730.981 2065.86 732.063 2074.68L765.126 2343.95C766.208 2352.77 772.844 2359.88 781.562 2361.58L1047.87 2413.34C1056.59 2415.04 1065.41 2410.92 1069.72 2403.16L1201.24 2165.88C1205.55 2158.11 1204.36 2148.45 1198.31 2141.96L1013.28 1943.54C1007.22 1937.05 997.674 1935.19 989.625 1938.94Z" stroke="url(#paint41_linear_207_142)"/>
<path opacity="0.393939" d="M990.793 1941.09L743.488 2051.2C735.375 2054.81 730.51 2063.23 731.439 2072.07L759.735 2341.29C760.664 2350.12 767.174 2357.35 775.861 2359.2L1040.65 2415.48C1049.34 2417.33 1058.23 2413.37 1062.67 2405.68L1198.02 2171.24C1202.46 2163.55 1201.45 2153.87 1195.51 2147.27L1014.37 1946.1C1008.42 1939.5 998.906 1937.48 990.793 1941.09Z" stroke="url(#paint42_linear_207_142)"/>
<path opacity="0.40404" d="M991.933 1943.3L743.285 2048.85C735.11 2052.32 730.099 2060.66 730.873 2069.5L754.415 2338.6C755.19 2347.44 761.572 2354.79 770.226 2356.78L1033.42 2417.55C1042.08 2419.55 1051.03 2415.74 1055.61 2408.13L1194.73 2176.59C1199.3 2168.98 1198.46 2159.29 1192.63 2152.59L1015.41 1948.72C1009.59 1942.02 1000.11 1939.83 991.933 1943.3Z" stroke="url(#paint43_linear_207_142)"/>
<path opacity="0.414141" d="M993.042 1945.59L743.135 2046.56C734.901 2049.88 729.745 2058.13 730.364 2066.99L749.166 2335.87C749.786 2344.73 756.039 2352.18 764.657 2354.33L1026.18 2419.54C1034.8 2421.69 1043.82 2418.04 1048.53 2410.51L1191.36 2181.93C1196.07 2174.4 1195.39 2164.69 1189.68 2157.89L1016.43 1951.42C1010.72 1944.61 1001.28 1942.26 993.042 1945.59Z" stroke="url(#paint44_linear_207_142)"/>
<path opacity="0.424242" d="M994.12 1947.94L743.037 2044.32C734.746 2047.5 729.447 2055.66 729.912 2064.53L743.988 2333.11C744.452 2341.98 750.575 2349.54 759.154 2351.84L1018.94 2421.45C1027.51 2423.75 1036.6 2420.26 1041.43 2412.81L1187.91 2187.25C1192.75 2179.81 1192.24 2170.09 1186.65 2163.19L1017.4 1954.18C1011.81 1947.28 1002.41 1944.76 994.12 1947.94Z" stroke="url(#paint45_linear_207_142)"/>
<path opacity="0.434343" d="M995.164 1950.36L742.991 2042.15C734.645 2045.18 729.205 2053.25 729.514 2062.13L738.88 2330.32C739.19 2339.2 745.18 2346.86 753.717 2349.31L1011.68 2423.28C1020.22 2425.73 1029.36 2422.4 1034.32 2415.04L1184.39 2192.56C1189.35 2185.2 1189.02 2175.47 1183.55 2168.47L1018.33 1957.01C1012.86 1950.01 1003.51 1947.33 995.164 1950.36Z" stroke="url(#paint46_linear_207_142)"/>
<path opacity="0.444444" d="M996.176 1952.85L742.994 2040.03C734.597 2042.92 729.017 2050.89 729.172 2059.77L733.845 2327.5C734 2336.38 739.855 2344.15 748.348 2346.75L1004.42 2425.04C1012.91 2427.63 1022.11 2424.46 1027.2 2417.19L1180.79 2197.85C1185.88 2190.57 1185.71 2180.84 1180.37 2173.75L1019.22 1959.9C1013.88 1952.81 1004.57 1949.96 996.176 1952.85Z" stroke="url(#paint47_linear_207_142)"/>
<path opacity="0.454545" d="M997.152 1955.41L743.047 2037.97C734.6 2040.72 728.882 2048.59 728.882 2057.47L728.882 2324.65C728.882 2333.53 734.6 2341.41 743.047 2344.15L997.152 2426.71C1005.6 2429.46 1014.85 2426.45 1020.07 2419.27L1177.12 2203.11C1182.34 2195.93 1182.34 2186.2 1177.12 2179.01L1020.07 1962.86C1014.85 1955.67 1005.6 1952.67 997.152 1955.41Z" stroke="url(#paint48_linear_207_142)"/>
<path opacity="0.464646" d="M998.092 1958.03L743.147 2035.98C734.654 2038.58 728.798 2046.35 728.643 2055.23L723.991 2321.78C723.836 2330.66 729.416 2338.63 737.813 2341.52L989.883 2428.32C998.281 2431.21 1007.58 2428.36 1012.93 2421.27L1173.37 2208.36C1178.71 2201.26 1178.88 2191.54 1173.79 2184.26L1020.88 1965.88C1015.78 1958.61 1006.59 1955.44 998.092 1958.03Z" stroke="url(#paint49_linear_207_142)"/>
<path opacity="0.474747" d="M998.995 1960.72L743.293 2034.05C734.756 2036.49 728.766 2044.16 728.456 2053.04L719.173 2318.88C718.863 2327.76 724.303 2335.82 732.649 2338.86L982.613 2429.84C990.959 2432.88 1000.31 2430.19 1005.78 2423.2L1169.55 2213.58C1175.02 2206.58 1175.36 2196.86 1170.39 2189.5L1021.64 1968.97C1016.67 1961.6 1007.53 1958.28 998.995 1960.72Z" stroke="url(#paint50_linear_207_142)"/>
<path opacity="0.484848" d="M999.86 1963.48L743.485 2032.17C734.907 2034.47 728.784 2042.03 728.319 2050.9L714.428 2315.96C713.963 2324.83 719.262 2332.99 727.553 2336.17L975.343 2431.29C983.634 2434.47 993.032 2431.95 998.621 2425.05L1165.65 2218.78C1171.24 2211.88 1171.75 2202.16 1166.92 2194.71L1022.36 1972.11C1017.52 1964.67 1008.44 1961.18 999.86 1963.48Z" stroke="url(#paint51_linear_207_142)"/>
<path opacity="0.494949" d="M1000.69 1966.3L743.721 2030.36C735.104 2032.51 728.85 2039.97 728.23 2048.82L709.757 2313.01C709.137 2321.87 714.293 2330.12 722.527 2333.45L968.074 2432.66C976.309 2435.98 985.749 2433.63 991.458 2426.83L1161.69 2223.95C1167.4 2217.15 1168.08 2207.44 1163.37 2199.91L1023.03 1975.32C1018.32 1967.79 1009.3 1964.15 1000.69 1966.3Z" stroke="url(#paint52_linear_207_142)"/>
<path opacity="0.50505" d="M1001.47 1969.18L744 2028.62C735.346 2030.62 728.963 2037.96 728.189 2046.81L705.159 2310.04C704.385 2318.89 709.396 2327.23 717.571 2330.7L960.808 2433.95C968.983 2437.42 978.463 2435.23 984.29 2428.53L1157.65 2229.1C1163.48 2222.4 1164.32 2212.71 1159.75 2205.09L1023.65 1978.59C1019.08 1970.98 1010.12 1967.18 1001.47 1969.18Z" stroke="url(#paint53_linear_207_142)"/>
<path opacity="0.515152" d="M1002.21 1972.12L744.32 2026.94C735.633 2028.78 729.123 2036.02 728.195 2044.85L700.635 2307.06C699.707 2315.89 704.571 2324.32 712.685 2327.93L953.546 2435.17C961.659 2438.78 971.176 2436.76 977.118 2430.16L1153.54 2234.22C1159.48 2227.62 1160.5 2217.95 1156.06 2210.26L1024.23 1981.92C1019.79 1974.23 1010.9 1970.27 1002.21 1972.12Z" stroke="url(#paint54_linear_207_142)"/>
<path opacity="0.525253" d="M1002.91 1975.13L744.681 2025.32C735.963 2027.02 729.327 2034.13 728.245 2042.95L696.185 2304.05C695.103 2312.87 699.82 2321.38 707.869 2325.13L946.289 2436.31C954.338 2440.06 963.888 2438.21 969.945 2431.71L1149.36 2239.31C1155.41 2232.82 1156.6 2223.16 1152.29 2215.39L1024.76 1985.31C1020.45 1977.54 1011.63 1973.43 1002.91 1975.13Z" stroke="url(#paint55_linear_207_142)"/>
<path opacity="0.535354" d="M1003.57 1978.19L745.081 2023.77C736.334 2025.31 729.576 2032.31 728.34 2041.11L691.81 2301.03C690.574 2309.83 695.141 2318.42 703.124 2322.31L939.039 2437.37C947.021 2441.27 956.603 2439.58 962.772 2433.19L1145.11 2244.38C1151.28 2237.99 1152.63 2228.35 1148.46 2220.51L1025.23 1988.76C1021.06 1980.91 1012.32 1976.65 1003.57 1978.19Z" stroke="url(#paint56_linear_207_142)"/>
<path opacity="0.545455" d="M1004.19 1981.32L745.519 2022.29C736.747 2023.68 729.867 2030.55 728.478 2039.33L687.509 2297.99C686.12 2306.77 690.537 2315.44 698.45 2319.47L931.797 2438.36C939.71 2442.4 949.32 2440.87 955.6 2434.59L1140.79 2249.41C1147.07 2243.13 1148.59 2233.52 1144.56 2225.61L1025.66 1992.26C1021.63 1984.34 1012.96 1979.93 1004.19 1981.32Z" stroke="url(#paint57_linear_207_142)"/>
<path opacity="0.555556" d="M1004.75 1984.5L745.993 2020.87C737.198 2022.1 730.2 2028.86 728.657 2037.61L683.282 2294.94C681.74 2303.69 686.005 2312.43 693.847 2316.6L924.565 2439.28C932.406 2443.45 942.041 2442.09 948.429 2435.92L1136.4 2254.41C1142.78 2248.24 1144.47 2238.66 1140.58 2230.67L1026.03 1995.81C1022.14 1987.83 1013.55 1983.26 1004.75 1984.5Z" stroke="url(#paint58_linear_207_142)"/>
<path opacity="0.565657" d="M1005.28 1987.74L746.503 2019.52C737.688 2020.6 730.572 2027.23 728.878 2035.95L679.131 2291.88C677.436 2300.6 681.548 2309.41 689.315 2313.72L917.343 2440.12C925.111 2444.42 934.767 2443.24 941.263 2437.18L1131.94 2259.37C1138.43 2253.32 1140.29 2243.76 1136.54 2235.72L1026.35 1999.43C1022.6 1991.38 1014.09 1986.66 1005.28 1987.74Z" stroke="url(#paint59_linear_207_142)"/>
<path opacity="0.575758" d="M1005.75 1991.04L747.047 2018.23C738.214 2019.16 730.984 2025.67 729.137 2034.36L675.054 2288.8C673.207 2297.49 677.164 2306.38 684.856 2310.82L910.134 2440.88C917.825 2445.32 927.501 2444.31 934.101 2438.36L1127.41 2264.3C1134.01 2258.36 1136.04 2248.84 1132.42 2240.73L1026.62 2003.09C1023.01 1994.98 1014.58 1990.11 1005.75 1991.04Z" stroke="url(#paint60_linear_207_142)"/>
<path opacity="0.585859" d="M1006.18 1994.4L747.623 2017.02C738.776 2017.79 731.433 2024.17 729.435 2032.83L671.051 2285.72C669.054 2294.37 672.855 2303.32 680.468 2307.9L902.938 2441.57C910.55 2446.15 920.243 2445.3 926.945 2439.47L1122.82 2269.2C1129.53 2263.37 1131.71 2253.89 1128.24 2245.72L1026.83 2006.81C1023.36 1998.63 1015.02 1993.62 1006.18 1994.4Z" stroke="url(#paint61_linear_207_142)"/>
<path opacity="0.59596" d="M1006.55 1997.8L748.231 2015.87C739.372 2016.49 731.919 2022.74 729.77 2031.36L667.124 2282.62C664.975 2291.24 668.62 2300.26 676.152 2304.96L895.756 2442.19C903.288 2446.9 912.993 2446.22 919.797 2440.51L1118.17 2274.06C1124.97 2268.35 1127.32 2258.91 1124 2250.67L1026.99 2010.58C1023.66 2002.34 1015.41 1997.19 1006.55 1997.8Z" stroke="url(#paint62_linear_207_142)"/>
<path opacity="0.606061" d="M1006.88 2001.27L748.87 2014.79C740.001 2015.25 732.44 2021.38 730.141 2029.96L663.272 2279.52C660.973 2288.1 664.46 2297.18 671.908 2302.02L888.591 2442.73C896.04 2447.57 905.756 2447.06 912.657 2441.47L1113.45 2278.88C1120.35 2273.29 1122.87 2263.89 1119.68 2255.6L1027.09 2014.39C1023.91 2006.1 1015.75 2000.8 1006.88 2001.27Z" stroke="url(#paint63_linear_207_142)"/>
<path opacity="0.616162" d="M1007.16 2004.78L749.537 2013.78C740.661 2014.09 732.995 2020.08 730.547 2028.62L659.493 2276.41C657.045 2284.95 660.373 2294.09 667.736 2299.05L881.443 2443.2C888.806 2448.17 898.529 2447.83 905.528 2442.36L1108.66 2283.66C1115.66 2278.19 1118.34 2268.84 1115.3 2260.49L1027.14 2018.26C1024.1 2009.91 1016.03 2004.47 1007.16 2004.78Z" stroke="url(#paint64_linear_207_142)"/>
<path opacity="0.626263" d="M1007.38 2008.35L750.232 2012.84C741.352 2013 733.582 2018.85 730.985 2027.34L655.79 2273.3C653.194 2281.79 656.361 2290.99 663.636 2296.08L874.314 2443.6C881.589 2448.69 891.317 2448.52 898.409 2443.18L1103.81 2288.4C1110.9 2283.05 1113.75 2273.75 1110.86 2265.35L1027.12 2022.17C1024.23 2013.78 1016.26 2008.2 1007.38 2008.35Z" stroke="url(#paint65_linear_207_142)"/>
<path opacity="0.636364" d="M1007.56 2011.97L750.953 2011.97C742.072 2011.97 734.201 2017.69 731.456 2026.14L652.162 2270.18C649.418 2278.63 652.424 2287.88 659.609 2293.1L867.204 2443.93C874.389 2449.15 884.119 2449.15 891.304 2443.93L1098.9 2293.1C1106.08 2287.88 1109.09 2278.63 1106.35 2270.18L1027.05 2026.14C1024.31 2017.69 1016.44 2011.97 1007.56 2011.97Z" stroke="url(#paint66_linear_207_142)"/>
<path opacity="0.646465" d="M1007.67 2015.64L751.699 2011.17C742.819 2011.02 734.849 2016.6 731.958 2024.99L648.608 2267.06C645.716 2275.46 648.561 2284.76 655.654 2290.11L860.116 2444.18C867.209 2449.52 876.936 2449.69 884.211 2444.6L1093.93 2297.76C1101.2 2292.66 1104.37 2283.46 1101.77 2274.97L1026.92 2030.14C1024.32 2021.65 1016.55 2015.79 1007.67 2015.64Z" stroke="url(#paint67_linear_207_142)"/>
<path opacity="0.656566" d="M1007.74 2019.36L752.468 2010.44C743.593 2010.13 735.527 2015.57 732.489 2023.92L645.128 2263.94C642.091 2272.29 644.772 2281.64 651.771 2287.11L853.05 2444.36C860.048 2449.83 869.771 2450.17 877.134 2445.2L1088.89 2302.37C1096.25 2297.41 1099.58 2288.26 1097.13 2279.73L1026.73 2034.19C1024.28 2025.66 1016.61 2019.67 1007.74 2019.36Z" stroke="url(#paint68_linear_207_142)"/>
<path opacity="0.666667" d="M1007.75 2023.12L753.261 2009.78C744.392 2009.32 736.232 2014.62 733.049 2022.91L641.723 2260.82C638.541 2269.11 641.059 2278.51 647.961 2284.1L846.007 2444.47C852.909 2450.06 862.625 2450.57 870.074 2445.74L1083.8 2306.94C1091.25 2302.1 1094.73 2293.02 1092.44 2284.44L1026.48 2038.29C1024.18 2029.71 1016.62 2023.59 1007.75 2023.12Z" stroke="url(#paint69_linear_207_142)"/>
<path opacity="0.676768" d="M1007.7 2026.93L754.073 2009.2C745.214 2008.58 736.963 2013.73 733.636 2021.97L638.392 2257.71C635.065 2265.94 637.419 2275.38 644.222 2281.09L838.99 2444.52C845.793 2450.23 855.499 2450.91 863.03 2446.2L1078.65 2311.47C1086.18 2306.76 1089.82 2297.74 1087.67 2289.12L1026.17 2042.42C1024.02 2033.81 1016.56 2027.55 1007.7 2026.93Z" stroke="url(#paint70_linear_207_142)"/>
<path opacity="0.686869" d="M1007.6 2030.79L754.906 2008.68C746.059 2007.91 737.719 2012.92 734.249 2021.09L635.135 2254.59C631.665 2262.77 633.854 2272.25 640.556 2278.07L831.998 2444.49C838.701 2450.32 848.393 2451.17 856.006 2446.59L1073.44 2315.95C1081.05 2311.37 1084.85 2302.42 1082.85 2293.76L1025.79 2046.6C1023.79 2037.95 1016.45 2031.56 1007.6 2030.79Z" stroke="url(#paint71_linear_207_142)"/>
<path opacity="0.69697" d="M1007.45 2034.69L755.757 2008.24C746.925 2007.31 738.499 2012.17 734.887 2020.29L631.952 2251.48C628.34 2259.6 630.362 2269.11 636.962 2275.05L825.034 2444.4C831.634 2450.34 841.31 2451.35 849.001 2446.91L1068.17 2320.38C1075.86 2315.94 1079.82 2307.05 1077.97 2298.36L1025.36 2050.82C1023.51 2042.13 1016.28 2035.62 1007.45 2034.69Z" stroke="url(#paint72_linear_207_142)"/>
<path opacity="0.707071" d="M1007.23 2038.64L756.625 2007.87C747.81 2006.78 739.301 2011.5 735.548 2019.55L628.842 2248.38C625.089 2256.43 626.945 2265.98 633.44 2272.04L818.098 2444.23C824.593 2450.29 834.25 2451.48 842.017 2447.17L1062.85 2324.76C1070.62 2320.46 1074.73 2311.64 1073.03 2302.92L1024.86 2055.07C1023.16 2046.35 1016.05 2039.72 1007.23 2038.64Z" stroke="url(#paint73_linear_207_142)"/>
<path opacity="0.717172" d="M1006.96 2042.62L757.509 2007.56C748.714 2006.33 740.124 2010.9 736.231 2018.88L625.805 2245.28C621.912 2253.27 623.601 2262.85 629.99 2269.02L811.191 2444C817.58 2450.17 827.214 2451.52 835.056 2447.36L1057.47 2329.1C1065.31 2324.93 1069.58 2316.18 1068.03 2307.44L1024.29 2059.36C1022.75 2050.62 1015.75 2043.86 1006.96 2042.62Z" stroke="url(#paint74_linear_207_142)"/>
<path opacity="0.727273" d="M1006.62 2046.65L758.407 2007.34C749.635 2005.95 740.966 2010.36 736.934 2018.28L622.841 2242.2C618.809 2250.11 620.331 2259.72 626.611 2266L804.315 2443.7C810.595 2449.98 820.205 2451.51 828.118 2447.47L1052.04 2333.38C1059.95 2329.35 1064.37 2320.68 1062.98 2311.91L1023.67 2063.69C1022.28 2054.92 1015.4 2048.04 1006.62 2046.65Z" stroke="url(#paint75_linear_207_142)"/>
<path opacity="0.737374" d="M1006.23 2050.72L759.319 2007.18C750.572 2005.64 741.828 2009.9 737.658 2017.74L619.951 2239.12C615.781 2246.96 617.135 2256.6 623.305 2262.98L797.472 2443.34C803.642 2449.73 813.223 2451.42 821.205 2447.53L1046.55 2337.62C1054.54 2333.72 1059.1 2325.13 1057.87 2316.34L1022.97 2068.05C1021.74 2059.26 1014.98 2052.26 1006.23 2050.72Z" stroke="url(#paint76_linear_207_142)"/>
<path opacity="0.747475" d="M1005.78 2054.82L760.241 2007.1C751.523 2005.4 742.706 2009.51 738.4 2017.28L617.131 2236.05C612.826 2243.82 614.011 2253.48 620.068 2259.97L790.661 2442.91C796.718 2449.41 806.268 2451.26 814.317 2447.51L1041.02 2341.8C1049.07 2338.05 1053.78 2329.54 1052.7 2320.72L1022.22 2072.45C1021.14 2063.63 1014.5 2056.52 1005.78 2054.82Z" stroke="url(#paint77_linear_207_142)"/>
<path opacity="0.757576" d="M1005.27 2058.97L761.174 2007.08C752.487 2005.24 743.599 2009.19 739.159 2016.89L614.384 2233C609.944 2240.69 610.961 2250.37 616.903 2256.97L783.884 2442.42C789.827 2449.02 799.343 2451.04 807.456 2447.43L1035.43 2345.93C1043.54 2342.32 1048.41 2333.89 1047.48 2325.06L1021.4 2076.88C1020.47 2068.04 1013.96 2060.81 1005.27 2058.97Z" stroke="url(#paint78_linear_207_142)"/>
<path opacity="0.767677" d="M1004.7 2063.15L762.117 2007.14C753.463 2005.15 744.507 2008.95 739.933 2016.56L611.709 2229.96C607.135 2237.57 607.983 2247.27 613.809 2253.97L777.142 2441.86C782.969 2448.56 792.449 2450.75 800.624 2447.28L1029.79 2350.01C1037.97 2346.54 1042.98 2338.2 1042.21 2329.35L1020.51 2081.34C1019.73 2072.49 1013.35 2065.15 1004.7 2063.15Z" stroke="url(#paint79_linear_207_142)"/>
<path opacity="0.777778" d="M1004.06 2067.36L763.067 2007.28C754.449 2005.13 745.429 2008.77 740.722 2016.3L609.105 2226.94C604.399 2234.47 605.077 2244.17 610.786 2250.98L770.437 2441.24C776.146 2448.05 785.586 2450.4 793.82 2447.07L1024.11 2354.03C1032.34 2350.7 1037.5 2342.45 1036.88 2333.59L1019.55 2085.82C1018.93 2076.97 1012.68 2069.51 1004.06 2067.36Z" stroke="url(#paint80_linear_207_142)"/>
<path opacity="0.787879" d="M1003.37 2071.61L764.023 2007.48C755.445 2005.18 746.362 2008.67 741.525 2016.12L606.571 2223.93C601.734 2231.38 602.244 2241.09 607.833 2248L763.769 2440.56C769.358 2447.46 778.756 2449.98 787.047 2446.8L1018.37 2358C1026.67 2354.82 1031.96 2346.66 1031.5 2337.79L1018.53 2090.34C1018.07 2081.47 1011.94 2073.91 1003.37 2071.61Z" stroke="url(#paint81_linear_207_142)"/>
<path opacity="0.79798" d="M1002.61 2075.9L764.985 2007.76C756.448 2005.31 747.305 2008.64 742.339 2016L604.108 2220.94C599.142 2228.3 599.481 2238.02 604.949 2245.02L757.139 2439.82C762.607 2446.81 771.959 2449.5 780.305 2446.46L1012.59 2361.91C1020.94 2358.87 1026.38 2350.81 1026.07 2341.93L1017.44 2094.89C1017.13 2086.01 1011.14 2078.34 1002.61 2075.9Z" stroke="url(#paint82_linear_207_142)"/>
<path opacity="0.808081" d="M1001.78 2080.21L765.95 2008.11C757.457 2005.51 748.258 2008.68 743.164 2015.95L601.715 2217.97C596.621 2225.24 596.79 2234.97 602.135 2242.06L750.549 2439.01C755.893 2446.1 765.197 2448.95 773.595 2446.06L1006.77 2365.77C1015.17 2362.88 1020.75 2354.91 1020.59 2346.03L1016.29 2099.46C1016.13 2090.58 1010.28 2082.81 1001.78 2080.21Z" stroke="url(#paint83_linear_207_142)"/>
<path opacity="0.818182" d="M1000.9 2084.55L766.918 2008.53C758.471 2005.79 749.218 2008.79 743.998 2015.98L599.39 2215.01C594.17 2222.2 594.17 2231.93 599.39 2239.11L743.998 2438.15C749.218 2445.33 758.471 2448.34 766.918 2445.59L1000.9 2369.57C1009.34 2366.83 1015.06 2358.95 1015.06 2350.07L1015.06 2104.05C1015.06 2095.17 1009.35 2087.3 1000.9 2084.55Z" stroke="url(#paint84_linear_207_142)"/>
<path opacity="0.828283" d="M999.949 2088.93L767.887 2009.02C759.489 2006.13 750.185 2008.98 744.84 2016.07L597.135 2212.08C591.79 2219.17 591.62 2228.9 596.714 2236.18L737.489 2437.22C742.583 2444.5 751.782 2447.67 760.275 2445.07L994.985 2373.31C1003.48 2370.72 1009.33 2362.95 1009.49 2354.07L1013.77 2108.67C1013.93 2099.79 1008.35 2091.82 999.949 2088.93Z" stroke="url(#paint85_linear_207_142)"/>
<path opacity="0.838384" d="M998.936 2093.33L768.856 2009.59C760.511 2006.55 751.158 2009.23 745.691 2016.23L594.948 2209.17C589.48 2216.17 589.141 2225.89 594.107 2233.26L731.023 2436.24C735.99 2443.61 745.132 2446.93 753.669 2444.49L989.031 2377C997.568 2374.55 1003.56 2366.88 1003.87 2358.01L1012.41 2113.31C1012.72 2104.43 1007.28 2096.37 998.936 2093.33Z" stroke="url(#paint86_linear_207_142)"/>
<path opacity="0.848485" d="M997.858 2097.76L769.823 2010.22C761.532 2007.04 752.134 2009.56 746.545 2016.46L592.828 2206.29C587.239 2213.19 586.73 2222.9 591.567 2230.35L724.6 2435.21C729.437 2442.65 738.52 2446.14 747.098 2443.84L983.034 2380.62C991.612 2378.32 997.735 2370.76 998.2 2361.89L1010.98 2117.97C1011.45 2109.1 1006.15 2100.94 997.858 2097.76Z" stroke="url(#paint87_linear_207_142)"/>
<path opacity="0.858586" d="M996.716 2102.21L770.788 2010.93C762.554 2007.61 753.114 2009.96 747.405 2016.76L590.776 2203.43C585.068 2210.23 584.389 2219.93 589.095 2227.47L718.221 2434.11C722.927 2441.64 731.948 2445.29 740.565 2443.14L976.998 2384.19C985.615 2382.04 991.869 2374.59 992.489 2365.73L1009.49 2122.65C1010.11 2113.79 1004.95 2105.54 996.716 2102.21Z" stroke="url(#paint88_linear_207_142)"/>
<path opacity="0.868687" d="M995.508 2106.69L771.749 2011.71C763.573 2008.24 754.094 2010.43 748.267 2017.13L588.79 2200.59C582.964 2207.29 582.116 2216.98 586.69 2224.6L711.887 2432.96C716.461 2440.57 725.417 2444.37 734.07 2442.38L970.923 2387.69C979.576 2385.7 985.959 2378.35 986.733 2369.51L1007.92 2127.35C1008.69 2118.5 1003.68 2110.16 995.508 2106.69Z" stroke="url(#paint89_linear_207_142)"/>
<path opacity="0.878788" d="M994.235 2111.19L772.704 2012.56C764.591 2008.95 755.075 2010.97 749.132 2017.57L586.871 2197.78C580.928 2204.38 579.911 2214.06 584.352 2221.75L705.6 2431.76C710.04 2439.45 718.928 2443.41 727.615 2441.56L964.811 2391.14C973.498 2389.29 980.008 2382.06 980.937 2373.23L1006.28 2132.07C1007.21 2123.23 1002.35 2114.81 994.235 2111.19Z" stroke="url(#paint90_linear_207_142)"/>
<path opacity="0.888889" d="M992.896 2115.72L773.653 2013.48C765.604 2009.73 756.054 2011.59 749.997 2018.08L585.016 2195C578.959 2201.5 577.774 2211.15 582.079 2218.92L699.358 2430.5C703.664 2438.27 712.482 2442.38 721.2 2440.68L958.662 2394.53C967.38 2392.83 974.016 2385.72 975.098 2376.9L1004.58 2136.8C1005.66 2127.98 1000.94 2119.47 992.896 2115.72Z" stroke="url(#paint91_linear_207_142)"/>
<path opacity="0.89899" d="M991.49 2120.26L774.594 2014.48C766.612 2010.58 757.03 2012.27 750.861 2018.66L583.226 2192.25C577.057 2198.64 575.703 2208.27 579.872 2216.12L693.165 2429.19C697.334 2437.03 706.079 2441.3 714.825 2439.75L952.478 2397.85C961.225 2396.31 967.983 2389.31 969.219 2380.51L1002.8 2141.54C1004.04 2132.75 999.473 2124.16 991.49 2120.26Z" stroke="url(#paint92_linear_207_142)"/>
<path opacity="0.909091" d="M990.02 2124.83L775.526 2015.54C767.613 2011.51 758.004 2013.03 751.724 2019.31L581.501 2189.53C575.221 2195.81 573.699 2205.42 577.731 2213.33L687.021 2427.83C691.053 2435.74 699.722 2440.16 708.493 2438.77L946.261 2401.11C955.033 2399.72 961.913 2392.84 963.302 2384.07L1000.96 2146.3C1002.35 2137.53 997.933 2128.86 990.02 2124.83Z" stroke="url(#paint93_linear_207_142)"/>
<path opacity="0.919192" d="M988.482 2129.41L776.448 2016.67C768.606 2012.5 758.972 2013.85 752.583 2020.02L579.838 2186.84C573.45 2193.01 571.76 2202.59 575.653 2210.58L680.926 2426.42C684.819 2434.4 693.409 2438.97 702.204 2437.73L940.011 2404.31C948.806 2403.07 955.804 2396.31 957.346 2387.57L999.047 2151.07C1000.59 2142.33 996.324 2133.58 988.482 2129.41Z" stroke="url(#paint94_linear_207_142)"/>
<path opacity="0.929293" d="M986.879 2134.01L777.358 2017.87C769.59 2013.57 759.934 2014.75 753.438 2020.81L578.238 2184.19C571.743 2190.24 569.886 2199.79 573.64 2207.84L674.881 2424.95C678.634 2433 687.143 2437.72 695.958 2436.64L933.729 2407.44C942.544 2406.36 949.659 2399.73 951.354 2391.01L997.063 2155.85C998.758 2147.13 994.646 2138.32 986.879 2134.01Z" stroke="url(#paint95_linear_207_142)"/>
<path opacity="0.939394" d="M985.208 2138.63L778.255 2019.14C770.564 2014.7 760.888 2015.72 754.288 2021.66L576.7 2181.56C570.1 2187.51 568.077 2197.02 571.69 2205.14L668.887 2423.44C672.499 2431.56 680.925 2436.42 689.757 2435.49L927.417 2410.51C936.249 2409.59 943.479 2403.08 945.326 2394.39L995.01 2160.64C996.857 2151.96 992.899 2143.07 985.208 2138.63Z" stroke="url(#paint96_linear_207_142)"/>
<path opacity="0.949495" d="M983.471 2143.26L779.139 2020.48C771.526 2015.91 761.834 2016.76 755.131 2022.58L575.223 2178.98C568.52 2184.8 566.332 2194.28 569.802 2202.46L662.945 2421.89C666.415 2430.06 674.754 2435.07 683.602 2434.3L921.075 2413.52C929.923 2412.75 937.265 2406.37 939.263 2397.71L992.887 2165.44C994.885 2156.79 991.083 2147.83 983.471 2143.26Z" stroke="url(#paint97_linear_207_142)"/>
<path opacity="0.959596" d="M981.667 2147.9L780.007 2021.89C772.475 2017.18 762.77 2017.86 755.967 2023.57L573.807 2176.42C567.003 2182.13 564.65 2191.57 567.977 2199.81L657.055 2420.28C660.382 2428.52 668.633 2433.67 677.493 2433.05L914.706 2416.47C923.566 2415.85 931.019 2409.59 933.167 2400.98L990.695 2170.25C992.843 2161.63 989.198 2152.61 981.667 2147.9Z" stroke="url(#paint98_linear_207_142)"/>
<path opacity="0.969697" d="M979.795 2152.56L780.858 2023.37C773.41 2018.53 763.694 2019.04 756.792 2024.63L572.449 2173.91C565.547 2179.5 563.029 2188.89 566.212 2197.18L651.219 2418.63C654.401 2426.93 662.561 2432.23 671.43 2431.76L908.31 2419.35C917.179 2418.88 924.74 2412.76 927.039 2404.18L988.432 2175.06C990.73 2166.48 987.244 2157.4 979.795 2152.56Z" stroke="url(#paint99_linear_207_142)"/>
<path opacity="0.979798" d="M977.857 2157.22L781.692 2024.91C774.33 2019.94 764.606 2020.28 757.608 2025.75L571.151 2171.43C564.153 2176.9 561.471 2186.25 564.508 2194.59L645.436 2416.94C648.474 2425.29 656.54 2430.73 665.415 2430.42L901.888 2422.16C910.764 2421.85 918.431 2415.86 920.879 2407.32L986.099 2179.87C988.547 2171.33 985.22 2162.19 977.857 2157.22Z" stroke="url(#paint100_linear_207_142)"/>
<path opacity="0.989899" d="M975.852 2161.9L782.508 2026.52C775.233 2021.43 765.505 2021.6 758.412 2026.94L569.911 2168.99C562.818 2174.33 559.974 2183.64 562.865 2192.03L639.709 2415.2C642.6 2423.6 650.57 2429.18 659.45 2429.03L895.443 2424.91C904.323 2424.75 912.093 2418.9 914.69 2410.4L983.698 2184.69C986.295 2176.2 983.127 2167 975.852 2161.9Z" stroke="url(#paint101_linear_207_142)"/>
<path d="M973.78 2166.59L783.303 2028.2C776.119 2022.98 766.389 2022.98 759.204 2028.2L568.728 2166.59C561.543 2171.81 558.537 2181.06 561.281 2189.51L634.036 2413.43C636.781 2421.87 644.652 2427.59 653.533 2427.59H888.975C897.856 2427.59 905.727 2421.87 908.471 2413.43L981.227 2189.51C983.971 2181.06 980.965 2171.81 973.78 2166.59Z" stroke="url(#paint102_linear_207_142)"/>
</g>
</g>
<defs>
<filter id="filter0_f_207_142" x="-776" y="2489" width="1806" height="1806" filterUnits="userSpaceOnUse" color-interpolation-filters="sRGB">
<feFlood flood-opacity="0" result="BackgroundImageFix"/>
<feBlend mode="normal" in="SourceGraphic" in2="BackgroundImageFix" result="shape"/>
<feGaussianBlur stdDeviation="250" result="effect1_foregroundBlur_207_142"/>
</filter>
<filter id="filter1_f_207_142" x="1078" y="1805" width="1684" height="1684" filterUnits="userSpaceOnUse" color-interpolation-filters="sRGB">
<feFlood flood-opacity="0" result="BackgroundImageFix"/>
<feBlend mode="normal" in="SourceGraphic" in2="BackgroundImageFix" result="shape"/>
<feGaussianBlur stdDeviation="250" result="effect1_foregroundBlur_207_142"/>
</filter>
<filter id="filter2_f_207_142" x="-902" y="628" width="1806" height="1806" filterUnits="userSpaceOnUse" color-interpolation-filters="sRGB">
<feFlood flood-opacity="0" result="BackgroundImageFix"/>
<feBlend mode="normal" in="SourceGraphic" in2="BackgroundImageFix" result="shape"/>
<feGaussianBlur stdDeviation="250" result="effect1_foregroundBlur_207_142"/>
</filter>
<filter id="filter3_f_207_142" x="957" y="-69" width="1684" height="1684" filterUnits="userSpaceOnUse" color-interpolation-filters="sRGB">
<feFlood flood-opacity="0" result="BackgroundImageFix"/>
<feBlend mode="normal" in="SourceGraphic" in2="BackgroundImageFix" result="shape"/>
<feGaussianBlur stdDeviation="250" result="effect1_foregroundBlur_207_142"/>
</filter>
<filter id="filter4_f_207_142" x="549.776" y="1890.63" width="766.578" height="569.622" filterUnits="userSpaceOnUse" color-interpolation-filters="sRGB">
<feFlood flood-opacity="0" result="BackgroundImageFix"/>
<feBlend mode="normal" in="SourceGraphic" in2="BackgroundImageFix" result="shape"/>
<feGaussianBlur stdDeviation="5" result="effect1_foregroundBlur_207_142"/>
</filter>
<linearGradient id="paint0_linear_207_142" x1="127" y1="2989" x2="127" y2="3795" gradientUnits="userSpaceOnUse">
<stop stop-color="#885EFE"/>
<stop offset="1" stop-color="#585858"/>
</linearGradient>
<linearGradient id="paint1_linear_207_142" x1="1920" y1="2305" x2="1920" y2="2989" gradientUnits="userSpaceOnUse">
<stop stop-color="#885EFE"/>
<stop offset="1" stop-color="#585858"/>
</linearGradient>
<linearGradient id="paint2_linear_207_142" x1="1" y1="1128" x2="1" y2="1934" gradientUnits="userSpaceOnUse">
<stop stop-color="#885EFE"/>
<stop offset="1" stop-color="#585858"/>
</linearGradient>
<linearGradient id="paint3_linear_207_142" x1="1799" y1="431" x2="1799" y2="1115" gradientUnits="userSpaceOnUse">
<stop stop-color="#885EFE"/>
<stop offset="1" stop-color="#585858"/>
</linearGradient>
<linearGradient id="paint4_linear_207_142" x1="1088.07" y1="2305.3" x2="1042.71" y2="1982.55" gradientUnits="userSpaceOnUse">
<stop stop-color="#FF1CF7"/>
<stop offset="1" stop-color="#885EFE"/>
</linearGradient>
<linearGradient id="paint5_linear_207_142" x1="1082.26" y1="2306.39" x2="1042.62" y2="1983.49" gradientUnits="userSpaceOnUse">
<stop stop-color="#FF1CF7"/>
<stop offset="1" stop-color="#885EFE"/>
</linearGradient>
<linearGradient id="paint6_linear_207_142" x1="1076.47" y1="2307.42" x2="1042.52" y2="1984.47" gradientUnits="userSpaceOnUse">
<stop stop-color="#FF1CF7"/>
<stop offset="1" stop-color="#885EFE"/>
</linearGradient>
<linearGradient id="paint7_linear_207_142" x1="1070.67" y1="2308.41" x2="1042.42" y2="1985.51" gradientUnits="userSpaceOnUse">
<stop stop-color="#FF1CF7"/>
<stop offset="1" stop-color="#885EFE"/>
</linearGradient>
<linearGradient id="paint8_linear_207_142" x1="1064.89" y1="2309.35" x2="1042.32" y2="1986.59" gradientUnits="userSpaceOnUse">
<stop stop-color="#FF1CF7"/>
<stop offset="1" stop-color="#885EFE"/>
</linearGradient>
<linearGradient id="paint9_linear_207_142" x1="1059.11" y1="2310.23" x2="1042.2" y2="1987.73" gradientUnits="userSpaceOnUse">
<stop stop-color="#FF1CF7"/>
<stop offset="1" stop-color="#885EFE"/>
</linearGradient>
<linearGradient id="paint10_linear_207_142" x1="1053.33" y1="2311.07" x2="1042.08" y2="1988.91" gradientUnits="userSpaceOnUse">
<stop stop-color="#FF1CF7"/>
<stop offset="1" stop-color="#885EFE"/>
</linearGradient>
<linearGradient id="paint11_linear_207_142" x1="1047.57" y1="2311.86" x2="1041.95" y2="1990.15" gradientUnits="userSpaceOnUse">
<stop stop-color="#FF1CF7"/>
<stop offset="1" stop-color="#885EFE"/>
</linearGradient>
<linearGradient id="paint12_linear_207_142" x1="1041.81" y1="2312.6" x2="1041.81" y2="1991.44" gradientUnits="userSpaceOnUse">
<stop stop-color="#FF1CF7"/>
<stop offset="1" stop-color="#885EFE"/>
</linearGradient>
<linearGradient id="paint13_linear_207_142" x1="1036.07" y1="2313.3" x2="1041.66" y2="1992.78" gradientUnits="userSpaceOnUse">
<stop stop-color="#FF1CF7"/>
<stop offset="1" stop-color="#885EFE"/>
</linearGradient>
<linearGradient id="paint14_linear_207_142" x1="1030.33" y1="2313.94" x2="1041.5" y2="1994.17" gradientUnits="userSpaceOnUse">
<stop stop-color="#FF1CF7"/>
<stop offset="1" stop-color="#885EFE"/>
</linearGradient>
<linearGradient id="paint15_linear_207_142" x1="1024.61" y1="2314.54" x2="1041.32" y2="1995.6" gradientUnits="userSpaceOnUse">
<stop stop-color="#FF1CF7"/>
<stop offset="1" stop-color="#885EFE"/>
</linearGradient>
<linearGradient id="paint16_linear_207_142" x1="1018.9" y1="2315.09" x2="1041.14" y2="1997.09" gradientUnits="userSpaceOnUse">
<stop stop-color="#FF1CF7"/>
<stop offset="1" stop-color="#885EFE"/>
</linearGradient>
<linearGradient id="paint17_linear_207_142" x1="1013.2" y1="2315.6" x2="1040.93" y2="1998.62" gradientUnits="userSpaceOnUse">
<stop stop-color="#FF1CF7"/>
<stop offset="1" stop-color="#885EFE"/>
</linearGradient>
<linearGradient id="paint18_linear_207_142" x1="1007.52" y1="2316.06" x2="1040.72" y2="2000.2" gradientUnits="userSpaceOnUse">
<stop stop-color="#FF1CF7"/>
<stop offset="1" stop-color="#885EFE"/>
</linearGradient>
<linearGradient id="paint19_linear_207_142" x1="1001.85" y1="2316.47" x2="1040.48" y2="2001.83" gradientUnits="userSpaceOnUse">
<stop stop-color="#FF1CF7"/>
<stop offset="1" stop-color="#885EFE"/>
</linearGradient>
<linearGradient id="paint20_linear_207_142" x1="996.198" y1="2316.84" x2="1040.23" y2="2003.51" gradientUnits="userSpaceOnUse">
<stop stop-color="#FF1CF7"/>
<stop offset="1" stop-color="#885EFE"/>
</linearGradient>
<linearGradient id="paint21_linear_207_142" x1="990.562" y1="2317.16" x2="1039.97" y2="2005.24" gradientUnits="userSpaceOnUse">
<stop stop-color="#FF1CF7"/>
<stop offset="1" stop-color="#885EFE"/>
</linearGradient>
<linearGradient id="paint22_linear_207_142" x1="984.944" y1="2317.43" x2="1039.68" y2="2007.01" gradientUnits="userSpaceOnUse">
<stop stop-color="#FF1CF7"/>
<stop offset="1" stop-color="#885EFE"/>
</linearGradient>
<linearGradient id="paint23_linear_207_142" x1="979.343" y1="2317.66" x2="1039.38" y2="2008.82" gradientUnits="userSpaceOnUse">
<stop stop-color="#FF1CF7"/>
<stop offset="1" stop-color="#885EFE"/>
</linearGradient>
<linearGradient id="paint24_linear_207_142" x1="973.762" y1="2317.85" x2="1039.05" y2="2010.69" gradientUnits="userSpaceOnUse">
<stop stop-color="#FF1CF7"/>
<stop offset="1" stop-color="#885EFE"/>
</linearGradient>
<linearGradient id="paint25_linear_207_142" x1="968.199" y1="2317.99" x2="1038.71" y2="2012.6" gradientUnits="userSpaceOnUse">
<stop stop-color="#FF1CF7"/>
<stop offset="1" stop-color="#885EFE"/>
</linearGradient>
<linearGradient id="paint26_linear_207_142" x1="962.657" y1="2318.09" x2="1038.34" y2="2014.55" gradientUnits="userSpaceOnUse">
<stop stop-color="#FF1CF7"/>
<stop offset="1" stop-color="#885EFE"/>
</linearGradient>
<linearGradient id="paint27_linear_207_142" x1="957.137" y1="2318.15" x2="1037.95" y2="2016.55" gradientUnits="userSpaceOnUse">
<stop stop-color="#FF1CF7"/>
<stop offset="1" stop-color="#885EFE"/>
</linearGradient>
<linearGradient id="paint28_linear_207_142" x1="951.638" y1="2318.16" x2="1037.54" y2="2018.59" gradientUnits="userSpaceOnUse">
<stop stop-color="#FF1CF7"/>
<stop offset="1" stop-color="#885EFE"/>
</linearGradient>
<linearGradient id="paint29_linear_207_142" x1="946.16" y1="2318.14" x2="1037.1" y2="2020.67" gradientUnits="userSpaceOnUse">
<stop stop-color="#FF1CF7"/>
<stop offset="1" stop-color="#885EFE"/>
</linearGradient>
<linearGradient id="paint30_linear_207_142" x1="940.707" y1="2318.07" x2="1036.64" y2="2022.8" gradientUnits="userSpaceOnUse">
<stop stop-color="#FF1CF7"/>
<stop offset="1" stop-color="#885EFE"/>
</linearGradient>
<linearGradient id="paint31_linear_207_142" x1="935.278" y1="2317.96" x2="1036.16" y2="2024.97" gradientUnits="userSpaceOnUse">
<stop stop-color="#FF1CF7"/>
<stop offset="1" stop-color="#885EFE"/>
</linearGradient>
<linearGradient id="paint32_linear_207_142" x1="929.873" y1="2317.81" x2="1035.65" y2="2027.19" gradientUnits="userSpaceOnUse">
<stop stop-color="#FF1CF7"/>
<stop offset="1" stop-color="#885EFE"/>
</linearGradient>
<linearGradient id="paint33_linear_207_142" x1="924.493" y1="2317.61" x2="1035.11" y2="2029.44" gradientUnits="userSpaceOnUse">
<stop stop-color="#FF1CF7"/>
<stop offset="1" stop-color="#885EFE"/>
</linearGradient>
<linearGradient id="paint34_linear_207_142" x1="919.139" y1="2317.38" x2="1034.55" y2="2031.74" gradientUnits="userSpaceOnUse">
<stop stop-color="#FF1CF7"/>
<stop offset="1" stop-color="#885EFE"/>
</linearGradient>
<linearGradient id="paint35_linear_207_142" x1="913.812" y1="2317.11" x2="1033.96" y2="2034.07" gradientUnits="userSpaceOnUse">
<stop stop-color="#FF1CF7"/>
<stop offset="1" stop-color="#885EFE"/>
</linearGradient>
<linearGradient id="paint36_linear_207_142" x1="908.512" y1="2316.8" x2="1033.33" y2="2036.45" gradientUnits="userSpaceOnUse">
<stop stop-color="#FF1CF7"/>
<stop offset="1" stop-color="#885EFE"/>
</linearGradient>
<linearGradient id="paint37_linear_207_142" x1="903.239" y1="2316.46" x2="1032.68" y2="2038.86" gradientUnits="userSpaceOnUse">
<stop stop-color="#FF1CF7"/>
<stop offset="1" stop-color="#885EFE"/>
</linearGradient>
<linearGradient id="paint38_linear_207_142" x1="897.995" y1="2316.08" x2="1032.01" y2="2041.31" gradientUnits="userSpaceOnUse">
<stop stop-color="#FF1CF7"/>
<stop offset="1" stop-color="#885EFE"/>
</linearGradient>
<linearGradient id="paint39_linear_207_142" x1="892.78" y1="2315.66" x2="1031.29" y2="2043.81" gradientUnits="userSpaceOnUse">
<stop stop-color="#FF1CF7"/>
<stop offset="1" stop-color="#885EFE"/>
</linearGradient>
<linearGradient id="paint40_linear_207_142" x1="887.595" y1="2315.2" x2="1030.55" y2="2046.33" gradientUnits="userSpaceOnUse">
<stop stop-color="#FF1CF7"/>
<stop offset="1" stop-color="#885EFE"/>
</linearGradient>
<linearGradient id="paint41_linear_207_142" x1="882.441" y1="2314.71" x2="1029.78" y2="2048.9" gradientUnits="userSpaceOnUse">
<stop stop-color="#FF1CF7"/>
<stop offset="1" stop-color="#885EFE"/>
</linearGradient>
<linearGradient id="paint42_linear_207_142" x1="877.316" y1="2314.18" x2="1028.98" y2="2051.5" gradientUnits="userSpaceOnUse">
<stop stop-color="#FF1CF7"/>
<stop offset="1" stop-color="#885EFE"/>
</linearGradient>
<linearGradient id="paint43_linear_207_142" x1="872.223" y1="2313.62" x2="1028.14" y2="2054.13" gradientUnits="userSpaceOnUse">
<stop stop-color="#FF1CF7"/>
<stop offset="1" stop-color="#885EFE"/>
</linearGradient>
<linearGradient id="paint44_linear_207_142" x1="867.162" y1="2313.03" x2="1027.27" y2="2056.8" gradientUnits="userSpaceOnUse">
<stop stop-color="#FF1CF7"/>
<stop offset="1" stop-color="#885EFE"/>
</linearGradient>
<linearGradient id="paint45_linear_207_142" x1="862.134" y1="2312.4" x2="1026.36" y2="2059.51" gradientUnits="userSpaceOnUse">
<stop stop-color="#FF1CF7"/>
<stop offset="1" stop-color="#885EFE"/>
</linearGradient>
<linearGradient id="paint46_linear_207_142" x1="857.138" y1="2311.74" x2="1025.42" y2="2062.25" gradientUnits="userSpaceOnUse">
<stop stop-color="#FF1CF7"/>
<stop offset="1" stop-color="#885EFE"/>
</linearGradient>
<linearGradient id="paint47_linear_207_142" x1="852.176" y1="2311.05" x2="1024.45" y2="2065.02" gradientUnits="userSpaceOnUse">
<stop stop-color="#FF1CF7"/>
<stop offset="1" stop-color="#885EFE"/>
</linearGradient>
<linearGradient id="paint48_linear_207_142" x1="847.248" y1="2310.33" x2="1023.44" y2="2067.82" gradientUnits="userSpaceOnUse">
<stop stop-color="#FF1CF7"/>
<stop offset="1" stop-color="#885EFE"/>
</linearGradient>
<linearGradient id="paint49_linear_207_142" x1="842.355" y1="2309.57" x2="1022.39" y2="2070.66" gradientUnits="userSpaceOnUse">
<stop stop-color="#FF1CF7"/>
<stop offset="1" stop-color="#885EFE"/>
</linearGradient>
<linearGradient id="paint50_linear_207_142" x1="837.496" y1="2308.79" x2="1021.31" y2="2073.52" gradientUnits="userSpaceOnUse">
<stop stop-color="#FF1CF7"/>
<stop offset="1" stop-color="#885EFE"/>
</linearGradient>
<linearGradient id="paint51_linear_207_142" x1="832.673" y1="2307.98" x2="1020.19" y2="2076.41" gradientUnits="userSpaceOnUse">
<stop stop-color="#FF1CF7"/>
<stop offset="1" stop-color="#885EFE"/>
</linearGradient>
<linearGradient id="paint52_linear_207_142" x1="827.885" y1="2307.14" x2="1019.03" y2="2079.34" gradientUnits="userSpaceOnUse">
<stop stop-color="#FF1CF7"/>
<stop offset="1" stop-color="#885EFE"/>
</linearGradient>
<linearGradient id="paint53_linear_207_142" x1="823.134" y1="2306.27" x2="1017.84" y2="2082.29" gradientUnits="userSpaceOnUse">
<stop stop-color="#FF1CF7"/>
<stop offset="1" stop-color="#885EFE"/>
</linearGradient>
<linearGradient id="paint54_linear_207_142" x1="818.42" y1="2305.38" x2="1016.61" y2="2085.27" gradientUnits="userSpaceOnUse">
<stop stop-color="#FF1CF7"/>
<stop offset="1" stop-color="#885EFE"/>
</linearGradient>
<linearGradient id="paint55_linear_207_142" x1="813.742" y1="2304.46" x2="1015.33" y2="2088.28" gradientUnits="userSpaceOnUse">
<stop stop-color="#FF1CF7"/>
<stop offset="1" stop-color="#885EFE"/>
</linearGradient>
<linearGradient id="paint56_linear_207_142" x1="809.102" y1="2303.51" x2="1014.02" y2="2091.31" gradientUnits="userSpaceOnUse">
<stop stop-color="#FF1CF7"/>
<stop offset="1" stop-color="#885EFE"/>
</linearGradient>
<linearGradient id="paint57_linear_207_142" x1="804.5" y1="2302.54" x2="1012.67" y2="2094.37" gradientUnits="userSpaceOnUse">
<stop stop-color="#FF1CF7"/>
<stop offset="1" stop-color="#885EFE"/>
</linearGradient>
<linearGradient id="paint58_linear_207_142" x1="799.936" y1="2301.55" x2="1011.28" y2="2097.45" gradientUnits="userSpaceOnUse">
<stop stop-color="#FF1CF7"/>
<stop offset="1" stop-color="#885EFE"/>
</linearGradient>
<linearGradient id="paint59_linear_207_142" x1="795.411" y1="2300.53" x2="1009.85" y2="2100.56" gradientUnits="userSpaceOnUse">
<stop stop-color="#FF1CF7"/>
<stop offset="1" stop-color="#885EFE"/>
</linearGradient>
<linearGradient id="paint60_linear_207_142" x1="790.925" y1="2299.49" x2="1008.38" y2="2103.69" gradientUnits="userSpaceOnUse">
<stop stop-color="#FF1CF7"/>
<stop offset="1" stop-color="#885EFE"/>
</linearGradient>
<linearGradient id="paint61_linear_207_142" x1="786.478" y1="2298.42" x2="1006.87" y2="2106.84" gradientUnits="userSpaceOnUse">
<stop stop-color="#FF1CF7"/>
<stop offset="1" stop-color="#885EFE"/>
</linearGradient>
<linearGradient id="paint62_linear_207_142" x1="782.07" y1="2297.34" x2="1005.32" y2="2110.01" gradientUnits="userSpaceOnUse">
<stop stop-color="#FF1CF7"/>
<stop offset="1" stop-color="#885EFE"/>
</linearGradient>
<linearGradient id="paint63_linear_207_142" x1="777.702" y1="2296.24" x2="1003.72" y2="2113.21" gradientUnits="userSpaceOnUse">
<stop stop-color="#FF1CF7"/>
<stop offset="1" stop-color="#885EFE"/>
</linearGradient>
<linearGradient id="paint64_linear_207_142" x1="773.375" y1="2295.11" x2="1002.08" y2="2116.42" gradientUnits="userSpaceOnUse">
<stop stop-color="#FF1CF7"/>
<stop offset="1" stop-color="#885EFE"/>
</linearGradient>
<linearGradient id="paint65_linear_207_142" x1="769.087" y1="2293.97" x2="1000.41" y2="2119.66" gradientUnits="userSpaceOnUse">
<stop stop-color="#FF1CF7"/>
<stop offset="1" stop-color="#885EFE"/>
</linearGradient>
<linearGradient id="paint66_linear_207_142" x1="764.841" y1="2292.81" x2="998.685" y2="2122.91" gradientUnits="userSpaceOnUse">
<stop stop-color="#FF1CF7"/>
<stop offset="1" stop-color="#885EFE"/>
</linearGradient>
<linearGradient id="paint67_linear_207_142" x1="760.635" y1="2291.63" x2="996.921" y2="2126.18" gradientUnits="userSpaceOnUse">
<stop stop-color="#FF1CF7"/>
<stop offset="1" stop-color="#885EFE"/>
</linearGradient>
<linearGradient id="paint68_linear_207_142" x1="756.47" y1="2290.44" x2="995.115" y2="2129.47" gradientUnits="userSpaceOnUse">
<stop stop-color="#FF1CF7"/>
<stop offset="1" stop-color="#885EFE"/>
</linearGradient>
<linearGradient id="paint69_linear_207_142" x1="752.347" y1="2289.23" x2="993.266" y2="2132.77" gradientUnits="userSpaceOnUse">
<stop stop-color="#FF1CF7"/>
<stop offset="1" stop-color="#885EFE"/>
</linearGradient>
<linearGradient id="paint70_linear_207_142" x1="748.265" y1="2288" x2="991.373" y2="2136.09" gradientUnits="userSpaceOnUse">
<stop stop-color="#FF1CF7"/>
<stop offset="1" stop-color="#885EFE"/>
</linearGradient>
<linearGradient id="paint71_linear_207_142" x1="744.224" y1="2286.76" x2="989.437" y2="2139.43" gradientUnits="userSpaceOnUse">
<stop stop-color="#FF1CF7"/>
<stop offset="1" stop-color="#885EFE"/>
</linearGradient>
<linearGradient id="paint72_linear_207_142" x1="740.226" y1="2285.51" x2="987.458" y2="2142.77" gradientUnits="userSpaceOnUse">
<stop stop-color="#FF1CF7"/>
<stop offset="1" stop-color="#885EFE"/>
</linearGradient>
<linearGradient id="paint73_linear_207_142" x1="736.27" y1="2284.25" x2="985.435" y2="2146.13" gradientUnits="userSpaceOnUse">
<stop stop-color="#FF1CF7"/>
<stop offset="1" stop-color="#885EFE"/>
</linearGradient>
<linearGradient id="paint74_linear_207_142" x1="732.355" y1="2282.97" x2="983.368" y2="2149.5" gradientUnits="userSpaceOnUse">
<stop stop-color="#FF1CF7"/>
<stop offset="1" stop-color="#885EFE"/>
</linearGradient>
<linearGradient id="paint75_linear_207_142" x1="728.483" y1="2281.68" x2="981.257" y2="2152.89" gradientUnits="userSpaceOnUse">
<stop stop-color="#FF1CF7"/>
<stop offset="1" stop-color="#885EFE"/>
</linearGradient>
<linearGradient id="paint76_linear_207_142" x1="724.654" y1="2280.38" x2="979.102" y2="2156.28" gradientUnits="userSpaceOnUse">
<stop stop-color="#FF1CF7"/>
<stop offset="1" stop-color="#885EFE"/>
</linearGradient>
<linearGradient id="paint77_linear_207_142" x1="720.866" y1="2279.07" x2="976.903" y2="2159.68" gradientUnits="userSpaceOnUse">
<stop stop-color="#FF1CF7"/>
<stop offset="1" stop-color="#885EFE"/>
</linearGradient>
<linearGradient id="paint78_linear_207_142" x1="717.122" y1="2277.76" x2="974.659" y2="2163.09" gradientUnits="userSpaceOnUse">
<stop stop-color="#FF1CF7"/>
<stop offset="1" stop-color="#885EFE"/>
</linearGradient>
<linearGradient id="paint79_linear_207_142" x1="713.42" y1="2276.43" x2="972.372" y2="2166.51" gradientUnits="userSpaceOnUse">
<stop stop-color="#FF1CF7"/>
<stop offset="1" stop-color="#885EFE"/>
</linearGradient>
<linearGradient id="paint80_linear_207_142" x1="709.76" y1="2275.1" x2="970.04" y2="2169.94" gradientUnits="userSpaceOnUse">
<stop stop-color="#FF1CF7"/>
<stop offset="1" stop-color="#885EFE"/>
</linearGradient>
<linearGradient id="paint81_linear_207_142" x1="706.144" y1="2273.76" x2="967.663" y2="2173.37" gradientUnits="userSpaceOnUse">
<stop stop-color="#FF1CF7"/>
<stop offset="1" stop-color="#885EFE"/>
</linearGradient>
<linearGradient id="paint82_linear_207_142" x1="702.569" y1="2272.42" x2="965.243" y2="2176.81" gradientUnits="userSpaceOnUse">
<stop stop-color="#FF1CF7"/>
<stop offset="1" stop-color="#885EFE"/>
</linearGradient>
<linearGradient id="paint83_linear_207_142" x1="699.038" y1="2271.07" x2="962.778" y2="2180.26" gradientUnits="userSpaceOnUse">
<stop stop-color="#FF1CF7"/>
<stop offset="1" stop-color="#885EFE"/>
</linearGradient>
<linearGradient id="paint84_linear_207_142" x1="695.549" y1="2269.71" x2="960.268" y2="2183.7" gradientUnits="userSpaceOnUse">
<stop stop-color="#FF1CF7"/>
<stop offset="1" stop-color="#885EFE"/>
</linearGradient>
<linearGradient id="paint85_linear_207_142" x1="692.103" y1="2268.36" x2="957.714" y2="2187.15" gradientUnits="userSpaceOnUse">
<stop stop-color="#FF1CF7"/>
<stop offset="1" stop-color="#885EFE"/>
</linearGradient>
<linearGradient id="paint86_linear_207_142" x1="688.701" y1="2267" x2="955.116" y2="2190.61" gradientUnits="userSpaceOnUse">
<stop stop-color="#FF1CF7"/>
<stop offset="1" stop-color="#885EFE"/>
</linearGradient>
<linearGradient id="paint87_linear_207_142" x1="685.339" y1="2265.64" x2="952.473" y2="2194.06" gradientUnits="userSpaceOnUse">
<stop stop-color="#FF1CF7"/>
<stop offset="1" stop-color="#885EFE"/>
</linearGradient>
<linearGradient id="paint88_linear_207_142" x1="682.022" y1="2264.28" x2="949.787" y2="2197.51" gradientUnits="userSpaceOnUse">
<stop stop-color="#FF1CF7"/>
<stop offset="1" stop-color="#885EFE"/>
</linearGradient>
<linearGradient id="paint89_linear_207_142" x1="678.746" y1="2262.91" x2="947.056" y2="2200.97" gradientUnits="userSpaceOnUse">
<stop stop-color="#FF1CF7"/>
<stop offset="1" stop-color="#885EFE"/>
</linearGradient>
<linearGradient id="paint90_linear_207_142" x1="675.513" y1="2261.55" x2="944.281" y2="2204.42" gradientUnits="userSpaceOnUse">
<stop stop-color="#FF1CF7"/>
<stop offset="1" stop-color="#885EFE"/>
</linearGradient>
<linearGradient id="paint91_linear_207_142" x1="672.322" y1="2260.19" x2="941.462" y2="2207.88" gradientUnits="userSpaceOnUse">
<stop stop-color="#FF1CF7"/>
<stop offset="1" stop-color="#885EFE"/>
</linearGradient>
<linearGradient id="paint92_linear_207_142" x1="669.172" y1="2258.83" x2="938.6" y2="2211.33" gradientUnits="userSpaceOnUse">
<stop stop-color="#FF1CF7"/>
<stop offset="1" stop-color="#885EFE"/>
</linearGradient>
<linearGradient id="paint93_linear_207_142" x1="666.066" y1="2257.48" x2="935.694" y2="2214.78" gradientUnits="userSpaceOnUse">
<stop stop-color="#FF1CF7"/>
<stop offset="1" stop-color="#885EFE"/>
</linearGradient>
<linearGradient id="paint94_linear_207_142" x1="663.001" y1="2256.13" x2="932.744" y2="2218.22" gradientUnits="userSpaceOnUse">
<stop stop-color="#FF1CF7"/>
<stop offset="1" stop-color="#885EFE"/>
</linearGradient>
<linearGradient id="paint95_linear_207_142" x1="659.978" y1="2254.78" x2="929.751" y2="2221.66" gradientUnits="userSpaceOnUse">
<stop stop-color="#FF1CF7"/>
<stop offset="1" stop-color="#885EFE"/>
</linearGradient>
<linearGradient id="paint96_linear_207_142" x1="656.996" y1="2253.44" x2="926.715" y2="2225.09" gradientUnits="userSpaceOnUse">
<stop stop-color="#FF1CF7"/>
<stop offset="1" stop-color="#885EFE"/>
</linearGradient>
<linearGradient id="paint97_linear_207_142" x1="654.056" y1="2252.1" x2="923.636" y2="2228.52" gradientUnits="userSpaceOnUse">
<stop stop-color="#FF1CF7"/>
<stop offset="1" stop-color="#885EFE"/>
</linearGradient>
<linearGradient id="paint98_linear_207_142" x1="651.157" y1="2250.77" x2="920.514" y2="2231.93" gradientUnits="userSpaceOnUse">
<stop stop-color="#FF1CF7"/>
<stop offset="1" stop-color="#885EFE"/>
</linearGradient>
<linearGradient id="paint99_linear_207_142" x1="648.299" y1="2249.45" x2="917.35" y2="2235.35" gradientUnits="userSpaceOnUse">
<stop stop-color="#FF1CF7"/>
<stop offset="1" stop-color="#885EFE"/>
</linearGradient>
<linearGradient id="paint100_linear_207_142" x1="645.482" y1="2248.13" x2="914.143" y2="2238.75" gradientUnits="userSpaceOnUse">
<stop stop-color="#FF1CF7"/>
<stop offset="1" stop-color="#885EFE"/>
</linearGradient>
<linearGradient id="paint101_linear_207_142" x1="642.705" y1="2246.83" x2="910.895" y2="2242.14" gradientUnits="userSpaceOnUse">
<stop stop-color="#FF1CF7"/>
<stop offset="1" stop-color="#885EFE"/>
</linearGradient>
<linearGradient id="paint102_linear_207_142" x1="639.969" y1="2245.53" x2="907.605" y2="2245.53" gradientUnits="userSpaceOnUse">
<stop stop-color="#FF1CF7"/>
<stop offset="1" stop-color="#885EFE"/>
</linearGradient>
<clipPath id="clip0_207_142">
<rect width="1920" height="4262" fill="white"/>
</clipPath>
</defs>
</svg>
