<svg width="1920" height="2125" viewBox="0 0 1920 2125" fill="none" xmlns="http://www.w3.org/2000/svg">
<g clip-path="url(#clip0_207_142)">
<rect width="1920" height="2125" fill="white"/>
<rect width="1920" height="2125" fill="#0C0C0C"/>
<g filter="url(#filter0_f_207_142)">
<circle cx="146" cy="964" r="403" fill="url(#paint0_linear_207_142)"/>
</g>
<g filter="url(#filter1_f_207_142)">
<circle cx="1834" cy="517" r="342" fill="url(#paint1_linear_207_142)"/>
</g>
<g filter="url(#filter2_f_207_142)">
<path opacity="0.010101" d="M941.877 1448.39L804.301 1707.13C800.131 1714.97 801.485 1724.61 807.655 1731L1011.22 1941.79C1017.39 1948.18 1026.97 1949.87 1034.95 1945.98L1298.34 1817.52C1306.32 1813.62 1310.89 1805.03 1309.65 1796.24L1268.87 1506.05C1267.63 1497.25 1260.88 1490.25 1252.13 1488.71L963.537 1437.82C954.791 1436.28 946.046 1440.55 941.877 1448.39Z" stroke="url(#paint2_linear_207_142)"/>
<path opacity="0.020202" d="M943.186 1447.65L801.4 1703.44C797.094 1711.21 798.28 1720.87 804.337 1727.36L1003.79 1941.25C1009.85 1947.75 1019.4 1949.6 1027.45 1945.85L1292.5 1822.25C1300.55 1818.5 1305.27 1809.99 1304.19 1801.17L1268.55 1510.9C1267.46 1502.08 1260.83 1494.97 1252.11 1493.27L965.027 1437.47C956.309 1435.77 947.491 1439.89 943.186 1447.65Z" stroke="url(#paint3_linear_207_142)"/>
<path opacity="0.030303" d="M944.516 1447L798.582 1699.76C794.141 1707.45 795.158 1717.13 801.101 1723.73L996.399 1940.63C1002.34 1947.23 1011.86 1949.25 1019.97 1945.64L1286.61 1826.93C1294.72 1823.32 1299.59 1814.89 1298.66 1806.06L1268.15 1515.79C1267.22 1506.96 1260.71 1499.72 1252.02 1497.88L966.532 1437.2C957.845 1435.35 948.957 1439.31 944.516 1447Z" stroke="url(#paint4_linear_207_142)"/>
<path opacity="0.040404" d="M945.867 1446.42L795.846 1696.1C791.272 1703.71 792.12 1713.4 797.946 1720.11L989.044 1939.94C994.871 1946.64 1004.35 1948.83 1012.53 1945.36L1280.65 1831.55C1288.83 1828.08 1293.84 1819.74 1293.06 1810.89L1267.68 1520.72C1266.9 1511.87 1260.52 1504.53 1251.87 1502.53L968.05 1437.01C959.397 1435.01 950.441 1438.81 945.867 1446.42Z" stroke="url(#paint5_linear_207_142)"/>
<path opacity="0.050505" d="M947.237 1445.93L793.193 1692.45C788.486 1699.98 789.165 1709.69 794.874 1716.49L981.728 1939.17C987.436 1945.98 996.877 1948.33 1005.11 1945L1274.64 1836.11C1282.87 1832.78 1288.03 1824.53 1287.41 1815.67L1267.13 1525.68C1266.51 1516.83 1260.26 1509.37 1251.64 1507.22L969.581 1436.9C960.964 1434.75 951.943 1438.39 947.237 1445.93Z" stroke="url(#paint6_linear_207_142)"/>
<path opacity="0.0606061" d="M948.623 1445.51L790.62 1688.81C785.783 1696.26 786.293 1705.98 791.882 1712.88L974.451 1938.33C980.04 1945.23 989.438 1947.75 997.729 1944.57L1268.57 1840.61C1276.86 1837.42 1282.16 1829.26 1281.69 1820.39L1266.51 1530.69C1266.04 1521.82 1259.92 1514.26 1251.34 1511.96L971.122 1436.87C962.543 1434.57 953.46 1438.06 948.623 1445.51Z" stroke="url(#paint7_linear_207_142)"/>
<path opacity="0.0707071" d="M950.027 1445.17L788.13 1685.19C783.164 1692.56 783.503 1702.28 788.971 1709.28L967.216 1937.42C972.684 1944.42 982.036 1947.1 990.382 1944.06L1262.44 1845.04C1270.79 1842 1276.23 1833.94 1275.92 1825.06L1265.81 1535.72C1265.5 1526.85 1259.51 1519.18 1250.97 1516.73L972.672 1436.93C964.135 1434.48 954.993 1437.81 950.027 1445.17Z" stroke="url(#paint8_linear_207_142)"/>
<path opacity="0.0808081" d="M951.443 1444.92L785.72 1681.59C780.626 1688.87 780.795 1698.6 786.14 1705.69L960.023 1936.44C965.368 1943.53 974.672 1946.38 983.069 1943.48L1256.26 1849.42C1264.66 1846.53 1270.24 1838.56 1270.08 1829.68L1265.04 1540.79C1264.88 1531.91 1259.03 1524.14 1250.53 1521.54L974.229 1437.07C965.736 1434.47 956.537 1437.64 951.443 1444.92Z" stroke="url(#paint9_linear_207_142)"/>
<path opacity="0.0909091" d="M952.874 1444.74L783.39 1678.01C778.17 1685.2 778.17 1694.93 783.39 1702.11L952.874 1935.39C958.094 1942.57 967.347 1945.58 975.793 1942.83L1250.02 1853.73C1258.47 1850.99 1264.19 1843.11 1264.19 1834.23V1545.89C1264.19 1537.01 1258.47 1529.14 1250.02 1526.39L975.793 1437.29C967.347 1434.55 958.094 1437.55 952.874 1444.74Z" stroke="url(#paint10_linear_207_142)"/>
<path opacity="0.10101" d="M954.315 1444.64L781.14 1674.45C775.795 1681.54 775.626 1691.27 780.72 1698.55L945.769 1934.26C950.863 1941.54 960.062 1944.7 968.555 1942.11L1243.74 1857.98C1252.23 1855.38 1258.08 1847.61 1258.24 1838.73L1263.26 1551.02C1263.42 1542.14 1257.84 1534.17 1249.44 1531.28L977.361 1437.6C968.964 1434.7 959.66 1437.55 954.315 1444.64Z" stroke="url(#paint11_linear_207_142)"/>
<path opacity="0.111111" d="M955.767 1444.63L778.97 1670.92C773.502 1677.91 773.163 1687.64 778.129 1695L938.71 1933.07C943.677 1940.44 952.819 1943.76 961.356 1941.31L1237.4 1862.16C1245.94 1859.71 1251.93 1852.05 1252.24 1843.17L1262.26 1556.18C1262.57 1547.3 1257.13 1539.24 1248.78 1536.2L978.933 1437.98C970.587 1434.95 961.235 1437.63 955.767 1444.63Z" stroke="url(#paint12_linear_207_142)"/>
<path opacity="0.121212" d="M957.228 1444.69L776.878 1667.4C771.288 1674.3 770.779 1684.02 775.616 1691.47L931.698 1931.81C936.535 1939.26 945.618 1942.75 954.197 1940.45L1231.01 1866.28C1239.59 1863.98 1245.71 1856.42 1246.18 1847.55L1261.18 1561.36C1261.64 1552.49 1256.34 1544.33 1248.05 1541.15L980.506 1438.45C972.214 1435.27 962.817 1437.79 957.228 1444.69Z" stroke="url(#paint13_linear_207_142)"/>
<path opacity="0.131313" d="M958.695 1444.83L774.864 1663.91C769.155 1670.72 768.477 1680.42 773.183 1687.96L924.735 1930.49C929.441 1938.02 938.462 1941.67 947.079 1939.52L1224.58 1870.33C1233.19 1868.18 1239.45 1860.73 1240.07 1851.87L1260.02 1566.57C1260.64 1557.71 1255.48 1549.46 1247.25 1546.14L982.079 1439C973.844 1435.68 964.404 1438.03 958.695 1444.83Z" stroke="url(#paint14_linear_207_142)"/>
<path opacity="0.141414" d="M960.169 1445.06L772.927 1660.45C767.101 1667.16 766.253 1676.85 770.827 1684.46L917.821 1929.1C922.395 1936.71 931.351 1940.51 940.004 1938.52L1218.09 1874.31C1226.75 1872.32 1233.13 1864.97 1233.9 1856.13L1258.78 1571.81C1259.55 1562.96 1254.54 1554.62 1246.37 1551.15L983.65 1439.64C975.475 1436.17 965.995 1438.35 960.169 1445.06Z" stroke="url(#paint15_linear_207_142)"/>
<path opacity="0.151515" d="M961.647 1445.36L771.068 1657.02C765.126 1663.62 764.109 1673.3 768.549 1680.99L910.957 1927.64C915.398 1935.34 924.286 1939.29 932.973 1937.45L1211.56 1878.23C1220.25 1876.38 1226.76 1869.15 1227.69 1860.32L1257.46 1577.07C1258.39 1568.23 1253.52 1559.81 1245.41 1556.19L985.22 1440.35C977.106 1436.74 967.59 1438.76 961.647 1445.36Z" stroke="url(#paint16_linear_207_142)"/>
<path opacity="0.161616" d="M963.128 1445.74L769.285 1653.62C763.228 1660.11 762.042 1669.77 766.348 1677.54L904.144 1926.13C908.45 1933.89 917.268 1938.01 925.985 1936.31L1204.99 1882.08C1213.71 1880.38 1220.34 1873.27 1221.43 1864.45L1256.07 1582.34C1257.15 1573.53 1252.43 1565.02 1244.38 1561.27L986.784 1441.15C978.735 1437.39 969.185 1439.25 963.128 1445.74Z" stroke="url(#paint17_linear_207_142)"/>
<path opacity="0.171717" d="M964.61 1446.21L767.577 1650.24C761.407 1656.63 760.053 1666.27 764.223 1674.11L897.384 1924.55C901.553 1932.39 910.298 1936.65 919.044 1935.11L1198.37 1885.86C1207.12 1884.31 1213.88 1877.32 1215.12 1868.52L1254.59 1587.64C1255.83 1578.85 1251.26 1570.26 1243.28 1566.36L988.343 1442.02C980.36 1438.13 970.779 1439.82 964.61 1446.21Z" stroke="url(#paint18_linear_207_142)"/>
<path opacity="0.181818" d="M966.092 1446.75L765.944 1646.9C759.664 1653.18 758.142 1662.79 762.174 1670.7L890.677 1922.9C894.709 1930.82 903.378 1935.23 912.15 1933.85L1191.72 1889.57C1200.49 1888.18 1207.37 1881.3 1208.76 1872.53L1253.04 1592.96C1254.43 1584.19 1250.01 1575.52 1242.1 1571.49L989.895 1442.98C981.981 1438.95 972.372 1440.47 966.092 1446.75Z" stroke="url(#paint19_linear_207_142)"/>
<path opacity="0.191919" d="M967.573 1447.38L764.385 1643.59C757.996 1649.76 756.307 1659.34 760.2 1667.33L884.024 1921.2C887.917 1929.19 896.508 1933.75 905.303 1932.52L1185.02 1893.21C1193.81 1891.97 1200.81 1885.21 1202.35 1876.46L1251.4 1598.29C1252.95 1589.55 1248.68 1580.8 1240.84 1576.63L991.437 1444.02C983.596 1439.85 973.961 1441.21 967.573 1447.38Z" stroke="url(#paint20_linear_207_142)"/>
<path opacity="0.20202" d="M969.051 1448.08L762.9 1640.32C756.404 1646.37 754.548 1655.92 758.301 1663.97L877.428 1919.44C881.181 1927.49 889.69 1932.21 898.505 1931.12L1178.28 1896.77C1187.1 1895.69 1194.21 1889.05 1195.91 1880.34L1249.69 1603.64C1251.39 1594.92 1247.27 1586.1 1239.51 1581.8L992.971 1445.14C985.203 1440.83 975.547 1442.02 969.051 1448.08Z" stroke="url(#paint21_linear_207_142)"/>
<path opacity="0.212121" d="M970.525 1448.86L761.487 1637.08C754.887 1643.02 752.864 1652.54 756.476 1660.65L870.887 1917.62C874.499 1925.74 882.925 1930.6 891.757 1929.67L1171.51 1900.27C1180.34 1899.34 1187.57 1892.83 1189.41 1884.14L1247.9 1609C1249.74 1600.31 1245.79 1591.43 1238.1 1586.99L994.493 1446.34C986.801 1441.9 977.125 1442.92 970.525 1448.86Z" stroke="url(#paint22_linear_207_142)"/>
<path opacity="0.222222" d="M971.993 1449.72L760.146 1633.88C753.443 1639.7 751.254 1649.18 754.724 1657.36L864.403 1915.75C867.873 1923.92 876.213 1928.93 885.06 1928.16L1164.69 1903.69C1173.54 1902.92 1180.88 1896.54 1182.88 1887.88L1246.03 1614.38C1248.02 1605.72 1244.22 1596.77 1236.61 1592.19L996.001 1447.62C988.388 1443.05 978.696 1443.89 971.993 1449.72Z" stroke="url(#paint23_linear_207_142)"/>
<path opacity="0.232323" d="M973.455 1450.66L758.876 1630.71C752.072 1636.42 749.719 1645.86 753.046 1654.1L857.978 1913.81C861.305 1922.05 869.556 1927.2 878.415 1926.58L1157.85 1907.04C1166.71 1906.42 1174.16 1900.17 1176.31 1891.55L1244.07 1619.76C1246.22 1611.14 1242.58 1602.12 1235.05 1597.42L997.496 1448.98C989.964 1444.27 980.258 1444.95 973.455 1450.66Z" stroke="url(#paint24_linear_207_142)"/>
<path opacity="0.242424" d="M974.908 1451.68L757.676 1627.59C750.774 1633.18 748.256 1642.58 751.439 1650.87L851.612 1911.83C854.795 1920.12 862.954 1925.42 871.823 1924.95L1150.97 1910.32C1159.83 1909.86 1167.4 1903.74 1169.69 1895.16L1242.04 1625.16C1244.34 1616.58 1240.85 1607.49 1233.4 1602.66L998.975 1450.42C991.526 1445.58 981.81 1446.09 974.908 1451.68Z" stroke="url(#paint25_linear_207_142)"/>
<path opacity="0.252525" d="M976.352 1452.77L756.546 1624.51C749.548 1629.97 746.866 1639.33 749.904 1647.67L845.306 1909.79C848.343 1918.13 856.409 1923.57 865.285 1923.26L1144.05 1913.53C1152.93 1913.22 1160.6 1907.23 1163.04 1898.69L1239.93 1630.56C1242.38 1622.02 1239.05 1612.88 1231.69 1607.91L1000.44 1451.93C993.074 1446.97 983.351 1447.31 976.352 1452.77Z" stroke="url(#paint26_linear_207_142)"/>
<path opacity="0.262626" d="M977.784 1453.95L755.484 1621.46C748.391 1626.81 745.546 1636.11 748.438 1644.51L839.06 1907.69C841.951 1916.09 849.921 1921.67 858.801 1921.52L1137.11 1916.66C1145.99 1916.5 1153.76 1910.65 1156.35 1902.16L1237.74 1635.97C1240.33 1627.47 1237.17 1618.28 1229.89 1613.18L1001.88 1453.53C994.604 1448.43 984.877 1448.6 977.784 1453.95Z" stroke="url(#paint27_linear_207_142)"/>
<path opacity="0.272727" d="M979.204 1455.2L754.49 1618.46C747.305 1623.68 744.298 1632.94 747.043 1641.38L832.876 1905.55C835.62 1914 843.491 1919.72 852.373 1919.72L1130.13 1919.72C1139.02 1919.72 1146.89 1914 1149.63 1905.55L1235.46 1641.38C1238.21 1632.94 1235.2 1623.68 1228.02 1618.46L1003.3 1455.2C996.118 1449.98 986.389 1449.98 979.204 1455.2Z" stroke="url(#paint28_linear_207_142)"/>
<path opacity="0.282828" d="M980.61 1456.53L753.562 1615.51C746.287 1620.6 743.12 1629.8 745.717 1638.29L826.754 1903.36C829.351 1911.85 837.121 1917.71 846.001 1917.86L1123.13 1922.7C1132.01 1922.85 1139.98 1917.27 1142.87 1908.87L1233.11 1646.8C1236 1638.4 1233.16 1629.1 1226.07 1623.75L1004.71 1456.95C997.613 1451.6 987.885 1451.43 980.61 1456.53Z" stroke="url(#paint29_linear_207_142)"/>
<path opacity="0.292929" d="M982.002 1457.93L752.701 1612.6C745.338 1617.56 742.011 1626.71 744.459 1635.24L820.696 1901.12C823.144 1909.65 830.811 1915.64 839.687 1915.95L1116.1 1925.61C1124.98 1925.91 1133.05 1920.47 1136.08 1912.13L1230.68 1652.22C1233.72 1643.88 1231.04 1634.52 1224.04 1629.06L1006.09 1458.77C999.088 1453.31 989.365 1452.97 982.002 1457.93Z" stroke="url(#paint30_linear_207_142)"/>
<path opacity="0.30303" d="M983.376 1459.41L751.904 1609.73C744.456 1614.57 740.969 1623.65 743.268 1632.23L814.701 1898.83C817 1907.4 824.561 1913.53 833.43 1913.99L1109.05 1928.44C1117.92 1928.9 1126.08 1923.6 1129.26 1915.31L1228.17 1657.64C1231.35 1649.35 1228.84 1639.95 1221.93 1634.37L1007.44 1460.67C1000.54 1455.08 990.824 1454.58 983.376 1459.41Z" stroke="url(#paint31_linear_207_142)"/>
<path opacity="0.313131" d="M984.733 1460.97L751.171 1606.92C743.639 1611.62 739.995 1620.64 742.143 1629.26L808.771 1896.49C810.92 1905.11 818.373 1911.36 827.232 1911.98L1101.97 1931.19C1110.83 1931.81 1119.08 1926.66 1122.41 1918.42L1225.58 1663.06C1228.91 1654.83 1226.55 1645.39 1219.75 1639.68L1008.77 1462.65C1001.97 1456.94 992.264 1456.26 984.733 1460.97Z" stroke="url(#paint32_linear_207_142)"/>
<path opacity="0.323232" d="M986.071 1462.6L750.501 1604.15C742.889 1608.72 739.087 1617.68 741.085 1626.33L802.907 1894.11C804.904 1902.76 812.247 1909.14 821.095 1909.92L1094.87 1933.87C1103.72 1934.65 1112.06 1929.63 1115.53 1921.46L1222.91 1668.48C1226.38 1660.31 1224.19 1650.83 1217.49 1645L1010.08 1464.7C1003.38 1458.87 993.683 1458.03 986.071 1462.6Z" stroke="url(#paint33_linear_207_142)"/>
<path opacity="0.333333" d="M987.388 1464.31L749.893 1601.43C742.202 1605.87 738.245 1614.75 740.091 1623.44L797.108 1891.68C798.954 1900.37 806.185 1906.88 815.017 1907.81L1087.75 1936.48C1096.58 1937.4 1105.01 1932.54 1108.62 1924.43L1220.16 1673.9C1223.77 1665.79 1221.75 1656.27 1215.15 1650.33L1011.36 1466.83C1004.76 1460.88 995.079 1459.87 987.388 1464.31Z" stroke="url(#paint34_linear_207_142)"/>
<path opacity="0.343434" d="M988.684 1466.09L749.346 1598.76C741.578 1603.06 737.467 1611.88 739.161 1620.6L791.376 1889.22C793.07 1897.93 800.186 1904.57 809.001 1905.65L1080.61 1939C1089.42 1940.08 1097.93 1935.37 1101.69 1927.32L1217.33 1679.31C1221.09 1671.26 1219.23 1661.71 1212.74 1655.65L1012.6 1469.03C1006.11 1462.97 996.451 1461.78 988.684 1466.09Z" stroke="url(#paint35_linear_207_142)"/>
<path opacity="0.353535" d="M989.957 1467.94L748.859 1596.14C741.018 1600.31 736.753 1609.05 738.295 1617.8L785.711 1886.71C787.253 1895.46 794.252 1902.21 803.047 1903.45L1073.45 1941.45C1082.24 1942.69 1090.83 1938.12 1094.73 1930.14L1214.43 1684.71C1218.32 1676.73 1216.63 1667.15 1210.24 1660.98L1013.82 1471.3C1007.43 1465.13 997.798 1463.77 989.957 1467.94Z" stroke="url(#paint36_linear_207_142)"/>
<path opacity="0.363636" d="M991.205 1469.87L748.43 1593.57C740.517 1597.6 736.1 1606.27 737.49 1615.04L780.114 1884.16C781.503 1892.93 788.383 1899.81 797.154 1901.2L1066.27 1943.83C1075.04 1945.22 1083.71 1940.8 1087.74 1932.89L1211.44 1690.11C1215.48 1682.2 1213.95 1672.59 1207.67 1666.31L1015.01 1473.64C1008.73 1467.36 999.118 1465.84 991.205 1469.87Z" stroke="url(#paint37_linear_207_142)"/>
<path opacity="0.373737" d="M992.428 1471.87L748.06 1591.06C740.078 1594.95 735.51 1603.54 736.746 1612.34L774.585 1881.58C775.821 1890.37 782.58 1897.37 791.326 1898.91L1059.08 1946.12C1067.83 1947.67 1076.57 1943.4 1080.74 1935.56L1208.38 1695.5C1212.55 1687.66 1211.2 1678.02 1205.03 1671.63L1016.16 1476.06C1009.99 1469.67 1000.41 1467.98 992.428 1471.87Z" stroke="url(#paint38_linear_207_142)"/>
<path opacity="0.383838" d="M993.625 1473.94L747.747 1588.6C739.698 1592.35 734.981 1600.86 736.063 1609.68L769.126 1878.95C770.208 1887.77 776.844 1894.88 785.562 1896.58L1051.87 1948.34C1060.59 1950.04 1069.41 1945.92 1073.72 1938.16L1205.24 1700.88C1209.55 1693.11 1208.36 1683.45 1202.31 1676.96L1017.28 1478.54C1011.22 1472.05 1001.67 1470.19 993.625 1473.94Z" stroke="url(#paint39_linear_207_142)"/>
<path opacity="0.393939" d="M994.793 1476.09L747.488 1586.2C739.375 1589.81 734.51 1598.23 735.439 1607.07L763.735 1876.29C764.664 1885.12 771.174 1892.35 779.861 1894.2L1044.65 1950.48C1053.34 1952.33 1062.23 1948.37 1066.67 1940.68L1202.02 1706.24C1206.46 1698.55 1205.45 1688.87 1199.51 1682.27L1018.37 1481.1C1012.42 1474.5 1002.91 1472.48 994.793 1476.09Z" stroke="url(#paint40_linear_207_142)"/>
<path opacity="0.40404" d="M995.933 1478.3L747.285 1583.85C739.11 1587.32 734.099 1595.66 734.873 1604.5L758.415 1873.6C759.19 1882.44 765.572 1889.79 774.226 1891.78L1037.42 1952.55C1046.08 1954.55 1055.03 1950.74 1059.61 1943.13L1198.73 1711.59C1203.3 1703.98 1202.46 1694.29 1196.63 1687.59L1019.41 1483.72C1013.59 1477.02 1004.11 1474.83 995.933 1478.3Z" stroke="url(#paint41_linear_207_142)"/>
<path opacity="0.414141" d="M997.042 1480.59L747.135 1581.56C738.901 1584.88 733.745 1593.13 734.364 1601.99L753.166 1870.87C753.786 1879.73 760.039 1887.18 768.657 1889.33L1030.18 1954.54C1038.8 1956.69 1047.82 1953.04 1052.53 1945.51L1195.36 1716.93C1200.07 1709.4 1199.39 1699.69 1193.68 1692.89L1020.43 1486.42C1014.72 1479.61 1005.28 1477.26 997.042 1480.59Z" stroke="url(#paint42_linear_207_142)"/>
<path opacity="0.424242" d="M998.12 1482.94L747.037 1579.32C738.746 1582.5 733.447 1590.66 733.912 1599.53L747.988 1868.11C748.452 1876.98 754.575 1884.54 763.154 1886.84L1022.94 1956.45C1031.51 1958.75 1040.6 1955.26 1045.43 1947.81L1191.91 1722.25C1196.75 1714.81 1196.24 1705.09 1190.65 1698.19L1021.4 1489.18C1015.81 1482.28 1006.41 1479.76 998.12 1482.94Z" stroke="url(#paint43_linear_207_142)"/>
<path opacity="0.434343" d="M999.164 1485.36L746.991 1577.15C738.645 1580.18 733.205 1588.25 733.514 1597.13L742.88 1865.32C743.19 1874.2 749.18 1881.86 757.717 1884.31L1015.68 1958.28C1024.22 1960.73 1033.36 1957.4 1038.32 1950.04L1188.39 1727.56C1193.35 1720.2 1193.02 1710.47 1187.55 1703.47L1022.33 1492.01C1016.86 1485.01 1007.51 1482.33 999.164 1485.36Z" stroke="url(#paint44_linear_207_142)"/>
<path opacity="0.444444" d="M1000.18 1487.85L746.994 1575.03C738.597 1577.92 733.017 1585.89 733.172 1594.77L737.845 1862.5C738 1871.38 743.855 1879.15 752.348 1881.75L1008.42 1960.04C1016.91 1962.63 1026.11 1959.46 1031.2 1952.19L1184.79 1732.85C1189.88 1725.57 1189.71 1715.84 1184.37 1708.75L1023.22 1494.9C1017.88 1487.81 1008.57 1484.96 1000.18 1487.85Z" stroke="url(#paint45_linear_207_142)"/>
<path opacity="0.454545" d="M1001.15 1490.41L747.047 1572.97C738.6 1575.72 732.882 1583.59 732.882 1592.47L732.882 1859.65C732.882 1868.53 738.6 1876.41 747.047 1879.15L1001.15 1961.71C1009.6 1964.46 1018.85 1961.45 1024.07 1954.27L1181.12 1738.11C1186.34 1730.93 1186.34 1721.2 1181.12 1714.01L1024.07 1497.86C1018.85 1490.67 1009.6 1487.67 1001.15 1490.41Z" stroke="url(#paint46_linear_207_142)"/>
<path opacity="0.464646" d="M1002.09 1493.03L747.147 1570.98C738.654 1573.58 732.798 1581.35 732.643 1590.23L727.991 1856.78C727.836 1865.66 733.416 1873.63 741.813 1876.52L993.883 1963.32C1002.28 1966.21 1011.58 1963.36 1016.93 1956.27L1177.37 1743.36C1182.71 1736.26 1182.88 1726.54 1177.79 1719.26L1024.88 1500.88C1019.78 1493.61 1010.59 1490.44 1002.09 1493.03Z" stroke="url(#paint47_linear_207_142)"/>
<path opacity="0.474747" d="M1003 1495.72L747.293 1569.05C738.756 1571.49 732.766 1579.16 732.456 1588.04L723.173 1853.88C722.863 1862.76 728.303 1870.82 736.649 1873.86L986.613 1964.84C994.959 1967.88 1004.31 1965.19 1009.78 1958.2L1173.55 1748.58C1179.02 1741.58 1179.36 1731.86 1174.39 1724.5L1025.64 1503.97C1020.67 1496.6 1011.53 1493.28 1003 1495.72Z" stroke="url(#paint48_linear_207_142)"/>
<path opacity="0.484848" d="M1003.86 1498.48L747.485 1567.17C738.907 1569.47 732.784 1577.03 732.319 1585.9L718.428 1850.96C717.963 1859.83 723.262 1867.99 731.553 1871.17L979.343 1966.29C987.634 1969.47 997.032 1966.95 1002.62 1960.05L1169.65 1753.78C1175.24 1746.88 1175.75 1737.16 1170.92 1729.71L1026.36 1507.11C1021.52 1499.67 1012.44 1496.18 1003.86 1498.48Z" stroke="url(#paint49_linear_207_142)"/>
<path opacity="0.494949" d="M1004.69 1501.3L747.721 1565.36C739.104 1567.51 732.85 1574.97 732.23 1583.82L713.757 1848.01C713.137 1856.87 718.293 1865.12 726.527 1868.45L972.074 1967.66C980.309 1970.98 989.749 1968.63 995.458 1961.83L1165.69 1758.95C1171.4 1752.15 1172.08 1742.44 1167.37 1734.91L1027.03 1510.32C1022.32 1502.79 1013.3 1499.15 1004.69 1501.3Z" stroke="url(#paint50_linear_207_142)"/>
<path opacity="0.50505" d="M1005.47 1504.18L748 1563.62C739.346 1565.62 732.963 1572.96 732.189 1581.81L709.159 1845.04C708.385 1853.89 713.396 1862.23 721.571 1865.7L964.808 1968.95C972.983 1972.42 982.463 1970.23 988.29 1963.53L1161.65 1764.1C1167.48 1757.4 1168.32 1747.71 1163.75 1740.09L1027.65 1513.59C1023.08 1505.98 1014.12 1502.18 1005.47 1504.18Z" stroke="url(#paint51_linear_207_142)"/>
<path opacity="0.515152" d="M1006.21 1507.12L748.32 1561.94C739.633 1563.78 733.123 1571.02 732.195 1579.85L704.635 1842.06C703.707 1850.89 708.571 1859.32 716.685 1862.93L957.546 1970.17C965.659 1973.78 975.176 1971.76 981.118 1965.16L1157.54 1769.22C1163.48 1762.62 1164.5 1752.95 1160.06 1745.26L1028.23 1516.92C1023.79 1509.23 1014.9 1505.27 1006.21 1507.12Z" stroke="url(#paint52_linear_207_142)"/>
<path opacity="0.525253" d="M1006.91 1510.13L748.681 1560.32C739.963 1562.02 733.327 1569.13 732.245 1577.95L700.185 1839.05C699.103 1847.87 703.82 1856.38 711.869 1860.13L950.289 1971.31C958.338 1975.06 967.888 1973.21 973.945 1966.71L1153.36 1774.31C1159.41 1767.82 1160.6 1758.16 1156.29 1750.39L1028.76 1520.31C1024.45 1512.54 1015.63 1508.43 1006.91 1510.13Z" stroke="url(#paint53_linear_207_142)"/>
<path opacity="0.535354" d="M1007.57 1513.19L749.081 1558.77C740.334 1560.31 733.576 1567.31 732.34 1576.11L695.81 1836.03C694.574 1844.83 699.141 1853.42 707.124 1857.31L943.039 1972.37C951.021 1976.27 960.603 1974.58 966.772 1968.19L1149.11 1779.38C1155.28 1772.99 1156.63 1763.35 1152.46 1755.51L1029.23 1523.76C1025.06 1515.91 1016.32 1511.65 1007.57 1513.19Z" stroke="url(#paint54_linear_207_142)"/>
<path opacity="0.545455" d="M1008.19 1516.32L749.519 1557.29C740.747 1558.68 733.867 1565.55 732.478 1574.33L691.509 1832.99C690.12 1841.77 694.537 1850.44 702.45 1854.47L935.797 1973.36C943.71 1977.4 953.32 1975.87 959.6 1969.59L1144.79 1784.41C1151.07 1778.13 1152.59 1768.52 1148.56 1760.61L1029.66 1527.26C1025.63 1519.34 1016.96 1514.93 1008.19 1516.32Z" stroke="url(#paint55_linear_207_142)"/>
<path opacity="0.555556" d="M1008.75 1519.5L749.993 1555.87C741.198 1557.1 734.2 1563.86 732.657 1572.61L687.282 1829.94C685.74 1838.69 690.005 1847.43 697.847 1851.6L928.565 1974.28C936.406 1978.45 946.041 1977.09 952.429 1970.92L1140.4 1789.41C1146.78 1783.24 1148.47 1773.66 1144.58 1765.67L1030.03 1530.81C1026.14 1522.83 1017.55 1518.26 1008.75 1519.5Z" stroke="url(#paint56_linear_207_142)"/>
<path opacity="0.565657" d="M1009.28 1522.74L750.503 1554.52C741.688 1555.6 734.572 1562.23 732.878 1570.95L683.131 1826.88C681.436 1835.6 685.548 1844.41 693.315 1848.72L921.343 1975.12C929.111 1979.42 938.767 1978.24 945.263 1972.18L1135.94 1794.37C1142.43 1788.32 1144.29 1778.76 1140.54 1770.72L1030.35 1534.43C1026.6 1526.38 1018.09 1521.66 1009.28 1522.74Z" stroke="url(#paint57_linear_207_142)"/>
<path opacity="0.575758" d="M1009.75 1526.04L751.047 1553.23C742.214 1554.16 734.984 1560.67 733.137 1569.36L679.054 1823.8C677.207 1832.49 681.164 1841.38 688.856 1845.82L914.134 1975.88C921.825 1980.32 931.501 1979.31 938.101 1973.36L1131.41 1799.3C1138.01 1793.36 1140.04 1783.84 1136.42 1775.73L1030.62 1538.09C1027.01 1529.98 1018.58 1525.11 1009.75 1526.04Z" stroke="url(#paint58_linear_207_142)"/>
<path opacity="0.585859" d="M1010.18 1529.4L751.623 1552.02C742.776 1552.79 735.433 1559.17 733.435 1567.83L675.051 1820.72C673.054 1829.37 676.855 1838.32 684.468 1842.9L906.938 1976.57C914.55 1981.15 924.243 1980.3 930.945 1974.47L1126.82 1804.2C1133.53 1798.37 1135.71 1788.89 1132.24 1780.72L1030.83 1541.81C1027.36 1533.63 1019.02 1528.62 1010.18 1529.4Z" stroke="url(#paint59_linear_207_142)"/>
<path opacity="0.59596" d="M1010.55 1532.8L752.231 1550.87C743.372 1551.49 735.919 1557.74 733.77 1566.36L671.124 1817.62C668.975 1826.24 672.62 1835.26 680.152 1839.96L899.756 1977.19C907.288 1981.9 916.993 1981.22 923.797 1975.51L1122.17 1809.06C1128.97 1803.35 1131.32 1793.91 1128 1785.67L1030.99 1545.58C1027.66 1537.34 1019.41 1532.19 1010.55 1532.8Z" stroke="url(#paint60_linear_207_142)"/>
<path opacity="0.606061" d="M1010.88 1536.27L752.87 1549.79C744.001 1550.25 736.44 1556.38 734.141 1564.96L667.272 1814.52C664.973 1823.1 668.46 1832.18 675.908 1837.02L892.591 1977.73C900.04 1982.57 909.756 1982.06 916.657 1976.47L1117.45 1813.88C1124.35 1808.29 1126.87 1798.89 1123.68 1790.6L1031.09 1549.39C1027.91 1541.1 1019.75 1535.8 1010.88 1536.27Z" stroke="url(#paint61_linear_207_142)"/>
<path opacity="0.616162" d="M1011.16 1539.78L753.537 1548.78C744.661 1549.09 736.995 1555.08 734.547 1563.62L663.493 1811.41C661.045 1819.95 664.373 1829.09 671.736 1834.05L885.443 1978.2C892.806 1983.17 902.529 1982.83 909.528 1977.36L1112.66 1818.66C1119.66 1813.19 1122.34 1803.84 1119.3 1795.49L1031.14 1553.26C1028.1 1544.91 1020.03 1539.47 1011.16 1539.78Z" stroke="url(#paint62_linear_207_142)"/>
<path opacity="0.626263" d="M1011.38 1543.35L754.232 1547.84C745.352 1548 737.582 1553.85 734.985 1562.34L659.79 1808.3C657.194 1816.79 660.361 1825.99 667.636 1831.08L878.314 1978.6C885.589 1983.69 895.317 1983.52 902.409 1978.18L1107.81 1823.4C1114.9 1818.05 1117.75 1808.75 1114.86 1800.35L1031.12 1557.17C1028.23 1548.78 1020.26 1543.2 1011.38 1543.35Z" stroke="url(#paint63_linear_207_142)"/>
<path opacity="0.636364" d="M1011.56 1546.97L754.953 1546.97C746.072 1546.97 738.201 1552.69 735.456 1561.14L656.162 1805.18C653.418 1813.63 656.424 1822.88 663.609 1828.1L871.204 1978.93C878.389 1984.15 888.119 1984.15 895.304 1978.93L1102.9 1828.1C1110.08 1822.88 1113.09 1813.63 1110.35 1805.18L1031.05 1561.14C1028.31 1552.69 1020.44 1546.97 1011.56 1546.97Z" stroke="url(#paint64_linear_207_142)"/>
<path opacity="0.646465" d="M1011.67 1550.64L755.699 1546.17C746.819 1546.02 738.849 1551.6 735.958 1559.99L652.608 1802.06C649.716 1810.46 652.561 1819.76 659.654 1825.11L864.116 1979.18C871.209 1984.52 880.936 1984.69 888.211 1979.6L1097.93 1832.76C1105.2 1827.66 1108.37 1818.46 1105.77 1809.97L1030.92 1565.14C1028.32 1556.65 1020.55 1550.79 1011.67 1550.64Z" stroke="url(#paint65_linear_207_142)"/>
<path opacity="0.656566" d="M1011.74 1554.36L756.468 1545.44C747.593 1545.13 739.527 1550.57 736.489 1558.92L649.128 1798.94C646.091 1807.29 648.772 1816.64 655.771 1822.11L857.05 1979.36C864.048 1984.83 873.771 1985.17 881.134 1980.2L1092.89 1837.37C1100.25 1832.41 1103.58 1823.26 1101.13 1814.73L1030.73 1569.19C1028.28 1560.66 1020.61 1554.67 1011.74 1554.36Z" stroke="url(#paint66_linear_207_142)"/>
<path opacity="0.666667" d="M1011.75 1558.12L757.261 1544.78C748.392 1544.32 740.232 1549.62 737.049 1557.91L645.723 1795.82C642.541 1804.11 645.059 1813.51 651.961 1819.1L850.007 1979.47C856.909 1985.06 866.625 1985.57 874.074 1980.74L1087.8 1841.94C1095.25 1837.1 1098.73 1828.02 1096.44 1819.44L1030.48 1573.29C1028.18 1564.71 1020.62 1558.59 1011.75 1558.12Z" stroke="url(#paint67_linear_207_142)"/>
<path opacity="0.676768" d="M1011.7 1561.93L758.073 1544.2C749.214 1543.58 740.963 1548.73 737.636 1556.97L642.392 1792.71C639.065 1800.94 641.419 1810.38 648.222 1816.09L842.99 1979.52C849.793 1985.23 859.499 1985.91 867.03 1981.2L1082.65 1846.47C1090.18 1841.76 1093.82 1832.74 1091.67 1824.12L1030.17 1577.42C1028.02 1568.81 1020.56 1562.55 1011.7 1561.93Z" stroke="url(#paint68_linear_207_142)"/>
<path opacity="0.686869" d="M1011.6 1565.79L758.906 1543.68C750.059 1542.91 741.719 1547.92 738.249 1556.09L639.135 1789.59C635.665 1797.77 637.854 1807.25 644.556 1813.07L835.998 1979.49C842.701 1985.32 852.393 1986.17 860.006 1981.59L1077.44 1850.95C1085.05 1846.37 1088.85 1837.42 1086.85 1828.76L1029.79 1581.6C1027.79 1572.95 1020.45 1566.56 1011.6 1565.79Z" stroke="url(#paint69_linear_207_142)"/>
<path opacity="0.69697" d="M1011.45 1569.69L759.757 1543.24C750.925 1542.31 742.499 1547.17 738.887 1555.29L635.952 1786.48C632.34 1794.6 634.362 1804.11 640.962 1810.05L829.034 1979.4C835.634 1985.34 845.31 1986.35 853.001 1981.91L1072.17 1855.38C1079.86 1850.94 1083.82 1842.05 1081.97 1833.36L1029.36 1585.82C1027.51 1577.13 1020.28 1570.62 1011.45 1569.69Z" stroke="url(#paint70_linear_207_142)"/>
<path opacity="0.707071" d="M1011.23 1573.64L760.625 1542.87C751.81 1541.78 743.301 1546.5 739.548 1554.55L632.842 1783.38C629.089 1791.43 630.945 1800.98 637.44 1807.04L822.098 1979.23C828.593 1985.29 838.25 1986.48 846.017 1982.17L1066.85 1859.76C1074.62 1855.46 1078.73 1846.64 1077.03 1837.92L1028.86 1590.07C1027.16 1581.35 1020.05 1574.72 1011.23 1573.64Z" stroke="url(#paint71_linear_207_142)"/>
<path opacity="0.717172" d="M1010.96 1577.62L761.509 1542.56C752.714 1541.33 744.124 1545.9 740.231 1553.88L629.805 1780.28C625.912 1788.27 627.601 1797.85 633.99 1804.02L815.191 1979C821.58 1985.17 831.214 1986.52 839.056 1982.36L1061.47 1864.1C1069.31 1859.93 1073.58 1851.18 1072.03 1842.44L1028.29 1594.36C1026.75 1585.62 1019.75 1578.86 1010.96 1577.62Z" stroke="url(#paint72_linear_207_142)"/>
<path opacity="0.727273" d="M1010.62 1581.65L762.407 1542.34C753.635 1540.95 744.966 1545.36 740.934 1553.28L626.841 1777.2C622.809 1785.11 624.331 1794.72 630.611 1801L808.315 1978.7C814.595 1984.98 824.205 1986.51 832.118 1982.47L1056.04 1868.38C1063.95 1864.35 1068.37 1855.68 1066.98 1846.91L1027.67 1598.69C1026.28 1589.92 1019.4 1583.04 1010.62 1581.65Z" stroke="url(#paint73_linear_207_142)"/>
<path opacity="0.737374" d="M1010.23 1585.72L763.319 1542.18C754.572 1540.64 745.828 1544.9 741.658 1552.74L623.951 1774.12C619.781 1781.96 621.135 1791.6 627.305 1797.98L801.472 1978.34C807.642 1984.73 817.223 1986.42 825.205 1982.53L1050.55 1872.62C1058.54 1868.72 1063.1 1860.13 1061.87 1851.34L1026.97 1603.05C1025.74 1594.26 1018.98 1587.26 1010.23 1585.72Z" stroke="url(#paint74_linear_207_142)"/>
<path opacity="0.747475" d="M1009.78 1589.82L764.241 1542.1C755.523 1540.4 746.706 1544.51 742.4 1552.28L621.131 1771.05C616.826 1778.82 618.011 1788.48 624.068 1794.97L794.661 1977.91C800.718 1984.41 810.268 1986.26 818.317 1982.51L1045.02 1876.8C1053.07 1873.05 1057.78 1864.54 1056.7 1855.72L1026.22 1607.45C1025.14 1598.63 1018.5 1591.52 1009.78 1589.82Z" stroke="url(#paint75_linear_207_142)"/>
<path opacity="0.757576" d="M1009.27 1593.97L765.174 1542.08C756.487 1540.24 747.599 1544.19 743.159 1551.89L618.384 1768C613.944 1775.69 614.961 1785.37 620.903 1791.97L787.884 1977.42C793.827 1984.02 803.343 1986.04 811.456 1982.43L1039.43 1880.93C1047.54 1877.32 1052.41 1868.89 1051.48 1860.06L1025.4 1611.88C1024.47 1603.04 1017.96 1595.81 1009.27 1593.97Z" stroke="url(#paint76_linear_207_142)"/>
<path opacity="0.767677" d="M1008.7 1598.15L766.117 1542.14C757.463 1540.15 748.507 1543.95 743.933 1551.56L615.709 1764.96C611.135 1772.57 611.983 1782.27 617.809 1788.97L781.142 1976.86C786.969 1983.56 796.449 1985.75 804.624 1982.28L1033.79 1885.01C1041.97 1881.54 1046.98 1873.2 1046.21 1864.35L1024.51 1616.34C1023.73 1607.49 1017.35 1600.15 1008.7 1598.15Z" stroke="url(#paint77_linear_207_142)"/>
<path opacity="0.777778" d="M1008.06 1602.36L767.067 1542.28C758.449 1540.13 749.429 1543.77 744.722 1551.3L613.105 1761.94C608.399 1769.47 609.077 1779.17 614.786 1785.98L774.437 1976.24C780.146 1983.05 789.586 1985.4 797.82 1982.07L1028.11 1889.03C1036.34 1885.7 1041.5 1877.45 1040.88 1868.59L1023.55 1620.82C1022.93 1611.97 1016.68 1604.51 1008.06 1602.36Z" stroke="url(#paint78_linear_207_142)"/>
<path opacity="0.787879" d="M1007.37 1606.61L768.023 1542.48C759.445 1540.18 750.362 1543.67 745.525 1551.12L610.571 1758.93C605.734 1766.38 606.244 1776.09 611.833 1783L767.769 1975.56C773.358 1982.46 782.756 1984.98 791.047 1981.8L1022.37 1893C1030.67 1889.82 1035.96 1881.66 1035.5 1872.79L1022.53 1625.34C1022.07 1616.47 1015.94 1608.91 1007.37 1606.61Z" stroke="url(#paint79_linear_207_142)"/>
<path opacity="0.79798" d="M1006.61 1610.9L768.985 1542.76C760.448 1540.31 751.305 1543.64 746.339 1551L608.108 1755.94C603.142 1763.3 603.481 1773.02 608.949 1780.02L761.139 1974.82C766.607 1981.81 775.959 1984.5 784.305 1981.46L1016.59 1896.91C1024.94 1893.87 1030.38 1885.81 1030.07 1876.93L1021.44 1629.89C1021.13 1621.01 1015.14 1613.34 1006.61 1610.9Z" stroke="url(#paint80_linear_207_142)"/>
<path opacity="0.808081" d="M1005.78 1615.21L769.95 1543.11C761.457 1540.51 752.258 1543.68 747.164 1550.95L605.715 1752.97C600.621 1760.24 600.79 1769.97 606.135 1777.06L754.549 1974.01C759.893 1981.1 769.197 1983.95 777.595 1981.06L1010.77 1900.77C1019.17 1897.88 1024.75 1889.91 1024.59 1881.03L1020.29 1634.46C1020.13 1625.58 1014.28 1617.81 1005.78 1615.21Z" stroke="url(#paint81_linear_207_142)"/>
<path opacity="0.818182" d="M1004.9 1619.55L770.918 1543.53C762.471 1540.79 753.218 1543.79 747.998 1550.98L603.39 1750.01C598.17 1757.2 598.17 1766.93 603.39 1774.11L747.998 1973.15C753.218 1980.33 762.471 1983.34 770.918 1980.59L1004.9 1904.57C1013.34 1901.83 1019.06 1893.95 1019.06 1885.07L1019.06 1639.05C1019.06 1630.17 1013.35 1622.3 1004.9 1619.55Z" stroke="url(#paint82_linear_207_142)"/>
<path opacity="0.828283" d="M1003.95 1623.93L771.887 1544.02C763.489 1541.13 754.185 1543.98 748.84 1551.07L601.135 1747.08C595.79 1754.17 595.62 1763.9 600.714 1771.18L741.489 1972.22C746.583 1979.5 755.782 1982.67 764.275 1980.07L998.985 1908.31C1007.48 1905.72 1013.33 1897.95 1013.49 1889.07L1017.77 1643.67C1017.93 1634.79 1012.35 1626.82 1003.95 1623.93Z" stroke="url(#paint83_linear_207_142)"/>
<path opacity="0.838384" d="M1002.94 1628.33L772.856 1544.59C764.511 1541.55 755.158 1544.23 749.691 1551.23L598.948 1744.17C593.48 1751.17 593.141 1760.89 598.107 1768.26L735.023 1971.24C739.99 1978.61 749.132 1981.93 757.669 1979.49L993.031 1912C1001.57 1909.55 1007.56 1901.88 1007.87 1893.01L1016.41 1648.31C1016.72 1639.43 1011.28 1631.37 1002.94 1628.33Z" stroke="url(#paint84_linear_207_142)"/>
<path opacity="0.848485" d="M1001.86 1632.76L773.823 1545.22C765.532 1542.04 756.134 1544.56 750.545 1551.46L596.828 1741.29C591.239 1748.19 590.73 1757.9 595.567 1765.35L728.6 1970.21C733.437 1977.65 742.52 1981.14 751.098 1978.84L987.034 1915.62C995.612 1913.32 1001.74 1905.76 1002.2 1896.89L1014.98 1652.97C1015.45 1644.1 1010.15 1635.94 1001.86 1632.76Z" stroke="url(#paint85_linear_207_142)"/>
<path opacity="0.858586" d="M1000.72 1637.21L774.788 1545.93C766.554 1542.61 757.114 1544.96 751.405 1551.76L594.776 1738.43C589.068 1745.23 588.389 1754.93 593.095 1762.47L722.221 1969.11C726.927 1976.64 735.948 1980.29 744.565 1978.14L980.998 1919.19C989.615 1917.04 995.869 1909.59 996.489 1900.73L1013.49 1657.65C1014.11 1648.79 1008.95 1640.54 1000.72 1637.21Z" stroke="url(#paint86_linear_207_142)"/>
<path opacity="0.868687" d="M999.508 1641.69L775.749 1546.71C767.573 1543.24 758.094 1545.43 752.267 1552.13L592.79 1735.59C586.964 1742.29 586.116 1751.98 590.69 1759.6L715.887 1967.96C720.461 1975.57 729.417 1979.37 738.07 1977.38L974.923 1922.69C983.576 1920.7 989.959 1913.35 990.733 1904.51L1011.92 1662.35C1012.69 1653.5 1007.68 1645.16 999.508 1641.69Z" stroke="url(#paint87_linear_207_142)"/>
<path opacity="0.878788" d="M998.235 1646.19L776.704 1547.56C768.591 1543.95 759.075 1545.97 753.132 1552.57L590.871 1732.78C584.928 1739.38 583.911 1749.06 588.352 1756.75L709.6 1966.76C714.04 1974.45 722.928 1978.41 731.615 1976.56L968.811 1926.14C977.498 1924.29 984.008 1917.06 984.937 1908.23L1010.28 1667.07C1011.21 1658.23 1006.35 1649.81 998.235 1646.19Z" stroke="url(#paint88_linear_207_142)"/>
<path opacity="0.888889" d="M996.896 1650.72L777.653 1548.48C769.604 1544.73 760.054 1546.59 753.997 1553.08L589.016 1730C582.959 1736.5 581.774 1746.15 586.079 1753.92L703.358 1965.5C707.664 1973.27 716.482 1977.38 725.2 1975.68L962.662 1929.53C971.38 1927.83 978.016 1920.72 979.098 1911.9L1008.58 1671.8C1009.66 1662.98 1004.94 1654.47 996.896 1650.72Z" stroke="url(#paint89_linear_207_142)"/>
<path opacity="0.89899" d="M995.49 1655.26L778.594 1549.48C770.612 1545.58 761.03 1547.27 754.861 1553.66L587.226 1727.25C581.057 1733.64 579.703 1743.27 583.872 1751.12L697.165 1964.19C701.334 1972.03 710.079 1976.3 718.825 1974.75L956.478 1932.85C965.225 1931.31 971.983 1924.31 973.219 1915.51L1006.8 1676.54C1008.04 1667.75 1003.47 1659.16 995.49 1655.26Z" stroke="url(#paint90_linear_207_142)"/>
<path opacity="0.909091" d="M994.02 1659.83L779.526 1550.54C771.613 1546.51 762.004 1548.03 755.724 1554.31L585.501 1724.53C579.221 1730.81 577.699 1740.42 581.731 1748.33L691.021 1962.83C695.053 1970.74 703.722 1975.16 712.493 1973.77L950.261 1936.11C959.033 1934.72 965.913 1927.84 967.302 1919.07L1004.96 1681.3C1006.35 1672.53 1001.93 1663.86 994.02 1659.83Z" stroke="url(#paint91_linear_207_142)"/>
<path opacity="0.919192" d="M992.482 1664.41L780.448 1551.67C772.606 1547.5 762.972 1548.85 756.583 1555.02L583.838 1721.84C577.45 1728.01 575.76 1737.59 579.653 1745.58L684.926 1961.42C688.819 1969.4 697.409 1973.97 706.204 1972.73L944.011 1939.31C952.806 1938.07 959.804 1931.31 961.346 1922.57L1003.05 1686.07C1004.59 1677.33 1000.32 1668.58 992.482 1664.41Z" stroke="url(#paint92_linear_207_142)"/>
<path opacity="0.929293" d="M990.879 1669.01L781.358 1552.87C773.59 1548.57 763.934 1549.75 757.438 1555.81L582.238 1719.19C575.743 1725.24 573.886 1734.79 577.64 1742.84L678.881 1959.95C682.634 1968 691.143 1972.72 699.958 1971.64L937.729 1942.44C946.544 1941.36 953.659 1934.73 955.354 1926.01L1001.06 1690.85C1002.76 1682.13 998.646 1673.32 990.879 1669.01Z" stroke="url(#paint93_linear_207_142)"/>
<path opacity="0.939394" d="M989.208 1673.63L782.255 1554.14C774.564 1549.7 764.888 1550.72 758.288 1556.66L580.7 1716.56C574.1 1722.51 572.077 1732.02 575.69 1740.14L672.887 1958.44C676.499 1966.56 684.925 1971.42 693.757 1970.49L931.417 1945.51C940.249 1944.59 947.479 1938.08 949.326 1929.39L999.01 1695.64C1000.86 1686.96 996.899 1678.07 989.208 1673.63Z" stroke="url(#paint94_linear_207_142)"/>
<path opacity="0.949495" d="M987.471 1678.26L783.139 1555.48C775.526 1550.91 765.834 1551.76 759.131 1557.58L579.223 1713.98C572.52 1719.8 570.332 1729.28 573.802 1737.46L666.945 1956.89C670.415 1965.06 678.754 1970.07 687.602 1969.3L925.075 1948.52C933.923 1947.75 941.265 1941.37 943.263 1932.71L996.887 1700.44C998.885 1691.79 995.083 1682.83 987.471 1678.26Z" stroke="url(#paint95_linear_207_142)"/>
<path opacity="0.959596" d="M985.667 1682.9L784.007 1556.89C776.475 1552.18 766.77 1552.86 759.967 1558.57L577.807 1711.42C571.003 1717.13 568.65 1726.57 571.977 1734.81L661.055 1955.28C664.382 1963.52 672.633 1968.67 681.493 1968.05L918.706 1951.47C927.566 1950.85 935.019 1944.59 937.167 1935.98L994.695 1705.25C996.843 1696.63 993.198 1687.61 985.667 1682.9Z" stroke="url(#paint96_linear_207_142)"/>
<path opacity="0.969697" d="M983.795 1687.56L784.858 1558.37C777.41 1553.53 767.694 1554.04 760.792 1559.63L576.449 1708.91C569.547 1714.5 567.029 1723.89 570.212 1732.18L655.219 1953.63C658.401 1961.93 666.561 1967.23 675.43 1966.76L912.31 1954.35C921.179 1953.88 928.74 1947.76 931.039 1939.18L992.432 1710.06C994.73 1701.48 991.244 1692.4 983.795 1687.56Z" stroke="url(#paint97_linear_207_142)"/>
<path opacity="0.979798" d="M981.857 1692.22L785.692 1559.91C778.33 1554.94 768.606 1555.28 761.608 1560.75L575.151 1706.43C568.153 1711.9 565.471 1721.25 568.508 1729.59L649.436 1951.94C652.474 1960.29 660.54 1965.73 669.415 1965.42L905.888 1957.16C914.764 1956.85 922.431 1950.86 924.879 1942.32L990.099 1714.87C992.547 1706.33 989.22 1697.19 981.857 1692.22Z" stroke="url(#paint98_linear_207_142)"/>
<path opacity="0.989899" d="M979.852 1696.9L786.508 1561.52C779.233 1556.43 769.505 1556.6 762.412 1561.94L573.911 1703.99C566.818 1709.33 563.974 1718.64 566.865 1727.03L643.709 1950.2C646.6 1958.6 654.57 1964.18 663.45 1964.03L899.443 1959.91C908.323 1959.75 916.093 1953.9 918.69 1945.4L987.698 1719.69C990.295 1711.2 987.127 1702 979.852 1696.9Z" stroke="url(#paint99_linear_207_142)"/>
<path d="M977.78 1701.59L787.303 1563.2C780.119 1557.98 770.389 1557.98 763.204 1563.2L572.728 1701.59C565.543 1706.81 562.537 1716.06 565.281 1724.51L638.036 1948.43C640.781 1956.87 648.652 1962.59 657.533 1962.59H892.975C901.856 1962.59 909.727 1956.87 912.471 1948.43L985.227 1724.51C987.971 1716.06 984.965 1706.81 977.78 1701.59Z" stroke="url(#paint100_linear_207_142)"/>
</g>
</g>
<defs>
<filter id="filter0_f_207_142" x="-757" y="61" width="1806" height="1806" filterUnits="userSpaceOnUse" color-interpolation-filters="sRGB">
<feFlood flood-opacity="0" result="BackgroundImageFix"/>
<feBlend mode="normal" in="SourceGraphic" in2="BackgroundImageFix" result="shape"/>
<feGaussianBlur stdDeviation="250" result="effect1_foregroundBlur_207_142"/>
</filter>
<filter id="filter1_f_207_142" x="992" y="-325" width="1684" height="1684" filterUnits="userSpaceOnUse" color-interpolation-filters="sRGB">
<feFlood flood-opacity="0" result="BackgroundImageFix"/>
<feBlend mode="normal" in="SourceGraphic" in2="BackgroundImageFix" result="shape"/>
<feGaussianBlur stdDeviation="250" result="effect1_foregroundBlur_207_142"/>
</filter>
<filter id="filter2_f_207_142" x="553.776" y="1425.63" width="766.578" height="569.622" filterUnits="userSpaceOnUse" color-interpolation-filters="sRGB">
<feFlood flood-opacity="0" result="BackgroundImageFix"/>
<feBlend mode="normal" in="SourceGraphic" in2="BackgroundImageFix" result="shape"/>
<feGaussianBlur stdDeviation="5" result="effect1_foregroundBlur_207_142"/>
</filter>
<linearGradient id="paint0_linear_207_142" x1="146" y1="561" x2="146" y2="1367" gradientUnits="userSpaceOnUse">
<stop stop-color="#885EFE"/>
<stop offset="1" stop-color="#585858"/>
</linearGradient>
<linearGradient id="paint1_linear_207_142" x1="1834" y1="175" x2="1834" y2="859" gradientUnits="userSpaceOnUse">
<stop stop-color="#885EFE"/>
<stop offset="1" stop-color="#585858"/>
</linearGradient>
<linearGradient id="paint2_linear_207_142" x1="1092.07" y1="1840.3" x2="1046.71" y2="1517.55" gradientUnits="userSpaceOnUse">
<stop stop-color="#FF1CF7"/>
<stop offset="1" stop-color="#885EFE"/>
</linearGradient>
<linearGradient id="paint3_linear_207_142" x1="1086.26" y1="1841.39" x2="1046.62" y2="1518.49" gradientUnits="userSpaceOnUse">
<stop stop-color="#FF1CF7"/>
<stop offset="1" stop-color="#885EFE"/>
</linearGradient>
<linearGradient id="paint4_linear_207_142" x1="1080.47" y1="1842.42" x2="1046.52" y2="1519.47" gradientUnits="userSpaceOnUse">
<stop stop-color="#FF1CF7"/>
<stop offset="1" stop-color="#885EFE"/>
</linearGradient>
<linearGradient id="paint5_linear_207_142" x1="1074.67" y1="1843.41" x2="1046.42" y2="1520.51" gradientUnits="userSpaceOnUse">
<stop stop-color="#FF1CF7"/>
<stop offset="1" stop-color="#885EFE"/>
</linearGradient>
<linearGradient id="paint6_linear_207_142" x1="1068.89" y1="1844.35" x2="1046.32" y2="1521.59" gradientUnits="userSpaceOnUse">
<stop stop-color="#FF1CF7"/>
<stop offset="1" stop-color="#885EFE"/>
</linearGradient>
<linearGradient id="paint7_linear_207_142" x1="1063.11" y1="1845.23" x2="1046.2" y2="1522.73" gradientUnits="userSpaceOnUse">
<stop stop-color="#FF1CF7"/>
<stop offset="1" stop-color="#885EFE"/>
</linearGradient>
<linearGradient id="paint8_linear_207_142" x1="1057.33" y1="1846.07" x2="1046.08" y2="1523.91" gradientUnits="userSpaceOnUse">
<stop stop-color="#FF1CF7"/>
<stop offset="1" stop-color="#885EFE"/>
</linearGradient>
<linearGradient id="paint9_linear_207_142" x1="1051.57" y1="1846.86" x2="1045.95" y2="1525.15" gradientUnits="userSpaceOnUse">
<stop stop-color="#FF1CF7"/>
<stop offset="1" stop-color="#885EFE"/>
</linearGradient>
<linearGradient id="paint10_linear_207_142" x1="1045.81" y1="1847.6" x2="1045.81" y2="1526.44" gradientUnits="userSpaceOnUse">
<stop stop-color="#FF1CF7"/>
<stop offset="1" stop-color="#885EFE"/>
</linearGradient>
<linearGradient id="paint11_linear_207_142" x1="1040.07" y1="1848.3" x2="1045.66" y2="1527.78" gradientUnits="userSpaceOnUse">
<stop stop-color="#FF1CF7"/>
<stop offset="1" stop-color="#885EFE"/>
</linearGradient>
<linearGradient id="paint12_linear_207_142" x1="1034.33" y1="1848.94" x2="1045.5" y2="1529.17" gradientUnits="userSpaceOnUse">
<stop stop-color="#FF1CF7"/>
<stop offset="1" stop-color="#885EFE"/>
</linearGradient>
<linearGradient id="paint13_linear_207_142" x1="1028.61" y1="1849.54" x2="1045.32" y2="1530.6" gradientUnits="userSpaceOnUse">
<stop stop-color="#FF1CF7"/>
<stop offset="1" stop-color="#885EFE"/>
</linearGradient>
<linearGradient id="paint14_linear_207_142" x1="1022.9" y1="1850.09" x2="1045.14" y2="1532.09" gradientUnits="userSpaceOnUse">
<stop stop-color="#FF1CF7"/>
<stop offset="1" stop-color="#885EFE"/>
</linearGradient>
<linearGradient id="paint15_linear_207_142" x1="1017.2" y1="1850.6" x2="1044.93" y2="1533.62" gradientUnits="userSpaceOnUse">
<stop stop-color="#FF1CF7"/>
<stop offset="1" stop-color="#885EFE"/>
</linearGradient>
<linearGradient id="paint16_linear_207_142" x1="1011.52" y1="1851.06" x2="1044.72" y2="1535.2" gradientUnits="userSpaceOnUse">
<stop stop-color="#FF1CF7"/>
<stop offset="1" stop-color="#885EFE"/>
</linearGradient>
<linearGradient id="paint17_linear_207_142" x1="1005.85" y1="1851.47" x2="1044.48" y2="1536.83" gradientUnits="userSpaceOnUse">
<stop stop-color="#FF1CF7"/>
<stop offset="1" stop-color="#885EFE"/>
</linearGradient>
<linearGradient id="paint18_linear_207_142" x1="1000.2" y1="1851.84" x2="1044.23" y2="1538.51" gradientUnits="userSpaceOnUse">
<stop stop-color="#FF1CF7"/>
<stop offset="1" stop-color="#885EFE"/>
</linearGradient>
<linearGradient id="paint19_linear_207_142" x1="994.562" y1="1852.16" x2="1043.97" y2="1540.24" gradientUnits="userSpaceOnUse">
<stop stop-color="#FF1CF7"/>
<stop offset="1" stop-color="#885EFE"/>
</linearGradient>
<linearGradient id="paint20_linear_207_142" x1="988.944" y1="1852.43" x2="1043.68" y2="1542.01" gradientUnits="userSpaceOnUse">
<stop stop-color="#FF1CF7"/>
<stop offset="1" stop-color="#885EFE"/>
</linearGradient>
<linearGradient id="paint21_linear_207_142" x1="983.343" y1="1852.66" x2="1043.38" y2="1543.82" gradientUnits="userSpaceOnUse">
<stop stop-color="#FF1CF7"/>
<stop offset="1" stop-color="#885EFE"/>
</linearGradient>
<linearGradient id="paint22_linear_207_142" x1="977.762" y1="1852.85" x2="1043.05" y2="1545.69" gradientUnits="userSpaceOnUse">
<stop stop-color="#FF1CF7"/>
<stop offset="1" stop-color="#885EFE"/>
</linearGradient>
<linearGradient id="paint23_linear_207_142" x1="972.199" y1="1852.99" x2="1042.71" y2="1547.6" gradientUnits="userSpaceOnUse">
<stop stop-color="#FF1CF7"/>
<stop offset="1" stop-color="#885EFE"/>
</linearGradient>
<linearGradient id="paint24_linear_207_142" x1="966.657" y1="1853.09" x2="1042.34" y2="1549.55" gradientUnits="userSpaceOnUse">
<stop stop-color="#FF1CF7"/>
<stop offset="1" stop-color="#885EFE"/>
</linearGradient>
<linearGradient id="paint25_linear_207_142" x1="961.137" y1="1853.15" x2="1041.95" y2="1551.55" gradientUnits="userSpaceOnUse">
<stop stop-color="#FF1CF7"/>
<stop offset="1" stop-color="#885EFE"/>
</linearGradient>
<linearGradient id="paint26_linear_207_142" x1="955.638" y1="1853.16" x2="1041.54" y2="1553.59" gradientUnits="userSpaceOnUse">
<stop stop-color="#FF1CF7"/>
<stop offset="1" stop-color="#885EFE"/>
</linearGradient>
<linearGradient id="paint27_linear_207_142" x1="950.16" y1="1853.14" x2="1041.1" y2="1555.67" gradientUnits="userSpaceOnUse">
<stop stop-color="#FF1CF7"/>
<stop offset="1" stop-color="#885EFE"/>
</linearGradient>
<linearGradient id="paint28_linear_207_142" x1="944.707" y1="1853.07" x2="1040.64" y2="1557.8" gradientUnits="userSpaceOnUse">
<stop stop-color="#FF1CF7"/>
<stop offset="1" stop-color="#885EFE"/>
</linearGradient>
<linearGradient id="paint29_linear_207_142" x1="939.278" y1="1852.96" x2="1040.16" y2="1559.97" gradientUnits="userSpaceOnUse">
<stop stop-color="#FF1CF7"/>
<stop offset="1" stop-color="#885EFE"/>
</linearGradient>
<linearGradient id="paint30_linear_207_142" x1="933.873" y1="1852.81" x2="1039.65" y2="1562.19" gradientUnits="userSpaceOnUse">
<stop stop-color="#FF1CF7"/>
<stop offset="1" stop-color="#885EFE"/>
</linearGradient>
<linearGradient id="paint31_linear_207_142" x1="928.493" y1="1852.61" x2="1039.11" y2="1564.44" gradientUnits="userSpaceOnUse">
<stop stop-color="#FF1CF7"/>
<stop offset="1" stop-color="#885EFE"/>
</linearGradient>
<linearGradient id="paint32_linear_207_142" x1="923.139" y1="1852.38" x2="1038.55" y2="1566.74" gradientUnits="userSpaceOnUse">
<stop stop-color="#FF1CF7"/>
<stop offset="1" stop-color="#885EFE"/>
</linearGradient>
<linearGradient id="paint33_linear_207_142" x1="917.812" y1="1852.11" x2="1037.96" y2="1569.07" gradientUnits="userSpaceOnUse">
<stop stop-color="#FF1CF7"/>
<stop offset="1" stop-color="#885EFE"/>
</linearGradient>
<linearGradient id="paint34_linear_207_142" x1="912.512" y1="1851.8" x2="1037.33" y2="1571.45" gradientUnits="userSpaceOnUse">
<stop stop-color="#FF1CF7"/>
<stop offset="1" stop-color="#885EFE"/>
</linearGradient>
<linearGradient id="paint35_linear_207_142" x1="907.239" y1="1851.46" x2="1036.68" y2="1573.86" gradientUnits="userSpaceOnUse">
<stop stop-color="#FF1CF7"/>
<stop offset="1" stop-color="#885EFE"/>
</linearGradient>
<linearGradient id="paint36_linear_207_142" x1="901.995" y1="1851.08" x2="1036.01" y2="1576.31" gradientUnits="userSpaceOnUse">
<stop stop-color="#FF1CF7"/>
<stop offset="1" stop-color="#885EFE"/>
</linearGradient>
<linearGradient id="paint37_linear_207_142" x1="896.78" y1="1850.66" x2="1035.29" y2="1578.81" gradientUnits="userSpaceOnUse">
<stop stop-color="#FF1CF7"/>
<stop offset="1" stop-color="#885EFE"/>
</linearGradient>
<linearGradient id="paint38_linear_207_142" x1="891.595" y1="1850.2" x2="1034.55" y2="1581.33" gradientUnits="userSpaceOnUse">
<stop stop-color="#FF1CF7"/>
<stop offset="1" stop-color="#885EFE"/>
</linearGradient>
<linearGradient id="paint39_linear_207_142" x1="886.441" y1="1849.71" x2="1033.78" y2="1583.9" gradientUnits="userSpaceOnUse">
<stop stop-color="#FF1CF7"/>
<stop offset="1" stop-color="#885EFE"/>
</linearGradient>
<linearGradient id="paint40_linear_207_142" x1="881.316" y1="1849.18" x2="1032.98" y2="1586.5" gradientUnits="userSpaceOnUse">
<stop stop-color="#FF1CF7"/>
<stop offset="1" stop-color="#885EFE"/>
</linearGradient>
<linearGradient id="paint41_linear_207_142" x1="876.223" y1="1848.62" x2="1032.14" y2="1589.13" gradientUnits="userSpaceOnUse">
<stop stop-color="#FF1CF7"/>
<stop offset="1" stop-color="#885EFE"/>
</linearGradient>
<linearGradient id="paint42_linear_207_142" x1="871.162" y1="1848.03" x2="1031.27" y2="1591.8" gradientUnits="userSpaceOnUse">
<stop stop-color="#FF1CF7"/>
<stop offset="1" stop-color="#885EFE"/>
</linearGradient>
<linearGradient id="paint43_linear_207_142" x1="866.134" y1="1847.4" x2="1030.36" y2="1594.51" gradientUnits="userSpaceOnUse">
<stop stop-color="#FF1CF7"/>
<stop offset="1" stop-color="#885EFE"/>
</linearGradient>
<linearGradient id="paint44_linear_207_142" x1="861.138" y1="1846.74" x2="1029.42" y2="1597.25" gradientUnits="userSpaceOnUse">
<stop stop-color="#FF1CF7"/>
<stop offset="1" stop-color="#885EFE"/>
</linearGradient>
<linearGradient id="paint45_linear_207_142" x1="856.176" y1="1846.05" x2="1028.45" y2="1600.02" gradientUnits="userSpaceOnUse">
<stop stop-color="#FF1CF7"/>
<stop offset="1" stop-color="#885EFE"/>
</linearGradient>
<linearGradient id="paint46_linear_207_142" x1="851.248" y1="1845.33" x2="1027.44" y2="1602.82" gradientUnits="userSpaceOnUse">
<stop stop-color="#FF1CF7"/>
<stop offset="1" stop-color="#885EFE"/>
</linearGradient>
<linearGradient id="paint47_linear_207_142" x1="846.355" y1="1844.57" x2="1026.39" y2="1605.66" gradientUnits="userSpaceOnUse">
<stop stop-color="#FF1CF7"/>
<stop offset="1" stop-color="#885EFE"/>
</linearGradient>
<linearGradient id="paint48_linear_207_142" x1="841.496" y1="1843.79" x2="1025.31" y2="1608.52" gradientUnits="userSpaceOnUse">
<stop stop-color="#FF1CF7"/>
<stop offset="1" stop-color="#885EFE"/>
</linearGradient>
<linearGradient id="paint49_linear_207_142" x1="836.673" y1="1842.98" x2="1024.19" y2="1611.41" gradientUnits="userSpaceOnUse">
<stop stop-color="#FF1CF7"/>
<stop offset="1" stop-color="#885EFE"/>
</linearGradient>
<linearGradient id="paint50_linear_207_142" x1="831.885" y1="1842.14" x2="1023.03" y2="1614.34" gradientUnits="userSpaceOnUse">
<stop stop-color="#FF1CF7"/>
<stop offset="1" stop-color="#885EFE"/>
</linearGradient>
<linearGradient id="paint51_linear_207_142" x1="827.134" y1="1841.27" x2="1021.84" y2="1617.29" gradientUnits="userSpaceOnUse">
<stop stop-color="#FF1CF7"/>
<stop offset="1" stop-color="#885EFE"/>
</linearGradient>
<linearGradient id="paint52_linear_207_142" x1="822.42" y1="1840.38" x2="1020.61" y2="1620.27" gradientUnits="userSpaceOnUse">
<stop stop-color="#FF1CF7"/>
<stop offset="1" stop-color="#885EFE"/>
</linearGradient>
<linearGradient id="paint53_linear_207_142" x1="817.742" y1="1839.46" x2="1019.33" y2="1623.28" gradientUnits="userSpaceOnUse">
<stop stop-color="#FF1CF7"/>
<stop offset="1" stop-color="#885EFE"/>
</linearGradient>
<linearGradient id="paint54_linear_207_142" x1="813.102" y1="1838.51" x2="1018.02" y2="1626.31" gradientUnits="userSpaceOnUse">
<stop stop-color="#FF1CF7"/>
<stop offset="1" stop-color="#885EFE"/>
</linearGradient>
<linearGradient id="paint55_linear_207_142" x1="808.5" y1="1837.54" x2="1016.67" y2="1629.37" gradientUnits="userSpaceOnUse">
<stop stop-color="#FF1CF7"/>
<stop offset="1" stop-color="#885EFE"/>
</linearGradient>
<linearGradient id="paint56_linear_207_142" x1="803.936" y1="1836.55" x2="1015.28" y2="1632.45" gradientUnits="userSpaceOnUse">
<stop stop-color="#FF1CF7"/>
<stop offset="1" stop-color="#885EFE"/>
</linearGradient>
<linearGradient id="paint57_linear_207_142" x1="799.411" y1="1835.53" x2="1013.85" y2="1635.56" gradientUnits="userSpaceOnUse">
<stop stop-color="#FF1CF7"/>
<stop offset="1" stop-color="#885EFE"/>
</linearGradient>
<linearGradient id="paint58_linear_207_142" x1="794.925" y1="1834.49" x2="1012.38" y2="1638.69" gradientUnits="userSpaceOnUse">
<stop stop-color="#FF1CF7"/>
<stop offset="1" stop-color="#885EFE"/>
</linearGradient>
<linearGradient id="paint59_linear_207_142" x1="790.478" y1="1833.42" x2="1010.87" y2="1641.84" gradientUnits="userSpaceOnUse">
<stop stop-color="#FF1CF7"/>
<stop offset="1" stop-color="#885EFE"/>
</linearGradient>
<linearGradient id="paint60_linear_207_142" x1="786.07" y1="1832.34" x2="1009.32" y2="1645.01" gradientUnits="userSpaceOnUse">
<stop stop-color="#FF1CF7"/>
<stop offset="1" stop-color="#885EFE"/>
</linearGradient>
<linearGradient id="paint61_linear_207_142" x1="781.702" y1="1831.24" x2="1007.72" y2="1648.21" gradientUnits="userSpaceOnUse">
<stop stop-color="#FF1CF7"/>
<stop offset="1" stop-color="#885EFE"/>
</linearGradient>
<linearGradient id="paint62_linear_207_142" x1="777.375" y1="1830.11" x2="1006.08" y2="1651.42" gradientUnits="userSpaceOnUse">
<stop stop-color="#FF1CF7"/>
<stop offset="1" stop-color="#885EFE"/>
</linearGradient>
<linearGradient id="paint63_linear_207_142" x1="773.087" y1="1828.97" x2="1004.41" y2="1654.66" gradientUnits="userSpaceOnUse">
<stop stop-color="#FF1CF7"/>
<stop offset="1" stop-color="#885EFE"/>
</linearGradient>
<linearGradient id="paint64_linear_207_142" x1="768.841" y1="1827.81" x2="1002.68" y2="1657.91" gradientUnits="userSpaceOnUse">
<stop stop-color="#FF1CF7"/>
<stop offset="1" stop-color="#885EFE"/>
</linearGradient>
<linearGradient id="paint65_linear_207_142" x1="764.635" y1="1826.63" x2="1000.92" y2="1661.18" gradientUnits="userSpaceOnUse">
<stop stop-color="#FF1CF7"/>
<stop offset="1" stop-color="#885EFE"/>
</linearGradient>
<linearGradient id="paint66_linear_207_142" x1="760.47" y1="1825.44" x2="999.115" y2="1664.47" gradientUnits="userSpaceOnUse">
<stop stop-color="#FF1CF7"/>
<stop offset="1" stop-color="#885EFE"/>
</linearGradient>
<linearGradient id="paint67_linear_207_142" x1="756.347" y1="1824.23" x2="997.266" y2="1667.77" gradientUnits="userSpaceOnUse">
<stop stop-color="#FF1CF7"/>
<stop offset="1" stop-color="#885EFE"/>
</linearGradient>
<linearGradient id="paint68_linear_207_142" x1="752.265" y1="1823" x2="995.373" y2="1671.09" gradientUnits="userSpaceOnUse">
<stop stop-color="#FF1CF7"/>
<stop offset="1" stop-color="#885EFE"/>
</linearGradient>
<linearGradient id="paint69_linear_207_142" x1="748.224" y1="1821.76" x2="993.437" y2="1674.43" gradientUnits="userSpaceOnUse">
<stop stop-color="#FF1CF7"/>
<stop offset="1" stop-color="#885EFE"/>
</linearGradient>
<linearGradient id="paint70_linear_207_142" x1="744.226" y1="1820.51" x2="991.458" y2="1677.77" gradientUnits="userSpaceOnUse">
<stop stop-color="#FF1CF7"/>
<stop offset="1" stop-color="#885EFE"/>
</linearGradient>
<linearGradient id="paint71_linear_207_142" x1="740.27" y1="1819.25" x2="989.435" y2="1681.13" gradientUnits="userSpaceOnUse">
<stop stop-color="#FF1CF7"/>
<stop offset="1" stop-color="#885EFE"/>
</linearGradient>
<linearGradient id="paint72_linear_207_142" x1="736.355" y1="1817.97" x2="987.368" y2="1684.5" gradientUnits="userSpaceOnUse">
<stop stop-color="#FF1CF7"/>
<stop offset="1" stop-color="#885EFE"/>
</linearGradient>
<linearGradient id="paint73_linear_207_142" x1="732.483" y1="1816.68" x2="985.257" y2="1687.89" gradientUnits="userSpaceOnUse">
<stop stop-color="#FF1CF7"/>
<stop offset="1" stop-color="#885EFE"/>
</linearGradient>
<linearGradient id="paint74_linear_207_142" x1="728.654" y1="1815.38" x2="983.102" y2="1691.28" gradientUnits="userSpaceOnUse">
<stop stop-color="#FF1CF7"/>
<stop offset="1" stop-color="#885EFE"/>
</linearGradient>
<linearGradient id="paint75_linear_207_142" x1="724.866" y1="1814.07" x2="980.903" y2="1694.68" gradientUnits="userSpaceOnUse">
<stop stop-color="#FF1CF7"/>
<stop offset="1" stop-color="#885EFE"/>
</linearGradient>
<linearGradient id="paint76_linear_207_142" x1="721.122" y1="1812.76" x2="978.659" y2="1698.09" gradientUnits="userSpaceOnUse">
<stop stop-color="#FF1CF7"/>
<stop offset="1" stop-color="#885EFE"/>
</linearGradient>
<linearGradient id="paint77_linear_207_142" x1="717.42" y1="1811.43" x2="976.372" y2="1701.51" gradientUnits="userSpaceOnUse">
<stop stop-color="#FF1CF7"/>
<stop offset="1" stop-color="#885EFE"/>
</linearGradient>
<linearGradient id="paint78_linear_207_142" x1="713.76" y1="1810.1" x2="974.04" y2="1704.94" gradientUnits="userSpaceOnUse">
<stop stop-color="#FF1CF7"/>
<stop offset="1" stop-color="#885EFE"/>
</linearGradient>
<linearGradient id="paint79_linear_207_142" x1="710.144" y1="1808.76" x2="971.663" y2="1708.37" gradientUnits="userSpaceOnUse">
<stop stop-color="#FF1CF7"/>
<stop offset="1" stop-color="#885EFE"/>
</linearGradient>
<linearGradient id="paint80_linear_207_142" x1="706.569" y1="1807.42" x2="969.243" y2="1711.81" gradientUnits="userSpaceOnUse">
<stop stop-color="#FF1CF7"/>
<stop offset="1" stop-color="#885EFE"/>
</linearGradient>
<linearGradient id="paint81_linear_207_142" x1="703.038" y1="1806.07" x2="966.778" y2="1715.26" gradientUnits="userSpaceOnUse">
<stop stop-color="#FF1CF7"/>
<stop offset="1" stop-color="#885EFE"/>
</linearGradient>
<linearGradient id="paint82_linear_207_142" x1="699.549" y1="1804.71" x2="964.268" y2="1718.7" gradientUnits="userSpaceOnUse">
<stop stop-color="#FF1CF7"/>
<stop offset="1" stop-color="#885EFE"/>
</linearGradient>
<linearGradient id="paint83_linear_207_142" x1="696.103" y1="1803.36" x2="961.714" y2="1722.15" gradientUnits="userSpaceOnUse">
<stop stop-color="#FF1CF7"/>
<stop offset="1" stop-color="#885EFE"/>
</linearGradient>
<linearGradient id="paint84_linear_207_142" x1="692.701" y1="1802" x2="959.116" y2="1725.61" gradientUnits="userSpaceOnUse">
<stop stop-color="#FF1CF7"/>
<stop offset="1" stop-color="#885EFE"/>
</linearGradient>
<linearGradient id="paint85_linear_207_142" x1="689.339" y1="1800.64" x2="956.473" y2="1729.06" gradientUnits="userSpaceOnUse">
<stop stop-color="#FF1CF7"/>
<stop offset="1" stop-color="#885EFE"/>
</linearGradient>
<linearGradient id="paint86_linear_207_142" x1="686.022" y1="1799.28" x2="953.787" y2="1732.51" gradientUnits="userSpaceOnUse">
<stop stop-color="#FF1CF7"/>
<stop offset="1" stop-color="#885EFE"/>
</linearGradient>
<linearGradient id="paint87_linear_207_142" x1="682.746" y1="1797.91" x2="951.056" y2="1735.97" gradientUnits="userSpaceOnUse">
<stop stop-color="#FF1CF7"/>
<stop offset="1" stop-color="#885EFE"/>
</linearGradient>
<linearGradient id="paint88_linear_207_142" x1="679.513" y1="1796.55" x2="948.281" y2="1739.42" gradientUnits="userSpaceOnUse">
<stop stop-color="#FF1CF7"/>
<stop offset="1" stop-color="#885EFE"/>
</linearGradient>
<linearGradient id="paint89_linear_207_142" x1="676.322" y1="1795.19" x2="945.462" y2="1742.88" gradientUnits="userSpaceOnUse">
<stop stop-color="#FF1CF7"/>
<stop offset="1" stop-color="#885EFE"/>
</linearGradient>
<linearGradient id="paint90_linear_207_142" x1="673.172" y1="1793.83" x2="942.6" y2="1746.33" gradientUnits="userSpaceOnUse">
<stop stop-color="#FF1CF7"/>
<stop offset="1" stop-color="#885EFE"/>
</linearGradient>
<linearGradient id="paint91_linear_207_142" x1="670.066" y1="1792.48" x2="939.694" y2="1749.78" gradientUnits="userSpaceOnUse">
<stop stop-color="#FF1CF7"/>
<stop offset="1" stop-color="#885EFE"/>
</linearGradient>
<linearGradient id="paint92_linear_207_142" x1="667.001" y1="1791.13" x2="936.744" y2="1753.22" gradientUnits="userSpaceOnUse">
<stop stop-color="#FF1CF7"/>
<stop offset="1" stop-color="#885EFE"/>
</linearGradient>
<linearGradient id="paint93_linear_207_142" x1="663.978" y1="1789.78" x2="933.751" y2="1756.66" gradientUnits="userSpaceOnUse">
<stop stop-color="#FF1CF7"/>
<stop offset="1" stop-color="#885EFE"/>
</linearGradient>
<linearGradient id="paint94_linear_207_142" x1="660.996" y1="1788.44" x2="930.715" y2="1760.09" gradientUnits="userSpaceOnUse">
<stop stop-color="#FF1CF7"/>
<stop offset="1" stop-color="#885EFE"/>
</linearGradient>
<linearGradient id="paint95_linear_207_142" x1="658.056" y1="1787.1" x2="927.636" y2="1763.52" gradientUnits="userSpaceOnUse">
<stop stop-color="#FF1CF7"/>
<stop offset="1" stop-color="#885EFE"/>
</linearGradient>
<linearGradient id="paint96_linear_207_142" x1="655.157" y1="1785.77" x2="924.514" y2="1766.93" gradientUnits="userSpaceOnUse">
<stop stop-color="#FF1CF7"/>
<stop offset="1" stop-color="#885EFE"/>
</linearGradient>
<linearGradient id="paint97_linear_207_142" x1="652.299" y1="1784.45" x2="921.35" y2="1770.35" gradientUnits="userSpaceOnUse">
<stop stop-color="#FF1CF7"/>
<stop offset="1" stop-color="#885EFE"/>
</linearGradient>
<linearGradient id="paint98_linear_207_142" x1="649.482" y1="1783.13" x2="918.143" y2="1773.75" gradientUnits="userSpaceOnUse">
<stop stop-color="#FF1CF7"/>
<stop offset="1" stop-color="#885EFE"/>
</linearGradient>
<linearGradient id="paint99_linear_207_142" x1="646.705" y1="1781.83" x2="914.895" y2="1777.14" gradientUnits="userSpaceOnUse">
<stop stop-color="#FF1CF7"/>
<stop offset="1" stop-color="#885EFE"/>
</linearGradient>
<linearGradient id="paint100_linear_207_142" x1="643.969" y1="1780.53" x2="911.605" y2="1780.53" gradientUnits="userSpaceOnUse">
<stop stop-color="#FF1CF7"/>
<stop offset="1" stop-color="#885EFE"/>
</linearGradient>
<clipPath id="clip0_207_142">
<rect width="1920" height="2125" fill="white"/>
</clipPath>
</defs>
</svg>
