<svg width="1920" height="1854" viewBox="0 0 1920 1854" fill="none" xmlns="http://www.w3.org/2000/svg">
<g clip-path="url(#clip0_207_142)">
<rect width="1920" height="1854" fill="white"/>
<rect width="1920" height="1872" fill="#0C0C0C"/>
<g filter="url(#filter0_f_207_142)">
<circle cx="146" cy="711" r="403" fill="url(#paint0_linear_207_142)"/>
</g>
<g filter="url(#filter1_f_207_142)">
<circle cx="1834" cy="264" r="342" fill="url(#paint1_linear_207_142)"/>
</g>
<g filter="url(#filter2_f_207_142)">
<path opacity="0.010101" d="M941.877 1195.39L804.301 1454.13C800.131 1461.97 801.485 1471.61 807.655 1478L1011.22 1688.79C1017.39 1695.18 1026.97 1696.87 1034.95 1692.98L1298.34 1564.52C1306.32 1560.62 1310.89 1552.03 1309.65 1543.24L1268.87 1253.05C1267.63 1244.25 1260.88 1237.25 1252.13 1235.71L963.537 1184.82C954.791 1183.28 946.046 1187.55 941.877 1195.39Z" stroke="url(#paint2_linear_207_142)"/>
<path opacity="0.020202" d="M943.186 1194.65L801.4 1450.44C797.094 1458.21 798.28 1467.87 804.337 1474.36L1003.79 1688.25C1009.85 1694.75 1019.4 1696.6 1027.45 1692.85L1292.5 1569.25C1300.55 1565.5 1305.27 1556.99 1304.19 1548.17L1268.55 1257.9C1267.46 1249.08 1260.83 1241.97 1252.11 1240.27L965.027 1184.47C956.309 1182.77 947.491 1186.89 943.186 1194.65Z" stroke="url(#paint3_linear_207_142)"/>
<path opacity="0.030303" d="M944.516 1194L798.582 1446.76C794.141 1454.45 795.158 1464.13 801.101 1470.73L996.399 1687.63C1002.34 1694.23 1011.86 1696.25 1019.97 1692.64L1286.61 1573.93C1294.72 1570.32 1299.59 1561.89 1298.66 1553.06L1268.15 1262.79C1267.22 1253.96 1260.71 1246.72 1252.02 1244.88L966.532 1184.2C957.845 1182.35 948.957 1186.31 944.516 1194Z" stroke="url(#paint4_linear_207_142)"/>
<path opacity="0.040404" d="M945.867 1193.42L795.846 1443.1C791.272 1450.71 792.12 1460.4 797.946 1467.11L989.044 1686.94C994.871 1693.64 1004.35 1695.83 1012.53 1692.36L1280.65 1578.55C1288.83 1575.08 1293.84 1566.74 1293.06 1557.89L1267.68 1267.72C1266.9 1258.87 1260.52 1251.53 1251.87 1249.53L968.05 1184.01C959.397 1182.01 950.441 1185.81 945.867 1193.42Z" stroke="url(#paint5_linear_207_142)"/>
<path opacity="0.050505" d="M947.237 1192.93L793.193 1439.45C788.486 1446.98 789.165 1456.69 794.874 1463.49L981.728 1686.17C987.436 1692.98 996.877 1695.33 1005.11 1692L1274.64 1583.11C1282.87 1579.78 1288.03 1571.53 1287.41 1562.67L1267.13 1272.68C1266.51 1263.83 1260.26 1256.37 1251.64 1254.22L969.581 1183.9C960.964 1181.75 951.943 1185.39 947.237 1192.93Z" stroke="url(#paint6_linear_207_142)"/>
<path opacity="0.0606061" d="M948.623 1192.51L790.62 1435.81C785.783 1443.26 786.293 1452.98 791.882 1459.88L974.451 1685.33C980.04 1692.23 989.438 1694.75 997.729 1691.57L1268.57 1587.61C1276.86 1584.42 1282.16 1576.26 1281.69 1567.39L1266.51 1277.69C1266.04 1268.82 1259.92 1261.26 1251.34 1258.96L971.122 1183.87C962.543 1181.57 953.46 1185.06 948.623 1192.51Z" stroke="url(#paint7_linear_207_142)"/>
<path opacity="0.0707071" d="M950.027 1192.17L788.13 1432.19C783.164 1439.56 783.503 1449.28 788.971 1456.28L967.216 1684.42C972.684 1691.42 982.036 1694.1 990.382 1691.06L1262.44 1592.04C1270.79 1589 1276.23 1580.94 1275.92 1572.06L1265.81 1282.72C1265.5 1273.85 1259.51 1266.18 1250.97 1263.73L972.672 1183.93C964.135 1181.48 954.993 1184.81 950.027 1192.17Z" stroke="url(#paint8_linear_207_142)"/>
<path opacity="0.0808081" d="M951.443 1191.92L785.72 1428.59C780.626 1435.87 780.795 1445.6 786.14 1452.69L960.023 1683.44C965.368 1690.53 974.672 1693.38 983.069 1690.48L1256.26 1596.42C1264.66 1593.53 1270.24 1585.56 1270.08 1576.68L1265.04 1287.79C1264.88 1278.91 1259.03 1271.14 1250.53 1268.54L974.229 1184.07C965.736 1181.47 956.537 1184.64 951.443 1191.92Z" stroke="url(#paint9_linear_207_142)"/>
<path opacity="0.0909091" d="M952.874 1191.74L783.39 1425.01C778.17 1432.2 778.17 1441.93 783.39 1449.11L952.874 1682.39C958.094 1689.57 967.347 1692.58 975.793 1689.83L1250.02 1600.73C1258.47 1597.99 1264.19 1590.11 1264.19 1581.23V1292.89C1264.19 1284.01 1258.47 1276.14 1250.02 1273.39L975.793 1184.29C967.347 1181.55 958.094 1184.55 952.874 1191.74Z" stroke="url(#paint10_linear_207_142)"/>
<path opacity="0.10101" d="M954.315 1191.64L781.14 1421.45C775.795 1428.54 775.626 1438.27 780.72 1445.55L945.769 1681.26C950.863 1688.54 960.062 1691.7 968.555 1689.11L1243.74 1604.98C1252.23 1602.38 1258.08 1594.61 1258.24 1585.73L1263.26 1298.02C1263.42 1289.14 1257.84 1281.17 1249.44 1278.28L977.361 1184.6C968.964 1181.7 959.66 1184.55 954.315 1191.64Z" stroke="url(#paint11_linear_207_142)"/>
<path opacity="0.111111" d="M955.767 1191.63L778.97 1417.92C773.502 1424.91 773.163 1434.64 778.129 1442L938.71 1680.07C943.677 1687.44 952.819 1690.76 961.356 1688.31L1237.4 1609.16C1245.94 1606.71 1251.93 1599.05 1252.24 1590.17L1262.26 1303.18C1262.57 1294.3 1257.13 1286.24 1248.78 1283.2L978.933 1184.98C970.587 1181.95 961.235 1184.63 955.767 1191.63Z" stroke="url(#paint12_linear_207_142)"/>
<path opacity="0.121212" d="M957.228 1191.69L776.878 1414.4C771.288 1421.3 770.779 1431.02 775.616 1438.47L931.698 1678.81C936.535 1686.26 945.618 1689.75 954.197 1687.45L1231.01 1613.28C1239.59 1610.98 1245.71 1603.42 1246.18 1594.55L1261.18 1308.36C1261.64 1299.49 1256.34 1291.33 1248.05 1288.15L980.506 1185.45C972.214 1182.27 962.817 1184.79 957.228 1191.69Z" stroke="url(#paint13_linear_207_142)"/>
<path opacity="0.131313" d="M958.695 1191.83L774.864 1410.91C769.155 1417.72 768.477 1427.42 773.183 1434.96L924.735 1677.49C929.441 1685.02 938.462 1688.67 947.079 1686.52L1224.58 1617.33C1233.19 1615.18 1239.45 1607.73 1240.07 1598.87L1260.02 1313.57C1260.64 1304.71 1255.48 1296.46 1247.25 1293.14L982.079 1186C973.844 1182.68 964.404 1185.03 958.695 1191.83Z" stroke="url(#paint14_linear_207_142)"/>
<path opacity="0.141414" d="M960.169 1192.06L772.927 1407.45C767.101 1414.16 766.253 1423.85 770.827 1431.46L917.821 1676.1C922.395 1683.71 931.351 1687.51 940.004 1685.52L1218.09 1621.31C1226.75 1619.32 1233.13 1611.97 1233.9 1603.13L1258.78 1318.81C1259.55 1309.96 1254.54 1301.62 1246.37 1298.15L983.65 1186.64C975.475 1183.17 965.995 1185.35 960.169 1192.06Z" stroke="url(#paint15_linear_207_142)"/>
<path opacity="0.151515" d="M961.647 1192.36L771.068 1404.02C765.126 1410.62 764.109 1420.3 768.549 1427.99L910.957 1674.64C915.398 1682.34 924.286 1686.29 932.973 1684.45L1211.56 1625.23C1220.25 1623.38 1226.76 1616.15 1227.69 1607.32L1257.46 1324.07C1258.39 1315.23 1253.52 1306.81 1245.41 1303.19L985.22 1187.35C977.106 1183.74 967.59 1185.76 961.647 1192.36Z" stroke="url(#paint16_linear_207_142)"/>
<path opacity="0.161616" d="M963.128 1192.74L769.285 1400.62C763.228 1407.11 762.042 1416.77 766.348 1424.54L904.144 1673.13C908.45 1680.89 917.268 1685.01 925.985 1683.31L1204.99 1629.08C1213.71 1627.38 1220.34 1620.27 1221.43 1611.45L1256.07 1329.34C1257.15 1320.53 1252.43 1312.02 1244.38 1308.27L986.784 1188.15C978.735 1184.39 969.185 1186.25 963.128 1192.74Z" stroke="url(#paint17_linear_207_142)"/>
<path opacity="0.171717" d="M964.61 1193.21L767.577 1397.24C761.407 1403.63 760.053 1413.27 764.223 1421.11L897.384 1671.55C901.553 1679.39 910.298 1683.65 919.044 1682.11L1198.37 1632.86C1207.12 1631.31 1213.88 1624.32 1215.12 1615.52L1254.59 1334.64C1255.83 1325.85 1251.26 1317.26 1243.28 1313.36L988.343 1189.02C980.36 1185.13 970.779 1186.82 964.61 1193.21Z" stroke="url(#paint18_linear_207_142)"/>
<path opacity="0.181818" d="M966.092 1193.75L765.944 1393.9C759.664 1400.18 758.142 1409.79 762.174 1417.7L890.677 1669.9C894.709 1677.82 903.378 1682.23 912.15 1680.85L1191.72 1636.57C1200.49 1635.18 1207.37 1628.3 1208.76 1619.53L1253.04 1339.96C1254.43 1331.19 1250.01 1322.52 1242.1 1318.49L989.895 1189.98C981.981 1185.95 972.372 1187.47 966.092 1193.75Z" stroke="url(#paint19_linear_207_142)"/>
<path opacity="0.191919" d="M967.573 1194.38L764.385 1390.59C757.996 1396.76 756.307 1406.34 760.2 1414.33L884.024 1668.2C887.917 1676.19 896.508 1680.75 905.303 1679.52L1185.02 1640.21C1193.81 1638.97 1200.81 1632.21 1202.35 1623.46L1251.4 1345.29C1252.95 1336.55 1248.68 1327.8 1240.84 1323.63L991.437 1191.02C983.596 1186.85 973.961 1188.21 967.573 1194.38Z" stroke="url(#paint20_linear_207_142)"/>
<path opacity="0.20202" d="M969.051 1195.08L762.9 1387.32C756.404 1393.37 754.548 1402.92 758.301 1410.97L877.428 1666.44C881.181 1674.49 889.69 1679.21 898.505 1678.12L1178.28 1643.77C1187.1 1642.69 1194.21 1636.05 1195.91 1627.34L1249.69 1350.64C1251.39 1341.92 1247.27 1333.1 1239.51 1328.8L992.971 1192.14C985.203 1187.83 975.547 1189.02 969.051 1195.08Z" stroke="url(#paint21_linear_207_142)"/>
<path opacity="0.212121" d="M970.525 1195.86L761.487 1384.08C754.887 1390.02 752.864 1399.54 756.476 1407.65L870.887 1664.62C874.499 1672.74 882.925 1677.6 891.757 1676.67L1171.51 1647.27C1180.34 1646.34 1187.57 1639.83 1189.41 1631.14L1247.9 1356C1249.74 1347.31 1245.79 1338.43 1238.1 1333.99L994.493 1193.34C986.801 1188.9 977.125 1189.92 970.525 1195.86Z" stroke="url(#paint22_linear_207_142)"/>
<path opacity="0.222222" d="M971.993 1196.72L760.146 1380.88C753.443 1386.7 751.254 1396.18 754.724 1404.36L864.403 1662.75C867.873 1670.92 876.213 1675.93 885.06 1675.16L1164.69 1650.69C1173.54 1649.92 1180.88 1643.54 1182.88 1634.88L1246.03 1361.38C1248.02 1352.72 1244.22 1343.77 1236.61 1339.19L996.001 1194.62C988.388 1190.05 978.696 1190.89 971.993 1196.72Z" stroke="url(#paint23_linear_207_142)"/>
<path opacity="0.232323" d="M973.455 1197.66L758.876 1377.71C752.072 1383.42 749.719 1392.86 753.046 1401.1L857.978 1660.81C861.305 1669.05 869.556 1674.2 878.415 1673.58L1157.85 1654.04C1166.71 1653.42 1174.16 1647.17 1176.31 1638.55L1244.07 1366.76C1246.22 1358.14 1242.58 1349.12 1235.05 1344.42L997.496 1195.98C989.964 1191.27 980.258 1191.95 973.455 1197.66Z" stroke="url(#paint24_linear_207_142)"/>
<path opacity="0.242424" d="M974.908 1198.68L757.676 1374.59C750.774 1380.18 748.256 1389.58 751.439 1397.87L851.612 1658.83C854.795 1667.12 862.954 1672.42 871.823 1671.95L1150.97 1657.32C1159.83 1656.86 1167.4 1650.74 1169.69 1642.16L1242.04 1372.16C1244.34 1363.58 1240.85 1354.49 1233.4 1349.66L998.975 1197.42C991.526 1192.58 981.81 1193.09 974.908 1198.68Z" stroke="url(#paint25_linear_207_142)"/>
<path opacity="0.252525" d="M976.352 1199.77L756.546 1371.51C749.548 1376.97 746.866 1386.33 749.904 1394.67L845.306 1656.79C848.343 1665.13 856.409 1670.57 865.285 1670.26L1144.05 1660.53C1152.93 1660.22 1160.6 1654.23 1163.04 1645.69L1239.93 1377.56C1242.38 1369.02 1239.05 1359.88 1231.69 1354.91L1000.44 1198.93C993.074 1193.97 983.351 1194.31 976.352 1199.77Z" stroke="url(#paint26_linear_207_142)"/>
<path opacity="0.262626" d="M977.784 1200.95L755.484 1368.46C748.391 1373.81 745.546 1383.11 748.438 1391.51L839.06 1654.69C841.951 1663.09 849.921 1668.67 858.801 1668.52L1137.11 1663.66C1145.99 1663.5 1153.76 1657.65 1156.35 1649.16L1237.74 1382.97C1240.33 1374.47 1237.17 1365.28 1229.89 1360.18L1001.88 1200.53C994.604 1195.43 984.877 1195.6 977.784 1200.95Z" stroke="url(#paint27_linear_207_142)"/>
<path opacity="0.272727" d="M979.204 1202.2L754.49 1365.46C747.305 1370.68 744.298 1379.94 747.043 1388.38L832.876 1652.55C835.62 1661 843.491 1666.72 852.373 1666.72L1130.13 1666.72C1139.02 1666.72 1146.89 1661 1149.63 1652.55L1235.46 1388.38C1238.21 1379.94 1235.2 1370.68 1228.02 1365.46L1003.3 1202.2C996.118 1196.98 986.389 1196.98 979.204 1202.2Z" stroke="url(#paint28_linear_207_142)"/>
<path opacity="0.282828" d="M980.61 1203.53L753.562 1362.51C746.287 1367.6 743.12 1376.8 745.717 1385.29L826.754 1650.36C829.351 1658.85 837.121 1664.71 846.001 1664.86L1123.13 1669.7C1132.01 1669.85 1139.98 1664.27 1142.87 1655.87L1233.11 1393.8C1236 1385.4 1233.16 1376.1 1226.07 1370.75L1004.71 1203.95C997.613 1198.6 987.885 1198.43 980.61 1203.53Z" stroke="url(#paint29_linear_207_142)"/>
<path opacity="0.292929" d="M982.002 1204.93L752.701 1359.6C745.338 1364.56 742.011 1373.71 744.459 1382.24L820.696 1648.12C823.144 1656.65 830.811 1662.64 839.687 1662.95L1116.1 1672.61C1124.98 1672.91 1133.05 1667.47 1136.08 1659.13L1230.68 1399.22C1233.72 1390.88 1231.04 1381.52 1224.04 1376.06L1006.09 1205.77C999.088 1200.31 989.365 1199.97 982.002 1204.93Z" stroke="url(#paint30_linear_207_142)"/>
<path opacity="0.30303" d="M983.376 1206.41L751.904 1356.73C744.456 1361.57 740.969 1370.65 743.268 1379.23L814.701 1645.83C817 1654.4 824.561 1660.53 833.43 1660.99L1109.05 1675.44C1117.92 1675.9 1126.08 1670.6 1129.26 1662.31L1228.17 1404.64C1231.35 1396.35 1228.84 1386.95 1221.93 1381.37L1007.44 1207.67C1000.54 1202.08 990.824 1201.58 983.376 1206.41Z" stroke="url(#paint31_linear_207_142)"/>
<path opacity="0.313131" d="M984.733 1207.97L751.171 1353.92C743.639 1358.62 739.995 1367.64 742.143 1376.26L808.771 1643.49C810.92 1652.11 818.373 1658.36 827.232 1658.98L1101.97 1678.19C1110.83 1678.81 1119.08 1673.66 1122.41 1665.42L1225.58 1410.06C1228.91 1401.83 1226.55 1392.39 1219.75 1386.68L1008.77 1209.65C1001.97 1203.94 992.264 1203.26 984.733 1207.97Z" stroke="url(#paint32_linear_207_142)"/>
<path opacity="0.323232" d="M986.071 1209.6L750.501 1351.15C742.889 1355.72 739.087 1364.68 741.085 1373.33L802.907 1641.11C804.904 1649.76 812.247 1656.14 821.095 1656.92L1094.87 1680.87C1103.72 1681.65 1112.06 1676.63 1115.53 1668.46L1222.91 1415.48C1226.38 1407.31 1224.19 1397.83 1217.49 1392L1010.08 1211.7C1003.38 1205.87 993.683 1205.03 986.071 1209.6Z" stroke="url(#paint33_linear_207_142)"/>
<path opacity="0.333333" d="M987.388 1211.31L749.893 1348.43C742.202 1352.87 738.245 1361.75 740.091 1370.44L797.108 1638.68C798.954 1647.37 806.185 1653.88 815.017 1654.81L1087.75 1683.48C1096.58 1684.4 1105.01 1679.54 1108.62 1671.43L1220.16 1420.9C1223.77 1412.79 1221.75 1403.27 1215.15 1397.33L1011.36 1213.83C1004.76 1207.88 995.079 1206.87 987.388 1211.31Z" stroke="url(#paint34_linear_207_142)"/>
<path opacity="0.343434" d="M988.684 1213.09L749.346 1345.76C741.578 1350.06 737.467 1358.88 739.161 1367.6L791.376 1636.22C793.07 1644.93 800.186 1651.57 809.001 1652.65L1080.61 1686C1089.42 1687.08 1097.93 1682.37 1101.69 1674.32L1217.33 1426.31C1221.09 1418.26 1219.23 1408.71 1212.74 1402.65L1012.6 1216.03C1006.11 1209.97 996.451 1208.78 988.684 1213.09Z" stroke="url(#paint35_linear_207_142)"/>
<path opacity="0.353535" d="M989.957 1214.94L748.859 1343.14C741.018 1347.31 736.753 1356.05 738.295 1364.8L785.711 1633.71C787.253 1642.46 794.252 1649.21 803.047 1650.45L1073.45 1688.45C1082.24 1689.69 1090.83 1685.12 1094.73 1677.14L1214.43 1431.71C1218.32 1423.73 1216.63 1414.15 1210.24 1407.98L1013.82 1218.3C1007.43 1212.13 997.798 1210.77 989.957 1214.94Z" stroke="url(#paint36_linear_207_142)"/>
<path opacity="0.363636" d="M991.205 1216.87L748.43 1340.57C740.517 1344.6 736.1 1353.27 737.49 1362.04L780.114 1631.16C781.503 1639.93 788.383 1646.81 797.154 1648.2L1066.27 1690.83C1075.04 1692.22 1083.71 1687.8 1087.74 1679.89L1211.44 1437.11C1215.48 1429.2 1213.95 1419.59 1207.67 1413.31L1015.01 1220.64C1008.73 1214.36 999.118 1212.84 991.205 1216.87Z" stroke="url(#paint37_linear_207_142)"/>
<path opacity="0.373737" d="M992.428 1218.87L748.06 1338.06C740.078 1341.95 735.51 1350.54 736.746 1359.34L774.585 1628.58C775.821 1637.37 782.58 1644.37 791.326 1645.91L1059.08 1693.12C1067.83 1694.67 1076.57 1690.4 1080.74 1682.56L1208.38 1442.5C1212.55 1434.66 1211.2 1425.02 1205.03 1418.63L1016.16 1223.06C1009.99 1216.67 1000.41 1214.98 992.428 1218.87Z" stroke="url(#paint38_linear_207_142)"/>
<path opacity="0.383838" d="M993.625 1220.94L747.747 1335.6C739.698 1339.35 734.981 1347.86 736.063 1356.68L769.126 1625.95C770.208 1634.77 776.844 1641.88 785.562 1643.58L1051.87 1695.34C1060.59 1697.04 1069.41 1692.92 1073.72 1685.16L1205.24 1447.88C1209.55 1440.11 1208.36 1430.45 1202.31 1423.96L1017.28 1225.54C1011.22 1219.05 1001.67 1217.19 993.625 1220.94Z" stroke="url(#paint39_linear_207_142)"/>
<path opacity="0.393939" d="M994.793 1223.09L747.488 1333.2C739.375 1336.81 734.51 1345.23 735.439 1354.07L763.735 1623.29C764.664 1632.12 771.174 1639.35 779.861 1641.2L1044.65 1697.48C1053.34 1699.33 1062.23 1695.37 1066.67 1687.68L1202.02 1453.24C1206.46 1445.55 1205.45 1435.87 1199.51 1429.27L1018.37 1228.1C1012.42 1221.5 1002.91 1219.48 994.793 1223.09Z" stroke="url(#paint40_linear_207_142)"/>
<path opacity="0.40404" d="M995.933 1225.3L747.285 1330.85C739.11 1334.32 734.099 1342.66 734.873 1351.5L758.415 1620.6C759.19 1629.44 765.572 1636.79 774.226 1638.78L1037.42 1699.55C1046.08 1701.55 1055.03 1697.74 1059.61 1690.13L1198.73 1458.59C1203.3 1450.98 1202.46 1441.29 1196.63 1434.59L1019.41 1230.72C1013.59 1224.02 1004.11 1221.83 995.933 1225.3Z" stroke="url(#paint41_linear_207_142)"/>
<path opacity="0.414141" d="M997.042 1227.59L747.135 1328.56C738.901 1331.88 733.745 1340.13 734.364 1348.99L753.166 1617.87C753.786 1626.73 760.039 1634.18 768.657 1636.33L1030.18 1701.54C1038.8 1703.69 1047.82 1700.04 1052.53 1692.51L1195.36 1463.93C1200.07 1456.4 1199.39 1446.69 1193.68 1439.89L1020.43 1233.42C1014.72 1226.61 1005.28 1224.26 997.042 1227.59Z" stroke="url(#paint42_linear_207_142)"/>
<path opacity="0.424242" d="M998.12 1229.94L747.037 1326.32C738.746 1329.5 733.447 1337.66 733.912 1346.53L747.988 1615.11C748.452 1623.98 754.575 1631.54 763.154 1633.84L1022.94 1703.45C1031.51 1705.75 1040.6 1702.26 1045.43 1694.81L1191.91 1469.25C1196.75 1461.81 1196.24 1452.09 1190.65 1445.19L1021.4 1236.18C1015.81 1229.28 1006.41 1226.76 998.12 1229.94Z" stroke="url(#paint43_linear_207_142)"/>
<path opacity="0.434343" d="M999.164 1232.36L746.991 1324.15C738.645 1327.18 733.205 1335.25 733.514 1344.13L742.88 1612.32C743.19 1621.2 749.18 1628.86 757.717 1631.31L1015.68 1705.28C1024.22 1707.73 1033.36 1704.4 1038.32 1697.04L1188.39 1474.56C1193.35 1467.2 1193.02 1457.47 1187.55 1450.47L1022.33 1239.01C1016.86 1232.01 1007.51 1229.33 999.164 1232.36Z" stroke="url(#paint44_linear_207_142)"/>
<path opacity="0.444444" d="M1000.18 1234.85L746.994 1322.03C738.597 1324.92 733.017 1332.89 733.172 1341.77L737.845 1609.5C738 1618.38 743.855 1626.15 752.348 1628.75L1008.42 1707.04C1016.91 1709.63 1026.11 1706.46 1031.2 1699.19L1184.79 1479.85C1189.88 1472.57 1189.71 1462.84 1184.37 1455.75L1023.22 1241.9C1017.88 1234.81 1008.57 1231.96 1000.18 1234.85Z" stroke="url(#paint45_linear_207_142)"/>
<path opacity="0.454545" d="M1001.15 1237.41L747.047 1319.97C738.6 1322.72 732.882 1330.59 732.882 1339.47L732.882 1606.65C732.882 1615.53 738.6 1623.41 747.047 1626.15L1001.15 1708.71C1009.6 1711.46 1018.85 1708.45 1024.07 1701.27L1181.12 1485.11C1186.34 1477.93 1186.34 1468.2 1181.12 1461.01L1024.07 1244.86C1018.85 1237.67 1009.6 1234.67 1001.15 1237.41Z" stroke="url(#paint46_linear_207_142)"/>
<path opacity="0.464646" d="M1002.09 1240.03L747.147 1317.98C738.654 1320.58 732.798 1328.35 732.643 1337.23L727.991 1603.78C727.836 1612.66 733.416 1620.63 741.813 1623.52L993.883 1710.32C1002.28 1713.21 1011.58 1710.36 1016.93 1703.27L1177.37 1490.36C1182.71 1483.26 1182.88 1473.54 1177.79 1466.26L1024.88 1247.88C1019.78 1240.61 1010.59 1237.44 1002.09 1240.03Z" stroke="url(#paint47_linear_207_142)"/>
<path opacity="0.474747" d="M1003 1242.72L747.293 1316.05C738.756 1318.49 732.766 1326.16 732.456 1335.04L723.173 1600.88C722.863 1609.76 728.303 1617.82 736.649 1620.86L986.613 1711.84C994.959 1714.88 1004.31 1712.19 1009.78 1705.2L1173.55 1495.58C1179.02 1488.58 1179.36 1478.86 1174.39 1471.5L1025.64 1250.97C1020.67 1243.6 1011.53 1240.28 1003 1242.72Z" stroke="url(#paint48_linear_207_142)"/>
<path opacity="0.484848" d="M1003.86 1245.48L747.485 1314.17C738.907 1316.47 732.784 1324.03 732.319 1332.9L718.428 1597.96C717.963 1606.83 723.262 1614.99 731.553 1618.17L979.343 1713.29C987.634 1716.47 997.032 1713.95 1002.62 1707.05L1169.65 1500.78C1175.24 1493.88 1175.75 1484.16 1170.92 1476.71L1026.36 1254.11C1021.52 1246.67 1012.44 1243.18 1003.86 1245.48Z" stroke="url(#paint49_linear_207_142)"/>
<path opacity="0.494949" d="M1004.69 1248.3L747.721 1312.36C739.104 1314.51 732.85 1321.97 732.23 1330.82L713.757 1595.01C713.137 1603.87 718.293 1612.12 726.527 1615.45L972.074 1714.66C980.309 1717.98 989.749 1715.63 995.458 1708.83L1165.69 1505.95C1171.4 1499.15 1172.08 1489.44 1167.37 1481.91L1027.03 1257.32C1022.32 1249.79 1013.3 1246.15 1004.69 1248.3Z" stroke="url(#paint50_linear_207_142)"/>
<path opacity="0.50505" d="M1005.47 1251.18L748 1310.62C739.346 1312.62 732.963 1319.96 732.189 1328.81L709.159 1592.04C708.385 1600.89 713.396 1609.23 721.571 1612.7L964.808 1715.95C972.983 1719.42 982.463 1717.23 988.29 1710.53L1161.65 1511.1C1167.48 1504.4 1168.32 1494.71 1163.75 1487.09L1027.65 1260.59C1023.08 1252.98 1014.12 1249.18 1005.47 1251.18Z" stroke="url(#paint51_linear_207_142)"/>
<path opacity="0.515152" d="M1006.21 1254.12L748.32 1308.94C739.633 1310.78 733.123 1318.02 732.195 1326.85L704.635 1589.06C703.707 1597.89 708.571 1606.32 716.685 1609.93L957.546 1717.17C965.659 1720.78 975.176 1718.76 981.118 1712.16L1157.54 1516.22C1163.48 1509.62 1164.5 1499.95 1160.06 1492.26L1028.23 1263.92C1023.79 1256.23 1014.9 1252.27 1006.21 1254.12Z" stroke="url(#paint52_linear_207_142)"/>
<path opacity="0.525253" d="M1006.91 1257.13L748.681 1307.32C739.963 1309.02 733.327 1316.13 732.245 1324.95L700.185 1586.05C699.103 1594.87 703.82 1603.38 711.869 1607.13L950.289 1718.31C958.338 1722.06 967.888 1720.21 973.945 1713.71L1153.36 1521.31C1159.41 1514.82 1160.6 1505.16 1156.29 1497.39L1028.76 1267.31C1024.45 1259.54 1015.63 1255.43 1006.91 1257.13Z" stroke="url(#paint53_linear_207_142)"/>
<path opacity="0.535354" d="M1007.57 1260.19L749.081 1305.77C740.334 1307.31 733.576 1314.31 732.34 1323.11L695.81 1583.03C694.574 1591.83 699.141 1600.42 707.124 1604.31L943.039 1719.37C951.021 1723.27 960.603 1721.58 966.772 1715.19L1149.11 1526.38C1155.28 1519.99 1156.63 1510.35 1152.46 1502.51L1029.23 1270.76C1025.06 1262.91 1016.32 1258.65 1007.57 1260.19Z" stroke="url(#paint54_linear_207_142)"/>
<path opacity="0.545455" d="M1008.19 1263.32L749.519 1304.29C740.747 1305.68 733.867 1312.55 732.478 1321.33L691.509 1579.99C690.12 1588.77 694.537 1597.44 702.45 1601.47L935.797 1720.36C943.71 1724.4 953.32 1722.87 959.6 1716.59L1144.79 1531.41C1151.07 1525.13 1152.59 1515.52 1148.56 1507.61L1029.66 1274.26C1025.63 1266.34 1016.96 1261.93 1008.19 1263.32Z" stroke="url(#paint55_linear_207_142)"/>
<path opacity="0.555556" d="M1008.75 1266.5L749.993 1302.87C741.198 1304.1 734.2 1310.86 732.657 1319.61L687.282 1576.94C685.74 1585.69 690.005 1594.43 697.847 1598.6L928.565 1721.28C936.406 1725.45 946.041 1724.09 952.429 1717.92L1140.4 1536.41C1146.78 1530.24 1148.47 1520.66 1144.58 1512.67L1030.03 1277.81C1026.14 1269.83 1017.55 1265.26 1008.75 1266.5Z" stroke="url(#paint56_linear_207_142)"/>
<path opacity="0.565657" d="M1009.28 1269.74L750.503 1301.52C741.688 1302.6 734.572 1309.23 732.878 1317.95L683.131 1573.88C681.436 1582.6 685.548 1591.41 693.315 1595.72L921.343 1722.12C929.111 1726.42 938.767 1725.24 945.263 1719.18L1135.94 1541.37C1142.43 1535.32 1144.29 1525.76 1140.54 1517.72L1030.35 1281.43C1026.6 1273.38 1018.09 1268.66 1009.28 1269.74Z" stroke="url(#paint57_linear_207_142)"/>
<path opacity="0.575758" d="M1009.75 1273.04L751.047 1300.23C742.214 1301.16 734.984 1307.67 733.137 1316.36L679.054 1570.8C677.207 1579.49 681.164 1588.38 688.856 1592.82L914.134 1722.88C921.825 1727.32 931.501 1726.31 938.101 1720.36L1131.41 1546.3C1138.01 1540.36 1140.04 1530.84 1136.42 1522.73L1030.62 1285.09C1027.01 1276.98 1018.58 1272.11 1009.75 1273.04Z" stroke="url(#paint58_linear_207_142)"/>
<path opacity="0.585859" d="M1010.18 1276.4L751.623 1299.02C742.776 1299.79 735.433 1306.17 733.435 1314.83L675.051 1567.72C673.054 1576.37 676.855 1585.32 684.468 1589.9L906.938 1723.57C914.55 1728.15 924.243 1727.3 930.945 1721.47L1126.82 1551.2C1133.53 1545.37 1135.71 1535.89 1132.24 1527.72L1030.83 1288.81C1027.36 1280.63 1019.02 1275.62 1010.18 1276.4Z" stroke="url(#paint59_linear_207_142)"/>
<path opacity="0.59596" d="M1010.55 1279.8L752.231 1297.87C743.372 1298.49 735.919 1304.74 733.77 1313.36L671.124 1564.62C668.975 1573.24 672.62 1582.26 680.152 1586.96L899.756 1724.19C907.288 1728.9 916.993 1728.22 923.797 1722.51L1122.17 1556.06C1128.97 1550.35 1131.32 1540.91 1128 1532.67L1030.99 1292.58C1027.66 1284.34 1019.41 1279.19 1010.55 1279.8Z" stroke="url(#paint60_linear_207_142)"/>
<path opacity="0.606061" d="M1010.88 1283.27L752.87 1296.79C744.001 1297.25 736.44 1303.38 734.141 1311.96L667.272 1561.52C664.973 1570.1 668.46 1579.18 675.908 1584.02L892.591 1724.73C900.04 1729.57 909.756 1729.06 916.657 1723.47L1117.45 1560.88C1124.35 1555.29 1126.87 1545.89 1123.68 1537.6L1031.09 1296.39C1027.91 1288.1 1019.75 1282.8 1010.88 1283.27Z" stroke="url(#paint61_linear_207_142)"/>
<path opacity="0.616162" d="M1011.16 1286.78L753.537 1295.78C744.661 1296.09 736.995 1302.08 734.547 1310.62L663.493 1558.41C661.045 1566.95 664.373 1576.09 671.736 1581.05L885.443 1725.2C892.806 1730.17 902.529 1729.83 909.528 1724.36L1112.66 1565.66C1119.66 1560.19 1122.34 1550.84 1119.3 1542.49L1031.14 1300.26C1028.1 1291.91 1020.03 1286.47 1011.16 1286.78Z" stroke="url(#paint62_linear_207_142)"/>
<path opacity="0.626263" d="M1011.38 1290.35L754.232 1294.84C745.352 1295 737.582 1300.85 734.985 1309.34L659.79 1555.3C657.194 1563.79 660.361 1572.99 667.636 1578.08L878.314 1725.6C885.589 1730.69 895.317 1730.52 902.409 1725.18L1107.81 1570.4C1114.9 1565.05 1117.75 1555.75 1114.86 1547.35L1031.12 1304.17C1028.23 1295.78 1020.26 1290.2 1011.38 1290.35Z" stroke="url(#paint63_linear_207_142)"/>
<path opacity="0.636364" d="M1011.56 1293.97L754.953 1293.97C746.072 1293.97 738.201 1299.69 735.456 1308.14L656.162 1552.18C653.418 1560.63 656.424 1569.88 663.609 1575.1L871.204 1725.93C878.389 1731.15 888.119 1731.15 895.304 1725.93L1102.9 1575.1C1110.08 1569.88 1113.09 1560.63 1110.35 1552.18L1031.05 1308.14C1028.31 1299.69 1020.44 1293.97 1011.56 1293.97Z" stroke="url(#paint64_linear_207_142)"/>
<path opacity="0.646465" d="M1011.67 1297.64L755.699 1293.17C746.819 1293.02 738.849 1298.6 735.958 1306.99L652.608 1549.06C649.716 1557.46 652.561 1566.76 659.654 1572.11L864.116 1726.18C871.209 1731.52 880.936 1731.69 888.211 1726.6L1097.93 1579.76C1105.2 1574.66 1108.37 1565.46 1105.77 1556.97L1030.92 1312.14C1028.32 1303.65 1020.55 1297.79 1011.67 1297.64Z" stroke="url(#paint65_linear_207_142)"/>
<path opacity="0.656566" d="M1011.74 1301.36L756.468 1292.44C747.593 1292.13 739.527 1297.57 736.489 1305.92L649.128 1545.94C646.091 1554.29 648.772 1563.64 655.771 1569.11L857.05 1726.36C864.048 1731.83 873.771 1732.17 881.134 1727.2L1092.89 1584.37C1100.25 1579.41 1103.58 1570.26 1101.13 1561.73L1030.73 1316.19C1028.28 1307.66 1020.61 1301.67 1011.74 1301.36Z" stroke="url(#paint66_linear_207_142)"/>
<path opacity="0.666667" d="M1011.75 1305.12L757.261 1291.78C748.392 1291.32 740.232 1296.62 737.049 1304.91L645.723 1542.82C642.541 1551.11 645.059 1560.51 651.961 1566.1L850.007 1726.47C856.909 1732.06 866.625 1732.57 874.074 1727.74L1087.8 1588.94C1095.25 1584.1 1098.73 1575.02 1096.44 1566.44L1030.48 1320.29C1028.18 1311.71 1020.62 1305.59 1011.75 1305.12Z" stroke="url(#paint67_linear_207_142)"/>
<path opacity="0.676768" d="M1011.7 1308.93L758.073 1291.2C749.214 1290.58 740.963 1295.73 737.636 1303.97L642.392 1539.71C639.065 1547.94 641.419 1557.38 648.222 1563.09L842.99 1726.52C849.793 1732.23 859.499 1732.91 867.03 1728.2L1082.65 1593.47C1090.18 1588.76 1093.82 1579.74 1091.67 1571.12L1030.17 1324.42C1028.02 1315.81 1020.56 1309.55 1011.7 1308.93Z" stroke="url(#paint68_linear_207_142)"/>
<path opacity="0.686869" d="M1011.6 1312.79L758.906 1290.68C750.059 1289.91 741.719 1294.92 738.249 1303.09L639.135 1536.59C635.665 1544.77 637.854 1554.25 644.556 1560.07L835.998 1726.49C842.701 1732.32 852.393 1733.17 860.006 1728.59L1077.44 1597.95C1085.05 1593.37 1088.85 1584.42 1086.85 1575.76L1029.79 1328.6C1027.79 1319.95 1020.45 1313.56 1011.6 1312.79Z" stroke="url(#paint69_linear_207_142)"/>
<path opacity="0.69697" d="M1011.45 1316.69L759.757 1290.24C750.925 1289.31 742.499 1294.17 738.887 1302.29L635.952 1533.48C632.34 1541.6 634.362 1551.11 640.962 1557.05L829.034 1726.4C835.634 1732.34 845.31 1733.35 853.001 1728.91L1072.17 1602.38C1079.86 1597.94 1083.82 1589.05 1081.97 1580.36L1029.36 1332.82C1027.51 1324.13 1020.28 1317.62 1011.45 1316.69Z" stroke="url(#paint70_linear_207_142)"/>
<path opacity="0.707071" d="M1011.23 1320.64L760.625 1289.87C751.81 1288.78 743.301 1293.5 739.548 1301.55L632.842 1530.38C629.089 1538.43 630.945 1547.98 637.44 1554.04L822.098 1726.23C828.593 1732.29 838.25 1733.48 846.017 1729.17L1066.85 1606.76C1074.62 1602.46 1078.73 1593.64 1077.03 1584.92L1028.86 1337.07C1027.16 1328.35 1020.05 1321.72 1011.23 1320.64Z" stroke="url(#paint71_linear_207_142)"/>
<path opacity="0.717172" d="M1010.96 1324.62L761.509 1289.56C752.714 1288.33 744.124 1292.9 740.231 1300.88L629.805 1527.28C625.912 1535.27 627.601 1544.85 633.99 1551.02L815.191 1726C821.58 1732.17 831.214 1733.52 839.056 1729.36L1061.47 1611.1C1069.31 1606.93 1073.58 1598.18 1072.03 1589.44L1028.29 1341.36C1026.75 1332.62 1019.75 1325.86 1010.96 1324.62Z" stroke="url(#paint72_linear_207_142)"/>
<path opacity="0.727273" d="M1010.62 1328.65L762.407 1289.34C753.635 1287.95 744.966 1292.36 740.934 1300.28L626.841 1524.2C622.809 1532.11 624.331 1541.72 630.611 1548L808.315 1725.7C814.595 1731.98 824.205 1733.51 832.118 1729.47L1056.04 1615.38C1063.95 1611.35 1068.37 1602.68 1066.98 1593.91L1027.67 1345.69C1026.28 1336.92 1019.4 1330.04 1010.62 1328.65Z" stroke="url(#paint73_linear_207_142)"/>
<path opacity="0.737374" d="M1010.23 1332.72L763.319 1289.18C754.572 1287.64 745.828 1291.9 741.658 1299.74L623.951 1521.12C619.781 1528.96 621.135 1538.6 627.305 1544.98L801.472 1725.34C807.642 1731.73 817.223 1733.42 825.205 1729.53L1050.55 1619.62C1058.54 1615.72 1063.1 1607.13 1061.87 1598.34L1026.97 1350.05C1025.74 1341.26 1018.98 1334.26 1010.23 1332.72Z" stroke="url(#paint74_linear_207_142)"/>
<path opacity="0.747475" d="M1009.78 1336.82L764.241 1289.1C755.523 1287.4 746.706 1291.51 742.4 1299.28L621.131 1518.05C616.826 1525.82 618.011 1535.48 624.068 1541.97L794.661 1724.91C800.718 1731.41 810.268 1733.26 818.317 1729.51L1045.02 1623.8C1053.07 1620.05 1057.78 1611.54 1056.7 1602.72L1026.22 1354.45C1025.14 1345.63 1018.5 1338.52 1009.78 1336.82Z" stroke="url(#paint75_linear_207_142)"/>
<path opacity="0.757576" d="M1009.27 1340.97L765.174 1289.08C756.487 1287.24 747.599 1291.19 743.159 1298.89L618.384 1515C613.944 1522.69 614.961 1532.37 620.903 1538.97L787.884 1724.42C793.827 1731.02 803.343 1733.04 811.456 1729.43L1039.43 1627.93C1047.54 1624.32 1052.41 1615.89 1051.48 1607.06L1025.4 1358.88C1024.47 1350.04 1017.96 1342.81 1009.27 1340.97Z" stroke="url(#paint76_linear_207_142)"/>
<path opacity="0.767677" d="M1008.7 1345.15L766.117 1289.14C757.463 1287.15 748.507 1290.95 743.933 1298.56L615.709 1511.96C611.135 1519.57 611.983 1529.27 617.809 1535.97L781.142 1723.86C786.969 1730.56 796.449 1732.75 804.624 1729.28L1033.79 1632.01C1041.97 1628.54 1046.98 1620.2 1046.21 1611.35L1024.51 1363.34C1023.73 1354.49 1017.35 1347.15 1008.7 1345.15Z" stroke="url(#paint77_linear_207_142)"/>
<path opacity="0.777778" d="M1008.06 1349.36L767.067 1289.28C758.449 1287.13 749.429 1290.77 744.722 1298.3L613.105 1508.94C608.399 1516.47 609.077 1526.17 614.786 1532.98L774.437 1723.24C780.146 1730.05 789.586 1732.4 797.82 1729.07L1028.11 1636.03C1036.34 1632.7 1041.5 1624.45 1040.88 1615.59L1023.55 1367.82C1022.93 1358.97 1016.68 1351.51 1008.06 1349.36Z" stroke="url(#paint78_linear_207_142)"/>
<path opacity="0.787879" d="M1007.37 1353.61L768.023 1289.48C759.445 1287.18 750.362 1290.67 745.525 1298.12L610.571 1505.93C605.734 1513.38 606.244 1523.09 611.833 1530L767.769 1722.56C773.358 1729.46 782.756 1731.98 791.047 1728.8L1022.37 1640C1030.67 1636.82 1035.96 1628.66 1035.5 1619.79L1022.53 1372.34C1022.07 1363.47 1015.94 1355.91 1007.37 1353.61Z" stroke="url(#paint79_linear_207_142)"/>
<path opacity="0.79798" d="M1006.61 1357.9L768.985 1289.76C760.448 1287.31 751.305 1290.64 746.339 1298L608.108 1502.94C603.142 1510.3 603.481 1520.02 608.949 1527.02L761.139 1721.82C766.607 1728.81 775.959 1731.5 784.305 1728.46L1016.59 1643.91C1024.94 1640.87 1030.38 1632.81 1030.07 1623.93L1021.44 1376.89C1021.13 1368.01 1015.14 1360.34 1006.61 1357.9Z" stroke="url(#paint80_linear_207_142)"/>
<path opacity="0.808081" d="M1005.78 1362.21L769.95 1290.11C761.457 1287.51 752.258 1290.68 747.164 1297.95L605.715 1499.97C600.621 1507.24 600.79 1516.97 606.135 1524.06L754.549 1721.01C759.893 1728.1 769.197 1730.95 777.595 1728.06L1010.77 1647.77C1019.17 1644.88 1024.75 1636.91 1024.59 1628.03L1020.29 1381.46C1020.13 1372.58 1014.28 1364.81 1005.78 1362.21Z" stroke="url(#paint81_linear_207_142)"/>
<path opacity="0.818182" d="M1004.9 1366.55L770.918 1290.53C762.471 1287.79 753.218 1290.79 747.998 1297.98L603.39 1497.01C598.17 1504.2 598.17 1513.93 603.39 1521.11L747.998 1720.15C753.218 1727.33 762.471 1730.34 770.918 1727.59L1004.9 1651.57C1013.34 1648.83 1019.06 1640.95 1019.06 1632.07L1019.06 1386.05C1019.06 1377.17 1013.35 1369.3 1004.9 1366.55Z" stroke="url(#paint82_linear_207_142)"/>
<path opacity="0.828283" d="M1003.95 1370.93L771.887 1291.02C763.489 1288.13 754.185 1290.98 748.84 1298.07L601.135 1494.08C595.79 1501.17 595.62 1510.9 600.714 1518.18L741.489 1719.22C746.583 1726.5 755.782 1729.67 764.275 1727.07L998.985 1655.31C1007.48 1652.72 1013.33 1644.95 1013.49 1636.07L1017.77 1390.67C1017.93 1381.79 1012.35 1373.82 1003.95 1370.93Z" stroke="url(#paint83_linear_207_142)"/>
<path opacity="0.838384" d="M1002.94 1375.33L772.856 1291.59C764.511 1288.55 755.158 1291.23 749.691 1298.23L598.948 1491.17C593.48 1498.17 593.141 1507.89 598.107 1515.26L735.023 1718.24C739.99 1725.61 749.132 1728.93 757.669 1726.49L993.031 1659C1001.57 1656.55 1007.56 1648.88 1007.87 1640.01L1016.41 1395.31C1016.72 1386.43 1011.28 1378.37 1002.94 1375.33Z" stroke="url(#paint84_linear_207_142)"/>
<path opacity="0.848485" d="M1001.86 1379.76L773.823 1292.22C765.532 1289.04 756.134 1291.56 750.545 1298.46L596.828 1488.29C591.239 1495.19 590.73 1504.9 595.567 1512.35L728.6 1717.21C733.437 1724.65 742.52 1728.14 751.098 1725.84L987.034 1662.62C995.612 1660.32 1001.74 1652.76 1002.2 1643.89L1014.98 1399.97C1015.45 1391.1 1010.15 1382.94 1001.86 1379.76Z" stroke="url(#paint85_linear_207_142)"/>
<path opacity="0.858586" d="M1000.72 1384.21L774.788 1292.93C766.554 1289.61 757.114 1291.96 751.405 1298.76L594.776 1485.43C589.068 1492.23 588.389 1501.93 593.095 1509.47L722.221 1716.11C726.927 1723.64 735.948 1727.29 744.565 1725.14L980.998 1666.19C989.615 1664.04 995.869 1656.59 996.489 1647.73L1013.49 1404.65C1014.11 1395.79 1008.95 1387.54 1000.72 1384.21Z" stroke="url(#paint86_linear_207_142)"/>
<path opacity="0.868687" d="M999.508 1388.69L775.749 1293.71C767.573 1290.24 758.094 1292.43 752.267 1299.13L592.79 1482.59C586.964 1489.29 586.116 1498.98 590.69 1506.6L715.887 1714.96C720.461 1722.57 729.417 1726.37 738.07 1724.38L974.923 1669.69C983.576 1667.7 989.959 1660.35 990.733 1651.51L1011.92 1409.35C1012.69 1400.5 1007.68 1392.16 999.508 1388.69Z" stroke="url(#paint87_linear_207_142)"/>
<path opacity="0.878788" d="M998.235 1393.19L776.704 1294.56C768.591 1290.95 759.075 1292.97 753.132 1299.57L590.871 1479.78C584.928 1486.38 583.911 1496.06 588.352 1503.75L709.6 1713.76C714.04 1721.45 722.928 1725.41 731.615 1723.56L968.811 1673.14C977.498 1671.29 984.008 1664.06 984.937 1655.23L1010.28 1414.07C1011.21 1405.23 1006.35 1396.81 998.235 1393.19Z" stroke="url(#paint88_linear_207_142)"/>
<path opacity="0.888889" d="M996.896 1397.72L777.653 1295.48C769.604 1291.73 760.054 1293.59 753.997 1300.08L589.016 1477C582.959 1483.5 581.774 1493.15 586.079 1500.92L703.358 1712.5C707.664 1720.27 716.482 1724.38 725.2 1722.68L962.662 1676.53C971.38 1674.83 978.016 1667.72 979.098 1658.9L1008.58 1418.8C1009.66 1409.98 1004.94 1401.47 996.896 1397.72Z" stroke="url(#paint89_linear_207_142)"/>
<path opacity="0.89899" d="M995.49 1402.26L778.594 1296.48C770.612 1292.58 761.03 1294.27 754.861 1300.66L587.226 1474.25C581.057 1480.64 579.703 1490.27 583.872 1498.12L697.165 1711.19C701.334 1719.03 710.079 1723.3 718.825 1721.75L956.478 1679.85C965.225 1678.31 971.983 1671.31 973.219 1662.51L1006.8 1423.54C1008.04 1414.75 1003.47 1406.16 995.49 1402.26Z" stroke="url(#paint90_linear_207_142)"/>
<path opacity="0.909091" d="M994.02 1406.83L779.526 1297.54C771.613 1293.51 762.004 1295.03 755.724 1301.31L585.501 1471.53C579.221 1477.81 577.699 1487.42 581.731 1495.33L691.021 1709.83C695.053 1717.74 703.722 1722.16 712.493 1720.77L950.261 1683.11C959.033 1681.72 965.913 1674.84 967.302 1666.07L1004.96 1428.3C1006.35 1419.53 1001.93 1410.86 994.02 1406.83Z" stroke="url(#paint91_linear_207_142)"/>
<path opacity="0.919192" d="M992.482 1411.41L780.448 1298.67C772.606 1294.5 762.972 1295.85 756.583 1302.02L583.838 1468.84C577.45 1475.01 575.76 1484.59 579.653 1492.58L684.926 1708.42C688.819 1716.4 697.409 1720.97 706.204 1719.73L944.011 1686.31C952.806 1685.07 959.804 1678.31 961.346 1669.57L1003.05 1433.07C1004.59 1424.33 1000.32 1415.58 992.482 1411.41Z" stroke="url(#paint92_linear_207_142)"/>
<path opacity="0.929293" d="M990.879 1416.01L781.358 1299.87C773.59 1295.57 763.934 1296.75 757.438 1302.81L582.238 1466.19C575.743 1472.24 573.886 1481.79 577.64 1489.84L678.881 1706.95C682.634 1715 691.143 1719.72 699.958 1718.64L937.729 1689.44C946.544 1688.36 953.659 1681.73 955.354 1673.01L1001.06 1437.85C1002.76 1429.13 998.646 1420.32 990.879 1416.01Z" stroke="url(#paint93_linear_207_142)"/>
<path opacity="0.939394" d="M989.208 1420.63L782.255 1301.14C774.564 1296.7 764.888 1297.72 758.288 1303.66L580.7 1463.56C574.1 1469.51 572.077 1479.02 575.69 1487.14L672.887 1705.44C676.499 1713.56 684.925 1718.42 693.757 1717.49L931.417 1692.51C940.249 1691.59 947.479 1685.08 949.326 1676.39L999.01 1442.64C1000.86 1433.96 996.899 1425.07 989.208 1420.63Z" stroke="url(#paint94_linear_207_142)"/>
<path opacity="0.949495" d="M987.471 1425.26L783.139 1302.48C775.526 1297.91 765.834 1298.76 759.131 1304.58L579.223 1460.98C572.52 1466.8 570.332 1476.28 573.802 1484.46L666.945 1703.89C670.415 1712.06 678.754 1717.07 687.602 1716.3L925.075 1695.52C933.923 1694.75 941.265 1688.37 943.263 1679.71L996.887 1447.44C998.885 1438.79 995.083 1429.83 987.471 1425.26Z" stroke="url(#paint95_linear_207_142)"/>
<path opacity="0.959596" d="M985.667 1429.9L784.007 1303.89C776.475 1299.18 766.77 1299.86 759.967 1305.57L577.807 1458.42C571.003 1464.13 568.65 1473.57 571.977 1481.81L661.055 1702.28C664.382 1710.52 672.633 1715.67 681.493 1715.05L918.706 1698.47C927.566 1697.85 935.019 1691.59 937.167 1682.98L994.695 1452.25C996.843 1443.63 993.198 1434.61 985.667 1429.9Z" stroke="url(#paint96_linear_207_142)"/>
<path opacity="0.969697" d="M983.795 1434.56L784.858 1305.37C777.41 1300.53 767.694 1301.04 760.792 1306.63L576.449 1455.91C569.547 1461.5 567.029 1470.89 570.212 1479.18L655.219 1700.63C658.401 1708.93 666.561 1714.23 675.43 1713.76L912.31 1701.35C921.179 1700.88 928.74 1694.76 931.039 1686.18L992.432 1457.06C994.73 1448.48 991.244 1439.4 983.795 1434.56Z" stroke="url(#paint97_linear_207_142)"/>
<path opacity="0.979798" d="M981.857 1439.22L785.692 1306.91C778.33 1301.94 768.606 1302.28 761.608 1307.75L575.151 1453.43C568.153 1458.9 565.471 1468.25 568.508 1476.59L649.436 1698.94C652.474 1707.29 660.54 1712.73 669.415 1712.42L905.888 1704.16C914.764 1703.85 922.431 1697.86 924.879 1689.32L990.099 1461.87C992.547 1453.33 989.22 1444.19 981.857 1439.22Z" stroke="url(#paint98_linear_207_142)"/>
<path opacity="0.989899" d="M979.852 1443.9L786.508 1308.52C779.233 1303.43 769.505 1303.6 762.412 1308.94L573.911 1450.99C566.818 1456.33 563.974 1465.64 566.865 1474.03L643.709 1697.2C646.6 1705.6 654.57 1711.18 663.45 1711.03L899.443 1706.91C908.323 1706.75 916.093 1700.9 918.69 1692.4L987.698 1466.69C990.295 1458.2 987.127 1449 979.852 1443.9Z" stroke="url(#paint99_linear_207_142)"/>
<path d="M977.78 1448.59L787.303 1310.2C780.119 1304.98 770.389 1304.98 763.204 1310.2L572.728 1448.59C565.543 1453.81 562.537 1463.06 565.281 1471.51L638.036 1695.43C640.781 1703.87 648.652 1709.59 657.533 1709.59H892.975C901.856 1709.59 909.727 1703.87 912.471 1695.43L985.227 1471.51C987.971 1463.06 984.965 1453.81 977.78 1448.59Z" stroke="url(#paint100_linear_207_142)"/>
</g>
</g>
<defs>
<filter id="filter0_f_207_142" x="-757" y="-192" width="1806" height="1806" filterUnits="userSpaceOnUse" color-interpolation-filters="sRGB">
<feFlood flood-opacity="0" result="BackgroundImageFix"/>
<feBlend mode="normal" in="SourceGraphic" in2="BackgroundImageFix" result="shape"/>
<feGaussianBlur stdDeviation="250" result="effect1_foregroundBlur_207_142"/>
</filter>
<filter id="filter1_f_207_142" x="992" y="-578" width="1684" height="1684" filterUnits="userSpaceOnUse" color-interpolation-filters="sRGB">
<feFlood flood-opacity="0" result="BackgroundImageFix"/>
<feBlend mode="normal" in="SourceGraphic" in2="BackgroundImageFix" result="shape"/>
<feGaussianBlur stdDeviation="250" result="effect1_foregroundBlur_207_142"/>
</filter>
<filter id="filter2_f_207_142" x="553.776" y="1172.63" width="766.578" height="569.622" filterUnits="userSpaceOnUse" color-interpolation-filters="sRGB">
<feFlood flood-opacity="0" result="BackgroundImageFix"/>
<feBlend mode="normal" in="SourceGraphic" in2="BackgroundImageFix" result="shape"/>
<feGaussianBlur stdDeviation="5" result="effect1_foregroundBlur_207_142"/>
</filter>
<linearGradient id="paint0_linear_207_142" x1="146" y1="308" x2="146" y2="1114" gradientUnits="userSpaceOnUse">
<stop stop-color="#885EFE"/>
<stop offset="1" stop-color="#585858"/>
</linearGradient>
<linearGradient id="paint1_linear_207_142" x1="1834" y1="-78" x2="1834" y2="606" gradientUnits="userSpaceOnUse">
<stop stop-color="#885EFE"/>
<stop offset="1" stop-color="#585858"/>
</linearGradient>
<linearGradient id="paint2_linear_207_142" x1="1092.07" y1="1587.3" x2="1046.71" y2="1264.55" gradientUnits="userSpaceOnUse">
<stop stop-color="#FF1CF7"/>
<stop offset="1" stop-color="#885EFE"/>
</linearGradient>
<linearGradient id="paint3_linear_207_142" x1="1086.26" y1="1588.39" x2="1046.62" y2="1265.49" gradientUnits="userSpaceOnUse">
<stop stop-color="#FF1CF7"/>
<stop offset="1" stop-color="#885EFE"/>
</linearGradient>
<linearGradient id="paint4_linear_207_142" x1="1080.47" y1="1589.42" x2="1046.52" y2="1266.47" gradientUnits="userSpaceOnUse">
<stop stop-color="#FF1CF7"/>
<stop offset="1" stop-color="#885EFE"/>
</linearGradient>
<linearGradient id="paint5_linear_207_142" x1="1074.67" y1="1590.41" x2="1046.42" y2="1267.51" gradientUnits="userSpaceOnUse">
<stop stop-color="#FF1CF7"/>
<stop offset="1" stop-color="#885EFE"/>
</linearGradient>
<linearGradient id="paint6_linear_207_142" x1="1068.89" y1="1591.35" x2="1046.32" y2="1268.59" gradientUnits="userSpaceOnUse">
<stop stop-color="#FF1CF7"/>
<stop offset="1" stop-color="#885EFE"/>
</linearGradient>
<linearGradient id="paint7_linear_207_142" x1="1063.11" y1="1592.23" x2="1046.2" y2="1269.73" gradientUnits="userSpaceOnUse">
<stop stop-color="#FF1CF7"/>
<stop offset="1" stop-color="#885EFE"/>
</linearGradient>
<linearGradient id="paint8_linear_207_142" x1="1057.33" y1="1593.07" x2="1046.08" y2="1270.91" gradientUnits="userSpaceOnUse">
<stop stop-color="#FF1CF7"/>
<stop offset="1" stop-color="#885EFE"/>
</linearGradient>
<linearGradient id="paint9_linear_207_142" x1="1051.57" y1="1593.86" x2="1045.95" y2="1272.15" gradientUnits="userSpaceOnUse">
<stop stop-color="#FF1CF7"/>
<stop offset="1" stop-color="#885EFE"/>
</linearGradient>
<linearGradient id="paint10_linear_207_142" x1="1045.81" y1="1594.6" x2="1045.81" y2="1273.44" gradientUnits="userSpaceOnUse">
<stop stop-color="#FF1CF7"/>
<stop offset="1" stop-color="#885EFE"/>
</linearGradient>
<linearGradient id="paint11_linear_207_142" x1="1040.07" y1="1595.3" x2="1045.66" y2="1274.78" gradientUnits="userSpaceOnUse">
<stop stop-color="#FF1CF7"/>
<stop offset="1" stop-color="#885EFE"/>
</linearGradient>
<linearGradient id="paint12_linear_207_142" x1="1034.33" y1="1595.94" x2="1045.5" y2="1276.17" gradientUnits="userSpaceOnUse">
<stop stop-color="#FF1CF7"/>
<stop offset="1" stop-color="#885EFE"/>
</linearGradient>
<linearGradient id="paint13_linear_207_142" x1="1028.61" y1="1596.54" x2="1045.32" y2="1277.6" gradientUnits="userSpaceOnUse">
<stop stop-color="#FF1CF7"/>
<stop offset="1" stop-color="#885EFE"/>
</linearGradient>
<linearGradient id="paint14_linear_207_142" x1="1022.9" y1="1597.09" x2="1045.14" y2="1279.09" gradientUnits="userSpaceOnUse">
<stop stop-color="#FF1CF7"/>
<stop offset="1" stop-color="#885EFE"/>
</linearGradient>
<linearGradient id="paint15_linear_207_142" x1="1017.2" y1="1597.6" x2="1044.93" y2="1280.62" gradientUnits="userSpaceOnUse">
<stop stop-color="#FF1CF7"/>
<stop offset="1" stop-color="#885EFE"/>
</linearGradient>
<linearGradient id="paint16_linear_207_142" x1="1011.52" y1="1598.06" x2="1044.72" y2="1282.2" gradientUnits="userSpaceOnUse">
<stop stop-color="#FF1CF7"/>
<stop offset="1" stop-color="#885EFE"/>
</linearGradient>
<linearGradient id="paint17_linear_207_142" x1="1005.85" y1="1598.47" x2="1044.48" y2="1283.83" gradientUnits="userSpaceOnUse">
<stop stop-color="#FF1CF7"/>
<stop offset="1" stop-color="#885EFE"/>
</linearGradient>
<linearGradient id="paint18_linear_207_142" x1="1000.2" y1="1598.84" x2="1044.23" y2="1285.51" gradientUnits="userSpaceOnUse">
<stop stop-color="#FF1CF7"/>
<stop offset="1" stop-color="#885EFE"/>
</linearGradient>
<linearGradient id="paint19_linear_207_142" x1="994.562" y1="1599.16" x2="1043.97" y2="1287.24" gradientUnits="userSpaceOnUse">
<stop stop-color="#FF1CF7"/>
<stop offset="1" stop-color="#885EFE"/>
</linearGradient>
<linearGradient id="paint20_linear_207_142" x1="988.944" y1="1599.43" x2="1043.68" y2="1289.01" gradientUnits="userSpaceOnUse">
<stop stop-color="#FF1CF7"/>
<stop offset="1" stop-color="#885EFE"/>
</linearGradient>
<linearGradient id="paint21_linear_207_142" x1="983.343" y1="1599.66" x2="1043.38" y2="1290.82" gradientUnits="userSpaceOnUse">
<stop stop-color="#FF1CF7"/>
<stop offset="1" stop-color="#885EFE"/>
</linearGradient>
<linearGradient id="paint22_linear_207_142" x1="977.762" y1="1599.85" x2="1043.05" y2="1292.69" gradientUnits="userSpaceOnUse">
<stop stop-color="#FF1CF7"/>
<stop offset="1" stop-color="#885EFE"/>
</linearGradient>
<linearGradient id="paint23_linear_207_142" x1="972.199" y1="1599.99" x2="1042.71" y2="1294.6" gradientUnits="userSpaceOnUse">
<stop stop-color="#FF1CF7"/>
<stop offset="1" stop-color="#885EFE"/>
</linearGradient>
<linearGradient id="paint24_linear_207_142" x1="966.657" y1="1600.09" x2="1042.34" y2="1296.55" gradientUnits="userSpaceOnUse">
<stop stop-color="#FF1CF7"/>
<stop offset="1" stop-color="#885EFE"/>
</linearGradient>
<linearGradient id="paint25_linear_207_142" x1="961.137" y1="1600.15" x2="1041.95" y2="1298.55" gradientUnits="userSpaceOnUse">
<stop stop-color="#FF1CF7"/>
<stop offset="1" stop-color="#885EFE"/>
</linearGradient>
<linearGradient id="paint26_linear_207_142" x1="955.638" y1="1600.16" x2="1041.54" y2="1300.59" gradientUnits="userSpaceOnUse">
<stop stop-color="#FF1CF7"/>
<stop offset="1" stop-color="#885EFE"/>
</linearGradient>
<linearGradient id="paint27_linear_207_142" x1="950.16" y1="1600.14" x2="1041.1" y2="1302.67" gradientUnits="userSpaceOnUse">
<stop stop-color="#FF1CF7"/>
<stop offset="1" stop-color="#885EFE"/>
</linearGradient>
<linearGradient id="paint28_linear_207_142" x1="944.707" y1="1600.07" x2="1040.64" y2="1304.8" gradientUnits="userSpaceOnUse">
<stop stop-color="#FF1CF7"/>
<stop offset="1" stop-color="#885EFE"/>
</linearGradient>
<linearGradient id="paint29_linear_207_142" x1="939.278" y1="1599.96" x2="1040.16" y2="1306.97" gradientUnits="userSpaceOnUse">
<stop stop-color="#FF1CF7"/>
<stop offset="1" stop-color="#885EFE"/>
</linearGradient>
<linearGradient id="paint30_linear_207_142" x1="933.873" y1="1599.81" x2="1039.65" y2="1309.19" gradientUnits="userSpaceOnUse">
<stop stop-color="#FF1CF7"/>
<stop offset="1" stop-color="#885EFE"/>
</linearGradient>
<linearGradient id="paint31_linear_207_142" x1="928.493" y1="1599.61" x2="1039.11" y2="1311.44" gradientUnits="userSpaceOnUse">
<stop stop-color="#FF1CF7"/>
<stop offset="1" stop-color="#885EFE"/>
</linearGradient>
<linearGradient id="paint32_linear_207_142" x1="923.139" y1="1599.38" x2="1038.55" y2="1313.74" gradientUnits="userSpaceOnUse">
<stop stop-color="#FF1CF7"/>
<stop offset="1" stop-color="#885EFE"/>
</linearGradient>
<linearGradient id="paint33_linear_207_142" x1="917.812" y1="1599.11" x2="1037.96" y2="1316.07" gradientUnits="userSpaceOnUse">
<stop stop-color="#FF1CF7"/>
<stop offset="1" stop-color="#885EFE"/>
</linearGradient>
<linearGradient id="paint34_linear_207_142" x1="912.512" y1="1598.8" x2="1037.33" y2="1318.45" gradientUnits="userSpaceOnUse">
<stop stop-color="#FF1CF7"/>
<stop offset="1" stop-color="#885EFE"/>
</linearGradient>
<linearGradient id="paint35_linear_207_142" x1="907.239" y1="1598.46" x2="1036.68" y2="1320.86" gradientUnits="userSpaceOnUse">
<stop stop-color="#FF1CF7"/>
<stop offset="1" stop-color="#885EFE"/>
</linearGradient>
<linearGradient id="paint36_linear_207_142" x1="901.995" y1="1598.08" x2="1036.01" y2="1323.31" gradientUnits="userSpaceOnUse">
<stop stop-color="#FF1CF7"/>
<stop offset="1" stop-color="#885EFE"/>
</linearGradient>
<linearGradient id="paint37_linear_207_142" x1="896.78" y1="1597.66" x2="1035.29" y2="1325.81" gradientUnits="userSpaceOnUse">
<stop stop-color="#FF1CF7"/>
<stop offset="1" stop-color="#885EFE"/>
</linearGradient>
<linearGradient id="paint38_linear_207_142" x1="891.595" y1="1597.2" x2="1034.55" y2="1328.33" gradientUnits="userSpaceOnUse">
<stop stop-color="#FF1CF7"/>
<stop offset="1" stop-color="#885EFE"/>
</linearGradient>
<linearGradient id="paint39_linear_207_142" x1="886.441" y1="1596.71" x2="1033.78" y2="1330.9" gradientUnits="userSpaceOnUse">
<stop stop-color="#FF1CF7"/>
<stop offset="1" stop-color="#885EFE"/>
</linearGradient>
<linearGradient id="paint40_linear_207_142" x1="881.316" y1="1596.18" x2="1032.98" y2="1333.5" gradientUnits="userSpaceOnUse">
<stop stop-color="#FF1CF7"/>
<stop offset="1" stop-color="#885EFE"/>
</linearGradient>
<linearGradient id="paint41_linear_207_142" x1="876.223" y1="1595.62" x2="1032.14" y2="1336.13" gradientUnits="userSpaceOnUse">
<stop stop-color="#FF1CF7"/>
<stop offset="1" stop-color="#885EFE"/>
</linearGradient>
<linearGradient id="paint42_linear_207_142" x1="871.162" y1="1595.03" x2="1031.27" y2="1338.8" gradientUnits="userSpaceOnUse">
<stop stop-color="#FF1CF7"/>
<stop offset="1" stop-color="#885EFE"/>
</linearGradient>
<linearGradient id="paint43_linear_207_142" x1="866.134" y1="1594.4" x2="1030.36" y2="1341.51" gradientUnits="userSpaceOnUse">
<stop stop-color="#FF1CF7"/>
<stop offset="1" stop-color="#885EFE"/>
</linearGradient>
<linearGradient id="paint44_linear_207_142" x1="861.138" y1="1593.74" x2="1029.42" y2="1344.25" gradientUnits="userSpaceOnUse">
<stop stop-color="#FF1CF7"/>
<stop offset="1" stop-color="#885EFE"/>
</linearGradient>
<linearGradient id="paint45_linear_207_142" x1="856.176" y1="1593.05" x2="1028.45" y2="1347.02" gradientUnits="userSpaceOnUse">
<stop stop-color="#FF1CF7"/>
<stop offset="1" stop-color="#885EFE"/>
</linearGradient>
<linearGradient id="paint46_linear_207_142" x1="851.248" y1="1592.33" x2="1027.44" y2="1349.82" gradientUnits="userSpaceOnUse">
<stop stop-color="#FF1CF7"/>
<stop offset="1" stop-color="#885EFE"/>
</linearGradient>
<linearGradient id="paint47_linear_207_142" x1="846.355" y1="1591.57" x2="1026.39" y2="1352.66" gradientUnits="userSpaceOnUse">
<stop stop-color="#FF1CF7"/>
<stop offset="1" stop-color="#885EFE"/>
</linearGradient>
<linearGradient id="paint48_linear_207_142" x1="841.496" y1="1590.79" x2="1025.31" y2="1355.52" gradientUnits="userSpaceOnUse">
<stop stop-color="#FF1CF7"/>
<stop offset="1" stop-color="#885EFE"/>
</linearGradient>
<linearGradient id="paint49_linear_207_142" x1="836.673" y1="1589.98" x2="1024.19" y2="1358.41" gradientUnits="userSpaceOnUse">
<stop stop-color="#FF1CF7"/>
<stop offset="1" stop-color="#885EFE"/>
</linearGradient>
<linearGradient id="paint50_linear_207_142" x1="831.885" y1="1589.14" x2="1023.03" y2="1361.34" gradientUnits="userSpaceOnUse">
<stop stop-color="#FF1CF7"/>
<stop offset="1" stop-color="#885EFE"/>
</linearGradient>
<linearGradient id="paint51_linear_207_142" x1="827.134" y1="1588.27" x2="1021.84" y2="1364.29" gradientUnits="userSpaceOnUse">
<stop stop-color="#FF1CF7"/>
<stop offset="1" stop-color="#885EFE"/>
</linearGradient>
<linearGradient id="paint52_linear_207_142" x1="822.42" y1="1587.38" x2="1020.61" y2="1367.27" gradientUnits="userSpaceOnUse">
<stop stop-color="#FF1CF7"/>
<stop offset="1" stop-color="#885EFE"/>
</linearGradient>
<linearGradient id="paint53_linear_207_142" x1="817.742" y1="1586.46" x2="1019.33" y2="1370.28" gradientUnits="userSpaceOnUse">
<stop stop-color="#FF1CF7"/>
<stop offset="1" stop-color="#885EFE"/>
</linearGradient>
<linearGradient id="paint54_linear_207_142" x1="813.102" y1="1585.51" x2="1018.02" y2="1373.31" gradientUnits="userSpaceOnUse">
<stop stop-color="#FF1CF7"/>
<stop offset="1" stop-color="#885EFE"/>
</linearGradient>
<linearGradient id="paint55_linear_207_142" x1="808.5" y1="1584.54" x2="1016.67" y2="1376.37" gradientUnits="userSpaceOnUse">
<stop stop-color="#FF1CF7"/>
<stop offset="1" stop-color="#885EFE"/>
</linearGradient>
<linearGradient id="paint56_linear_207_142" x1="803.936" y1="1583.55" x2="1015.28" y2="1379.45" gradientUnits="userSpaceOnUse">
<stop stop-color="#FF1CF7"/>
<stop offset="1" stop-color="#885EFE"/>
</linearGradient>
<linearGradient id="paint57_linear_207_142" x1="799.411" y1="1582.53" x2="1013.85" y2="1382.56" gradientUnits="userSpaceOnUse">
<stop stop-color="#FF1CF7"/>
<stop offset="1" stop-color="#885EFE"/>
</linearGradient>
<linearGradient id="paint58_linear_207_142" x1="794.925" y1="1581.49" x2="1012.38" y2="1385.69" gradientUnits="userSpaceOnUse">
<stop stop-color="#FF1CF7"/>
<stop offset="1" stop-color="#885EFE"/>
</linearGradient>
<linearGradient id="paint59_linear_207_142" x1="790.478" y1="1580.42" x2="1010.87" y2="1388.84" gradientUnits="userSpaceOnUse">
<stop stop-color="#FF1CF7"/>
<stop offset="1" stop-color="#885EFE"/>
</linearGradient>
<linearGradient id="paint60_linear_207_142" x1="786.07" y1="1579.34" x2="1009.32" y2="1392.01" gradientUnits="userSpaceOnUse">
<stop stop-color="#FF1CF7"/>
<stop offset="1" stop-color="#885EFE"/>
</linearGradient>
<linearGradient id="paint61_linear_207_142" x1="781.702" y1="1578.24" x2="1007.72" y2="1395.21" gradientUnits="userSpaceOnUse">
<stop stop-color="#FF1CF7"/>
<stop offset="1" stop-color="#885EFE"/>
</linearGradient>
<linearGradient id="paint62_linear_207_142" x1="777.375" y1="1577.11" x2="1006.08" y2="1398.42" gradientUnits="userSpaceOnUse">
<stop stop-color="#FF1CF7"/>
<stop offset="1" stop-color="#885EFE"/>
</linearGradient>
<linearGradient id="paint63_linear_207_142" x1="773.087" y1="1575.97" x2="1004.41" y2="1401.66" gradientUnits="userSpaceOnUse">
<stop stop-color="#FF1CF7"/>
<stop offset="1" stop-color="#885EFE"/>
</linearGradient>
<linearGradient id="paint64_linear_207_142" x1="768.841" y1="1574.81" x2="1002.68" y2="1404.91" gradientUnits="userSpaceOnUse">
<stop stop-color="#FF1CF7"/>
<stop offset="1" stop-color="#885EFE"/>
</linearGradient>
<linearGradient id="paint65_linear_207_142" x1="764.635" y1="1573.63" x2="1000.92" y2="1408.18" gradientUnits="userSpaceOnUse">
<stop stop-color="#FF1CF7"/>
<stop offset="1" stop-color="#885EFE"/>
</linearGradient>
<linearGradient id="paint66_linear_207_142" x1="760.47" y1="1572.44" x2="999.115" y2="1411.47" gradientUnits="userSpaceOnUse">
<stop stop-color="#FF1CF7"/>
<stop offset="1" stop-color="#885EFE"/>
</linearGradient>
<linearGradient id="paint67_linear_207_142" x1="756.347" y1="1571.23" x2="997.266" y2="1414.77" gradientUnits="userSpaceOnUse">
<stop stop-color="#FF1CF7"/>
<stop offset="1" stop-color="#885EFE"/>
</linearGradient>
<linearGradient id="paint68_linear_207_142" x1="752.265" y1="1570" x2="995.373" y2="1418.09" gradientUnits="userSpaceOnUse">
<stop stop-color="#FF1CF7"/>
<stop offset="1" stop-color="#885EFE"/>
</linearGradient>
<linearGradient id="paint69_linear_207_142" x1="748.224" y1="1568.76" x2="993.437" y2="1421.43" gradientUnits="userSpaceOnUse">
<stop stop-color="#FF1CF7"/>
<stop offset="1" stop-color="#885EFE"/>
</linearGradient>
<linearGradient id="paint70_linear_207_142" x1="744.226" y1="1567.51" x2="991.458" y2="1424.77" gradientUnits="userSpaceOnUse">
<stop stop-color="#FF1CF7"/>
<stop offset="1" stop-color="#885EFE"/>
</linearGradient>
<linearGradient id="paint71_linear_207_142" x1="740.27" y1="1566.25" x2="989.435" y2="1428.13" gradientUnits="userSpaceOnUse">
<stop stop-color="#FF1CF7"/>
<stop offset="1" stop-color="#885EFE"/>
</linearGradient>
<linearGradient id="paint72_linear_207_142" x1="736.355" y1="1564.97" x2="987.368" y2="1431.5" gradientUnits="userSpaceOnUse">
<stop stop-color="#FF1CF7"/>
<stop offset="1" stop-color="#885EFE"/>
</linearGradient>
<linearGradient id="paint73_linear_207_142" x1="732.483" y1="1563.68" x2="985.257" y2="1434.89" gradientUnits="userSpaceOnUse">
<stop stop-color="#FF1CF7"/>
<stop offset="1" stop-color="#885EFE"/>
</linearGradient>
<linearGradient id="paint74_linear_207_142" x1="728.654" y1="1562.38" x2="983.102" y2="1438.28" gradientUnits="userSpaceOnUse">
<stop stop-color="#FF1CF7"/>
<stop offset="1" stop-color="#885EFE"/>
</linearGradient>
<linearGradient id="paint75_linear_207_142" x1="724.866" y1="1561.07" x2="980.903" y2="1441.68" gradientUnits="userSpaceOnUse">
<stop stop-color="#FF1CF7"/>
<stop offset="1" stop-color="#885EFE"/>
</linearGradient>
<linearGradient id="paint76_linear_207_142" x1="721.122" y1="1559.76" x2="978.659" y2="1445.09" gradientUnits="userSpaceOnUse">
<stop stop-color="#FF1CF7"/>
<stop offset="1" stop-color="#885EFE"/>
</linearGradient>
<linearGradient id="paint77_linear_207_142" x1="717.42" y1="1558.43" x2="976.372" y2="1448.51" gradientUnits="userSpaceOnUse">
<stop stop-color="#FF1CF7"/>
<stop offset="1" stop-color="#885EFE"/>
</linearGradient>
<linearGradient id="paint78_linear_207_142" x1="713.76" y1="1557.1" x2="974.04" y2="1451.94" gradientUnits="userSpaceOnUse">
<stop stop-color="#FF1CF7"/>
<stop offset="1" stop-color="#885EFE"/>
</linearGradient>
<linearGradient id="paint79_linear_207_142" x1="710.144" y1="1555.76" x2="971.663" y2="1455.37" gradientUnits="userSpaceOnUse">
<stop stop-color="#FF1CF7"/>
<stop offset="1" stop-color="#885EFE"/>
</linearGradient>
<linearGradient id="paint80_linear_207_142" x1="706.569" y1="1554.42" x2="969.243" y2="1458.81" gradientUnits="userSpaceOnUse">
<stop stop-color="#FF1CF7"/>
<stop offset="1" stop-color="#885EFE"/>
</linearGradient>
<linearGradient id="paint81_linear_207_142" x1="703.038" y1="1553.07" x2="966.778" y2="1462.26" gradientUnits="userSpaceOnUse">
<stop stop-color="#FF1CF7"/>
<stop offset="1" stop-color="#885EFE"/>
</linearGradient>
<linearGradient id="paint82_linear_207_142" x1="699.549" y1="1551.71" x2="964.268" y2="1465.7" gradientUnits="userSpaceOnUse">
<stop stop-color="#FF1CF7"/>
<stop offset="1" stop-color="#885EFE"/>
</linearGradient>
<linearGradient id="paint83_linear_207_142" x1="696.103" y1="1550.36" x2="961.714" y2="1469.15" gradientUnits="userSpaceOnUse">
<stop stop-color="#FF1CF7"/>
<stop offset="1" stop-color="#885EFE"/>
</linearGradient>
<linearGradient id="paint84_linear_207_142" x1="692.701" y1="1549" x2="959.116" y2="1472.61" gradientUnits="userSpaceOnUse">
<stop stop-color="#FF1CF7"/>
<stop offset="1" stop-color="#885EFE"/>
</linearGradient>
<linearGradient id="paint85_linear_207_142" x1="689.339" y1="1547.64" x2="956.473" y2="1476.06" gradientUnits="userSpaceOnUse">
<stop stop-color="#FF1CF7"/>
<stop offset="1" stop-color="#885EFE"/>
</linearGradient>
<linearGradient id="paint86_linear_207_142" x1="686.022" y1="1546.28" x2="953.787" y2="1479.51" gradientUnits="userSpaceOnUse">
<stop stop-color="#FF1CF7"/>
<stop offset="1" stop-color="#885EFE"/>
</linearGradient>
<linearGradient id="paint87_linear_207_142" x1="682.746" y1="1544.91" x2="951.056" y2="1482.97" gradientUnits="userSpaceOnUse">
<stop stop-color="#FF1CF7"/>
<stop offset="1" stop-color="#885EFE"/>
</linearGradient>
<linearGradient id="paint88_linear_207_142" x1="679.513" y1="1543.55" x2="948.281" y2="1486.42" gradientUnits="userSpaceOnUse">
<stop stop-color="#FF1CF7"/>
<stop offset="1" stop-color="#885EFE"/>
</linearGradient>
<linearGradient id="paint89_linear_207_142" x1="676.322" y1="1542.19" x2="945.462" y2="1489.88" gradientUnits="userSpaceOnUse">
<stop stop-color="#FF1CF7"/>
<stop offset="1" stop-color="#885EFE"/>
</linearGradient>
<linearGradient id="paint90_linear_207_142" x1="673.172" y1="1540.83" x2="942.6" y2="1493.33" gradientUnits="userSpaceOnUse">
<stop stop-color="#FF1CF7"/>
<stop offset="1" stop-color="#885EFE"/>
</linearGradient>
<linearGradient id="paint91_linear_207_142" x1="670.066" y1="1539.48" x2="939.694" y2="1496.78" gradientUnits="userSpaceOnUse">
<stop stop-color="#FF1CF7"/>
<stop offset="1" stop-color="#885EFE"/>
</linearGradient>
<linearGradient id="paint92_linear_207_142" x1="667.001" y1="1538.13" x2="936.744" y2="1500.22" gradientUnits="userSpaceOnUse">
<stop stop-color="#FF1CF7"/>
<stop offset="1" stop-color="#885EFE"/>
</linearGradient>
<linearGradient id="paint93_linear_207_142" x1="663.978" y1="1536.78" x2="933.751" y2="1503.66" gradientUnits="userSpaceOnUse">
<stop stop-color="#FF1CF7"/>
<stop offset="1" stop-color="#885EFE"/>
</linearGradient>
<linearGradient id="paint94_linear_207_142" x1="660.996" y1="1535.44" x2="930.715" y2="1507.09" gradientUnits="userSpaceOnUse">
<stop stop-color="#FF1CF7"/>
<stop offset="1" stop-color="#885EFE"/>
</linearGradient>
<linearGradient id="paint95_linear_207_142" x1="658.056" y1="1534.1" x2="927.636" y2="1510.52" gradientUnits="userSpaceOnUse">
<stop stop-color="#FF1CF7"/>
<stop offset="1" stop-color="#885EFE"/>
</linearGradient>
<linearGradient id="paint96_linear_207_142" x1="655.157" y1="1532.77" x2="924.514" y2="1513.93" gradientUnits="userSpaceOnUse">
<stop stop-color="#FF1CF7"/>
<stop offset="1" stop-color="#885EFE"/>
</linearGradient>
<linearGradient id="paint97_linear_207_142" x1="652.299" y1="1531.45" x2="921.35" y2="1517.35" gradientUnits="userSpaceOnUse">
<stop stop-color="#FF1CF7"/>
<stop offset="1" stop-color="#885EFE"/>
</linearGradient>
<linearGradient id="paint98_linear_207_142" x1="649.482" y1="1530.13" x2="918.143" y2="1520.75" gradientUnits="userSpaceOnUse">
<stop stop-color="#FF1CF7"/>
<stop offset="1" stop-color="#885EFE"/>
</linearGradient>
<linearGradient id="paint99_linear_207_142" x1="646.705" y1="1528.83" x2="914.895" y2="1524.14" gradientUnits="userSpaceOnUse">
<stop stop-color="#FF1CF7"/>
<stop offset="1" stop-color="#885EFE"/>
</linearGradient>
<linearGradient id="paint100_linear_207_142" x1="643.969" y1="1527.53" x2="911.605" y2="1527.53" gradientUnits="userSpaceOnUse">
<stop stop-color="#FF1CF7"/>
<stop offset="1" stop-color="#885EFE"/>
</linearGradient>
<clipPath id="clip0_207_142">
<rect width="1920" height="1854" fill="white"/>
</clipPath>
</defs>
</svg>
